  0
SECTION
  2
HEADER
  9
$ACADVER
  1
AC1024
  9
$ACADMAINTVER
 70
6
  9
$DWGCODEPAGE
  3
ANSI_1252
  9
$LASTSAVEDBY
  1
ezdxf
  9
$INSBASE
 10
0.0
 20
0.0
 30
0.0
  9
$EXTMIN
 10
1e+20
 20
1e+20
 30
1e+20
  9
$EXTMAX
 10
-1e+20
 20
-1e+20
 30
-1e+20
  9
$LIMMIN
 10
0.0
 20
0.0
  9
$LIMMAX
 10
420.0
 20
297.0
  9
$ORTHOMODE
 70
0
  9
$REGENMODE
 70
1
  9
$FILLMODE
 70
1
  9
$QTEXTMODE
 70
0
  9
$MIRRTEXT
 70
1
  9
$LTSCALE
 40
1.0
  9
$ATTMODE
 70
1
  9
$TEXTSIZE
 40
2.5
  9
$TRACEWID
 40
1.0
  9
$TEXTSTYLE
  7
OpenSans
  9
$CLAYER
  8
0
  9
$CELTYPE
  6
ByLayer
  9
$CECOLOR
 62
256
  9
$CELTSCALE
 40
1.0
  9
$DISPSILH
 70
0
  9
$DIMSCALE
 40
1.0
  9
$DIMASZ
 40
0.175
  9
$DIMEXO
 40
0.125
  9
$DIMDLI
 40
3.75
  9
$DIMRND
 40
0.0
  9
$DIMDLE
 40
0.0
  9
$DIMEXE
 40
0.375
  9
$DIMTP
 40
0.0
  9
$DIMTM
 40
0.0
  9
$DIMTXT
 40
0.25
  9
$DIMCEN
 40
2.5
  9
$DIMTSZ
 40
0.0
  9
$DIMTOL
 70
0
  9
$DIMLIM
 70
0
  9
$DIMTIH
 70
0
  9
$DIMTOH
 70
0
  9
$DIMSE1
 70
0
  9
$DIMSE2
 70
0
  9
$DIMTAD
 70
1
  9
$DIMZIN
 70
12
  9
$DIMBLK
  1
ARCHTICK
  9
$DIMASO
 70
1
  9
$DIMSHO
 70
1
  9
$DIMPOST
  1

  9
$DIMAPOST
  1

  9
$DIMALT
 70
0
  9
$DIMALTD
 70
3
  9
$DIMALTF
 40
0.03937007874
  9
$DIMLFAC
 40
100.0
  9
$DIMTOFL
 70
1
  9
$DIMTVP
 40
0.0
  9
$DIMTIX
 70
0
  9
$DIMSOXD
 70
0
  9
$DIMSAH
 70
0
  9
$DIMBLK1
  1

  9
$DIMBLK2
  1

  9
$DIMSTYLE
  2
EZDXF
  9
$DIMCLRD
 70
0
  9
$DIMCLRE
 70
0
  9
$DIMCLRT
 70
0
  9
$DIMTFAC
 40
0.5
  9
$DIMGAP
 40
0.1
  9
$DIMJUST
 70
0
  9
$DIMSD1
 70
0
  9
$DIMSD2
 70
0
  9
$DIMTOLJ
 70
0
  9
$DIMTZIN
 70
8
  9
$DIMALTZ
 70
0
  9
$DIMALTTZ
 70
0
  9
$DIMUPT
 70
1
  9
$DIMDEC
 70
2
  9
$DIMTDEC
 70
2
  9
$DIMALTU
 70
2
  9
$DIMALTTD
 70
3
  9
$DIMTXSTY
  7
OpenSansCondensed-Light
  9
$DIMAUNIT
 70
0
  9
$DIMADEC
 70
2
  9
$DIMALTRND
 40
0.0
  9
$DIMAZIN
 70
3
  9
$DIMDSEP
 70
46
  9
$DIMATFIT
 70
3
  9
$DIMFRAC
 70
0
  9
$DIMLDRBLK
  1

  9
$DIMLUNIT
 70
2
  9
$DIMLWD
 70
-2
  9
$DIMLWE
 70
-2
  9
$DIMTMOVE
 70
2
  9
$DIMFXL
 40
1.0
  9
$DIMFXLON
 70
0
  9
$DIMJOGANG
 40
0.785398163397
  9
$DIMTFILL
 70
0
  9
$DIMTFILLCLR
 70
0
  9
$DIMARCSYM
 70
0
  9
$DIMLTYPE
  6

  9
$DIMLTEX1
  6

  9
$DIMLTEX2
  6

  9
$DIMTXTDIRECTION
 70
0
  9
$LUNITS
 70
2
  9
$LUPREC
 70
4
  9
$SKETCHINC
 40
1.0
  9
$FILLETRAD
 40
10.0
  9
$AUNITS
 70
0
  9
$AUPREC
 70
2
  9
$MENU
  1
.
  9
$ELEVATION
 40
0.0
  9
$PELEVATION
 40
0.0
  9
$THICKNESS
 40
0.0
  9
$LIMCHECK
 70
0
  9
$CHAMFERA
 40
0.0
  9
$CHAMFERB
 40
0.0
  9
$CHAMFERC
 40
0.0
  9
$CHAMFERD
 40
0.0
  9
$SKPOLY
 70
0
  9
$TDCREATE
 40
2461237.984988426
  9
$TDUCREATE
 40
2458532.153996898
  9
$TDUPDATE
 40
2461237.984988426
  9
$TDUUPDATE
 40
2458532.1544311
  9
$TDINDWG
 40
0.0
  9
$TDUSRTIMER
 40
0.0
  9
$USRTIMER
 70
1
  9
$ANGBASE
 50
0.0
  9
$ANGDIR
 70
0
  9
$PDMODE
 70
0
  9
$PDSIZE
 40
0.0
  9
$PLINEWID
 40
0.0
  9
$SPLFRAME
 70
0
  9
$SPLINETYPE
 70
6
  9
$SPLINESEGS
 70
8
  9
$HANDSEED
  5
32E
  9
$SURFTAB1
 70
6
  9
$SURFTAB2
 70
6
  9
$SURFTYPE
 70
6
  9
$SURFU
 70
6
  9
$SURFV
 70
6
  9
$UCSBASE
  2

  9
$UCSNAME
  2

  9
$UCSORG
 10
0.0
 20
0.0
 30
0.0
  9
$UCSXDIR
 10
1.0
 20
0.0
 30
0.0
  9
$UCSYDIR
 10
0.0
 20
1.0
 30
0.0
  9
$UCSORTHOREF
  2

  9
$UCSORTHOVIEW
 70
0
  9
$UCSORGTOP
 10
0.0
 20
0.0
 30
0.0
  9
$UCSORGBOTTOM
 10
0.0
 20
0.0
 30
0.0
  9
$UCSORGLEFT
 10
0.0
 20
0.0
 30
0.0
  9
$UCSORGRIGHT
 10
0.0
 20
0.0
 30
0.0
  9
$UCSORGFRONT
 10
0.0
 20
0.0
 30
0.0
  9
$UCSORGBACK
 10
0.0
 20
0.0
 30
0.0
  9
$PUCSBASE
  2

  9
$PUCSNAME
  2

  9
$PUCSORG
 10
0.0
 20
0.0
 30
0.0
  9
$PUCSXDIR
 10
1.0
 20
0.0
 30
0.0
  9
$PUCSYDIR
 10
0.0
 20
1.0
 30
0.0
  9
$PUCSORTHOREF
  2

  9
$PUCSORTHOVIEW
 70
0
  9
$PUCSORGTOP
 10
0.0
 20
0.0
 30
0.0
  9
$PUCSORGBOTTOM
 10
0.0
 20
0.0
 30
0.0
  9
$PUCSORGLEFT
 10
0.0
 20
0.0
 30
0.0
  9
$PUCSORGRIGHT
 10
0.0
 20
0.0
 30
0.0
  9
$PUCSORGFRONT
 10
0.0
 20
0.0
 30
0.0
  9
$PUCSORGBACK
 10
0.0
 20
0.0
 30
0.0
  9
$USERI1
 70
0
  9
$USERI2
 70
0
  9
$USERI3
 70
0
  9
$USERI4
 70
0
  9
$USERI5
 70
0
  9
$USERR1
 40
0.0
  9
$USERR2
 40
0.0
  9
$USERR3
 40
0.0
  9
$USERR4
 40
0.0
  9
$USERR5
 40
0.0
  9
$WORLDVIEW
 70
1
  9
$SHADEDGE
 70
3
  9
$SHADEDIF
 70
70
  9
$TILEMODE
 70
1
  9
$MAXACTVP
 70
64
  9
$PINSBASE
 10
0.0
 20
0.0
 30
0.0
  9
$PLIMCHECK
 70
0
  9
$PEXTMIN
 10
1e+20
 20
1e+20
 30
1e+20
  9
$PEXTMAX
 10
-1e+20
 20
-1e+20
 30
-1e+20
  9
$PLIMMIN
 10
-0.0
 20
-0.0
  9
$PLIMMAX
 10
420.0
 20
594.0
  9
$UNITMODE
 70
0
  9
$VISRETAIN
 70
1
  9
$PLINEGEN
 70
0
  9
$PSLTSCALE
 70
1
  9
$TREEDEPTH
 70
3020
  9
$CMLSTYLE
  2
Standard
  9
$CMLJUST
 70
0
  9
$CMLSCALE
 40
20.0
  9
$PROXYGRAPHICS
 70
1
  9
$MEASUREMENT
 70
1
  9
$CELWEIGHT
370
-1
  9
$ENDCAPS
280
0
  9
$JOINSTYLE
280
0
  9
$LWDISPLAY
290
0
  9
$INSUNITS
 70
4
  9
$HYPERLINKBASE
  1

  9
$STYLESHEET
  1

  9
$XEDIT
290
1
  9
$CEPSNTYPE
380
0
  9
$PSTYLEMODE
290
1
  9
$FINGERPRINTGUID
  2
{F3F320D0-B3B7-4B1C-BC56-F969CB73F5F1}
  9
$VERSIONGUID
  2
{8122892B-87BD-4D69-9E6C-EAE2B6736927}
  9
$EXTNAMES
290
1
  9
$PSVPSCALE
 40
0.0
  9
$OLESTARTUP
290
0
  9
$SORTENTS
280
127
  9
$INDEXCTL
280
0
  9
$HIDETEXT
280
1
  9
$XCLIPFRAME
280
1
  9
$HALOGAP
280
0
  9
$OBSCOLOR
 70
257
  9
$OBSLTYPE
280
0
  9
$INTERSECTIONDISPLAY
280
0
  9
$INTERSECTIONCOLOR
 70
257
  9
$DIMASSOC
280
2
  9
$PROJECTNAME
  1

  9
$CAMERADISPLAY
290
0
  9
$LENSLENGTH
 40
50.0
  9
$CAMERAHEIGHT
 40
0.0
  9
$STEPSPERSEC
 40
24.0
  9
$STEPSIZE
 40
100.0
  9
$3DDWFPREC
 40
2.0
  9
$PSOLWIDTH
 40
0.005
  9
$PSOLHEIGHT
 40
0.08
  9
$LOFTANG1
 40
1.570796326795
  9
$LOFTANG2
 40
1.570796326795
  9
$LOFTMAG1
 40
0.0
  9
$LOFTMAG2
 40
0.0
  9
$LOFTPARAM
 70
7
  9
$LOFTNORMALS
280
1
  9
$LATITUDE
 40
37.795
  9
$LONGITUDE
 40
-122.394
  9
$NORTHDIRECTION
 40
0.0
  9
$TIMEZONE
 70
-8000
  9
$LIGHTGLYPHDISPLAY
280
1
  9
$TILEMODELIGHTSYNCH
280
1
  9
$CMATERIAL
347
20
  9
$SOLIDHIST
280
0
  9
$SHOWHIST
280
1
  9
$DWFFRAME
280
2
  9
$DGNFRAME
280
2
  9
$REALWORLDSCALE
290
1
  9
$INTERFERECOLOR
 62
256
  9
$CSHADOW
280
0
  9
$SHADOWPLANELOCATION
 40
0.0
  0
ENDSEC
  0
SECTION
  2
CLASSES
  0
CLASS
  1
ACDBDICTIONARYWDFLT
  2
AcDbDictionaryWithDefault
  3
ObjectDBX Classes
 90
0
 91
0
280
0
281
0
  0
CLASS
  1
SUN
  2
AcDbSun
  3
SCENEOE
 90
1153
 91
0
280
0
281
0
  0
CLASS
  1
VISUALSTYLE
  2
AcDbVisualStyle
  3
ObjectDBX Classes
 90
4095
 91
0
280
0
281
0
  0
CLASS
  1
MATERIAL
  2
AcDbMaterial
  3
ObjectDBX Classes
 90
1153
 91
0
280
0
281
0
  0
CLASS
  1
SCALE
  2
AcDbScale
  3
ObjectDBX Classes
 90
1153
 91
0
280
0
281
0
  0
CLASS
  1
TABLESTYLE
  2
AcDbTableStyle
  3
ObjectDBX Classes
 90
4095
 91
0
280
0
281
0
  0
CLASS
  1
MLEADERSTYLE
  2
AcDbMLeaderStyle
  3
ACDB_MLEADERSTYLE_CLASS
 90
4095
 91
0
280
0
281
0
  0
CLASS
  1
DICTIONARYVAR
  2
AcDbDictionaryVar
  3
ObjectDBX Classes
 90
0
 91
0
280
0
281
0
  0
CLASS
  1
CELLSTYLEMAP
  2
AcDbCellStyleMap
  3
ObjectDBX Classes
 90
1152
 91
0
280
0
281
0
  0
CLASS
  1
MENTALRAYRENDERSETTINGS
  2
AcDbMentalRayRenderSettings
  3
SCENEOE
 90
1024
 91
0
280
0
281
0
  0
CLASS
  1
ACDBDETAILVIEWSTYLE
  2
AcDbDetailViewStyle
  3
ObjectDBX Classes
 90
1025
 91
0
280
0
281
0
  0
CLASS
  1
ACDBSECTIONVIEWSTYLE
  2
AcDbSectionViewStyle
  3
ObjectDBX Classes
 90
1025
 91
0
280
0
281
0
  0
CLASS
  1
RASTERVARIABLES
  2
AcDbRasterVariables
  3
ISM
 90
0
 91
0
280
0
281
0
  0
CLASS
  1
LAYOUT
  2
AcDbLayout
  3
ObjectDBX Classes
 90
0
 91
0
280
0
281
0
  0
CLASS
  1
ACDBPLACEHOLDER
  2
AcDbPlaceHolder
  3
ObjectDBX Classes
 90
0
 91
0
280
0
281
0
  0
ENDSEC
  0
SECTION
  2
TABLES
  0
TABLE
  2
VPORT
  5
8
330
0
100
AcDbSymbolTable
 70
1
  0
VPORT
  5
23
330
8
100
AcDbSymbolTableRecord
100
AcDbViewportTableRecord
  2
*Active
 70
0
 10
0.0
 20
0.0
 11
1.0
 21
1.0
 12
0.0
 22
0.0
 13
0.0
 23
0.0
 14
0.5
 24
0.5
 15
0.5
 25
0.5
 16
0.0
 26
0.0
 36
1.0
 17
0.0
 27
0.0
 37
0.0
 40
1000.0
 41
1.34
 42
50.0
 43
0.0
 44
0.0
 50
0.0
 51
0.0
 71
0
 72
1000
 73
1
 74
3
 75
0
 76
0
 77
0
 78
0
281
0
 65
0
146
0.0
  0
ENDTAB
  0
TABLE
  2
LTYPE
  5
2
330
0
100
AcDbSymbolTable
 70
21
  0
LTYPE
  5
24
330
2
100
AcDbSymbolTableRecord
100
AcDbLinetypeTableRecord
  2
ByBlock
 70
0
  3

 72
65
 73
0
 40
0.0
  0
LTYPE
  5
25
330
2
100
AcDbSymbolTableRecord
100
AcDbLinetypeTableRecord
  2
ByLayer
 70
0
  3

 72
65
 73
0
 40
0.0
  0
LTYPE
  5
26
330
2
100
AcDbSymbolTableRecord
100
AcDbLinetypeTableRecord
  2
Continuous
 70
0
  3

 72
65
 73
0
 40
0.0
  0
LTYPE
  5
2F
330
2
100
AcDbSymbolTableRecord
100
AcDbLinetypeTableRecord
  2
CENTER
 70
0
  3
Center ____ _ ____ _ ____ _ ____ _ ____ _ ____
 72
65
 73
4
 40
5.08
 49
3.175
 74
0
 49
-0.635
 74
0
 49
0.635
 74
0
 49
-0.635
 74
0
  0
LTYPE
  5
30
330
2
100
AcDbSymbolTableRecord
100
AcDbLinetypeTableRecord
  2
CENTERX2
 70
0
  3
Center (2x) ________  __  ________  __  ________
 72
65
 73
4
 40
8.89
 49
6.35
 74
0
 49
-0.635
 74
0
 49
1.27
 74
0
 49
-0.635
 74
0
  0
LTYPE
  5
31
330
2
100
AcDbSymbolTableRecord
100
AcDbLinetypeTableRecord
  2
CENTER2
 70
0
  3
Center (.5x) ____ _ ____ _ ____ _ ____ _ ____
 72
65
 73
4
 40
2.54
 49
1.587
 74
0
 49
-0.318
 74
0
 49
0.318
 74
0
 49
-0.318
 74
0
  0
LTYPE
  5
32
330
2
100
AcDbSymbolTableRecord
100
AcDbLinetypeTableRecord
  2
DASHED
 70
0
  3
Dashed __ __ __ __ __ __ __ __ __ __ __ __ __ _
 72
65
 73
2
 40
1.524
 49
1.27
 74
0
 49
-0.254
 74
0
  0
LTYPE
  5
33
330
2
100
AcDbSymbolTableRecord
100
AcDbLinetypeTableRecord
  2
DASHEDX2
 70
0
  3
Dashed (2x) ____  ____  ____  ____  ____  ____
 72
65
 73
2
 40
3.048
 49
2.54
 74
0
 49
-0.508
 74
0
  0
LTYPE
  5
34
330
2
100
AcDbSymbolTableRecord
100
AcDbLinetypeTableRecord
  2
DASHED2
 70
0
  3
Dashed (.5x) _ _ _ _ _ _ _ _ _ _ _ _ _ _
 72
65
 73
2
 40
0.762
 49
0.635
 74
0
 49
-0.127
 74
0
  0
LTYPE
  5
35
330
2
100
AcDbSymbolTableRecord
100
AcDbLinetypeTableRecord
  2
PHANTOM
 70
0
  3
Phantom ______  __  __  ______  __  __  ______
 72
65
 73
6
 40
6.35
 49
3.175
 74
0
 49
-0.635
 74
0
 49
0.635
 74
0
 49
-0.635
 74
0
 49
0.635
 74
0
 49
-0.635
 74
0
  0
LTYPE
  5
36
330
2
100
AcDbSymbolTableRecord
100
AcDbLinetypeTableRecord
  2
PHANTOMX2
 70
0
  3
Phantom (2x)____________    ____    ____    ____________
 72
65
 73
6
 40
10.795
 49
6.35
 74
0
 49
-0.635
 74
0
 49
1.27
 74
0
 49
-0.635
 74
0
 49
1.27
 74
0
 49
-0.635
 74
0
  0
LTYPE
  5
37
330
2
100
AcDbSymbolTableRecord
100
AcDbLinetypeTableRecord
  2
PHANTOM2
 70
0
  3
Phantom (.5x) ___ _ _ ___ _ _ ___ _ _ ___ _ _ ___
 72
65
 73
6
 40
3.175
 49
1.587
 74
0
 49
-0.318
 74
0
 49
0.318
 74
0
 49
-0.318
 74
0
 49
0.318
 74
0
 49
-0.318
 74
0
  0
LTYPE
  5
38
330
2
100
AcDbSymbolTableRecord
100
AcDbLinetypeTableRecord
  2
DASHDOT
 70
0
  3
Dash dot __ . __ . __ . __ . __ . __ . __ . __
 72
65
 73
4
 40
3.556
 49
2.54
 74
0
 49
-0.508
 74
0
 49
0.0
 74
0
 49
-0.508
 74
0
  0
LTYPE
  5
39
330
2
100
AcDbSymbolTableRecord
100
AcDbLinetypeTableRecord
  2
DASHDOTX2
 70
0
  3
Dash dot (2x) ____  .  ____  .  ____  .  ____
 72
65
 73
4
 40
6.096
 49
5.08
 74
0
 49
-0.508
 74
0
 49
0.0
 74
0
 49
-0.508
 74
0
  0
LTYPE
  5
3A
330
2
100
AcDbSymbolTableRecord
100
AcDbLinetypeTableRecord
  2
DASHDOT2
 70
0
  3
Dash dot (.5x) _ . _ . _ . _ . _ . _ . _ . _
 72
65
 73
4
 40
1.778
 49
1.27
 74
0
 49
-0.254
 74
0
 49
0.0
 74
0
 49
-0.254
 74
0
  0
LTYPE
  5
3B
330
2
100
AcDbSymbolTableRecord
100
AcDbLinetypeTableRecord
  2
DOT
 70
0
  3
Dot .  .  .  .  .  .  .  .  .  .  .  .  .  .  .  .
 72
65
 73
2
 40
0.508
 49
0.0
 74
0
 49
-0.508
 74
0
  0
LTYPE
  5
3C
330
2
100
AcDbSymbolTableRecord
100
AcDbLinetypeTableRecord
  2
DOTX2
 70
0
  3
Dot (2x) .    .    .    .    .    .    .    . 
 72
65
 73
2
 40
1.016
 49
0.0
 74
0
 49
-1.016
 74
0
  0
LTYPE
  5
3D
330
2
100
AcDbSymbolTableRecord
100
AcDbLinetypeTableRecord
  2
DOT2
 70
0
  3
Dot (.5) . . . . . . . . . . . . . . . . . . . 
 72
65
 73
2
 40
0.254
 49
0.0
 74
0
 49
-0.254
 74
0
  0
LTYPE
  5
3E
330
2
100
AcDbSymbolTableRecord
100
AcDbLinetypeTableRecord
  2
DIVIDE
 70
0
  3
Divide __ . . __ . . __ . . __ . . __ . . __
 72
65
 73
6
 40
4.064
 49
2.54
 74
0
 49
-0.508
 74
0
 49
0.0
 74
0
 49
-0.508
 74
0
 49
0.0
 74
0
 49
-0.508
 74
0
  0
LTYPE
  5
3F
330
2
100
AcDbSymbolTableRecord
100
AcDbLinetypeTableRecord
  2
DIVIDEX2
 70
0
  3
Divide (2x) ____  . .  ____  . .  ____  . .  ____
 72
65
 73
6
 40
6.604
 49
5.08
 74
0
 49
-0.508
 74
0
 49
0.0
 74
0
 49
-0.508
 74
0
 49
0.0
 74
0
 49
-0.508
 74
0
  0
LTYPE
  5
40
330
2
100
AcDbSymbolTableRecord
100
AcDbLinetypeTableRecord
  2
DIVIDE2
 70
0
  3
Divide(.5x) _ . _ . _ . _ . _ . _ . _ . _
 72
65
 73
6
 40
2.032
 49
1.27
 74
0
 49
-0.254
 74
0
 49
0.0
 74
0
 49
-0.254
 74
0
 49
0.0
 74
0
 49
-0.254
 74
0
  0
ENDTAB
  0
TABLE
  2
LAYER
  5
1
330
0
100
AcDbSymbolTable
 70
17
  0
LAYER
  5
27
330
1
100
AcDbSymbolTableRecord
100
AcDbLayerTableRecord
  2
0
 70
0
 62
7
  6
Continuous
370
-3
390
13
347
21
  0
LAYER
  5
28
330
1
100
AcDbSymbolTableRecord
100
AcDbLayerTableRecord
  2
Defpoints
 70
0
 62
7
  6
Continuous
290
0
370
-3
390
13
347
21
  0
LAYER
  5
8A
330
1
100
AcDbSymbolTableRecord
100
AcDbLayerTableRecord
  2
BORDER
 70
0
 62
7
  6
Continuous
370
35
390
13
347
21
  0
LAYER
  5
8B
330
1
100
AcDbSymbolTableRecord
100
AcDbLayerTableRecord
  2
TITLE
 70
0
 62
7
  6
Continuous
370
20
390
13
347
21
  0
LAYER
  5
8C
330
1
100
AcDbSymbolTableRecord
100
AcDbLayerTableRecord
  2
TEXT
 70
0
 62
7
  6
Continuous
370
20
390
13
347
21
  0
LAYER
  5
8D
330
1
100
AcDbSymbolTableRecord
100
AcDbLayerTableRecord
  2
LABEL
 70
0
 62
7
  6
Continuous
370
20
390
13
347
21
  0
LAYER
  5
8E
330
1
100
AcDbSymbolTableRecord
100
AcDbLayerTableRecord
  2
TABLE
 70
0
 62
7
  6
Continuous
370
25
390
13
347
21
  0
LAYER
  5
8F
330
1
100
AcDbSymbolTableRecord
100
AcDbLayerTableRecord
  2
NOTES
 70
0
 62
7
  6
Continuous
370
18
390
13
347
21
  0
LAYER
  5
90
330
1
100
AcDbSymbolTableRecord
100
AcDbLayerTableRecord
  2
SYMBOL
 70
0
 62
2
  6
Continuous
370
20
390
13
347
21
  0
LAYER
  5
91
330
1
100
AcDbSymbolTableRecord
100
AcDbLayerTableRecord
  2
PIPE
 70
0
 62
4
  6
Continuous
370
53
390
13
347
21
  0
LAYER
  5
92
330
1
100
AcDbSymbolTableRecord
100
AcDbLayerTableRecord
  2
DIM
 70
0
 62
2
  6
Continuous
370
20
390
13
347
21
  0
LAYER
  5
93
330
1
100
AcDbSymbolTableRecord
100
AcDbLayerTableRecord
  2
CALLOUT
 70
0
 62
3
  6
Continuous
370
35
390
13
347
21
  0
LAYER
  5
94
330
1
100
AcDbSymbolTableRecord
100
AcDbLayerTableRecord
  2
COMPONENT
 70
0
 62
4
  6
Continuous
370
50
390
13
347
21
  0
LAYER
  5
95
330
1
100
AcDbSymbolTableRecord
100
AcDbLayerTableRecord
  2
COMPANY
 70
0
 62
4
  6
Continuous
370
20
390
13
347
21
  0
LAYER
  5
96
330
1
100
AcDbSymbolTableRecord
100
AcDbLayerTableRecord
  2
HIGHLIGHT
 70
0
 62
3
  6
Continuous
370
20
390
13
347
21
  0
LAYER
  5
97
330
1
100
AcDbSymbolTableRecord
100
AcDbLayerTableRecord
  2
CENTER
 70
0
 62
2
  6
CENTER
370
20
390
13
347
21
  0
LAYER
  5
98
330
1
100
AcDbSymbolTableRecord
100
AcDbLayerTableRecord
  2
VIEWPORTS
 70
0
 62
8
  6
Continuous
290
0
370
5
390
13
347
21
  0
ENDTAB
  0
TABLE
  2
STYLE
  5
5
330
0
100
AcDbSymbolTable
 70
29
  0
STYLE
  5
29
330
5
100
AcDbSymbolTableRecord
100
AcDbTextStyleTableRecord
  2
Standard
 70
0
 40
0.0
 41
1.0
 50
0.0
 71
0
 42
2.5
  3
txt
  4

  0
STYLE
  5
41
330
5
100
AcDbSymbolTableRecord
100
AcDbTextStyleTableRecord
  2
OpenSans-Light
 70
0
 40
0.0
 41
1.0
 50
0.0
 71
0
 42
2.5
  3
OpenSans-Light.ttf
  4

  0
STYLE
  5
42
330
5
100
AcDbSymbolTableRecord
100
AcDbTextStyleTableRecord
  2
OpenSans-Light-Italic
 70
0
 40
0.0
 41
1.0
 50
0.0
 71
0
 42
2.5
  3
OpenSans-LightItalic.ttf
  4

  0
STYLE
  5
43
330
5
100
AcDbSymbolTableRecord
100
AcDbTextStyleTableRecord
  2
OpenSans
 70
0
 40
0.0
 41
1.0
 50
0.0
 71
0
 42
2.5
  3
OpenSans-Regular.ttf
  4

  0
STYLE
  5
44
330
5
100
AcDbSymbolTableRecord
100
AcDbTextStyleTableRecord
  2
OpenSans-Italic
 70
0
 40
0.0
 41
1.0
 50
0.0
 71
0
 42
2.5
  3
OpenSans-Italic.ttf
  4

  0
STYLE
  5
45
330
5
100
AcDbSymbolTableRecord
100
AcDbTextStyleTableRecord
  2
OpenSans-SemiBold
 70
0
 40
0.0
 41
1.0
 50
0.0
 71
0
 42
2.5
  3
OpenSans-SemiBold.ttf
  4

  0
STYLE
  5
46
330
5
100
AcDbSymbolTableRecord
100
AcDbTextStyleTableRecord
  2
OpenSans-SemiBoldItalic
 70
0
 40
0.0
 41
1.0
 50
0.0
 71
0
 42
2.5
  3
OpenSans-SemiBoldItalic.ttf
  4

  0
STYLE
  5
47
330
5
100
AcDbSymbolTableRecord
100
AcDbTextStyleTableRecord
  2
OpenSans-Bold
 70
0
 40
0.0
 41
1.0
 50
0.0
 71
0
 42
2.5
  3
OpenSans-Bold.ttf
  4

  0
STYLE
  5
48
330
5
100
AcDbSymbolTableRecord
100
AcDbTextStyleTableRecord
  2
OpenSans-BoldItalic
 70
0
 40
0.0
 41
1.0
 50
0.0
 71
0
 42
2.5
  3
OpenSans-BoldItalic.ttf
  4

  0
STYLE
  5
49
330
5
100
AcDbSymbolTableRecord
100
AcDbTextStyleTableRecord
  2
OpenSans-ExtraBold
 70
0
 40
0.0
 41
1.0
 50
0.0
 71
0
 42
2.5
  3
OpenSans-ExtraBold.ttf
  4

  0
STYLE
  5
4A
330
5
100
AcDbSymbolTableRecord
100
AcDbTextStyleTableRecord
  2
OpenSans-ExtraBoldItalic
 70
0
 40
0.0
 41
1.0
 50
0.0
 71
0
 42
2.5
  3
OpenSans-ExtraBoldItalic.ttf
  4

  0
STYLE
  5
4B
330
5
100
AcDbSymbolTableRecord
100
AcDbTextStyleTableRecord
  2
OpenSansCondensed-Bold
 70
0
 40
0.0
 41
1.0
 50
0.0
 71
0
 42
2.5
  3
OpenSansCondensed-Bold.ttf
  4

  0
STYLE
  5
4C
330
5
100
AcDbSymbolTableRecord
100
AcDbTextStyleTableRecord
  2
OpenSansCondensed-Light
 70
0
 40
0.0
 41
1.0
 50
0.0
 71
0
 42
2.5
  3
OpenSansCondensed-Light.ttf
  4

  0
STYLE
  5
4D
330
5
100
AcDbSymbolTableRecord
100
AcDbTextStyleTableRecord
  2
OpenSansCondensed-Italic
 70
0
 40
0.0
 41
1.0
 50
0.0
 71
0
 42
2.5
  3
OpenSansCondensed-LightItalic.ttf
  4

  0
STYLE
  5
4E
330
5
100
AcDbSymbolTableRecord
100
AcDbTextStyleTableRecord
  2
LiberationSans
 70
0
 40
0.0
 41
1.0
 50
0.0
 71
0
 42
2.5
  3
LiberationSans-Regular.ttf
  4

  0
STYLE
  5
4F
330
5
100
AcDbSymbolTableRecord
100
AcDbTextStyleTableRecord
  2
LiberationSans-Bold
 70
0
 40
0.0
 41
1.0
 50
0.0
 71
0
 42
2.5
  3
LiberationSans-Bold.ttf
  4

  0
STYLE
  5
50
330
5
100
AcDbSymbolTableRecord
100
AcDbTextStyleTableRecord
  2
LiberationSans-BoldItalic
 70
0
 40
0.0
 41
1.0
 50
0.0
 71
0
 42
2.5
  3
LiberationSans-BoldItalic.ttf
  4

  0
STYLE
  5
51
330
5
100
AcDbSymbolTableRecord
100
AcDbTextStyleTableRecord
  2
LiberationSans-Italic
 70
0
 40
0.0
 41
1.0
 50
0.0
 71
0
 42
2.5
  3
LiberationSans-Italic.ttf
  4

  0
STYLE
  5
52
330
5
100
AcDbSymbolTableRecord
100
AcDbTextStyleTableRecord
  2
LiberationSerif
 70
0
 40
0.0
 41
1.0
 50
0.0
 71
0
 42
2.5
  3
LiberationSerif-Regular.ttf
  4

  0
STYLE
  5
53
330
5
100
AcDbSymbolTableRecord
100
AcDbTextStyleTableRecord
  2
LiberationSerif-Bold
 70
0
 40
0.0
 41
1.0
 50
0.0
 71
0
 42
2.5
  3
LiberationSerif-Bold.ttf
  4

  0
STYLE
  5
54
330
5
100
AcDbSymbolTableRecord
100
AcDbTextStyleTableRecord
  2
LiberationSerif-BoldItalic
 70
0
 40
0.0
 41
1.0
 50
0.0
 71
0
 42
2.5
  3
LiberationSerif-BoldItalic.ttf
  4

  0
STYLE
  5
55
330
5
100
AcDbSymbolTableRecord
100
AcDbTextStyleTableRecord
  2
LiberationSerif-Italic
 70
0
 40
0.0
 41
1.0
 50
0.0
 71
0
 42
2.5
  3
LiberationSerif-Italic.ttf
  4

  0
STYLE
  5
56
330
5
100
AcDbSymbolTableRecord
100
AcDbTextStyleTableRecord
  2
LiberationMono
 70
0
 40
0.0
 41
1.0
 50
0.0
 71
0
 42
2.5
  3
LiberationMono-Regular.ttf
  4

  0
STYLE
  5
57
330
5
100
AcDbSymbolTableRecord
100
AcDbTextStyleTableRecord
  2
LiberationMono-Bold
 70
0
 40
0.0
 41
1.0
 50
0.0
 71
0
 42
2.5
  3
LiberationMono-Bold.ttf
  4

  0
STYLE
  5
58
330
5
100
AcDbSymbolTableRecord
100
AcDbTextStyleTableRecord
  2
LiberationMono-BoldItalic
 70
0
 40
0.0
 41
1.0
 50
0.0
 71
0
 42
2.5
  3
LiberationMono-BoldItalic.ttf
  4

  0
STYLE
  5
59
330
5
100
AcDbSymbolTableRecord
100
AcDbTextStyleTableRecord
  2
LiberationMono-Italic
 70
0
 40
0.0
 41
1.0
 50
0.0
 71
0
 42
2.5
  3
LiberationMono-Italic.ttf
  4

  0
STYLE
  5
99
330
5
100
AcDbSymbolTableRecord
100
AcDbTextStyleTableRecord
  2
CRE_ARIAL_NARROW
 70
0
 40
0.0
 41
1.0
 50
0.0
 71
0
 42
2.5
  3
Arial Narrow.ttf
  4

  0
STYLE
  5
9A
330
5
100
AcDbSymbolTableRecord
100
AcDbTextStyleTableRecord
  2
CRE_ARIAL_NARROW_BOLD
 70
0
 40
0.0
 41
1.0
 50
0.0
 71
0
 42
2.5
  3
Arial Narrow Bold.ttf
  4

  0
STYLE
  5
9B
330
5
100
AcDbSymbolTableRecord
100
AcDbTextStyleTableRecord
  2
CRE_ROMANS
 70
0
 40
0.0
 41
1.0
 50
0.0
 71
0
 42
2.5
  3
romans.shx
  4

  0
ENDTAB
  0
TABLE
  2
VIEW
  5
7
330
0
100
AcDbSymbolTable
 70
0
  0
ENDTAB
  0
TABLE
  2
UCS
  5
6
330
0
100
AcDbSymbolTable
 70
0
  0
ENDTAB
  0
TABLE
  2
APPID
  5
3
330
0
100
AcDbSymbolTable
 70
3
  0
APPID
  5
2A
330
3
100
AcDbSymbolTableRecord
100
AcDbRegAppTableRecord
  2
ACAD
 70
0
  0
APPID
  5
32B
330
3
100
AcDbSymbolTableRecord
100
AcDbRegAppTableRecord
  2
HATCHBACKGROUNDCOLOR
 70
0
  0
APPID
  5
32C
330
3
100
AcDbSymbolTableRecord
100
AcDbRegAppTableRecord
  2
EZDXF
 70
0
  0
ENDTAB
  0
TABLE
  2
DIMSTYLE
  5
4
330
0
100
AcDbSymbolTable
 70
13
100
AcDbDimStyleTable
  0
DIMSTYLE
105
2B
330
4
100
AcDbSymbolTableRecord
100
AcDbDimStyleTableRecord
  2
Standard
 70
0
 40
1.0
 41
2.5
 42
0.625
 43
3.75
 44
1.25
 45
0.0
 46
0.0
 47
0.0
 48
0.0
 49
2.5
140
2.5
141
2.5
142
0.0
143
0.03937007874
144
1.0
145
0.0
146
1.0
147
0.625
148
0.0
 69
0
 70
0
 71
0
 72
0
 73
0
 74
0
 75
0
 76
0
 77
1
 78
8
 79
3
170
0
171
3
172
1
173
0
174
0
175
0
176
0
177
0
178
0
179
2
271
2
272
2
273
2
274
3
275
0
276
0
277
2
278
44
279
0
280
0
281
0
282
0
283
0
284
8
285
0
286
0
288
0
289
3
290
0
371
-2
372
-2
  0
DIMSTYLE
105
73
330
4
100
AcDbSymbolTableRecord
100
AcDbDimStyleTableRecord
  2
EZDXF
 70
0
 40
1.0
 41
0.175
 42
0.125
 43
3.75
 44
0.375
 45
0.0
 46
0.0
 47
0.0
 48
0.0
 49
2.5
140
0.25
141
2.5
142
0.0
143
0.03937007874
144
100.0
145
0.0
146
0.5
147
0.1
148
0.0
 69
0
 70
0
 71
0
 72
0
 73
0
 74
0
 75
0
 76
0
 77
1
 78
12
 79
3
170
0
171
3
172
1
173
0
174
0
175
0
176
0
177
0
178
0
179
2
271
2
272
2
273
2
274
3
275
0
276
0
277
2
278
46
279
2
280
0
281
0
282
0
283
0
284
8
285
0
286
0
288
1
289
3
290
0
340
4C
342
74
371
-2
372
-2
  0
DIMSTYLE
105
7C
330
4
100
AcDbSymbolTableRecord
100
AcDbDimStyleTableRecord
  2
EZ_M_100_H25_CM
 70
0
 40
1.0
 41
0.25
 42
0.125
 43
3.75
 44
0.375
 45
0.0
 46
0.0
 47
0.0
 48
0.0
 49
2.5
140
0.25
141
2.5
142
0.125
143
0.03937007874
144
100.0
145
0.0
146
0.5
147
0.1
148
0.0
 69
0
 70
0
 71
0
 72
0
 73
0
 74
0
 75
0
 76
0
 77
1
 78
12
 79
3
170
0
171
3
172
1
173
0
174
0
175
0
176
0
177
0
178
0
179
2
271
2
272
2
273
2
274
3
275
0
276
0
277
2
278
46
279
2
280
0
281
0
282
0
283
0
284
8
285
0
286
0
288
1
289
3
290
0
340
4C
371
-2
372
-2
  0
DIMSTYLE
105
7D
330
4
100
AcDbSymbolTableRecord
100
AcDbDimStyleTableRecord
  2
EZ_M_50_H25_CM
 70
0
 40
1.0
 41
0.125
 42
0.0625
 43
3.75
 44
0.1875
 45
0.0
 46
0.0
 47
0.0
 48
0.0
 49
2.5
140
0.125
141
2.5
142
0.0625
143
0.03937007874
144
100.0
145
0.0
146
0.5
147
0.05
148
0.0
 69
0
 70
0
 71
0
 72
0
 73
0
 74
0
 75
0
 76
0
 77
1
 78
12
 79
3
170
0
171
3
172
1
173
0
174
0
175
0
176
0
177
0
178
0
179
2
271
2
272
2
273
2
274
3
275
0
276
0
277
2
278
46
279
2
280
0
281
0
282
0
283
0
284
8
285
0
286
0
288
1
289
3
290
0
340
4C
371
-2
372
-2
  0
DIMSTYLE
105
7E
330
4
100
AcDbSymbolTableRecord
100
AcDbDimStyleTableRecord
  2
EZ_M_25_H25_CM
 70
0
 40
1.0
 41
0.0625
 42
0.03125
 43
3.75
 44
0.09375
 45
0.0
 46
0.0
 47
0.0
 48
0.0
 49
2.5
140
0.0625
141
2.5
142
0.03125
143
0.03937007874
144
100.0
145
0.0
146
0.5
147
0.025
148
0.0
 69
0
 70
0
 71
0
 72
0
 73
0
 74
0
 75
0
 76
0
 77
1
 78
12
 79
3
170
0
171
3
172
1
173
0
174
0
175
0
176
0
177
0
178
0
179
2
271
2
272
2
273
2
274
3
275
0
276
0
277
2
278
46
279
2
280
0
281
0
282
0
283
0
284
8
285
0
286
0
288
1
289
3
290
0
340
4C
371
-2
372
-2
  0
DIMSTYLE
105
7F
330
4
100
AcDbSymbolTableRecord
100
AcDbDimStyleTableRecord
  2
EZ_M_20_H25_CM
 70
0
 40
1.0
 41
0.05
 42
0.025
 43
3.75
 44
0.07500000000000001
 45
0.0
 46
0.0
 47
0.0
 48
0.0
 49
2.5
140
0.05
141
2.5
142
0.025
143
0.03937007874
144
100.0
145
0.0
146
0.5
147
0.020000000000000004
148
0.0
 69
0
 70
0
 71
0
 72
0
 73
0
 74
0
 75
0
 76
0
 77
1
 78
12
 79
3
170
0
171
3
172
1
173
0
174
0
175
0
176
0
177
0
178
0
179
2
271
2
272
2
273
2
274
3
275
0
276
0
277
2
278
46
279
2
280
0
281
0
282
0
283
0
284
8
285
0
286
0
288
1
289
3
290
0
340
4C
371
-2
372
-2
  0
DIMSTYLE
105
80
330
4
100
AcDbSymbolTableRecord
100
AcDbDimStyleTableRecord
  2
EZ_M_10_H25_CM
 70
0
 40
1.0
 41
0.025
 42
0.0125
 43
3.75
 44
0.037500000000000006
 45
0.0
 46
0.0
 47
0.0
 48
0.0
 49
2.5
140
0.025
141
2.5
142
0.0125
143
0.03937007874
144
100.0
145
0.0
146
0.5
147
0.010000000000000002
148
0.0
 69
0
 70
0
 71
0
 72
0
 73
0
 74
0
 75
0
 76
0
 77
1
 78
12
 79
3
170
0
171
3
172
1
173
0
174
0
175
0
176
0
177
0
178
0
179
2
271
2
272
2
273
2
274
3
275
0
276
0
277
2
278
46
279
2
280
0
281
0
282
0
283
0
284
8
285
0
286
0
288
1
289
3
290
0
340
4C
371
-2
372
-2
  0
DIMSTYLE
105
81
330
4
100
AcDbSymbolTableRecord
100
AcDbDimStyleTableRecord
  2
EZ_M_5_H25_CM
 70
0
 40
1.0
 41
0.0125
 42
0.00625
 43
3.75
 44
0.018750000000000003
 45
0.0
 46
0.0
 47
0.0
 48
0.0
 49
2.5
140
0.0125
141
2.5
142
0.00625
143
0.03937007874
144
100.0
145
0.0
146
0.5
147
0.005000000000000001
148
0.0
 69
0
 70
0
 71
0
 72
0
 73
0
 74
0
 75
0
 76
0
 77
1
 78
12
 79
3
170
0
171
3
172
1
173
0
174
0
175
0
176
0
177
0
178
0
179
2
271
2
272
2
273
2
274
3
275
0
276
0
277
2
278
46
279
2
280
0
281
0
282
0
283
0
284
8
285
0
286
0
288
1
289
3
290
0
340
4C
371
-2
372
-2
  0
DIMSTYLE
105
82
330
4
100
AcDbSymbolTableRecord
100
AcDbDimStyleTableRecord
  2
EZ_M_1_H25_CM
 70
0
 40
1.0
 41
0.0025
 42
0.00125
 43
3.75
 44
0.00375
 45
0.0
 46
0.0
 47
0.0
 48
0.0
 49
2.5
140
0.0025
141
2.5
142
0.00125
143
0.03937007874
144
100.0
145
0.0
146
0.5
147
0.001
148
0.0
 69
0
 70
0
 71
0
 72
0
 73
0
 74
0
 75
0
 76
0
 77
1
 78
12
 79
3
170
0
171
3
172
1
173
0
174
0
175
0
176
0
177
0
178
0
179
2
271
2
272
2
273
2
274
3
275
0
276
0
277
2
278
46
279
2
280
0
281
0
282
0
283
0
284
8
285
0
286
0
288
1
289
3
290
0
340
4C
371
-2
372
-2
  0
DIMSTYLE
105
83
330
4
100
AcDbSymbolTableRecord
100
AcDbDimStyleTableRecord
  2
EZ_RADIUS
 70
0
 40
1.0
 41
0.25
 42
0.125
 43
3.75
 44
0.375
 45
0.0
 46
0.0
 47
0.0
 48
0.0
 49
2.5
140
0.25
141
0.0
142
0.0
143
0.03937007874
144
100.0
145
0.0
146
0.5
147
0.1
148
0.0
 69
0
 70
0
 71
0
 72
0
 73
0
 74
0
 75
0
 76
0
 77
1
 78
12
 79
3
170
0
171
3
172
0
173
0
174
0
175
0
176
0
177
0
178
0
179
2
271
2
272
2
273
2
274
3
275
0
276
0
277
2
278
46
279
1
280
0
281
0
282
0
283
0
284
8
285
0
286
0
288
1
289
3
290
0
340
4C
342
84
371
-2
372
-2
  0
DIMSTYLE
105
88
330
4
100
AcDbSymbolTableRecord
100
AcDbDimStyleTableRecord
  2
EZ_RADIUS_INSIDE
 70
0
 40
1.0
 41
0.25
 42
0.125
 43
3.75
 44
0.375
 45
0.0
 46
0.0
 47
0.0
 48
0.0
 49
2.5
140
0.25
141
0.0
142
0.0
143
0.03937007874
144
100.0
145
0.0
146
0.5
147
0.1
148
0.0
 69
0
 70
0
 71
0
 72
0
 73
0
 74
0
 75
0
 76
0
 77
0
 78
12
 79
3
170
0
171
3
172
0
173
0
174
1
175
0
176
0
177
0
178
0
179
2
271
2
272
2
273
2
274
3
275
0
276
0
277
2
278
46
279
0
280
0
281
0
282
0
283
0
284
8
285
0
286
0
288
1
289
0
290
0
340
4C
342
84
371
-2
372
-2
  0
DIMSTYLE
105
89
330
4
100
AcDbSymbolTableRecord
100
AcDbDimStyleTableRecord
  2
EZ_CURVED
 70
0
 40
1.0
 41
0.25
 42
0.125
 43
3.75
 44
0.375
 45
0.0
 46
0.0
 47
0.0
 48
0.0
 49
2.5
140
0.25
141
2.5
142
0.0
143
0.03937007874
144
100.0
145
0.0
146
0.5
147
0.1
148
0.0
 69
0
 70
0
 71
0
 72
0
 73
0
 74
0
 75
0
 76
0
 77
1
 78
12
 79
2
 90
2
170
0
171
3
172
1
173
0
174
0
175
0
176
0
177
0
178
0
179
2
271
2
272
2
273
2
274
3
275
0
276
0
277
2
278
46
279
2
280
0
281
0
282
0
283
0
284
8
285
0
286
0
288
1
289
3
290
0
340
4C
371
-2
372
-2
  0
DIMSTYLE
105
9C
330
4
100
AcDbSymbolTableRecord
100
AcDbDimStyleTableRecord
  2
CRE_PTFE_DIM
 70
0
 40
1.0
 41
2.1
 42
1.05
 43
3.75
 44
1.05
 45
0.0
 46
0.0
 47
0.0
 48
0.0
 49
2.5
140
2.1
141
2.5
142
0.0
143
0.03937007874
144
1.0
145
0.0
146
1.0
147
0.8400000000000001
148
0.0
 69
0
 70
0
 71
0
 72
0
 73
0
 74
0
 75
0
 76
0
 77
1
 78
12
 79
3
170
0
171
3
172
1
173
0
174
0
175
1
176
2
177
2
178
2
179
2
271
0
272
2
273
2
274
3
275
0
276
0
277
2
278
44
279
0
280
0
281
0
282
0
283
0
284
8
285
0
286
0
288
0
289
3
290
0
340
9B
371
20
372
20
  0
ENDTAB
  0
TABLE
  2
BLOCK_RECORD
  5
9
330
0
100
AcDbSymbolTable
 70
26
  0
BLOCK_RECORD
  5
17
330
9
100
AcDbSymbolTableRecord
100
AcDbBlockTableRecord
  2
*Model_Space
340
1A
 70
0
280
1
281
0
  0
BLOCK_RECORD
  5
1B
330
9
100
AcDbSymbolTableRecord
100
AcDbBlockTableRecord
  2
*Paper_Space
340
1E
 70
0
280
1
281
0
  0
BLOCK_RECORD
  5
74
330
9
100
AcDbSymbolTableRecord
100
AcDbBlockTableRecord
  2
_ARCHTICK
340
0
 70
0
280
1
281
0
  0
BLOCK_RECORD
  5
78
330
9
100
AcDbSymbolTableRecord
100
AcDbBlockTableRecord
  2
_CLOSEDFILLED
340
0
 70
0
280
1
281
0
  0
BLOCK_RECORD
  5
84
330
9
100
AcDbSymbolTableRecord
100
AcDbBlockTableRecord
  2
_CLOSEDBLANK
340
0
 70
0
280
1
281
0
  0
BLOCK_RECORD
  5
DC
330
9
100
AcDbSymbolTableRecord
100
AcDbBlockTableRecord
  2
*D1
340
0
 70
0
280
1
281
0
  0
BLOCK_RECORD
  5
EB
330
9
100
AcDbSymbolTableRecord
100
AcDbBlockTableRecord
  2
*D2
340
0
 70
0
280
1
281
0
  0
BLOCK_RECORD
  5
FA
330
9
100
AcDbSymbolTableRecord
100
AcDbBlockTableRecord
  2
*D3
340
0
 70
0
280
1
281
0
  0
BLOCK_RECORD
  5
109
330
9
100
AcDbSymbolTableRecord
100
AcDbBlockTableRecord
  2
*D4
340
0
 70
0
280
1
281
0
  0
BLOCK_RECORD
  5
118
330
9
100
AcDbSymbolTableRecord
100
AcDbBlockTableRecord
  2
*D5
340
0
 70
0
280
1
281
0
  0
BLOCK_RECORD
  5
127
330
9
100
AcDbSymbolTableRecord
100
AcDbBlockTableRecord
  2
*D6
340
0
 70
0
280
1
281
0
  0
BLOCK_RECORD
  5
136
330
9
100
AcDbSymbolTableRecord
100
AcDbBlockTableRecord
  2
*D7
340
0
 70
0
280
1
281
0
  0
BLOCK_RECORD
  5
145
330
9
100
AcDbSymbolTableRecord
100
AcDbBlockTableRecord
  2
*D8
340
0
 70
0
280
1
281
0
  0
BLOCK_RECORD
  5
154
330
9
100
AcDbSymbolTableRecord
100
AcDbBlockTableRecord
  2
*D9
340
0
 70
0
280
1
281
0
  0
BLOCK_RECORD
  5
163
330
9
100
AcDbSymbolTableRecord
100
AcDbBlockTableRecord
  2
*D10
340
0
 70
0
280
1
281
0
  0
BLOCK_RECORD
  5
172
330
9
100
AcDbSymbolTableRecord
100
AcDbBlockTableRecord
  2
*D11
340
0
 70
0
280
1
281
0
  0
BLOCK_RECORD
  5
181
330
9
100
AcDbSymbolTableRecord
100
AcDbBlockTableRecord
  2
*D12
340
0
 70
0
280
1
281
0
  0
BLOCK_RECORD
  5
190
330
9
100
AcDbSymbolTableRecord
100
AcDbBlockTableRecord
  2
*D13
340
0
 70
0
280
1
281
0
  0
BLOCK_RECORD
  5
19F
330
9
100
AcDbSymbolTableRecord
100
AcDbBlockTableRecord
  2
*D14
340
0
 70
0
280
1
281
0
  0
BLOCK_RECORD
  5
1AE
330
9
100
AcDbSymbolTableRecord
100
AcDbBlockTableRecord
  2
*D15
340
0
 70
0
280
1
281
0
  0
BLOCK_RECORD
  5
1BD
330
9
100
AcDbSymbolTableRecord
100
AcDbBlockTableRecord
  2
*D16
340
0
 70
0
280
1
281
0
  0
BLOCK_RECORD
  5
1CC
330
9
100
AcDbSymbolTableRecord
100
AcDbBlockTableRecord
  2
*D17
340
0
 70
0
280
1
281
0
  0
BLOCK_RECORD
  5
1DB
330
9
100
AcDbSymbolTableRecord
100
AcDbBlockTableRecord
  2
*D18
340
0
 70
0
280
1
281
0
  0
BLOCK_RECORD
  5
1EA
330
9
100
AcDbSymbolTableRecord
100
AcDbBlockTableRecord
  2
*D19
340
0
 70
0
280
1
281
0
  0
BLOCK_RECORD
  5
1F9
330
9
100
AcDbSymbolTableRecord
100
AcDbBlockTableRecord
  2
*D20
340
0
 70
0
280
1
281
0
  0
BLOCK_RECORD
  5
208
330
9
100
AcDbSymbolTableRecord
100
AcDbBlockTableRecord
  2
*D21
340
0
 70
0
280
1
281
0
  0
ENDTAB
  0
ENDSEC
  0
SECTION
  2
BLOCKS
  0
BLOCK
  5
18
330
17
100
AcDbEntity
  8
0
100
AcDbBlockBegin
  2
*Model_Space
 70
0
 10
0.0
 20
0.0
 30
0.0
  3
*Model_Space
  1

  0
ENDBLK
  5
19
330
17
100
AcDbEntity
  8
0
100
AcDbBlockEnd
  0
BLOCK
  5
1C
330
1B
100
AcDbEntity
  8
0
100
AcDbBlockBegin
  2
*Paper_Space
 70
0
 10
0.0
 20
0.0
 30
0.0
  3
*Paper_Space
  1

  0
ENDBLK
  5
1D
330
1B
100
AcDbEntity
  8
0
100
AcDbBlockEnd
  0
BLOCK
  5
75
330
74
100
AcDbEntity
  8
0
100
AcDbBlockBegin
  2
_ARCHTICK
 70
0
 10
0.0
 20
0.0
 30
0.0
  3
_ARCHTICK
  1

  0
LWPOLYLINE
  5
77
330
74
100
AcDbEntity
  8
0
  6
BYBLOCK
 62
0
100
AcDbPolyline
 90
2
 70
0
 43
0.15
 10
-0.5
 20
-0.5
 10
0.5
 20
0.5
  0
ENDBLK
  5
76
330
74
100
AcDbEntity
  8
0
100
AcDbBlockEnd
  0
BLOCK
  5
79
330
78
100
AcDbEntity
  8
0
100
AcDbBlockBegin
  2
_CLOSEDFILLED
 70
0
 10
0.0
 20
0.0
 30
0.0
  3
_CLOSEDFILLED
  1

  0
SOLID
  5
7B
330
78
100
AcDbEntity
  8
0
  6
BYBLOCK
 62
0
100
AcDbTrace
 10
-1.0
 20
0.16439898372402537
 30
0.0
 11
0.0
 21
0.0
 31
0.0
 12
-1.0
 22
-0.16439898372402537
 32
0.0
 13
-1.0
 23
-0.16439898372402537
 33
0.0
  0
ENDBLK
  5
7A
330
78
100
AcDbEntity
  8
0
100
AcDbBlockEnd
  0
BLOCK
  5
85
330
84
100
AcDbEntity
  8
0
100
AcDbBlockBegin
  2
_CLOSEDBLANK
 70
0
 10
0.0
 20
0.0
 30
0.0
  3
_CLOSEDBLANK
  1

  0
LWPOLYLINE
  5
87
330
84
100
AcDbEntity
  8
0
  6
BYBLOCK
 62
0
100
AcDbPolyline
 90
3
 70
1
 10
-1.0
 20
0.16439898372402537
 10
0.0
 20
0.0
 10
-1.0
 20
-0.16439898372402537
  0
ENDBLK
  5
86
330
84
100
AcDbEntity
  8
0
100
AcDbBlockEnd
  0
BLOCK
  5
DD
330
DC
100
AcDbEntity
  8
0
100
AcDbBlockBegin
  2
*D1
 70
1
 10
0.0
 20
0.0
 30
0.0
  3
*D1
  1

  0
LINE
  5
DF
330
DC
100
AcDbEntity
  8
0
 62
2
370
20
100
AcDbLine
 10
221.05
 20
240.0
 30
0.0
 11
237.05
 21
240.0
 31
0.0
  0
LINE
  5
E0
330
DC
100
AcDbEntity
  8
0
 62
2
370
20
100
AcDbLine
 10
385.5948267190434
 20
335.0
 30
0.0
 11
401.5948267190434
 21
335.0
 31
0.0
  0
INSERT
  5
E1
330
DC
100
AcDbEntity
  8
DIM
 62
2
100
AcDbBlockReference
  2
_CLOSEDFILLED
 10
236.0
 20
240.0
 30
0.0
 41
2.1
 42
2.1
 50
210.0
  0
INSERT
  5
E3
330
DC
100
AcDbEntity
  8
DIM
 62
2
100
AcDbBlockReference
  2
_CLOSEDFILLED
 10
400.5448267190434
 20
335.0
 30
0.0
 41
2.1
 42
2.1
 50
29.999999999999996
  0
LINE
  5
E5
330
DC
100
AcDbEntity
  8
0
 62
2
370
20
100
AcDbLine
 10
237.81865334794733
 20
241.05
 30
0.0
 11
398.7261733710961
 21
333.95
 31
0.0
  0
MTEXT
  5
E6
330
DC
100
AcDbEntity
  8
DIM
 62
2
100
AcDbMText
 10
317.3274133595217
 20
289.13678801315257
 30
0.0
 40
2.1
 71
5
  1
6287
  7
CRE_ROMANS
 50
29.999999999999996
  0
POINT
  5
E7
330
DC
100
AcDbEntity
  8
Defpoints
100
AcDbPoint
 10
236.0
 20
240.0
 30
0.0
  0
POINT
  5
E8
330
DC
100
AcDbEntity
  8
Defpoints
100
AcDbPoint
 10
220.0
 20
240.0
 30
0.0
  0
POINT
  5
E9
330
DC
100
AcDbEntity
  8
Defpoints
100
AcDbPoint
 10
384.5448267190434
 20
335.0
 30
0.0
  0
ENDBLK
  5
DE
330
DC
100
AcDbEntity
  8
0
100
AcDbBlockEnd
  0
BLOCK
  5
EC
330
EB
100
AcDbEntity
  8
0
100
AcDbBlockBegin
  2
*D2
 70
1
 10
0.0
 20
0.0
 30
0.0
  3
*D2
  1

  0
LINE
  5
EE
330
EB
100
AcDbEntity
  8
0
 62
2
370
20
100
AcDbLine
 10
221.05
 20
240.0
 30
0.0
 11
249.05
 21
240.0
 31
0.0
  0
LINE
  5
EF
330
EB
100
AcDbEntity
  8
0
 62
2
370
20
100
AcDbLine
 10
385.5948267190434
 20
335.0
 30
0.0
 11
413.5948267190434
 21
335.0
 31
0.0
  0
INSERT
  5
F0
330
EB
100
AcDbEntity
  8
DIM
 62
2
100
AcDbBlockReference
  2
_CLOSEDFILLED
 10
248.0
 20
240.0
 30
0.0
 41
2.1
 42
2.1
 50
210.0
  0
INSERT
  5
F2
330
EB
100
AcDbEntity
  8
DIM
 62
2
100
AcDbBlockReference
  2
_CLOSEDFILLED
 10
412.5448267190434
 20
335.0
 30
0.0
 41
2.1
 42
2.1
 50
29.999999999999996
  0
LINE
  5
F4
330
EB
100
AcDbEntity
  8
0
 62
2
370
20
100
AcDbLine
 10
249.81865334794733
 20
241.05
 30
0.0
 11
410.7261733710961
 21
333.95
 31
0.0
  0
MTEXT
  5
F5
330
EB
100
AcDbEntity
  8
DIM
 62
2
100
AcDbMText
 10
329.3274133595217
 20
289.13678801315257
 30
0.0
 40
2.1
 71
5
  1
6351
  7
CRE_ROMANS
 50
29.999999999999996
  0
POINT
  5
F6
330
EB
100
AcDbEntity
  8
Defpoints
100
AcDbPoint
 10
248.0
 20
240.0
 30
0.0
  0
POINT
  5
F7
330
EB
100
AcDbEntity
  8
Defpoints
100
AcDbPoint
 10
220.0
 20
240.0
 30
0.0
  0
POINT
  5
F8
330
EB
100
AcDbEntity
  8
Defpoints
100
AcDbPoint
 10
384.5448267190434
 20
335.0
 30
0.0
  0
ENDBLK
  5
ED
330
EB
100
AcDbEntity
  8
0
100
AcDbBlockEnd
  0
BLOCK
  5
FB
330
FA
100
AcDbEntity
  8
0
100
AcDbBlockBegin
  2
*D3
 70
1
 10
0.0
 20
0.0
 30
0.0
  3
*D3
  1

  0
LINE
  5
FD
330
FA
100
AcDbEntity
  8
0
 62
2
370
20
100
AcDbLine
 10
220.525
 20
239.09067332602635
 30
0.0
 11
228.525
 21
225.23426686547535
 31
0.0
  0
LINE
  5
FE
330
FA
100
AcDbEntity
  8
0
 62
2
370
20
100
AcDbLine
 10
220.525
 20
319.0906733260263
 30
0.0
 11
228.525
 21
305.2342668654753
 31
0.0
  0
INSERT
  5
FF
330
FA
100
AcDbEntity
  8
DIM
 62
2
100
AcDbBlockReference
  2
_CLOSEDFILLED
 10
228.0
 20
226.143593539449
 30
0.0
 41
2.1
 42
2.1
 50
270.0
  0
INSERT
  5
101
330
FA
100
AcDbEntity
  8
DIM
 62
2
100
AcDbBlockReference
  2
_CLOSEDFILLED
 10
228.0
 20
306.143593539449
 30
0.0
 41
2.1
 42
2.1
 50
90.0
  0
LINE
  5
103
330
FA
100
AcDbEntity
  8
0
 62
2
370
20
100
AcDbLine
 10
228.0
 20
228.243593539449
 30
0.0
 11
228.0
 21
304.043593539449
 31
0.0
  0
MTEXT
  5
104
330
FA
100
AcDbEntity
  8
DIM
 62
2
100
AcDbMText
 10
226.11
 20
266.143593539449
 30
0.0
 40
2.1
 71
5
  1
273
  7
CRE_ROMANS
 50
90.0
  0
POINT
  5
105
330
FA
100
AcDbEntity
  8
Defpoints
100
AcDbPoint
 10
228.0
 20
226.143593539449
 30
0.0
  0
POINT
  5
106
330
FA
100
AcDbEntity
  8
Defpoints
100
AcDbPoint
 10
220.0
 20
240.0
 30
0.0
  0
POINT
  5
107
330
FA
100
AcDbEntity
  8
Defpoints
100
AcDbPoint
 10
220.0
 20
320.0
 30
0.0
  0
ENDBLK
  5
FC
330
FA
100
AcDbEntity
  8
0
100
AcDbBlockEnd
  0
BLOCK
  5
10A
330
109
100
AcDbEntity
  8
0
100
AcDbBlockBegin
  2
*D4
 70
1
 10
0.0
 20
0.0
 30
0.0
  3
*D4
  1

  0
LINE
  5
10C
330
109
100
AcDbEntity
  8
0
 62
2
370
20
100
AcDbLine
 10
220.525
 20
239.09067332602635
 30
0.0
 11
234.525
 21
214.84196202006208
 31
0.0
  0
LINE
  5
10D
330
109
100
AcDbEntity
  8
0
 62
2
370
20
100
AcDbLine
 10
220.525
 20
319.0906733260263
 30
0.0
 11
234.525
 21
294.84196202006206
 31
0.0
  0
INSERT
  5
10E
330
109
100
AcDbEntity
  8
DIM
 62
2
100
AcDbBlockReference
  2
_CLOSEDFILLED
 10
234.0
 20
215.75128869403574
 30
0.0
 41
2.1
 42
2.1
 50
270.0
  0
INSERT
  5
110
330
109
100
AcDbEntity
  8
DIM
 62
2
100
AcDbBlockReference
  2
_CLOSEDFILLED
 10
234.0
 20
295.75128869403574
 30
0.0
 41
2.1
 42
2.1
 50
90.0
  0
LINE
  5
112
330
109
100
AcDbEntity
  8
0
 62
2
370
20
100
AcDbLine
 10
234.0
 20
217.85128869403573
 30
0.0
 11
234.0
 21
293.6512886940357
 31
0.0
  0
MTEXT
  5
113
330
109
100
AcDbEntity
  8
DIM
 62
2
100
AcDbMText
 10
232.11
 20
255.75128869403574
 30
0.0
 40
2.1
 71
5
  1
400
  7
CRE_ROMANS
 50
90.0
  0
POINT
  5
114
330
109
100
AcDbEntity
  8
Defpoints
100
AcDbPoint
 10
234.0
 20
215.75128869403574
 30
0.0
  0
POINT
  5
115
330
109
100
AcDbEntity
  8
Defpoints
100
AcDbPoint
 10
220.0
 20
240.0
 30
0.0
  0
POINT
  5
116
330
109
100
AcDbEntity
  8
Defpoints
100
AcDbPoint
 10
220.0
 20
320.0
 30
0.0
  0
ENDBLK
  5
10B
330
109
100
AcDbEntity
  8
0
100
AcDbBlockEnd
  0
BLOCK
  5
119
330
118
100
AcDbEntity
  8
0
100
AcDbBlockBegin
  2
*D5
 70
1
 10
0.0
 20
0.0
 30
0.0
  3
*D5
  1

  0
LINE
  5
11B
330
118
100
AcDbEntity
  8
0
 62
2
370
20
100
AcDbLine
 10
218.95
 20
320.0
 30
0.0
 11
202.95
 21
320.0
 31
0.0
  0
LINE
  5
11C
330
118
100
AcDbEntity
  8
0
 62
2
370
20
100
AcDbLine
 10
266.5813972081441
 20
292.5
 30
0.0
 11
250.5813972081441
 21
292.5
 31
0.0
  0
INSERT
  5
11D
330
118
100
AcDbEntity
  8
DIM
 62
2
100
AcDbBlockReference
  2
_CLOSEDFILLED
 10
204.0
 20
320.0
 30
0.0
 41
2.1
 42
2.1
 50
150.0
  0
INSERT
  5
11F
330
118
100
AcDbEntity
  8
DIM
 62
2
100
AcDbBlockReference
  2
_CLOSEDFILLED
 10
251.6313972081441
 20
292.5
 30
0.0
 41
2.1
 42
2.1
 50
-30.00000000000001
  0
LINE
  5
121
330
118
100
AcDbEntity
  8
0
 62
2
370
20
100
AcDbLine
 10
205.81865334794733
 20
318.95
 30
0.0
 11
249.81274386019678
 21
293.55
 31
0.0
  0
MTEXT
  5
122
330
118
100
AcDbEntity
  8
DIM
 62
2
100
AcDbMText
 10
228.76069860407205
 20
307.88678801315257
 30
0.0
 40
2.1
 71
5
  1
340
  7
CRE_ROMANS
 50
-30.00000000000001
  0
POINT
  5
123
330
118
100
AcDbEntity
  8
Defpoints
100
AcDbPoint
 10
204.0
 20
320.0
 30
0.0
  0
POINT
  5
124
330
118
100
AcDbEntity
  8
Defpoints
100
AcDbPoint
 10
220.0
 20
320.0
 30
0.0
  0
POINT
  5
125
330
118
100
AcDbEntity
  8
Defpoints
100
AcDbPoint
 10
267.6313972081441
 20
292.5
 30
0.0
  0
ENDBLK
  5
11A
330
118
100
AcDbEntity
  8
0
100
AcDbBlockEnd
  0
BLOCK
  5
128
330
127
100
AcDbEntity
  8
0
100
AcDbBlockBegin
  2
*D6
 70
1
 10
0.0
 20
0.0
 30
0.0
  3
*D6
  1

  0
LINE
  5
12A
330
127
100
AcDbEntity
  8
0
 62
2
370
20
100
AcDbLine
 10
218.95
 20
320.0
 30
0.0
 11
190.94999999999996
 21
320.0
 31
0.0
  0
LINE
  5
12B
330
127
100
AcDbEntity
  8
0
 62
2
370
20
100
AcDbLine
 10
266.5813972081441
 20
292.5
 30
0.0
 11
238.58139720814407
 21
292.5
 31
0.0
  0
INSERT
  5
12C
330
127
100
AcDbEntity
  8
DIM
 62
2
100
AcDbBlockReference
  2
_CLOSEDFILLED
 10
191.99999999999997
 20
320.0
 30
0.0
 41
2.1
 42
2.1
 50
150.0
  0
INSERT
  5
12E
330
127
100
AcDbEntity
  8
DIM
 62
2
100
AcDbBlockReference
  2
_CLOSEDFILLED
 10
239.63139720814408
 20
292.5
 30
0.0
 41
2.1
 42
2.1
 50
-30.00000000000001
  0
LINE
  5
130
330
127
100
AcDbEntity
  8
0
 62
2
370
20
100
AcDbLine
 10
193.8186533479473
 20
318.95
 30
0.0
 11
237.81274386019675
 21
293.55
 31
0.0
  0
MTEXT
  5
131
330
127
100
AcDbEntity
  8
DIM
 62
2
100
AcDbMText
 10
216.76069860407202
 20
307.88678801315257
 30
0.0
 40
2.1
 71
5
  1
480
  7
CRE_ROMANS
 50
-30.00000000000001
  0
POINT
  5
132
330
127
100
AcDbEntity
  8
Defpoints
100
AcDbPoint
 10
191.99999999999997
 20
320.0
 30
0.0
  0
POINT
  5
133
330
127
100
AcDbEntity
  8
Defpoints
100
AcDbPoint
 10
220.0
 20
320.0
 30
0.0
  0
POINT
  5
134
330
127
100
AcDbEntity
  8
Defpoints
100
AcDbPoint
 10
267.6313972081441
 20
292.5
 30
0.0
  0
ENDBLK
  5
129
330
127
100
AcDbEntity
  8
0
100
AcDbBlockEnd
  0
BLOCK
  5
137
330
136
100
AcDbEntity
  8
0
100
AcDbBlockBegin
  2
*D7
 70
1
 10
0.0
 20
0.0
 30
0.0
  3
*D7
  1

  0
LINE
  5
139
330
136
100
AcDbEntity
  8
0
 62
2
370
20
100
AcDbLine
 10
268.1563972081441
 20
291.5906733260263
 30
0.0
 11
276.1563972081441
 21
277.7342668654753
 31
0.0
  0
LINE
  5
13A
330
136
100
AcDbEntity
  8
0
 62
2
370
20
100
AcDbLine
 10
268.1563972081441
 20
389.0906733260263
 30
0.0
 11
276.1563972081441
 21
375.2342668654753
 31
0.0
  0
INSERT
  5
13B
330
136
100
AcDbEntity
  8
DIM
 62
2
100
AcDbBlockReference
  2
_CLOSEDFILLED
 10
275.6313972081441
 20
278.643593539449
 30
0.0
 41
2.1
 42
2.1
 50
270.0
  0
INSERT
  5
13D
330
136
100
AcDbEntity
  8
DIM
 62
2
100
AcDbBlockReference
  2
_CLOSEDFILLED
 10
275.6313972081441
 20
376.143593539449
 30
0.0
 41
2.1
 42
2.1
 50
90.0
  0
LINE
  5
13F
330
136
100
AcDbEntity
  8
0
 62
2
370
20
100
AcDbLine
 10
275.6313972081441
 20
280.743593539449
 30
0.0
 11
275.6313972081441
 21
374.043593539449
 31
0.0
  0
MTEXT
  5
140
330
136
100
AcDbEntity
  8
DIM
 62
2
100
AcDbMText
 10
273.7413972081441
 20
327.393593539449
 30
0.0
 40
2.1
 71
5
  1
1670
  7
CRE_ROMANS
 50
90.0
  0
POINT
  5
141
330
136
100
AcDbEntity
  8
Defpoints
100
AcDbPoint
 10
275.6313972081441
 20
278.643593539449
 30
0.0
  0
POINT
  5
142
330
136
100
AcDbEntity
  8
Defpoints
100
AcDbPoint
 10
267.6313972081441
 20
292.5
 30
0.0
  0
POINT
  5
143
330
136
100
AcDbEntity
  8
Defpoints
100
AcDbPoint
 10
267.6313972081441
 20
390.0
 30
0.0
  0
ENDBLK
  5
138
330
136
100
AcDbEntity
  8
0
100
AcDbBlockEnd
  0
BLOCK
  5
146
330
145
100
AcDbEntity
  8
0
100
AcDbBlockBegin
  2
*D8
 70
1
 10
0.0
 20
0.0
 30
0.0
  3
*D8
  1

  0
LINE
  5
148
330
145
100
AcDbEntity
  8
0
 62
2
370
20
100
AcDbLine
 10
268.1563972081441
 20
291.5906733260263
 30
0.0
 11
282.1563972081441
 21
267.34196202006206
 31
0.0
  0
LINE
  5
149
330
145
100
AcDbEntity
  8
0
 62
2
370
20
100
AcDbLine
 10
268.1563972081441
 20
389.0906733260263
 30
0.0
 11
282.1563972081441
 21
364.84196202006206
 31
0.0
  0
INSERT
  5
14A
330
145
100
AcDbEntity
  8
DIM
 62
2
100
AcDbBlockReference
  2
_CLOSEDFILLED
 10
281.6313972081441
 20
268.25128869403574
 30
0.0
 41
2.1
 42
2.1
 50
270.0
  0
INSERT
  5
14C
330
145
100
AcDbEntity
  8
DIM
 62
2
100
AcDbBlockReference
  2
_CLOSEDFILLED
 10
281.6313972081441
 20
365.75128869403574
 30
0.0
 41
2.1
 42
2.1
 50
90.0
  0
LINE
  5
14E
330
145
100
AcDbEntity
  8
0
 62
2
370
20
100
AcDbLine
 10
281.6313972081441
 20
270.35128869403576
 30
0.0
 11
281.6313972081441
 21
363.6512886940357
 31
0.0
  0
MTEXT
  5
14F
330
145
100
AcDbEntity
  8
DIM
 62
2
100
AcDbMText
 10
279.7413972081441
 20
317.00128869403574
 30
0.0
 40
2.1
 71
5
  1
1810
  7
CRE_ROMANS
 50
90.0
  0
POINT
  5
150
330
145
100
AcDbEntity
  8
Defpoints
100
AcDbPoint
 10
281.6313972081441
 20
268.25128869403574
 30
0.0
  0
POINT
  5
151
330
145
100
AcDbEntity
  8
Defpoints
100
AcDbPoint
 10
267.6313972081441
 20
292.5
 30
0.0
  0
POINT
  5
152
330
145
100
AcDbEntity
  8
Defpoints
100
AcDbPoint
 10
267.6313972081441
 20
390.0
 30
0.0
  0
ENDBLK
  5
147
330
145
100
AcDbEntity
  8
0
100
AcDbBlockEnd
  0
BLOCK
  5
155
330
154
100
AcDbEntity
  8
0
100
AcDbBlockBegin
  2
*D9
 70
1
 10
0.0
 20
0.0
 30
0.0
  3
*D9
  1

  0
LINE
  5
157
330
154
100
AcDbEntity
  8
0
 62
2
370
20
100
AcDbLine
 10
268.1563972081441
 20
409.0906733260263
 30
0.0
 11
276.1563972081441
 21
395.2342668654753
 31
0.0
  0
LINE
  5
158
330
154
100
AcDbEntity
  8
0
 62
2
370
20
100
AcDbLine
 10
268.1563972081441
 20
451.0906733260263
 30
0.0
 11
276.1563972081441
 21
437.2342668654753
 31
0.0
  0
INSERT
  5
159
330
154
100
AcDbEntity
  8
DIM
 62
2
100
AcDbBlockReference
  2
_CLOSEDFILLED
 10
275.6313972081441
 20
396.143593539449
 30
0.0
 41
2.1
 42
2.1
 50
270.0
  0
INSERT
  5
15B
330
154
100
AcDbEntity
  8
DIM
 62
2
100
AcDbBlockReference
  2
_CLOSEDFILLED
 10
275.6313972081441
 20
438.143593539449
 30
0.0
 41
2.1
 42
2.1
 50
90.0
  0
LINE
  5
15D
330
154
100
AcDbEntity
  8
0
 62
2
370
20
100
AcDbLine
 10
275.6313972081441
 20
398.243593539449
 30
0.0
 11
275.6313972081441
 21
436.043593539449
 31
0.0
  0
MTEXT
  5
15E
330
154
100
AcDbEntity
  8
DIM
 62
2
100
AcDbMText
 10
273.7413972081441
 20
417.143593539449
 30
0.0
 40
2.1
 71
5
  1
220
  7
CRE_ROMANS
 50
90.0
  0
POINT
  5
15F
330
154
100
AcDbEntity
  8
Defpoints
100
AcDbPoint
 10
275.6313972081441
 20
396.143593539449
 30
0.0
  0
POINT
  5
160
330
154
100
AcDbEntity
  8
Defpoints
100
AcDbPoint
 10
267.6313972081441
 20
410.0
 30
0.0
  0
POINT
  5
161
330
154
100
AcDbEntity
  8
Defpoints
100
AcDbPoint
 10
267.6313972081441
 20
452.0
 30
0.0
  0
ENDBLK
  5
156
330
154
100
AcDbEntity
  8
0
100
AcDbBlockEnd
  0
BLOCK
  5
164
330
163
100
AcDbEntity
  8
0
100
AcDbBlockBegin
  2
*D10
 70
1
 10
0.0
 20
0.0
 30
0.0
  3
*D10
  1

  0
LINE
  5
166
330
163
100
AcDbEntity
  8
0
 62
2
370
20
100
AcDbLine
 10
268.1563972081441
 20
409.0906733260263
 30
0.0
 11
282.1563972081441
 21
384.84196202006206
 31
0.0
  0
LINE
  5
167
330
163
100
AcDbEntity
  8
0
 62
2
370
20
100
AcDbLine
 10
268.1563972081441
 20
451.0906733260263
 30
0.0
 11
282.1563972081441
 21
426.84196202006206
 31
0.0
  0
INSERT
  5
168
330
163
100
AcDbEntity
  8
DIM
 62
2
100
AcDbBlockReference
  2
_CLOSEDFILLED
 10
281.6313972081441
 20
385.75128869403574
 30
0.0
 41
2.1
 42
2.1
 50
270.0
  0
INSERT
  5
16A
330
163
100
AcDbEntity
  8
DIM
 62
2
100
AcDbBlockReference
  2
_CLOSEDFILLED
 10
281.6313972081441
 20
427.75128869403574
 30
0.0
 41
2.1
 42
2.1
 50
90.0
  0
LINE
  5
16C
330
163
100
AcDbEntity
  8
0
 62
2
370
20
100
AcDbLine
 10
281.6313972081441
 20
387.85128869403576
 30
0.0
 11
281.6313972081441
 21
425.6512886940357
 31
0.0
  0
MTEXT
  5
16D
330
163
100
AcDbEntity
  8
DIM
 62
2
100
AcDbMText
 10
279.7413972081441
 20
406.75128869403574
 30
0.0
 40
2.1
 71
5
  1
359
  7
CRE_ROMANS
 50
90.0
  0
POINT
  5
16E
330
163
100
AcDbEntity
  8
Defpoints
100
AcDbPoint
 10
281.6313972081441
 20
385.75128869403574
 30
0.0
  0
POINT
  5
16F
330
163
100
AcDbEntity
  8
Defpoints
100
AcDbPoint
 10
267.6313972081441
 20
410.0
 30
0.0
  0
POINT
  5
170
330
163
100
AcDbEntity
  8
Defpoints
100
AcDbPoint
 10
267.6313972081441
 20
452.0
 30
0.0
  0
ENDBLK
  5
165
330
163
100
AcDbEntity
  8
0
100
AcDbBlockEnd
  0
BLOCK
  5
173
330
172
100
AcDbEntity
  8
0
100
AcDbBlockBegin
  2
*D11
 70
1
 10
0.0
 20
0.0
 30
0.0
  3
*D11
  1

  0
LINE
  5
175
330
172
100
AcDbEntity
  8
0
 62
2
370
20
100
AcDbLine
 10
306.07754037844387
 20
430.4093266739737
 30
0.0
 11
298.07754037844387
 21
444.26573313452474
 31
0.0
  0
LINE
  5
176
330
172
100
AcDbEntity
  8
0
 62
2
370
20
100
AcDbLine
 10
306.07754037844387
 20
464.9093266739737
 30
0.0
 11
298.07754037844387
 21
478.76573313452474
 31
0.0
  0
INSERT
  5
177
330
172
100
AcDbEntity
  8
DIM
 62
2
100
AcDbBlockReference
  2
_CLOSEDFILLED
 10
298.60254037844385
 20
443.35640646055106
 30
0.0
 41
2.1
 42
2.1
 50
270.0
  0
INSERT
  5
179
330
172
100
AcDbEntity
  8
DIM
 62
2
100
AcDbBlockReference
  2
_CLOSEDFILLED
 10
298.60254037844385
 20
477.85640646055106
 30
0.0
 41
2.1
 42
2.1
 50
90.0
  0
LINE
  5
17B
330
172
100
AcDbEntity
  8
0
 62
2
370
20
100
AcDbLine
 10
298.60254037844385
 20
445.4564064605511
 30
0.0
 11
298.60254037844385
 21
475.75640646055103
 31
0.0
  0
MTEXT
  5
17C
330
172
100
AcDbEntity
  8
DIM
 62
2
100
AcDbMText
 10
296.71254037844386
 20
460.60640646055106
 30
0.0
 40
2.1
 71
5
  1
100
  7
CRE_ROMANS
 50
90.0
  0
POINT
  5
17D
330
172
100
AcDbEntity
  8
Defpoints
100
AcDbPoint
 10
298.60254037844385
 20
443.35640646055106
 30
0.0
  0
POINT
  5
17E
330
172
100
AcDbEntity
  8
Defpoints
100
AcDbPoint
 10
306.60254037844385
 20
429.5
 30
0.0
  0
POINT
  5
17F
330
172
100
AcDbEntity
  8
Defpoints
100
AcDbPoint
 10
306.60254037844385
 20
464.0
 30
0.0
  0
ENDBLK
  5
174
330
172
100
AcDbEntity
  8
0
100
AcDbBlockEnd
  0
BLOCK
  5
182
330
181
100
AcDbEntity
  8
0
100
AcDbBlockBegin
  2
*D12
 70
1
 10
0.0
 20
0.0
 30
0.0
  3
*D12
  1

  0
LINE
  5
184
330
181
100
AcDbEntity
  8
0
 62
2
370
20
100
AcDbLine
 10
306.07754037844387
 20
430.4093266739737
 30
0.0
 11
292.07754037844387
 21
454.65803797993794
 31
0.0
  0
LINE
  5
185
330
181
100
AcDbEntity
  8
0
 62
2
370
20
100
AcDbLine
 10
306.07754037844387
 20
464.9093266739737
 30
0.0
 11
292.07754037844387
 21
489.15803797993794
 31
0.0
  0
INSERT
  5
186
330
181
100
AcDbEntity
  8
DIM
 62
2
100
AcDbBlockReference
  2
_CLOSEDFILLED
 10
292.60254037844385
 20
453.74871130596426
 30
0.0
 41
2.1
 42
2.1
 50
270.0
  0
INSERT
  5
188
330
181
100
AcDbEntity
  8
DIM
 62
2
100
AcDbBlockReference
  2
_CLOSEDFILLED
 10
292.60254037844385
 20
488.24871130596426
 30
0.0
 41
2.1
 42
2.1
 50
90.0
  0
LINE
  5
18A
330
181
100
AcDbEntity
  8
0
 62
2
370
20
100
AcDbLine
 10
292.60254037844385
 20
455.8487113059643
 30
0.0
 11
292.60254037844385
 21
486.14871130596424
 31
0.0
  0
MTEXT
  5
18B
330
181
100
AcDbEntity
  8
DIM
 62
2
100
AcDbMText
 10
290.71254037844386
 20
470.99871130596426
 30
0.0
 40
2.1
 71
5
  1
210
  7
CRE_ROMANS
 50
90.0
  0
POINT
  5
18C
330
181
100
AcDbEntity
  8
Defpoints
100
AcDbPoint
 10
292.60254037844385
 20
453.74871130596426
 30
0.0
  0
POINT
  5
18D
330
181
100
AcDbEntity
  8
Defpoints
100
AcDbPoint
 10
306.60254037844385
 20
429.5
 30
0.0
  0
POINT
  5
18E
330
181
100
AcDbEntity
  8
Defpoints
100
AcDbPoint
 10
306.60254037844385
 20
464.0
 30
0.0
  0
ENDBLK
  5
183
330
181
100
AcDbEntity
  8
0
100
AcDbBlockEnd
  0
BLOCK
  5
191
330
190
100
AcDbEntity
  8
0
100
AcDbBlockBegin
  2
*D13
 70
1
 10
0.0
 20
0.0
 30
0.0
  3
*D13
  1

  0
LINE
  5
193
330
190
100
AcDbEntity
  8
0
 62
2
370
20
100
AcDbLine
 10
268.6813972081441
 20
452.0
 30
0.0
 11
284.68139720814423
 21
452.0
 31
0.0
  0
LINE
  5
194
330
190
100
AcDbEntity
  8
0
 62
2
370
20
100
AcDbLine
 10
355.28393758658797
 20
401.99999999999994
 30
0.0
 11
371.283937586588
 21
401.99999999999994
 31
0.0
  0
INSERT
  5
195
330
190
100
AcDbEntity
  8
DIM
 62
2
100
AcDbBlockReference
  2
_CLOSEDFILLED
 10
283.6313972081442
 20
452.0
 30
0.0
 41
2.1
 42
2.1
 50
149.99999999999997
  0
INSERT
  5
197
330
190
100
AcDbEntity
  8
DIM
 62
2
100
AcDbBlockReference
  2
_CLOSEDFILLED
 10
370.233937586588
 20
401.99999999999994
 30
0.0
 41
2.1
 42
2.1
 50
-30.000000000000036
  0
LINE
  5
199
330
190
100
AcDbEntity
  8
0
 62
2
370
20
100
AcDbLine
 10
285.4500505560915
 20
450.95
 30
0.0
 11
368.4152842386407
 21
403.04999999999995
 31
0.0
  0
MTEXT
  5
19A
330
190
100
AcDbEntity
  8
DIM
 62
2
100
AcDbMText
 10
327.8776673973661
 20
428.63678801315257
 30
0.0
 40
2.1
 71
5
  1
1041
  7
CRE_ROMANS
 50
-30.000000000000036
  0
POINT
  5
19B
330
190
100
AcDbEntity
  8
Defpoints
100
AcDbPoint
 10
283.6313972081442
 20
452.0
 30
0.0
  0
POINT
  5
19C
330
190
100
AcDbEntity
  8
Defpoints
100
AcDbPoint
 10
267.6313972081441
 20
452.0
 30
0.0
  0
POINT
  5
19D
330
190
100
AcDbEntity
  8
Defpoints
100
AcDbPoint
 10
354.23393758658796
 20
401.99999999999994
 30
0.0
  0
ENDBLK
  5
192
330
190
100
AcDbEntity
  8
0
100
AcDbBlockEnd
  0
BLOCK
  5
1A0
330
19F
100
AcDbEntity
  8
0
100
AcDbBlockBegin
  2
*D14
 70
1
 10
0.0
 20
0.0
 30
0.0
  3
*D14
  1

  0
LINE
  5
1A2
330
19F
100
AcDbEntity
  8
0
 62
2
370
20
100
AcDbLine
 10
268.6813972081441
 20
452.0
 30
0.0
 11
296.6813972081441
 21
452.0
 31
0.0
  0
LINE
  5
1A3
330
19F
100
AcDbEntity
  8
0
 62
2
370
20
100
AcDbLine
 10
355.28393758658797
 20
401.99999999999994
 30
0.0
 11
383.28393758658797
 21
401.99999999999994
 31
0.0
  0
INSERT
  5
1A4
330
19F
100
AcDbEntity
  8
DIM
 62
2
100
AcDbBlockReference
  2
_CLOSEDFILLED
 10
295.6313972081441
 20
452.0
 30
0.0
 41
2.1
 42
2.1
 50
149.99999999999997
  0
INSERT
  5
1A6
330
19F
100
AcDbEntity
  8
DIM
 62
2
100
AcDbBlockReference
  2
_CLOSEDFILLED
 10
382.23393758658796
 20
401.99999999999994
 30
0.0
 41
2.1
 42
2.1
 50
-30.000000000000036
  0
LINE
  5
1A8
330
19F
100
AcDbEntity
  8
0
 62
2
370
20
100
AcDbLine
 10
297.4500505560914
 20
450.95
 30
0.0
 11
380.41528423864065
 21
403.04999999999995
 31
0.0
  0
MTEXT
  5
1A9
330
19F
100
AcDbEntity
  8
DIM
 62
2
100
AcDbMText
 10
339.877667397366
 20
428.63678801315257
 30
0.0
 40
2.1
 71
5
  1
1162
  7
CRE_ROMANS
 50
-30.000000000000036
  0
POINT
  5
1AA
330
19F
100
AcDbEntity
  8
Defpoints
100
AcDbPoint
 10
295.6313972081441
 20
452.0
 30
0.0
  0
POINT
  5
1AB
330
19F
100
AcDbEntity
  8
Defpoints
100
AcDbPoint
 10
267.6313972081441
 20
452.0
 30
0.0
  0
POINT
  5
1AC
330
19F
100
AcDbEntity
  8
Defpoints
100
AcDbPoint
 10
354.23393758658796
 20
401.99999999999994
 30
0.0
  0
ENDBLK
  5
1A1
330
19F
100
AcDbEntity
  8
0
100
AcDbBlockEnd
  0
BLOCK
  5
1AF
330
1AE
100
AcDbEntity
  8
0
100
AcDbBlockBegin
  2
*D15
 70
1
 10
0.0
 20
0.0
 30
0.0
  3
*D15
  1

  0
LINE
  5
1B1
330
1AE
100
AcDbEntity
  8
0
 62
2
370
20
100
AcDbLine
 10
353.18393758658794
 20
401.99999999999994
 30
0.0
 11
337.18393758658794
 21
401.99999999999994
 31
0.0
  0
LINE
  5
1B2
330
1AE
100
AcDbEntity
  8
0
 62
2
370
20
100
AcDbLine
 10
325.4711246654859
 20
385.99999999999994
 30
0.0
 11
309.47112466548583
 21
385.99999999999994
 31
0.0
  0
INSERT
  5
1B3
330
1AE
100
AcDbEntity
  8
DIM
 62
2
100
AcDbBlockReference
  2
_CLOSEDFILLED
 10
338.23393758658796
 20
401.99999999999994
 30
0.0
 41
2.1
 42
2.1
 50
29.99999999999997
  0
INSERT
  5
1B5
330
1AE
100
AcDbEntity
  8
DIM
 62
2
100
AcDbBlockReference
  2
_CLOSEDFILLED
 10
310.52112466548584
 20
385.99999999999994
 30
0.0
 41
2.1
 42
2.1
 50
-150.00000000000003
  0
LINE
  5
1B7
330
1AE
100
AcDbEntity
  8
0
 62
2
370
20
100
AcDbLine
 10
336.41528423864065
 20
400.94999999999993
 30
0.0
 11
312.33977801343315
 21
387.04999999999995
 31
0.0
  0
MTEXT
  5
1B8
330
1AE
100
AcDbEntity
  8
DIM
 62
2
100
AcDbMText
 10
325.3225311260369
 20
392.3632119868474
 30
0.0
 40
2.1
 71
5
  1
160
  7
CRE_ROMANS
 50
-150.00000000000003
  0
POINT
  5
1B9
330
1AE
100
AcDbEntity
  8
Defpoints
100
AcDbPoint
 10
338.23393758658796
 20
401.99999999999994
 30
0.0
  0
POINT
  5
1BA
330
1AE
100
AcDbEntity
  8
Defpoints
100
AcDbPoint
 10
354.23393758658796
 20
401.99999999999994
 30
0.0
  0
POINT
  5
1BB
330
1AE
100
AcDbEntity
  8
Defpoints
100
AcDbPoint
 10
326.5211246654859
 20
385.99999999999994
 30
0.0
  0
ENDBLK
  5
1B0
330
1AE
100
AcDbEntity
  8
0
100
AcDbBlockEnd
  0
BLOCK
  5
1BE
330
1BD
100
AcDbEntity
  8
0
100
AcDbBlockBegin
  2
*D16
 70
1
 10
0.0
 20
0.0
 30
0.0
  3
*D16
  1

  0
LINE
  5
1C0
330
1BD
100
AcDbEntity
  8
0
 62
2
370
20
100
AcDbLine
 10
353.18393758658794
 20
401.99999999999994
 30
0.0
 11
325.1839375865879
 21
401.99999999999994
 31
0.0
  0
LINE
  5
1C1
330
1BD
100
AcDbEntity
  8
0
 62
2
370
20
100
AcDbLine
 10
325.4711246654859
 20
385.99999999999994
 30
0.0
 11
297.4711246654858
 21
385.99999999999994
 31
0.0
  0
INSERT
  5
1C2
330
1BD
100
AcDbEntity
  8
DIM
 62
2
100
AcDbBlockReference
  2
_CLOSEDFILLED
 10
326.2339375865879
 20
401.99999999999994
 30
0.0
 41
2.1
 42
2.1
 50
29.99999999999997
  0
INSERT
  5
1C4
330
1BD
100
AcDbEntity
  8
DIM
 62
2
100
AcDbBlockReference
  2
_CLOSEDFILLED
 10
298.5211246654858
 20
385.99999999999994
 30
0.0
 41
2.1
 42
2.1
 50
-150.00000000000003
  0
LINE
  5
1C6
330
1BD
100
AcDbEntity
  8
0
 62
2
370
20
100
AcDbLine
 10
324.4152842386406
 20
400.94999999999993
 30
0.0
 11
300.3397780134331
 21
387.04999999999995
 31
0.0
  0
MTEXT
  5
1C7
330
1BD
100
AcDbEntity
  8
DIM
 62
2
100
AcDbMText
 10
313.32253112603684
 20
392.3632119868474
 30
0.0
 40
2.1
 71
5
  1
305
  7
CRE_ROMANS
 50
-150.00000000000003
  0
POINT
  5
1C8
330
1BD
100
AcDbEntity
  8
Defpoints
100
AcDbPoint
 10
326.2339375865879
 20
401.99999999999994
 30
0.0
  0
POINT
  5
1C9
330
1BD
100
AcDbEntity
  8
Defpoints
100
AcDbPoint
 10
354.23393758658796
 20
401.99999999999994
 30
0.0
  0
POINT
  5
1CA
330
1BD
100
AcDbEntity
  8
Defpoints
100
AcDbPoint
 10
326.5211246654859
 20
385.99999999999994
 30
0.0
  0
ENDBLK
  5
1BF
330
1BD
100
AcDbEntity
  8
0
100
AcDbBlockEnd
  0
BLOCK
  5
1CD
330
1CC
100
AcDbEntity
  8
0
100
AcDbBlockBegin
  2
*D17
 70
1
 10
0.0
 20
0.0
 30
0.0
  3
*D17
  1

  0
LINE
  5
1CF
330
1CC
100
AcDbEntity
  8
0
 62
2
370
20
100
AcDbLine
 10
267.10639720814413
 20
390.9093266739737
 30
0.0
 11
251.1063972081441
 21
418.62213959507574
 31
0.0
  0
LINE
  5
1D0
330
1CC
100
AcDbEntity
  8
0
 62
2
370
20
100
AcDbLine
 10
267.10639720814413
 20
410.9093266739737
 30
0.0
 11
251.1063972081441
 21
438.62213959507574
 31
0.0
  0
INSERT
  5
1D1
330
1CC
100
AcDbEntity
  8
DIM
 62
2
100
AcDbBlockReference
  2
_CLOSEDFILLED
 10
251.6313972081441
 20
417.71281292110206
 30
0.0
 41
2.1
 42
2.1
 50
270.0
  0
INSERT
  5
1D3
330
1CC
100
AcDbEntity
  8
DIM
 62
2
100
AcDbBlockReference
  2
_CLOSEDFILLED
 10
251.6313972081441
 20
437.71281292110206
 30
0.0
 41
2.1
 42
2.1
 50
90.0
  0
LINE
  5
1D5
330
1CC
100
AcDbEntity
  8
0
 62
2
370
20
100
AcDbLine
 10
251.6313972081441
 20
419.8128129211021
 30
0.0
 11
251.6313972081441
 21
435.61281292110203
 31
0.0
  0
MTEXT
  5
1D6
330
1CC
100
AcDbEntity
  8
DIM
 62
2
100
AcDbMText
 10
249.74139720814412
 20
427.71281292110206
 30
0.0
 40
2.1
 71
5
  1
178
  7
CRE_ROMANS
 50
90.0
  0
POINT
  5
1D7
330
1CC
100
AcDbEntity
  8
Defpoints
100
AcDbPoint
 10
251.6313972081441
 20
417.71281292110206
 30
0.0
  0
POINT
  5
1D8
330
1CC
100
AcDbEntity
  8
Defpoints
100
AcDbPoint
 10
267.6313972081441
 20
390.0
 30
0.0
  0
POINT
  5
1D9
330
1CC
100
AcDbEntity
  8
Defpoints
100
AcDbPoint
 10
267.6313972081441
 20
410.0
 30
0.0
  0
ENDBLK
  5
1CE
330
1CC
100
AcDbEntity
  8
0
100
AcDbBlockEnd
  0
BLOCK
  5
1DC
330
1DB
100
AcDbEntity
  8
0
100
AcDbBlockBegin
  2
*D18
 70
1
 10
0.0
 20
0.0
 30
0.0
  3
*D18
  1

  0
LINE
  5
1DE
330
1DB
100
AcDbEntity
  8
0
 62
2
370
20
100
AcDbLine
 10
306.07754037844387
 20
464.9093266739737
 30
0.0
 11
290.07754037844387
 21
492.62213959507574
 31
0.0
  0
LINE
  5
1DF
330
1DB
100
AcDbEntity
  8
0
 62
2
370
20
100
AcDbLine
 10
306.07754037844387
 20
486.9093266739737
 30
0.0
 11
290.07754037844387
 21
514.6221395950757
 31
0.0
  0
INSERT
  5
1E0
330
1DB
100
AcDbEntity
  8
DIM
 62
2
100
AcDbBlockReference
  2
_CLOSEDFILLED
 10
290.60254037844385
 20
491.71281292110206
 30
0.0
 41
2.1
 42
2.1
 50
270.0
  0
INSERT
  5
1E2
330
1DB
100
AcDbEntity
  8
DIM
 62
2
100
AcDbBlockReference
  2
_CLOSEDFILLED
 10
290.60254037844385
 20
513.7128129211021
 30
0.0
 41
2.1
 42
2.1
 50
90.0
  0
LINE
  5
1E4
330
1DB
100
AcDbEntity
  8
0
 62
2
370
20
100
AcDbLine
 10
290.60254037844385
 20
493.8128129211021
 30
0.0
 11
290.60254037844385
 21
511.6128129211021
 31
0.0
  0
MTEXT
  5
1E5
330
1DB
100
AcDbEntity
  8
DIM
 62
2
100
AcDbMText
 10
288.71254037844386
 20
502.7128129211021
 30
0.0
 40
2.1
 71
5
  1
118
  7
CRE_ROMANS
 50
90.0
  0
POINT
  5
1E6
330
1DB
100
AcDbEntity
  8
Defpoints
100
AcDbPoint
 10
290.60254037844385
 20
491.71281292110206
 30
0.0
  0
POINT
  5
1E7
330
1DB
100
AcDbEntity
  8
Defpoints
100
AcDbPoint
 10
306.60254037844385
 20
464.0
 30
0.0
  0
POINT
  5
1E8
330
1DB
100
AcDbEntity
  8
Defpoints
100
AcDbPoint
 10
306.60254037844385
 20
486.0
 30
0.0
  0
ENDBLK
  5
1DD
330
1DB
100
AcDbEntity
  8
0
100
AcDbBlockEnd
  0
BLOCK
  5
1EB
330
1EA
100
AcDbEntity
  8
0
100
AcDbBlockBegin
  2
*D19
 70
1
 10
0.0
 20
0.0
 30
0.0
  3
*D19
  1

  0
LINE
  5
1ED
330
1EA
100
AcDbEntity
  8
0
 62
2
370
20
100
AcDbLine
 10
327.0461246654859
 20
385.09067332602626
 30
0.0
 11
335.0461246654859
 21
371.23426686547526
 31
0.0
  0
LINE
  5
1EE
330
1EA
100
AcDbEntity
  8
0
 62
2
370
20
100
AcDbLine
 10
327.0461246654859
 20
365.09067332602626
 30
0.0
 11
335.0461246654859
 21
351.23426686547526
 31
0.0
  0
INSERT
  5
1EF
330
1EA
100
AcDbEntity
  8
DIM
 62
2
100
AcDbBlockReference
  2
_CLOSEDFILLED
 10
334.5211246654859
 20
372.14359353944894
 30
0.0
 41
2.1
 42
2.1
 50
90.0
  0
INSERT
  5
1F1
330
1EA
100
AcDbEntity
  8
DIM
 62
2
100
AcDbBlockReference
  2
_CLOSEDFILLED
 10
334.5211246654859
 20
352.14359353944894
 30
0.0
 41
2.1
 42
2.1
 50
-90.0
  0
LINE
  5
1F3
330
1EA
100
AcDbEntity
  8
0
 62
2
370
20
100
AcDbLine
 10
334.5211246654859
 20
370.0435935394489
 30
0.0
 11
334.5211246654859
 21
354.24359353944897
 31
0.0
  0
MTEXT
  5
1F4
330
1EA
100
AcDbEntity
  8
DIM
 62
2
100
AcDbMText
 10
336.4111246654859
 20
362.14359353944894
 30
0.0
 40
2.1
 71
5
  1
140
  7
CRE_ROMANS
 50
-90.0
  0
POINT
  5
1F5
330
1EA
100
AcDbEntity
  8
Defpoints
100
AcDbPoint
 10
334.5211246654859
 20
372.14359353944894
 30
0.0
  0
POINT
  5
1F6
330
1EA
100
AcDbEntity
  8
Defpoints
100
AcDbPoint
 10
326.5211246654859
 20
385.99999999999994
 30
0.0
  0
POINT
  5
1F7
330
1EA
100
AcDbEntity
  8
Defpoints
100
AcDbPoint
 10
326.5211246654859
 20
365.99999999999994
 30
0.0
  0
ENDBLK
  5
1EC
330
1EA
100
AcDbEntity
  8
0
100
AcDbBlockEnd
  0
BLOCK
  5
1FA
330
1F9
100
AcDbEntity
  8
0
100
AcDbBlockBegin
  2
*D20
 70
1
 10
0.0
 20
0.0
 30
0.0
  3
*D20
  1

  0
LINE
  5
1FC
330
1F9
100
AcDbEntity
  8
0
 62
2
370
20
100
AcDbLine
 10
198.16539030917346
 20
228.0
 30
0.0
 11
184.16539030917343
 21
228.0
 31
0.0
  0
LINE
  5
1FD
330
1F9
100
AcDbEntity
  8
0
 62
2
370
20
100
AcDbLine
 10
218.95
 20
240.0
 30
0.0
 11
204.95
 21
240.0
 31
0.0
  0
INSERT
  5
1FE
330
1F9
100
AcDbEntity
  8
DIM
 62
2
100
AcDbBlockReference
  2
_CLOSEDFILLED
 10
185.21539030917344
 20
228.0
 30
0.0
 41
2.1
 42
2.1
 50
210.0
  0
INSERT
  5
200
330
1F9
100
AcDbEntity
  8
DIM
 62
2
100
AcDbBlockReference
  2
_CLOSEDFILLED
 10
206.0
 20
240.0
 30
0.0
 41
2.1
 42
2.1
 50
29.999999999999996
  0
LINE
  5
202
330
1F9
100
AcDbEntity
  8
0
 62
2
370
20
100
AcDbLine
 10
187.03404365712078
 20
229.05
 30
0.0
 11
204.18134665205267
 21
238.95
 31
0.0
  0
MTEXT
  5
203
330
1F9
100
AcDbEntity
  8
DIM
 62
2
100
AcDbMText
 10
194.66269515458674
 20
235.6367880131526
 30
0.0
 40
2.1
 71
5
  1
63
  7
CRE_ROMANS
 50
29.999999999999996
  0
POINT
  5
204
330
1F9
100
AcDbEntity
  8
Defpoints
100
AcDbPoint
 10
185.21539030917344
 20
228.0
 30
0.0
  0
POINT
  5
205
330
1F9
100
AcDbEntity
  8
Defpoints
100
AcDbPoint
 10
199.21539030917347
 20
228.0
 30
0.0
  0
POINT
  5
206
330
1F9
100
AcDbEntity
  8
Defpoints
100
AcDbPoint
 10
220.0
 20
240.0
 30
0.0
  0
ENDBLK
  5
1FB
330
1F9
100
AcDbEntity
  8
0
100
AcDbBlockEnd
  0
BLOCK
  5
209
330
208
100
AcDbEntity
  8
0
100
AcDbBlockBegin
  2
*D21
 70
1
 10
0.0
 20
0.0
 30
0.0
  3
*D21
  1

  0
LINE
  5
20B
330
208
100
AcDbEntity
  8
0
 62
2
370
20
100
AcDbLine
 10
188.63911086754464
 20
337.5
 30
0.0
 11
174.63911086754473
 21
337.5
 31
0.0
  0
LINE
  5
20C
330
208
100
AcDbEntity
  8
0
 62
2
370
20
100
AcDbLine
 10
218.95
 20
320.0
 30
0.0
 11
204.95000000000007
 21
320.0
 31
0.0
  0
INSERT
  5
20D
330
208
100
AcDbEntity
  8
DIM
 62
2
100
AcDbBlockReference
  2
_CLOSEDFILLED
 10
175.68911086754474
 20
337.5
 30
0.0
 41
2.1
 42
2.1
 50
150.0
  0
INSERT
  5
20F
330
208
100
AcDbEntity
  8
DIM
 62
2
100
AcDbBlockReference
  2
_CLOSEDFILLED
 10
206.00000000000009
 20
320.0
 30
0.0
 41
2.1
 42
2.1
 50
-30.00000000000001
  0
LINE
  5
211
330
208
100
AcDbEntity
  8
0
 62
2
370
20
100
AcDbLine
 10
177.50776421549207
 20
336.45
 30
0.0
 11
204.18134665205275
 21
321.05
 31
0.0
  0
MTEXT
  5
212
330
208
100
AcDbEntity
  8
DIM
 62
2
100
AcDbMText
 10
191.78955543377242
 20
330.38678801315257
 30
0.0
 40
2.1
 71
5
  1
122
  7
CRE_ROMANS
 50
-30.00000000000001
  0
POINT
  5
213
330
208
100
AcDbEntity
  8
Defpoints
100
AcDbPoint
 10
175.68911086754474
 20
337.5
 30
0.0
  0
POINT
  5
214
330
208
100
AcDbEntity
  8
Defpoints
100
AcDbPoint
 10
189.68911086754466
 20
337.5
 30
0.0
  0
POINT
  5
215
330
208
100
AcDbEntity
  8
Defpoints
100
AcDbPoint
 10
220.0
 20
320.0
 30
0.0
  0
ENDBLK
  5
20A
330
208
100
AcDbEntity
  8
0
100
AcDbBlockEnd
  0
ENDSEC
  0
SECTION
  2
ENTITIES
  0
LWPOLYLINE
  5
9D
330
17
100
AcDbEntity
  8
BORDER
370
35
100
AcDbPolyline
 90
4
 70
1
 10
8.0
 20
8.0
 10
412.0
 20
8.0
 10
412.0
 20
586.0
 10
8.0
 20
586.0
  0
LWPOLYLINE
  5
9E
330
17
100
AcDbEntity
  8
BORDER
370
20
100
AcDbPolyline
 90
4
 70
1
 10
11.0
 20
11.0
 10
409.0
 20
11.0
 10
409.0
 20
583.0
 10
11.0
 20
583.0
  0
LWPOLYLINE
  5
9F
330
17
100
AcDbEntity
  8
BORDER
370
25
100
AcDbPolyline
 90
4
 70
1
 10
11.0
 20
568.0
 10
123.0
 20
568.0
 10
123.0
 20
581.0
 10
11.0
 20
581.0
  0
TEXT
  5
A0
330
17
100
AcDbEntity
  8
TITLE
100
AcDbText
 10
67.0
 20
571.8
 30
0.0
 40
3.75
  1
IF IN ANY DOUBT PLS ASK
  7
CRE_ARIAL_NARROW_BOLD
 72
1
 11
67.0
 21
571.8
 31
0.0
100
AcDbText
  0
LWPOLYLINE
  5
A1
330
17
100
AcDbEntity
  8
BORDER
370
25
100
AcDbPolyline
 90
4
 70
1
 10
309.0
 20
568.0
 10
409.0
 20
568.0
 10
409.0
 20
581.0
 10
309.0
 20
581.0
  0
TEXT
  5
A2
330
17
100
AcDbEntity
  8
TITLE
100
AcDbText
 10
359.0
 20
571.8
 30
0.0
 40
3.75
  1
DO NOT SCALE
  7
CRE_ARIAL_NARROW_BOLD
 72
1
 11
359.0
 21
571.8
 31
0.0
100
AcDbText
  0
LWPOLYLINE
  5
A3
330
17
100
AcDbEntity
  8
BORDER
370
25
100
AcDbPolyline
 90
4
 70
1
 10
374.0
 20
516.0
 10
399.0
 20
516.0
 10
399.0
 20
546.0
 10
374.0
 20
546.0
  0
TEXT
  5
A4
330
17
100
AcDbEntity
  8
TITLE
100
AcDbText
 10
386.5
 20
538.0
 30
0.0
 40
3.4
  1
N
  7
CRE_ARIAL_NARROW_BOLD
 72
1
 11
386.5
 21
538.0
 31
0.0
100
AcDbText
  0
LINE
  5
A5
330
17
100
AcDbEntity
  8
SYMBOL
370
30
100
AcDbLine
 10
380.0
 20
521.0
 30
0.0
 11
393.0
 21
534.0
 31
0.0
  0
LINE
  5
A6
330
17
100
AcDbEntity
  8
SYMBOL
370
30
100
AcDbLine
 10
393.0
 20
534.0
 30
0.0
 11
387.8
 21
532.8
 31
0.0
  0
LINE
  5
A7
330
17
100
AcDbEntity
  8
SYMBOL
370
30
100
AcDbLine
 10
393.0
 20
534.0
 30
0.0
 11
391.8
 21
528.8
 31
0.0
  0
LINE
  5
A8
330
17
100
AcDbEntity
  8
PIPE
370
53
100
AcDbLine
 10
220.0
 20
240.0
 30
0.0
 11
384.5448267190434
 21
335.0
 31
0.0
  0
LINE
  5
A9
330
17
100
AcDbEntity
  8
PIPE
370
53
100
AcDbLine
 10
220.0
 20
240.0
 30
0.0
 11
220.0
 21
320.0
 31
0.0
  0
LINE
  5
AA
330
17
100
AcDbEntity
  8
PIPE
370
53
100
AcDbLine
 10
220.0
 20
320.0
 30
0.0
 11
267.6313972081441
 21
292.5
 31
0.0
  0
LINE
  5
AB
330
17
100
AcDbEntity
  8
PIPE
370
53
100
AcDbLine
 10
267.6313972081441
 20
292.5
 30
0.0
 11
267.6313972081441
 21
390.0
 31
0.0
  0
LINE
  5
AC
330
17
100
AcDbEntity
  8
PIPE
370
53
100
AcDbLine
 10
267.6313972081441
 20
410.0
 30
0.0
 11
267.6313972081441
 21
452.0
 31
0.0
  0
LINE
  5
AD
330
17
100
AcDbEntity
  8
PIPE
370
53
100
AcDbLine
 10
267.6313972081441
 20
452.0
 30
0.0
 11
306.60254037844385
 21
429.5
 31
0.0
  0
LINE
  5
AE
330
17
100
AcDbEntity
  8
PIPE
370
53
100
AcDbLine
 10
306.60254037844385
 20
429.5
 30
0.0
 11
354.23393758658796
 21
401.99999999999994
 31
0.0
  0
LINE
  5
AF
330
17
100
AcDbEntity
  8
PIPE
370
53
100
AcDbLine
 10
354.23393758658796
 20
401.99999999999994
 30
0.0
 11
326.5211246654859
 21
385.99999999999994
 31
0.0
  0
LINE
  5
B0
330
17
100
AcDbEntity
  8
PIPE
370
53
100
AcDbLine
 10
306.60254037844385
 20
429.5
 30
0.0
 11
306.60254037844385
 21
464.0
 31
0.0
  0
LINE
  5
B1
330
17
100
AcDbEntity
  8
COMPONENT
370
50
100
AcDbLine
 10
199.21539030917347
 20
228.0
 30
0.0
 11
220.0
 21
240.0
 31
0.0
  0
LINE
  5
B2
330
17
100
AcDbEntity
  8
COMPONENT
370
50
100
AcDbLine
 10
189.68911086754466
 20
337.5
 30
0.0
 11
220.0
 21
320.0
 31
0.0
  0
CIRCLE
  5
B3
330
17
100
AcDbEntity
  8
COMPONENT
370
50
100
AcDbCircle
 10
220.0
 20
240.0
 30
0.0
 40
1.0
  0
CIRCLE
  5
B4
330
17
100
AcDbEntity
  8
COMPONENT
370
50
100
AcDbCircle
 10
220.0
 20
320.0
 30
0.0
 40
1.0
  0
LWPOLYLINE
  5
B5
330
17
100
AcDbEntity
  8
COMPONENT
370
50
100
AcDbPolyline
 90
3
 70
0
 10
264.1672955930064
 20
294.5
 10
267.6313972081441
 20
292.5
 10
267.6313972081441
 20
296.5
  0
LWPOLYLINE
  5
B6
330
17
100
AcDbEntity
  8
COMPONENT
370
50
100
AcDbPolyline
 90
3
 70
0
 10
267.6313972081441
 20
448.0
 10
267.6313972081441
 20
452.0
 10
271.09549882328184
 20
450.0
  0
LWPOLYLINE
  5
B7
330
17
100
AcDbEntity
  8
COMPONENT
370
50
100
AcDbPolyline
 90
3
 70
0
 10
350.7698359714502
 20
403.99999999999994
 10
354.23393758658796
 20
401.99999999999994
 10
350.7698359714502
 20
399.99999999999994
  0
LWPOLYLINE
  5
B8
330
17
100
AcDbEntity
  8
COMPONENT
370
50
100
AcDbPolyline
 90
3
 70
0
 10
329.98522628062364
 20
387.99999999999994
 10
326.5211246654859
 20
385.99999999999994
 10
326.5211246654859
 20
381.99999999999994
  0
LINE
  5
B9
330
17
100
AcDbEntity
  8
COMPONENT
370
35
100
AcDbLine
 10
264.1672955930064
 20
386.6
 30
0.0
 11
271.09549882328184
 21
390.6
 31
0.0
  0
LINE
  5
BA
330
17
100
AcDbEntity
  8
COMPONENT
370
35
100
AcDbLine
 10
264.1672955930064
 20
389.4
 30
0.0
 11
271.09549882328184
 21
393.4
 31
0.0
  0
LINE
  5
BB
330
17
100
AcDbEntity
  8
COMPONENT
370
35
100
AcDbLine
 10
264.1672955930064
 20
406.6
 30
0.0
 11
271.09549882328184
 21
410.6
 31
0.0
  0
LINE
  5
BC
330
17
100
AcDbEntity
  8
COMPONENT
370
35
100
AcDbLine
 10
264.1672955930064
 20
409.4
 30
0.0
 11
271.09549882328184
 21
413.4
 31
0.0
  0
LINE
  5
BD
330
17
100
AcDbEntity
  8
COMPONENT
370
50
100
AcDbLine
 10
267.6313972081441
 20
390.0
 30
0.0
 11
267.6313972081441
 21
395.0
 31
0.0
  0
LINE
  5
BE
330
17
100
AcDbEntity
  8
COMPONENT
370
50
100
AcDbLine
 10
267.6313972081441
 20
405.0
 30
0.0
 11
267.6313972081441
 21
410.0
 31
0.0
  0
LINE
  5
BF
330
17
100
AcDbEntity
  8
COMPONENT
370
35
100
AcDbLine
 10
267.6313972081441
 20
395.0
 30
0.0
 11
263.6313972081441
 21
400.0
 31
0.0
  0
LINE
  5
C0
330
17
100
AcDbEntity
  8
COMPONENT
370
35
100
AcDbLine
 10
263.6313972081441
 20
400.0
 30
0.0
 11
267.6313972081441
 21
405.0
 31
0.0
  0
LINE
  5
C1
330
17
100
AcDbEntity
  8
COMPONENT
370
35
100
AcDbLine
 10
267.6313972081441
 20
405.0
 30
0.0
 11
271.6313972081441
 21
400.0
 31
0.0
  0
LINE
  5
C2
330
17
100
AcDbEntity
  8
COMPONENT
370
35
100
AcDbLine
 10
271.6313972081441
 20
400.0
 30
0.0
 11
267.6313972081441
 21
395.0
 31
0.0
  0
CIRCLE
  5
C3
330
17
100
AcDbEntity
  8
COMPONENT
370
35
100
AcDbCircle
 10
267.6313972081441
 20
400.0
 30
0.0
 40
1.2
  0
LINE
  5
C4
330
17
100
AcDbEntity
  8
COMPONENT
370
35
100
AcDbLine
 10
267.6313972081441
 20
400.0
 30
0.0
 11
260.6313972081441
 21
400.0
 31
0.0
  0
LINE
  5
C5
330
17
100
AcDbEntity
  8
COMPONENT
370
35
100
AcDbLine
 10
260.6313972081441
 20
397.6
 30
0.0
 11
260.6313972081441
 21
402.4
 31
0.0
  0
CIRCLE
  5
C6
330
17
100
AcDbEntity
  8
COMPONENT
370
35
100
AcDbCircle
 10
266.2890578322782
 20
412.625
 30
0.0
 40
1.45
  0
CIRCLE
  5
C7
330
17
100
AcDbEntity
  8
COMPONENT
370
35
100
AcDbCircle
 10
268.97373658401
 20
414.17499999999995
 30
0.0
 40
1.45
  0
LINE
  5
C8
330
17
100
AcDbEntity
  8
COMPONENT
370
35
100
AcDbLine
 10
266.2890578322782
 20
412.625
 30
0.0
 11
268.97373658401
 21
414.17499999999995
 31
0.0
  0
CIRCLE
  5
C9
330
17
100
AcDbEntity
  8
COMPONENT
370
40
100
AcDbCircle
 10
306.60254037844385
 20
429.5
 30
0.0
 40
1.25
  0
LINE
  5
CA
330
17
100
AcDbEntity
  8
COMPONENT
370
35
100
AcDbLine
 10
303.1384387633061
 20
460.6
 30
0.0
 11
310.0666419935816
 21
464.6
 31
0.0
  0
LINE
  5
CB
330
17
100
AcDbEntity
  8
COMPONENT
370
35
100
AcDbLine
 10
303.1384387633061
 20
463.4
 30
0.0
 11
310.0666419935816
 21
467.4
 31
0.0
  0
LINE
  5
CC
330
17
100
AcDbEntity
  8
COMPONENT
370
35
100
AcDbLine
 10
303.1384387633061
 20
482.6
 30
0.0
 11
310.0666419935816
 21
486.6
 31
0.0
  0
LINE
  5
CD
330
17
100
AcDbEntity
  8
COMPONENT
370
35
100
AcDbLine
 10
303.1384387633061
 20
485.4
 30
0.0
 11
310.0666419935816
 21
489.4
 31
0.0
  0
LINE
  5
CE
330
17
100
AcDbEntity
  8
COMPONENT
370
50
100
AcDbLine
 10
306.60254037844385
 20
464.0
 30
0.0
 11
306.60254037844385
 21
470.0
 31
0.0
  0
LINE
  5
CF
330
17
100
AcDbEntity
  8
COMPONENT
370
50
100
AcDbLine
 10
306.60254037844385
 20
480.0
 30
0.0
 11
306.60254037844385
 21
486.0
 31
0.0
  0
LINE
  5
D0
330
17
100
AcDbEntity
  8
COMPONENT
370
35
100
AcDbLine
 10
306.60254037844385
 20
470.0
 30
0.0
 11
302.60254037844385
 21
475.0
 31
0.0
  0
LINE
  5
D1
330
17
100
AcDbEntity
  8
COMPONENT
370
35
100
AcDbLine
 10
302.60254037844385
 20
475.0
 30
0.0
 11
306.60254037844385
 21
480.0
 31
0.0
  0
LINE
  5
D2
330
17
100
AcDbEntity
  8
COMPONENT
370
35
100
AcDbLine
 10
306.60254037844385
 20
480.0
 30
0.0
 11
310.60254037844385
 21
475.0
 31
0.0
  0
LINE
  5
D3
330
17
100
AcDbEntity
  8
COMPONENT
370
35
100
AcDbLine
 10
310.60254037844385
 20
475.0
 30
0.0
 11
306.60254037844385
 21
470.0
 31
0.0
  0
CIRCLE
  5
D4
330
17
100
AcDbEntity
  8
COMPONENT
370
35
100
AcDbCircle
 10
306.60254037844385
 20
475.0
 30
0.0
 40
1.2
  0
LINE
  5
D5
330
17
100
AcDbEntity
  8
COMPONENT
370
35
100
AcDbLine
 10
306.60254037844385
 20
475.0
 30
0.0
 11
299.60254037844385
 21
475.0
 31
0.0
  0
LINE
  5
D6
330
17
100
AcDbEntity
  8
COMPONENT
370
35
100
AcDbLine
 10
299.60254037844385
 20
472.6
 30
0.0
 11
299.60254037844385
 21
477.4
 31
0.0
  0
LINE
  5
D7
330
17
100
AcDbEntity
  8
COMPONENT
370
40
100
AcDbLine
 10
302.8786311421708
 20
486.65000000000003
 30
0.0
 11
310.3264496147169
 21
490.95
 31
0.0
  0
LINE
  5
D8
330
17
100
AcDbEntity
  8
COMPONENT
370
50
100
AcDbLine
 10
326.5211246654859
 20
385.99999999999994
 30
0.0
 11
326.5211246654859
 21
365.99999999999994
 31
0.0
  0
LINE
  5
D9
330
17
100
AcDbEntity
  8
COMPONENT
370
35
100
AcDbLine
 10
323.05702305034816
 20
362.59999999999997
 30
0.0
 11
329.98522628062364
 21
366.59999999999997
 31
0.0
  0
LINE
  5
DA
330
17
100
AcDbEntity
  8
COMPONENT
370
35
100
AcDbLine
 10
323.05702305034816
 20
365.3999999999999
 30
0.0
 11
329.98522628062364
 21
369.3999999999999
 31
0.0
  0
DIMENSION
  5
DB
330
17
100
AcDbEntity
  8
DIM
370
20
100
AcDbDimension
280
0
  2
*D1
  3
CRE_PTFE_DIM
 10
236.0
 20
240.0
 30
0.0
 11
317.3274133595217
 21
289.13678801315257
 31
0.0
 70
32
 71
5
  1
6287
 52
150.0
100
AcDbAlignedDimension
 13
220.0
 23
240.0
 33
0.0
 14
384.5448267190434
 24
335.0
 34
0.0
 50
29.999999999999996
100
AcDbRotatedDimension
1001
ACAD
1000
DSTYLE
1002
{
1070
176
1070
2
1070
177
1070
2
1070
178
1070
2
1070
340
1005
9B
1002
}
  0
DIMENSION
  5
EA
330
17
100
AcDbEntity
  8
DIM
370
20
100
AcDbDimension
280
0
  2
*D2
  3
CRE_PTFE_DIM
 10
248.0
 20
240.0
 30
0.0
 11
329.3274133595217
 21
289.13678801315257
 31
0.0
 70
32
 71
5
  1
6351
 52
150.0
100
AcDbAlignedDimension
 13
220.0
 23
240.0
 33
0.0
 14
384.5448267190434
 24
335.0
 34
0.0
 50
29.999999999999996
100
AcDbRotatedDimension
1001
ACAD
1000
DSTYLE
1002
{
1070
176
1070
2
1070
177
1070
2
1070
178
1070
2
1070
340
1005
9B
1002
}
  0
DIMENSION
  5
F9
330
17
100
AcDbEntity
  8
DIM
370
20
100
AcDbDimension
280
0
  2
*D3
  3
CRE_PTFE_DIM
 10
228.0
 20
226.143593539449
 30
0.0
 11
226.11
 21
266.143593539449
 31
0.0
 70
32
 71
5
  1
273
 52
30.0
100
AcDbAlignedDimension
 13
220.0
 23
240.0
 33
0.0
 14
220.0
 24
320.0
 34
0.0
 50
90.0
100
AcDbRotatedDimension
1001
ACAD
1000
DSTYLE
1002
{
1070
176
1070
2
1070
177
1070
2
1070
178
1070
2
1070
340
1005
9B
1002
}
  0
DIMENSION
  5
108
330
17
100
AcDbEntity
  8
DIM
370
20
100
AcDbDimension
280
0
  2
*D4
  3
CRE_PTFE_DIM
 10
234.0
 20
215.75128869403574
 30
0.0
 11
232.11
 21
255.75128869403574
 31
0.0
 70
32
 71
5
  1
400
 52
30.0
100
AcDbAlignedDimension
 13
220.0
 23
240.0
 33
0.0
 14
220.0
 24
320.0
 34
0.0
 50
90.0
100
AcDbRotatedDimension
1001
ACAD
1000
DSTYLE
1002
{
1070
176
1070
2
1070
177
1070
2
1070
178
1070
2
1070
340
1005
9B
1002
}
  0
DIMENSION
  5
117
330
17
100
AcDbEntity
  8
DIM
370
20
100
AcDbDimension
280
0
  2
*D5
  3
CRE_PTFE_DIM
 10
204.0
 20
320.0
 30
0.0
 11
228.76069860407205
 21
307.88678801315257
 31
0.0
 70
32
 71
5
  1
340
 52
30.0
100
AcDbAlignedDimension
 13
220.0
 23
320.0
 33
0.0
 14
267.6313972081441
 24
292.5
 34
0.0
 50
-30.00000000000001
100
AcDbRotatedDimension
1001
ACAD
1000
DSTYLE
1002
{
1070
176
1070
2
1070
177
1070
2
1070
178
1070
2
1070
340
1005
9B
1002
}
  0
DIMENSION
  5
126
330
17
100
AcDbEntity
  8
DIM
370
20
100
AcDbDimension
280
0
  2
*D6
  3
CRE_PTFE_DIM
 10
191.99999999999997
 20
320.0
 30
0.0
 11
216.76069860407202
 21
307.88678801315257
 31
0.0
 70
32
 71
5
  1
480
 52
30.0
100
AcDbAlignedDimension
 13
220.0
 23
320.0
 33
0.0
 14
267.6313972081441
 24
292.5
 34
0.0
 50
-30.00000000000001
100
AcDbRotatedDimension
1001
ACAD
1000
DSTYLE
1002
{
1070
176
1070
2
1070
177
1070
2
1070
178
1070
2
1070
340
1005
9B
1002
}
  0
DIMENSION
  5
135
330
17
100
AcDbEntity
  8
DIM
370
20
100
AcDbDimension
280
0
  2
*D7
  3
CRE_PTFE_DIM
 10
275.6313972081441
 20
278.643593539449
 30
0.0
 11
273.7413972081441
 21
327.393593539449
 31
0.0
 70
32
 71
5
  1
1670
 52
30.0
100
AcDbAlignedDimension
 13
267.6313972081441
 23
292.5
 33
0.0
 14
267.6313972081441
 24
390.0
 34
0.0
 50
90.0
100
AcDbRotatedDimension
1001
ACAD
1000
DSTYLE
1002
{
1070
176
1070
2
1070
177
1070
2
1070
178
1070
2
1070
340
1005
9B
1002
}
  0
DIMENSION
  5
144
330
17
100
AcDbEntity
  8
DIM
370
20
100
AcDbDimension
280
0
  2
*D8
  3
CRE_PTFE_DIM
 10
281.6313972081441
 20
268.25128869403574
 30
0.0
 11
279.7413972081441
 21
317.00128869403574
 31
0.0
 70
32
 71
5
  1
1810
 52
30.0
100
AcDbAlignedDimension
 13
267.6313972081441
 23
292.5
 33
0.0
 14
267.6313972081441
 24
390.0
 34
0.0
 50
90.0
100
AcDbRotatedDimension
1001
ACAD
1000
DSTYLE
1002
{
1070
176
1070
2
1070
177
1070
2
1070
178
1070
2
1070
340
1005
9B
1002
}
  0
DIMENSION
  5
153
330
17
100
AcDbEntity
  8
DIM
370
20
100
AcDbDimension
280
0
  2
*D9
  3
CRE_PTFE_DIM
 10
275.6313972081441
 20
396.143593539449
 30
0.0
 11
273.7413972081441
 21
417.143593539449
 31
0.0
 70
32
 71
5
  1
220
 52
30.0
100
AcDbAlignedDimension
 13
267.6313972081441
 23
410.0
 33
0.0
 14
267.6313972081441
 24
452.0
 34
0.0
 50
90.0
100
AcDbRotatedDimension
1001
ACAD
1000
DSTYLE
1002
{
1070
176
1070
2
1070
177
1070
2
1070
178
1070
2
1070
340
1005
9B
1002
}
  0
DIMENSION
  5
162
330
17
100
AcDbEntity
  8
DIM
370
20
100
AcDbDimension
280
0
  2
*D10
  3
CRE_PTFE_DIM
 10
281.6313972081441
 20
385.75128869403574
 30
0.0
 11
279.7413972081441
 21
406.75128869403574
 31
0.0
 70
32
 71
5
  1
359
 52
30.0
100
AcDbAlignedDimension
 13
267.6313972081441
 23
410.0
 33
0.0
 14
267.6313972081441
 24
452.0
 34
0.0
 50
90.0
100
AcDbRotatedDimension
1001
ACAD
1000
DSTYLE
1002
{
1070
176
1070
2
1070
177
1070
2
1070
178
1070
2
1070
340
1005
9B
1002
}
  0
DIMENSION
  5
171
330
17
100
AcDbEntity
  8
DIM
370
20
100
AcDbDimension
280
0
  2
*D11
  3
CRE_PTFE_DIM
 10
298.60254037844385
 20
443.35640646055106
 30
0.0
 11
296.71254037844386
 21
460.60640646055106
 31
0.0
 70
32
 71
5
  1
100
 52
30.0
100
AcDbAlignedDimension
 13
306.60254037844385
 23
429.5
 33
0.0
 14
306.60254037844385
 24
464.0
 34
0.0
 50
90.0
100
AcDbRotatedDimension
1001
ACAD
1000
DSTYLE
1002
{
1070
176
1070
2
1070
177
1070
2
1070
178
1070
2
1070
340
1005
9B
1002
}
  0
DIMENSION
  5
180
330
17
100
AcDbEntity
  8
DIM
370
20
100
AcDbDimension
280
0
  2
*D12
  3
CRE_PTFE_DIM
 10
292.60254037844385
 20
453.74871130596426
 30
0.0
 11
290.71254037844386
 21
470.99871130596426
 31
0.0
 70
32
 71
5
  1
210
 52
30.0
100
AcDbAlignedDimension
 13
306.60254037844385
 23
429.5
 33
0.0
 14
306.60254037844385
 24
464.0
 34
0.0
 50
90.0
100
AcDbRotatedDimension
1001
ACAD
1000
DSTYLE
1002
{
1070
176
1070
2
1070
177
1070
2
1070
178
1070
2
1070
340
1005
9B
1002
}
  0
DIMENSION
  5
18F
330
17
100
AcDbEntity
  8
DIM
370
20
100
AcDbDimension
280
0
  2
*D13
  3
CRE_PTFE_DIM
 10
283.6313972081442
 20
452.0
 30
0.0
 11
327.8776673973661
 21
428.63678801315257
 31
0.0
 70
32
 71
5
  1
1041
 52
30.0
100
AcDbAlignedDimension
 13
267.6313972081441
 23
452.0
 33
0.0
 14
354.23393758658796
 24
401.99999999999994
 34
0.0
 50
-30.000000000000036
100
AcDbRotatedDimension
1001
ACAD
1000
DSTYLE
1002
{
1070
176
1070
2
1070
177
1070
2
1070
178
1070
2
1070
340
1005
9B
1002
}
  0
DIMENSION
  5
19E
330
17
100
AcDbEntity
  8
DIM
370
20
100
AcDbDimension
280
0
  2
*D14
  3
CRE_PTFE_DIM
 10
295.6313972081441
 20
452.0
 30
0.0
 11
339.877667397366
 21
428.63678801315257
 31
0.0
 70
32
 71
5
  1
1162
 52
30.0
100
AcDbAlignedDimension
 13
267.6313972081441
 23
452.0
 33
0.0
 14
354.23393758658796
 24
401.99999999999994
 34
0.0
 50
-30.000000000000036
100
AcDbRotatedDimension
1001
ACAD
1000
DSTYLE
1002
{
1070
176
1070
2
1070
177
1070
2
1070
178
1070
2
1070
340
1005
9B
1002
}
  0
DIMENSION
  5
1AD
330
17
100
AcDbEntity
  8
DIM
370
20
100
AcDbDimension
280
0
  2
*D15
  3
CRE_PTFE_DIM
 10
338.23393758658796
 20
401.99999999999994
 30
0.0
 11
325.3225311260369
 21
392.3632119868474
 31
0.0
 70
32
 71
5
  1
160
 52
150.0
100
AcDbAlignedDimension
 13
354.23393758658796
 23
401.99999999999994
 33
0.0
 14
326.5211246654859
 24
385.99999999999994
 34
0.0
 50
-150.00000000000003
100
AcDbRotatedDimension
1001
ACAD
1000
DSTYLE
1002
{
1070
176
1070
2
1070
177
1070
2
1070
178
1070
2
1070
340
1005
9B
1002
}
  0
DIMENSION
  5
1BC
330
17
100
AcDbEntity
  8
DIM
370
20
100
AcDbDimension
280
0
  2
*D16
  3
CRE_PTFE_DIM
 10
326.2339375865879
 20
401.99999999999994
 30
0.0
 11
313.32253112603684
 21
392.3632119868474
 31
0.0
 70
32
 71
5
  1
305
 52
150.0
100
AcDbAlignedDimension
 13
354.23393758658796
 23
401.99999999999994
 33
0.0
 14
326.5211246654859
 24
385.99999999999994
 34
0.0
 50
-150.00000000000003
100
AcDbRotatedDimension
1001
ACAD
1000
DSTYLE
1002
{
1070
176
1070
2
1070
177
1070
2
1070
178
1070
2
1070
340
1005
9B
1002
}
  0
DIMENSION
  5
1CB
330
17
100
AcDbEntity
  8
DIM
370
20
100
AcDbDimension
280
0
  2
*D17
  3
CRE_PTFE_DIM
 10
251.6313972081441
 20
417.71281292110206
 30
0.0
 11
249.74139720814412
 21
427.71281292110206
 31
0.0
 70
32
 71
5
  1
178
 52
30.0
100
AcDbAlignedDimension
 13
267.6313972081441
 23
390.0
 33
0.0
 14
267.6313972081441
 24
410.0
 34
0.0
 50
90.0
100
AcDbRotatedDimension
1001
ACAD
1000
DSTYLE
1002
{
1070
176
1070
2
1070
177
1070
2
1070
178
1070
2
1070
340
1005
9B
1002
}
  0
DIMENSION
  5
1DA
330
17
100
AcDbEntity
  8
DIM
370
20
100
AcDbDimension
280
0
  2
*D18
  3
CRE_PTFE_DIM
 10
290.60254037844385
 20
491.71281292110206
 30
0.0
 11
288.71254037844386
 21
502.7128129211021
 31
0.0
 70
32
 71
5
  1
118
 52
30.0
100
AcDbAlignedDimension
 13
306.60254037844385
 23
464.0
 33
0.0
 14
306.60254037844385
 24
486.0
 34
0.0
 50
90.0
100
AcDbRotatedDimension
1001
ACAD
1000
DSTYLE
1002
{
1070
176
1070
2
1070
177
1070
2
1070
178
1070
2
1070
340
1005
9B
1002
}
  0
DIMENSION
  5
1E9
330
17
100
AcDbEntity
  8
DIM
370
20
100
AcDbDimension
280
0
  2
*D19
  3
CRE_PTFE_DIM
 10
334.5211246654859
 20
372.14359353944894
 30
0.0
 11
336.4111246654859
 21
362.14359353944894
 31
0.0
 70
32
 71
5
  1
140
 52
30.0
100
AcDbAlignedDimension
 13
326.5211246654859
 23
385.99999999999994
 33
0.0
 14
326.5211246654859
 24
365.99999999999994
 34
0.0
 50
-90.0
100
AcDbRotatedDimension
1001
ACAD
1000
DSTYLE
1002
{
1070
176
1070
2
1070
177
1070
2
1070
178
1070
2
1070
340
1005
9B
1002
}
  0
DIMENSION
  5
1F8
330
17
100
AcDbEntity
  8
DIM
370
20
100
AcDbDimension
280
0
  2
*D20
  3
CRE_PTFE_DIM
 10
185.21539030917344
 20
228.0
 30
0.0
 11
194.66269515458674
 21
235.6367880131526
 31
0.0
 70
32
 71
5
  1
63
 52
150.0
100
AcDbAlignedDimension
 13
199.21539030917347
 23
228.0
 33
0.0
 14
220.0
 24
240.0
 34
0.0
 50
29.999999999999996
100
AcDbRotatedDimension
1001
ACAD
1000
DSTYLE
1002
{
1070
176
1070
2
1070
177
1070
2
1070
178
1070
2
1070
340
1005
9B
1002
}
  0
DIMENSION
  5
207
330
17
100
AcDbEntity
  8
DIM
370
20
100
AcDbDimension
280
0
  2
*D21
  3
CRE_PTFE_DIM
 10
175.68911086754474
 20
337.5
 30
0.0
 11
191.78955543377242
 21
330.38678801315257
 31
0.0
 70
32
 71
5
  1
122
 52
30.0
100
AcDbAlignedDimension
 13
189.68911086754466
 23
337.5
 33
0.0
 14
220.0
 24
320.0
 34
0.0
 50
-30.00000000000001
100
AcDbRotatedDimension
1001
ACAD
1000
DSTYLE
1002
{
1070
176
1070
2
1070
177
1070
2
1070
178
1070
2
1070
340
1005
9B
1002
}
  0
TEXT
  5
216
330
17
100
AcDbEntity
  8
LABEL
100
AcDbText
 10
356.0
 20
365.0
 30
0.0
 40
2.15
  1
CONT. FROM DRG 1
  7
CRE_ARIAL_NARROW_BOLD
 11
356.0
 21
365.0
 31
0.0
100
AcDbText
  0
TEXT
  5
217
330
17
100
AcDbEntity
  8
LABEL
100
AcDbText
 10
356.0
 20
360.5
 30
0.0
 40
2.15
  1
2" NS
  7
CRE_ARIAL_NARROW_BOLD
 11
356.0
 21
360.5
 31
0.0
100
AcDbText
  0
TEXT
  5
218
330
17
100
AcDbEntity
  8
LABEL
100
AcDbText
 10
356.0
 20
356.0
 30
0.0
 40
2.15
  1
13 DEG
  7
CRE_ARIAL_NARROW
 11
356.0
 21
356.0
 31
0.0
100
AcDbText
  0
LINE
  5
219
330
17
100
AcDbEntity
  8
LABEL
370
25
100
AcDbLine
 10
356.0
 20
366.0
 30
0.0
 11
384.5448267190434
 21
335.0
 31
0.0
  0
TEXT
  5
21A
330
17
100
AcDbEntity
  8
LABEL
100
AcDbText
 10
145.0
 20
229.0
 30
0.0
 40
2.15
  1
CONT. ON
  7
CRE_ARIAL_NARROW_BOLD
 11
145.0
 21
229.0
 31
0.0
100
AcDbText
  0
TEXT
  5
21B
330
17
100
AcDbEntity
  8
LABEL
100
AcDbText
 10
145.0
 20
224.5
 30
0.0
 40
2.15
  1
2"-WNA-418-1401-1-A82Y-G
  7
CRE_ARIAL_NARROW_BOLD
 11
145.0
 21
224.5
 31
0.0
100
AcDbText
  0
TEXT
  5
21C
330
17
100
AcDbEntity
  8
LABEL
100
AcDbText
 10
145.0
 20
220.0
 30
0.0
 40
2.15
  1
E 676931
  7
CRE_ARIAL_NARROW
 11
145.0
 21
220.0
 31
0.0
100
AcDbText
  0
TEXT
  5
21D
330
17
100
AcDbEntity
  8
LABEL
100
AcDbText
 10
145.0
 20
215.5
 30
0.0
 40
2.15
  1
N 602970
  7
CRE_ARIAL_NARROW
 11
145.0
 21
215.5
 31
0.0
100
AcDbText
  0
TEXT
  5
21E
330
17
100
AcDbEntity
  8
LABEL
100
AcDbText
 10
145.0
 20
211.0
 30
0.0
 40
2.15
  1
EL +101830
  7
CRE_ARIAL_NARROW_BOLD
 11
145.0
 21
211.0
 31
0.0
100
AcDbText
  0
LINE
  5
21F
330
17
100
AcDbEntity
  8
LABEL
370
25
100
AcDbLine
 10
181.0
 20
230.0
 30
0.0
 11
199.21539030917347
 21
228.0
 31
0.0
  0
TEXT
  5
220
330
17
100
AcDbEntity
  8
LABEL
100
AcDbText
 10
130.0
 20
343.0
 30
0.0
 40
2.15
  1
CONT. ON
  7
CRE_ARIAL_NARROW_BOLD
 11
130.0
 21
343.0
 31
0.0
100
AcDbText
  0
TEXT
  5
221
330
17
100
AcDbEntity
  8
LABEL
100
AcDbText
 10
130.0
 20
338.5
 30
0.0
 40
2.15
  1
2"-WNA-418-1402-A82Y-G
  7
CRE_ARIAL_NARROW_BOLD
 11
130.0
 21
338.5
 31
0.0
100
AcDbText
  0
TEXT
  5
222
330
17
100
AcDbEntity
  8
LABEL
100
AcDbText
 10
130.0
 20
334.0
 30
0.0
 40
2.15
  1
E 676884
  7
CRE_ARIAL_NARROW
 11
130.0
 21
334.0
 31
0.0
100
AcDbText
  0
TEXT
  5
223
330
17
100
AcDbEntity
  8
LABEL
100
AcDbText
 10
130.0
 20
329.5
 30
0.0
 40
2.15
  1
N 603047
  7
CRE_ARIAL_NARROW
 11
130.0
 21
329.5
 31
0.0
100
AcDbText
  0
TEXT
  5
224
330
17
100
AcDbEntity
  8
LABEL
100
AcDbText
 10
130.0
 20
325.0
 30
0.0
 40
2.15
  1
EL +102230
  7
CRE_ARIAL_NARROW_BOLD
 11
130.0
 21
325.0
 31
0.0
100
AcDbText
  0
LINE
  5
225
330
17
100
AcDbEntity
  8
LABEL
370
25
100
AcDbLine
 10
166.0
 20
344.0
 30
0.0
 11
189.68911086754466
 21
337.5
 31
0.0
  0
TEXT
  5
226
330
17
100
AcDbEntity
  8
LABEL
100
AcDbText
 10
337.0
 20
374.0
 30
0.0
 40
2.15
  1
CONN. TO 418-T-102B/F
  7
CRE_ARIAL_NARROW_BOLD
 11
337.0
 21
374.0
 31
0.0
100
AcDbText
  0
TEXT
  5
227
330
17
100
AcDbEntity
  8
LABEL
100
AcDbText
 10
337.0
 20
369.5
 30
0.0
 40
2.15
  1
E 678505
  7
CRE_ARIAL_NARROW
 11
337.0
 21
369.5
 31
0.0
100
AcDbText
  0
TEXT
  5
228
330
17
100
AcDbEntity
  8
LABEL
100
AcDbText
 10
337.0
 20
365.0
 30
0.0
 40
2.15
  1
N 602352
  7
CRE_ARIAL_NARROW
 11
337.0
 21
365.0
 31
0.0
100
AcDbText
  0
TEXT
  5
229
330
17
100
AcDbEntity
  8
LABEL
100
AcDbText
 10
337.0
 20
360.5
 30
0.0
 40
2.15
  1
EL +104450
  7
CRE_ARIAL_NARROW_BOLD
 11
337.0
 21
360.5
 31
0.0
100
AcDbText
  0
TEXT
  5
22A
330
17
100
AcDbEntity
  8
LABEL
100
AcDbText
 10
337.0
 20
356.0
 30
0.0
 40
2.15
  1
13.1 DEG
  7
CRE_ARIAL_NARROW
 11
337.0
 21
356.0
 31
0.0
100
AcDbText
  0
LINE
  5
22B
330
17
100
AcDbEntity
  8
LABEL
370
25
100
AcDbLine
 10
373.0
 20
375.0
 30
0.0
 11
326.5211246654859
 21
365.99999999999994
 31
0.0
  0
TEXT
  5
22C
330
17
100
AcDbEntity
  8
LABEL
100
AcDbText
 10
222.0
 20
424.0
 30
0.0
 40
2.2
  1
SPINDLE W 12.99 N
  7
CRE_ARIAL_NARROW_BOLD
 11
222.0
 21
424.0
 31
0.0
100
AcDbText
  0
LINE
  5
22D
330
17
100
AcDbEntity
  8
LABEL
370
20
100
AcDbLine
 10
257.0
 20
425.0
 30
0.0
 11
260.6313972081441
 21
400.0
 31
0.0
  0
TEXT
  5
22E
330
17
100
AcDbEntity
  8
LABEL
100
AcDbText
 10
313.0
 20
501.0
 30
0.0
 40
2.2
  1
SPINDLE W 12.99 N
  7
CRE_ARIAL_NARROW_BOLD
 11
313.0
 21
501.0
 31
0.0
100
AcDbText
  0
LINE
  5
22F
330
17
100
AcDbEntity
  8
LABEL
370
20
100
AcDbLine
 10
327.0
 20
499.0
 30
0.0
 11
299.60254037844385
 21
475.0
 31
0.0
  0
TEXT
  5
230
330
17
100
AcDbEntity
  8
LABEL
100
AcDbText
 10
218.0
 20
415.5
 30
0.0
 40
2.15
  1
TAIL N 12.99 E
  7
CRE_ARIAL_NARROW_BOLD
 11
218.0
 21
415.5
 31
0.0
100
AcDbText
  0
LINE
  5
231
330
17
100
AcDbEntity
  8
LABEL
370
20
100
AcDbLine
 10
248.0
 20
416.5
 30
0.0
 11
267.6313972081441
 21
413.4
 31
0.0
  0
TEXT
  5
232
330
17
100
AcDbEntity
  8
LABEL
100
AcDbText
 10
220.0
 20
458.0
 30
0.0
 40
2.25
  1
EL +104593
  7
CRE_ARIAL_NARROW_BOLD
 11
220.0
 21
458.0
 31
0.0
100
AcDbText
  0
TEXT
  5
233
330
17
100
AcDbEntity
  8
LABEL
100
AcDbText
 10
311.60254037844385
 20
425.5
 30
0.0
 40
2.15
  1
2"x3/4" NS
  7
CRE_ARIAL_NARROW_BOLD
 11
311.60254037844385
 21
425.5
 31
0.0
100
AcDbText
  0
LINE
  5
234
330
17
100
AcDbEntity
  8
CALLOUT
370
20
100
AcDbLine
 10
302.87506655905423
 20
297.8536329215781
 30
0.0
 11
302.2724133595217
 21
287.5
 31
0.0
  0
CIRCLE
  5
235
330
17
100
AcDbEntity
  8
CALLOUT
370
35
100
AcDbCircle
 10
303.0
 20
300.0
 30
0.0
 40
2.15
  0
TEXT
  5
236
330
17
100
AcDbEntity
  8
CALLOUT
100
AcDbText
 10
303.0
 20
299.1
 30
0.0
 40
1.8
  1
1
  7
CRE_ROMANS
 72
1
 11
303.0
 21
299.1
 31
0.0
100
AcDbText
  0
LINE
  5
237
330
17
100
AcDbEntity
  8
CALLOUT
370
20
100
AcDbLine
 10
207.15
 20
280.0
 30
0.0
 11
220.0
 21
280.0
 31
0.0
  0
CIRCLE
  5
238
330
17
100
AcDbEntity
  8
CALLOUT
370
35
100
AcDbCircle
 10
205.0
 20
280.0
 30
0.0
 40
2.15
  0
TEXT
  5
239
330
17
100
AcDbEntity
  8
CALLOUT
100
AcDbText
 10
205.0
 20
279.1
 30
0.0
 40
1.8
  1
2
  7
CRE_ROMANS
 72
1
 11
205.0
 21
279.1
 31
0.0
100
AcDbText
  0
LINE
  5
23A
330
17
100
AcDbEntity
  8
CALLOUT
370
20
100
AcDbLine
 10
250.4388638122529
 20
312.52170577918116
 30
0.0
 11
243.81569860407205
 21
306.25
 31
0.0
  0
CIRCLE
  5
23B
330
17
100
AcDbEntity
  8
CALLOUT
370
35
100
AcDbCircle
 10
252.0
 20
314.0
 30
0.0
 40
2.15
  0
TEXT
  5
23C
330
17
100
AcDbEntity
  8
CALLOUT
100
AcDbText
 10
252.0
 20
313.1
 30
0.0
 40
1.8
  1
3
  7
CRE_ROMANS
 72
1
 11
252.0
 21
313.1
 31
0.0
100
AcDbText
  0
LINE
  5
23D
330
17
100
AcDbEntity
  8
CALLOUT
370
20
100
AcDbLine
 10
256.14963850841303
 20
341.03942439787335
 30
0.0
 11
267.6313972081441
 21
341.25
 31
0.0
  0
CIRCLE
  5
23E
330
17
100
AcDbEntity
  8
CALLOUT
370
35
100
AcDbCircle
 10
254.0
 20
341.0
 30
0.0
 40
2.15
  0
TEXT
  5
23F
330
17
100
AcDbEntity
  8
CALLOUT
100
AcDbText
 10
254.0
 20
340.1
 30
0.0
 40
1.8
  1
4
  7
CRE_ROMANS
 72
1
 11
254.0
 21
340.1
 31
0.0
100
AcDbText
  0
LINE
  5
240
330
17
100
AcDbEntity
  8
CALLOUT
370
20
100
AcDbLine
 10
259.8248654168141
 20
435.8631771419804
 30
0.0
 11
267.6313972081441
 21
431.0
 31
0.0
  0
CIRCLE
  5
241
330
17
100
AcDbEntity
  8
CALLOUT
370
35
100
AcDbCircle
 10
258.0
 20
437.0
 30
0.0
 40
2.15
  0
TEXT
  5
242
330
17
100
AcDbEntity
  8
CALLOUT
100
AcDbText
 10
258.0
 20
436.1
 30
0.0
 40
1.8
  1
5
  7
CRE_ROMANS
 72
1
 11
258.0
 21
436.1
 31
0.0
100
AcDbText
  0
LINE
  5
243
330
17
100
AcDbEntity
  8
CALLOUT
370
20
100
AcDbLine
 10
315.86281492107554
 20
447.7656072986999
 30
0.0
 11
306.60254037844385
 21
446.75
 31
0.0
  0
CIRCLE
  5
244
330
17
100
AcDbEntity
  8
CALLOUT
370
35
100
AcDbCircle
 10
318.0
 20
448.0
 30
0.0
 40
2.15
  0
TEXT
  5
245
330
17
100
AcDbEntity
  8
CALLOUT
100
AcDbText
 10
318.0
 20
447.1
 30
0.0
 40
1.8
  1
6
  7
CRE_ROMANS
 72
1
 11
318.0
 21
447.1
 31
0.0
100
AcDbText
  0
LINE
  5
246
330
17
100
AcDbEntity
  8
CALLOUT
370
20
100
AcDbLine
 10
334.84371621179537
 20
408.8125969770291
 30
0.0
 11
330.4182389825159
 21
415.75
 31
0.0
  0
CIRCLE
  5
247
330
17
100
AcDbEntity
  8
CALLOUT
370
35
100
AcDbCircle
 10
336.0
 20
407.0
 30
0.0
 40
2.15
  0
TEXT
  5
248
330
17
100
AcDbEntity
  8
CALLOUT
100
AcDbText
 10
336.0
 20
406.1
 30
0.0
 40
1.8
  1
7
  7
CRE_ROMANS
 72
1
 11
336.0
 21
406.1
 31
0.0
100
AcDbText
  0
LINE
  5
249
330
17
100
AcDbEntity
  8
CALLOUT
370
20
100
AcDbLine
 10
347.861516882011
 20
394.7777614928144
 30
0.0
 11
340.37753112603696
 21
393.99999999999994
 31
0.0
  0
CIRCLE
  5
24A
330
17
100
AcDbEntity
  8
CALLOUT
370
35
100
AcDbCircle
 10
350.0
 20
395.0
 30
0.0
 40
2.15
  0
TEXT
  5
24B
330
17
100
AcDbEntity
  8
CALLOUT
100
AcDbText
 10
350.0
 20
394.1
 30
0.0
 40
1.8
  1
8
  7
CRE_ROMANS
 72
1
 11
350.0
 21
394.1
 31
0.0
100
AcDbText
  0
LINE
  5
24C
330
17
100
AcDbEntity
  8
CALLOUT
370
20
100
AcDbLine
 10
209.05492486875218
 20
243.36771542499932
 30
0.0
 11
220.0
 21
240.0
 31
0.0
  0
CIRCLE
  5
24D
330
17
100
AcDbEntity
  8
CALLOUT
370
35
100
AcDbCircle
 10
207.0
 20
244.0
 30
0.0
 40
2.15
  0
TEXT
  5
24E
330
17
100
AcDbEntity
  8
CALLOUT
100
AcDbText
 10
207.0
 20
243.1
 30
0.0
 40
1.8
  1
9
  7
CRE_ROMANS
 72
1
 11
207.0
 21
243.1
 31
0.0
100
AcDbText
  0
LINE
  5
24F
330
17
100
AcDbEntity
  8
CALLOUT
370
20
100
AcDbLine
 10
224.17307692307693
 20
330.0153846153846
 30
0.0
 11
220.0
 21
320.0
 31
0.0
  0
CIRCLE
  5
250
330
17
100
AcDbEntity
  8
CALLOUT
370
35
100
AcDbCircle
 10
225.0
 20
332.0
 30
0.0
 40
2.15
  0
TEXT
  5
251
330
17
100
AcDbEntity
  8
CALLOUT
100
AcDbText
 10
225.0
 20
331.1
 30
0.0
 40
1.8
  1
9
  7
CRE_ROMANS
 72
1
 11
225.0
 21
331.1
 31
0.0
100
AcDbText
  0
LINE
  5
252
330
17
100
AcDbEntity
  8
CALLOUT
370
20
100
AcDbLine
 10
299.02000350834516
 20
426.7362647800033
 30
0.0
 11
306.60254037844385
 21
429.5
 31
0.0
  0
CIRCLE
  5
253
330
17
100
AcDbEntity
  8
CALLOUT
370
35
100
AcDbCircle
 10
297.0
 20
426.0
 30
0.0
 40
2.15
  0
TEXT
  5
254
330
17
100
AcDbEntity
  8
CALLOUT
100
AcDbText
 10
297.0
 20
425.1
 30
0.0
 40
1.8
  1
10
  7
CRE_ROMANS
 72
1
 11
297.0
 21
425.1
 31
0.0
100
AcDbText
  0
LINE
  5
255
330
17
100
AcDbEntity
  8
CALLOUT
370
20
100
AcDbLine
 10
258.83432290324436
 20
287.1214987680034
 30
0.0
 11
267.6313972081441
 21
292.5
 31
0.0
  0
CIRCLE
  5
256
330
17
100
AcDbEntity
  8
CALLOUT
370
35
100
AcDbCircle
 10
257.0
 20
286.0
 30
0.0
 40
2.15
  0
TEXT
  5
257
330
17
100
AcDbEntity
  8
CALLOUT
100
AcDbText
 10
257.0
 20
285.1
 30
0.0
 40
1.8
  1
11
  7
CRE_ROMANS
 72
1
 11
257.0
 21
285.1
 31
0.0
100
AcDbText
  0
LINE
  5
258
330
17
100
AcDbEntity
  8
CALLOUT
370
20
100
AcDbLine
 10
260.5768597957929
 20
458.5384894169347
 30
0.0
 11
267.6313972081441
 21
452.0
 31
0.0
  0
CIRCLE
  5
259
330
17
100
AcDbEntity
  8
CALLOUT
370
35
100
AcDbCircle
 10
259.0
 20
460.0
 30
0.0
 40
2.15
  0
TEXT
  5
25A
330
17
100
AcDbEntity
  8
CALLOUT
100
AcDbText
 10
259.0
 20
459.1
 30
0.0
 40
1.8
  1
11
  7
CRE_ROMANS
 72
1
 11
259.0
 21
459.1
 31
0.0
100
AcDbText
  0
LINE
  5
25B
330
17
100
AcDbEntity
  8
CALLOUT
370
20
100
AcDbLine
 10
365.43344446950823
 20
391.47255009079004
 30
0.0
 11
354.23393758658796
 21
401.99999999999994
 31
0.0
  0
CIRCLE
  5
25C
330
17
100
AcDbEntity
  8
CALLOUT
370
35
100
AcDbCircle
 10
367.0
 20
390.0
 30
0.0
 40
2.15
  0
TEXT
  5
25D
330
17
100
AcDbEntity
  8
CALLOUT
100
AcDbText
 10
367.0
 20
389.1
 30
0.0
 40
1.8
  1
11
  7
CRE_ROMANS
 72
1
 11
367.0
 21
389.1
 31
0.0
100
AcDbText
  0
LINE
  5
25E
330
17
100
AcDbEntity
  8
CALLOUT
370
20
100
AcDbLine
 10
319.3166549427899
 20
376.6996822531364
 30
0.0
 11
326.5211246654859
 21
385.99999999999994
 31
0.0
  0
CIRCLE
  5
25F
330
17
100
AcDbEntity
  8
CALLOUT
370
35
100
AcDbCircle
 10
318.0
 20
375.0
 30
0.0
 40
2.15
  0
TEXT
  5
260
330
17
100
AcDbEntity
  8
CALLOUT
100
AcDbText
 10
318.0
 20
374.1
 30
0.0
 40
1.8
  1
11
  7
CRE_ROMANS
 72
1
 11
318.0
 21
374.1
 31
0.0
100
AcDbText
  0
LINE
  5
261
330
17
100
AcDbEntity
  8
CALLOUT
370
20
100
AcDbLine
 10
270.3488361598041
 20
421.95097934290027
 30
0.0
 11
267.6313972081441
 21
413.4
 31
0.0
  0
CIRCLE
  5
262
330
17
100
AcDbEntity
  8
CALLOUT
370
35
100
AcDbCircle
 10
271.0
 20
424.0
 30
0.0
 40
2.15
  0
TEXT
  5
263
330
17
100
AcDbEntity
  8
CALLOUT
100
AcDbText
 10
271.0
 20
423.1
 30
0.0
 40
1.8
  1
12
  7
CRE_ROMANS
 72
1
 11
271.0
 21
423.1
 31
0.0
100
AcDbText
  0
LINE
  5
264
330
17
100
AcDbEntity
  8
CALLOUT
370
20
100
AcDbLine
 10
260.05272641044456
 20
387.63938586461023
 30
0.0
 11
267.6313972081441
 21
390.0
 31
0.0
  0
CIRCLE
  5
265
330
17
100
AcDbEntity
  8
CALLOUT
370
35
100
AcDbCircle
 10
258.0
 20
387.0
 30
0.0
 40
2.15
  0
TEXT
  5
266
330
17
100
AcDbEntity
  8
CALLOUT
100
AcDbText
 10
258.0
 20
386.1
 30
0.0
 40
1.8
  1
13
  7
CRE_ROMANS
 72
1
 11
258.0
 21
386.1
 31
0.0
100
AcDbText
  0
LINE
  5
267
330
17
100
AcDbEntity
  8
CALLOUT
370
20
100
AcDbLine
 10
263.12596370109287
 20
410.6794093862328
 30
0.0
 11
267.6313972081441
 21
410.0
 31
0.0
  0
CIRCLE
  5
268
330
17
100
AcDbEntity
  8
CALLOUT
370
35
100
AcDbCircle
 10
261.0
 20
411.0
 30
0.0
 40
2.15
  0
TEXT
  5
269
330
17
100
AcDbEntity
  8
CALLOUT
100
AcDbText
 10
261.0
 20
410.1
 30
0.0
 40
1.8
  1
13
  7
CRE_ROMANS
 72
1
 11
261.0
 21
410.1
 31
0.0
100
AcDbText
  0
LINE
  5
26A
330
17
100
AcDbEntity
  8
CALLOUT
370
20
100
AcDbLine
 10
320.4726734265506
 20
359.5664395866843
 30
0.0
 11
326.5211246654859
 21
365.99999999999994
 31
0.0
  0
CIRCLE
  5
26B
330
17
100
AcDbEntity
  8
CALLOUT
370
35
100
AcDbCircle
 10
319.0
 20
358.0
 30
0.0
 40
2.15
  0
TEXT
  5
26C
330
17
100
AcDbEntity
  8
CALLOUT
100
AcDbText
 10
319.0
 20
357.1
 30
0.0
 40
1.8
  1
13
  7
CRE_ROMANS
 72
1
 11
319.0
 21
357.1
 31
0.0
100
AcDbText
  0
LINE
  5
26D
330
17
100
AcDbEntity
  8
CALLOUT
370
20
100
AcDbLine
 10
316.0975178134269
 20
459.0015295950555
 30
0.0
 11
306.60254037844385
 21
464.0
 31
0.0
  0
CIRCLE
  5
26E
330
17
100
AcDbEntity
  8
CALLOUT
370
35
100
AcDbCircle
 10
318.0
 20
458.0
 30
0.0
 40
2.15
  0
TEXT
  5
26F
330
17
100
AcDbEntity
  8
CALLOUT
100
AcDbText
 10
318.0
 20
457.1
 30
0.0
 40
1.8
  1
14
  7
CRE_ROMANS
 72
1
 11
318.0
 21
457.1
 31
0.0
100
AcDbText
  0
LINE
  5
270
330
17
100
AcDbEntity
  8
CALLOUT
370
20
100
AcDbLine
 10
296.69882284211747
 20
493.6822363826923
 30
0.0
 11
306.60254037844385
 21
486.0
 31
0.0
  0
CIRCLE
  5
271
330
17
100
AcDbEntity
  8
CALLOUT
370
35
100
AcDbCircle
 10
295.0
 20
495.0
 30
0.0
 40
2.15
  0
TEXT
  5
272
330
17
100
AcDbEntity
  8
CALLOUT
100
AcDbText
 10
295.0
 20
494.1
 30
0.0
 40
1.8
  1
15
  7
CRE_ROMANS
 72
1
 11
295.0
 21
494.1
 31
0.0
100
AcDbText
  0
LINE
  5
273
330
17
100
AcDbEntity
  8
CALLOUT
370
20
100
AcDbLine
 10
250.15
 20
400.0
 30
0.0
 11
260.6313972081441
 21
400.0
 31
0.0
  0
CIRCLE
  5
274
330
17
100
AcDbEntity
  8
CALLOUT
370
35
100
AcDbCircle
 10
248.0
 20
400.0
 30
0.0
 40
2.15
  0
TEXT
  5
275
330
17
100
AcDbEntity
  8
CALLOUT
100
AcDbText
 10
248.0
 20
399.1
 30
0.0
 40
1.8
  1
16
  7
CRE_ROMANS
 72
1
 11
248.0
 21
399.1
 31
0.0
100
AcDbText
  0
LINE
  5
276
330
17
100
AcDbEntity
  8
CALLOUT
370
20
100
AcDbLine
 10
319.85
 20
475.0
 30
0.0
 11
306.60254037844385
 21
475.0
 31
0.0
  0
CIRCLE
  5
277
330
17
100
AcDbEntity
  8
CALLOUT
370
35
100
AcDbCircle
 10
322.0
 20
475.0
 30
0.0
 40
2.15
  0
TEXT
  5
278
330
17
100
AcDbEntity
  8
CALLOUT
100
AcDbText
 10
322.0
 20
474.1
 30
0.0
 40
1.8
  1
17
  7
CRE_ROMANS
 72
1
 11
322.0
 21
474.1
 31
0.0
100
AcDbText
  0
LWPOLYLINE
  5
279
330
17
100
AcDbEntity
  8
TABLE
370
25
100
AcDbPolyline
 90
4
 70
1
 10
15.0
 20
34.0
 10
205.0
 20
34.0
 10
205.0
 20
165.4
 10
15.0
 20
165.4
  0
LINE
  5
27A
330
17
100
AcDbEntity
  8
TABLE
370
25
100
AcDbLine
 10
37.1
 20
34.0
 30
0.0
 11
37.1
 21
165.4
 31
0.0
  0
LINE
  5
27B
330
17
100
AcDbEntity
  8
TABLE
370
25
100
AcDbLine
 10
105.6
 20
34.0
 30
0.0
 11
105.6
 21
165.4
 31
0.0
  0
LINE
  5
27C
330
17
100
AcDbEntity
  8
TABLE
370
25
100
AcDbLine
 10
145.7
 20
34.0
 30
0.0
 11
145.7
 21
165.4
 31
0.0
  0
LINE
  5
27D
330
17
100
AcDbEntity
  8
TABLE
370
25
100
AcDbLine
 10
178.79999999999998
 20
34.0
 30
0.0
 11
178.79999999999998
 21
165.4
 31
0.0
  0
LINE
  5
27E
330
17
100
AcDbEntity
  8
TABLE
370
25
100
AcDbLine
 10
15.0
 20
41.3
 30
0.0
 11
205.0
 21
41.3
 31
0.0
  0
LINE
  5
27F
330
17
100
AcDbEntity
  8
TABLE
370
25
100
AcDbLine
 10
15.0
 20
48.6
 30
0.0
 11
205.0
 21
48.6
 31
0.0
  0
LINE
  5
280
330
17
100
AcDbEntity
  8
TABLE
370
25
100
AcDbLine
 10
15.0
 20
55.9
 30
0.0
 11
205.0
 21
55.9
 31
0.0
  0
LINE
  5
281
330
17
100
AcDbEntity
  8
TABLE
370
25
100
AcDbLine
 10
15.0
 20
63.2
 30
0.0
 11
205.0
 21
63.2
 31
0.0
  0
LINE
  5
282
330
17
100
AcDbEntity
  8
TABLE
370
25
100
AcDbLine
 10
15.0
 20
70.5
 30
0.0
 11
205.0
 21
70.5
 31
0.0
  0
LINE
  5
283
330
17
100
AcDbEntity
  8
TABLE
370
25
100
AcDbLine
 10
15.0
 20
77.8
 30
0.0
 11
205.0
 21
77.8
 31
0.0
  0
LINE
  5
284
330
17
100
AcDbEntity
  8
TABLE
370
25
100
AcDbLine
 10
15.0
 20
85.1
 30
0.0
 11
205.0
 21
85.1
 31
0.0
  0
LINE
  5
285
330
17
100
AcDbEntity
  8
TABLE
370
25
100
AcDbLine
 10
15.0
 20
92.4
 30
0.0
 11
205.0
 21
92.4
 31
0.0
  0
LINE
  5
286
330
17
100
AcDbEntity
  8
TABLE
370
25
100
AcDbLine
 10
15.0
 20
99.7
 30
0.0
 11
205.0
 21
99.7
 31
0.0
  0
LINE
  5
287
330
17
100
AcDbEntity
  8
TABLE
370
25
100
AcDbLine
 10
15.0
 20
107.0
 30
0.0
 11
205.0
 21
107.0
 31
0.0
  0
LINE
  5
288
330
17
100
AcDbEntity
  8
TABLE
370
25
100
AcDbLine
 10
15.0
 20
114.3
 30
0.0
 11
205.0
 21
114.3
 31
0.0
  0
LINE
  5
289
330
17
100
AcDbEntity
  8
TABLE
370
25
100
AcDbLine
 10
15.0
 20
121.6
 30
0.0
 11
205.0
 21
121.6
 31
0.0
  0
LINE
  5
28A
330
17
100
AcDbEntity
  8
TABLE
370
25
100
AcDbLine
 10
15.0
 20
128.89999999999998
 30
0.0
 11
205.0
 21
128.89999999999998
 31
0.0
  0
LINE
  5
28B
330
17
100
AcDbEntity
  8
TABLE
370
25
100
AcDbLine
 10
15.0
 20
136.2
 30
0.0
 11
205.0
 21
136.2
 31
0.0
  0
LINE
  5
28C
330
17
100
AcDbEntity
  8
TABLE
370
25
100
AcDbLine
 10
15.0
 20
143.5
 30
0.0
 11
205.0
 21
143.5
 31
0.0
  0
LINE
  5
28D
330
17
100
AcDbEntity
  8
TABLE
370
25
100
AcDbLine
 10
15.0
 20
150.8
 30
0.0
 11
205.0
 21
150.8
 31
0.0
  0
LINE
  5
28E
330
17
100
AcDbEntity
  8
TABLE
370
25
100
AcDbLine
 10
15.0
 20
158.1
 30
0.0
 11
205.0
 21
158.1
 31
0.0
  0
TEXT
  5
28F
330
17
100
AcDbEntity
  8
TABLE
100
AcDbText
 10
26.05
 20
36.898
 30
0.0
 40
2.35
  1
PART NO
  7
CRE_ARIAL_NARROW_BOLD
 72
1
 11
26.05
 21
36.898
 31
0.0
100
AcDbText
  0
TEXT
  5
290
330
17
100
AcDbEntity
  8
TABLE
100
AcDbText
 10
38.1
 20
36.898
 30
0.0
 40
2.35
  1
DESCRIPTION
  7
CRE_ARIAL_NARROW_BOLD
 11
38.1
 21
36.898
 31
0.0
100
AcDbText
  0
TEXT
  5
291
330
17
100
AcDbEntity
  8
TABLE
100
AcDbText
 10
125.64999999999999
 20
36.898
 30
0.0
 40
2.35
  1
SIZE
  7
CRE_ARIAL_NARROW_BOLD
 72
1
 11
125.64999999999999
 21
36.898
 31
0.0
100
AcDbText
  0
TEXT
  5
292
330
17
100
AcDbEntity
  8
TABLE
100
AcDbText
 10
162.25
 20
36.898
 30
0.0
 40
2.35
  1
LENGTH MM
  7
CRE_ARIAL_NARROW_BOLD
 72
1
 11
162.25
 21
36.898
 31
0.0
100
AcDbText
  0
TEXT
  5
293
330
17
100
AcDbEntity
  8
TABLE
100
AcDbText
 10
191.89999999999998
 20
36.898
 30
0.0
 40
2.35
  1
QTY.
  7
CRE_ARIAL_NARROW_BOLD
 72
1
 11
191.89999999999998
 21
36.898
 31
0.0
100
AcDbText
  0
TEXT
  5
294
330
17
100
AcDbEntity
  8
TABLE
100
AcDbText
 10
26.05
 20
44.198
 30
0.0
 40
2.35
  1
1
  7
CRE_ARIAL_NARROW
 72
1
 11
26.05
 21
44.198
 31
0.0
100
AcDbText
  0
TEXT
  5
295
330
17
100
AcDbEntity
  8
TABLE
100
AcDbText
 10
38.1
 20
44.198
 30
0.0
 40
2.35
  1
PIPE SPOOL <9>
  7
CRE_ARIAL_NARROW
 11
38.1
 21
44.198
 31
0.0
100
AcDbText
  0
TEXT
  5
296
330
17
100
AcDbEntity
  8
TABLE
100
AcDbText
 10
125.64999999999999
 20
44.198
 30
0.0
 40
2.35
  1
2"
  7
CRE_ARIAL_NARROW
 72
1
 11
125.64999999999999
 21
44.198
 31
0.0
100
AcDbText
  0
TEXT
  5
297
330
17
100
AcDbEntity
  8
TABLE
100
AcDbText
 10
162.25
 20
44.198
 30
0.0
 40
2.35
  1
6287
  7
CRE_ARIAL_NARROW
 72
1
 11
162.25
 21
44.198
 31
0.0
100
AcDbText
  0
TEXT
  5
298
330
17
100
AcDbEntity
  8
TABLE
100
AcDbText
 10
191.89999999999998
 20
44.198
 30
0.0
 40
2.35
  1
01NO
  7
CRE_ARIAL_NARROW
 72
1
 11
191.89999999999998
 21
44.198
 31
0.0
100
AcDbText
  0
TEXT
  5
299
330
17
100
AcDbEntity
  8
TABLE
100
AcDbText
 10
26.05
 20
51.498000000000005
 30
0.0
 40
2.35
  1
2
  7
CRE_ARIAL_NARROW
 72
1
 11
26.05
 21
51.498000000000005
 31
0.0
100
AcDbText
  0
TEXT
  5
29A
330
17
100
AcDbEntity
  8
TABLE
100
AcDbText
 10
38.1
 20
51.498000000000005
 30
0.0
 40
2.35
  1
PIPE SPOOL <10>
  7
CRE_ARIAL_NARROW
 11
38.1
 21
51.498000000000005
 31
0.0
100
AcDbText
  0
TEXT
  5
29B
330
17
100
AcDbEntity
  8
TABLE
100
AcDbText
 10
125.64999999999999
 20
51.498000000000005
 30
0.0
 40
2.35
  1
2"
  7
CRE_ARIAL_NARROW
 72
1
 11
125.64999999999999
 21
51.498000000000005
 31
0.0
100
AcDbText
  0
TEXT
  5
29C
330
17
100
AcDbEntity
  8
TABLE
100
AcDbText
 10
162.25
 20
51.498000000000005
 30
0.0
 40
2.35
  1
273
  7
CRE_ARIAL_NARROW
 72
1
 11
162.25
 21
51.498000000000005
 31
0.0
100
AcDbText
  0
TEXT
  5
29D
330
17
100
AcDbEntity
  8
TABLE
100
AcDbText
 10
191.89999999999998
 20
51.498000000000005
 30
0.0
 40
2.35
  1
01NO
  7
CRE_ARIAL_NARROW
 72
1
 11
191.89999999999998
 21
51.498000000000005
 31
0.0
100
AcDbText
  0
TEXT
  5
29E
330
17
100
AcDbEntity
  8
TABLE
100
AcDbText
 10
26.05
 20
58.798
 30
0.0
 40
2.35
  1
3
  7
CRE_ARIAL_NARROW
 72
1
 11
26.05
 21
58.798
 31
0.0
100
AcDbText
  0
TEXT
  5
29F
330
17
100
AcDbEntity
  8
TABLE
100
AcDbText
 10
38.1
 20
58.798
 30
0.0
 40
2.35
  1
PIPE SPOOL <11>
  7
CRE_ARIAL_NARROW
 11
38.1
 21
58.798
 31
0.0
100
AcDbText
  0
TEXT
  5
2A0
330
17
100
AcDbEntity
  8
TABLE
100
AcDbText
 10
125.64999999999999
 20
58.798
 30
0.0
 40
2.35
  1
2"
  7
CRE_ARIAL_NARROW
 72
1
 11
125.64999999999999
 21
58.798
 31
0.0
100
AcDbText
  0
TEXT
  5
2A1
330
17
100
AcDbEntity
  8
TABLE
100
AcDbText
 10
162.25
 20
58.798
 30
0.0
 40
2.35
  1
340
  7
CRE_ARIAL_NARROW
 72
1
 11
162.25
 21
58.798
 31
0.0
100
AcDbText
  0
TEXT
  5
2A2
330
17
100
AcDbEntity
  8
TABLE
100
AcDbText
 10
191.89999999999998
 20
58.798
 30
0.0
 40
2.35
  1
01NO
  7
CRE_ARIAL_NARROW
 72
1
 11
191.89999999999998
 21
58.798
 31
0.0
100
AcDbText
  0
TEXT
  5
2A3
330
17
100
AcDbEntity
  8
TABLE
100
AcDbText
 10
26.05
 20
66.098
 30
0.0
 40
2.35
  1
4
  7
CRE_ARIAL_NARROW
 72
1
 11
26.05
 21
66.098
 31
0.0
100
AcDbText
  0
TEXT
  5
2A4
330
17
100
AcDbEntity
  8
TABLE
100
AcDbText
 10
38.1
 20
66.098
 30
0.0
 40
2.35
  1
PIPE SPOOL <12>
  7
CRE_ARIAL_NARROW
 11
38.1
 21
66.098
 31
0.0
100
AcDbText
  0
TEXT
  5
2A5
330
17
100
AcDbEntity
  8
TABLE
100
AcDbText
 10
125.64999999999999
 20
66.098
 30
0.0
 40
2.35
  1
2"
  7
CRE_ARIAL_NARROW
 72
1
 11
125.64999999999999
 21
66.098
 31
0.0
100
AcDbText
  0
TEXT
  5
2A6
330
17
100
AcDbEntity
  8
TABLE
100
AcDbText
 10
162.25
 20
66.098
 30
0.0
 40
2.35
  1
1670
  7
CRE_ARIAL_NARROW
 72
1
 11
162.25
 21
66.098
 31
0.0
100
AcDbText
  0
TEXT
  5
2A7
330
17
100
AcDbEntity
  8
TABLE
100
AcDbText
 10
191.89999999999998
 20
66.098
 30
0.0
 40
2.35
  1
01NO
  7
CRE_ARIAL_NARROW
 72
1
 11
191.89999999999998
 21
66.098
 31
0.0
100
AcDbText
  0
TEXT
  5
2A8
330
17
100
AcDbEntity
  8
TABLE
100
AcDbText
 10
26.05
 20
73.398
 30
0.0
 40
2.35
  1
5
  7
CRE_ARIAL_NARROW
 72
1
 11
26.05
 21
73.398
 31
0.0
100
AcDbText
  0
TEXT
  5
2A9
330
17
100
AcDbEntity
  8
TABLE
100
AcDbText
 10
38.1
 20
73.398
 30
0.0
 40
2.35
  1
PIPE SPOOL <13>
  7
CRE_ARIAL_NARROW
 11
38.1
 21
73.398
 31
0.0
100
AcDbText
  0
TEXT
  5
2AA
330
17
100
AcDbEntity
  8
TABLE
100
AcDbText
 10
125.64999999999999
 20
73.398
 30
0.0
 40
2.35
  1
2"
  7
CRE_ARIAL_NARROW
 72
1
 11
125.64999999999999
 21
73.398
 31
0.0
100
AcDbText
  0
TEXT
  5
2AB
330
17
100
AcDbEntity
  8
TABLE
100
AcDbText
 10
162.25
 20
73.398
 30
0.0
 40
2.35
  1
220
  7
CRE_ARIAL_NARROW
 72
1
 11
162.25
 21
73.398
 31
0.0
100
AcDbText
  0
TEXT
  5
2AC
330
17
100
AcDbEntity
  8
TABLE
100
AcDbText
 10
191.89999999999998
 20
73.398
 30
0.0
 40
2.35
  1
01NO
  7
CRE_ARIAL_NARROW
 72
1
 11
191.89999999999998
 21
73.398
 31
0.0
100
AcDbText
  0
TEXT
  5
2AD
330
17
100
AcDbEntity
  8
TABLE
100
AcDbText
 10
26.05
 20
80.698
 30
0.0
 40
2.35
  1
6
  7
CRE_ARIAL_NARROW
 72
1
 11
26.05
 21
80.698
 31
0.0
100
AcDbText
  0
TEXT
  5
2AE
330
17
100
AcDbEntity
  8
TABLE
100
AcDbText
 10
38.1
 20
80.698
 30
0.0
 40
2.35
  1
PIPE SPOOL <14>
  7
CRE_ARIAL_NARROW
 11
38.1
 21
80.698
 31
0.0
100
AcDbText
  0
TEXT
  5
2AF
330
17
100
AcDbEntity
  8
TABLE
100
AcDbText
 10
125.64999999999999
 20
80.698
 30
0.0
 40
2.35
  1
3/4"
  7
CRE_ARIAL_NARROW
 72
1
 11
125.64999999999999
 21
80.698
 31
0.0
100
AcDbText
  0
TEXT
  5
2B0
330
17
100
AcDbEntity
  8
TABLE
100
AcDbText
 10
162.25
 20
80.698
 30
0.0
 40
2.35
  1
100
  7
CRE_ARIAL_NARROW
 72
1
 11
162.25
 21
80.698
 31
0.0
100
AcDbText
  0
TEXT
  5
2B1
330
17
100
AcDbEntity
  8
TABLE
100
AcDbText
 10
191.89999999999998
 20
80.698
 30
0.0
 40
2.35
  1
01NO
  7
CRE_ARIAL_NARROW
 72
1
 11
191.89999999999998
 21
80.698
 31
0.0
100
AcDbText
  0
TEXT
  5
2B2
330
17
100
AcDbEntity
  8
TABLE
100
AcDbText
 10
26.05
 20
87.99799999999999
 30
0.0
 40
2.35
  1
7
  7
CRE_ARIAL_NARROW
 72
1
 11
26.05
 21
87.99799999999999
 31
0.0
100
AcDbText
  0
TEXT
  5
2B3
330
17
100
AcDbEntity
  8
TABLE
100
AcDbText
 10
38.1
 20
87.99799999999999
 30
0.0
 40
2.35
  1
PIPE SPOOL <15>
  7
CRE_ARIAL_NARROW
 11
38.1
 21
87.99799999999999
 31
0.0
100
AcDbText
  0
TEXT
  5
2B4
330
17
100
AcDbEntity
  8
TABLE
100
AcDbText
 10
125.64999999999999
 20
87.99799999999999
 30
0.0
 40
2.35
  1
2"
  7
CRE_ARIAL_NARROW
 72
1
 11
125.64999999999999
 21
87.99799999999999
 31
0.0
100
AcDbText
  0
TEXT
  5
2B5
330
17
100
AcDbEntity
  8
TABLE
100
AcDbText
 10
162.25
 20
87.99799999999999
 30
0.0
 40
2.35
  1
1041
  7
CRE_ARIAL_NARROW
 72
1
 11
162.25
 21
87.99799999999999
 31
0.0
100
AcDbText
  0
TEXT
  5
2B6
330
17
100
AcDbEntity
  8
TABLE
100
AcDbText
 10
191.89999999999998
 20
87.99799999999999
 30
0.0
 40
2.35
  1
01NO
  7
CRE_ARIAL_NARROW
 72
1
 11
191.89999999999998
 21
87.99799999999999
 31
0.0
100
AcDbText
  0
TEXT
  5
2B7
330
17
100
AcDbEntity
  8
TABLE
100
AcDbText
 10
26.05
 20
95.298
 30
0.0
 40
2.35
  1
8
  7
CRE_ARIAL_NARROW
 72
1
 11
26.05
 21
95.298
 31
0.0
100
AcDbText
  0
TEXT
  5
2B8
330
17
100
AcDbEntity
  8
TABLE
100
AcDbText
 10
38.1
 20
95.298
 30
0.0
 40
2.35
  1
PIPE SPOOL <16>
  7
CRE_ARIAL_NARROW
 11
38.1
 21
95.298
 31
0.0
100
AcDbText
  0
TEXT
  5
2B9
330
17
100
AcDbEntity
  8
TABLE
100
AcDbText
 10
125.64999999999999
 20
95.298
 30
0.0
 40
2.35
  1
2"
  7
CRE_ARIAL_NARROW
 72
1
 11
125.64999999999999
 21
95.298
 31
0.0
100
AcDbText
  0
TEXT
  5
2BA
330
17
100
AcDbEntity
  8
TABLE
100
AcDbText
 10
162.25
 20
95.298
 30
0.0
 40
2.35
  1
160
  7
CRE_ARIAL_NARROW
 72
1
 11
162.25
 21
95.298
 31
0.0
100
AcDbText
  0
TEXT
  5
2BB
330
17
100
AcDbEntity
  8
TABLE
100
AcDbText
 10
191.89999999999998
 20
95.298
 30
0.0
 40
2.35
  1
01NO
  7
CRE_ARIAL_NARROW
 72
1
 11
191.89999999999998
 21
95.298
 31
0.0
100
AcDbText
  0
TEXT
  5
2BC
330
17
100
AcDbEntity
  8
TABLE
100
AcDbText
 10
26.05
 20
102.598
 30
0.0
 40
2.35
  1
9
  7
CRE_ARIAL_NARROW
 72
1
 11
26.05
 21
102.598
 31
0.0
100
AcDbText
  0
TEXT
  5
2BD
330
17
100
AcDbEntity
  8
TABLE
100
AcDbText
 10
38.1
 20
102.598
 30
0.0
 40
2.35
  1
EQUAL TEE
  7
CRE_ARIAL_NARROW
 11
38.1
 21
102.598
 31
0.0
100
AcDbText
  0
TEXT
  5
2BE
330
17
100
AcDbEntity
  8
TABLE
100
AcDbText
 10
125.64999999999999
 20
102.598
 30
0.0
 40
2.35
  1
2"x2"
  7
CRE_ARIAL_NARROW
 72
1
 11
125.64999999999999
 21
102.598
 31
0.0
100
AcDbText
  0
TEXT
  5
2BF
330
17
100
AcDbEntity
  8
TABLE
100
AcDbText
 10
162.25
 20
102.598
 30
0.0
 40
2.35
  1
--
  7
CRE_ARIAL_NARROW
 72
1
 11
162.25
 21
102.598
 31
0.0
100
AcDbText
  0
TEXT
  5
2C0
330
17
100
AcDbEntity
  8
TABLE
100
AcDbText
 10
191.89999999999998
 20
102.598
 30
0.0
 40
2.35
  1
02NO
  7
CRE_ARIAL_NARROW
 72
1
 11
191.89999999999998
 21
102.598
 31
0.0
100
AcDbText
  0
TEXT
  5
2C1
330
17
100
AcDbEntity
  8
TABLE
100
AcDbText
 10
26.05
 20
109.898
 30
0.0
 40
2.35
  1
10
  7
CRE_ARIAL_NARROW
 72
1
 11
26.05
 21
109.898
 31
0.0
100
AcDbText
  0
TEXT
  5
2C2
330
17
100
AcDbEntity
  8
TABLE
100
AcDbText
 10
38.1
 20
109.898
 30
0.0
 40
2.35
  1
WELDOLET
  7
CRE_ARIAL_NARROW
 11
38.1
 21
109.898
 31
0.0
100
AcDbText
  0
TEXT
  5
2C3
330
17
100
AcDbEntity
  8
TABLE
100
AcDbText
 10
125.64999999999999
 20
109.898
 30
0.0
 40
2.35
  1
2"x3/4"
  7
CRE_ARIAL_NARROW
 72
1
 11
125.64999999999999
 21
109.898
 31
0.0
100
AcDbText
  0
TEXT
  5
2C4
330
17
100
AcDbEntity
  8
TABLE
100
AcDbText
 10
162.25
 20
109.898
 30
0.0
 40
2.35
  1
--
  7
CRE_ARIAL_NARROW
 72
1
 11
162.25
 21
109.898
 31
0.0
100
AcDbText
  0
TEXT
  5
2C5
330
17
100
AcDbEntity
  8
TABLE
100
AcDbText
 10
191.89999999999998
 20
109.898
 30
0.0
 40
2.35
  1
01NO
  7
CRE_ARIAL_NARROW
 72
1
 11
191.89999999999998
 21
109.898
 31
0.0
100
AcDbText
  0
TEXT
  5
2C6
330
17
100
AcDbEntity
  8
TABLE
100
AcDbText
 10
26.05
 20
117.198
 30
0.0
 40
2.35
  1
11
  7
CRE_ARIAL_NARROW
 72
1
 11
26.05
 21
117.198
 31
0.0
100
AcDbText
  0
TEXT
  5
2C7
330
17
100
AcDbEntity
  8
TABLE
100
AcDbText
 10
38.1
 20
117.198
 30
0.0
 40
2.35
  1
90 DEG ELBOW
  7
CRE_ARIAL_NARROW
 11
38.1
 21
117.198
 31
0.0
100
AcDbText
  0
TEXT
  5
2C8
330
17
100
AcDbEntity
  8
TABLE
100
AcDbText
 10
125.64999999999999
 20
117.198
 30
0.0
 40
2.35
  1
2"
  7
CRE_ARIAL_NARROW
 72
1
 11
125.64999999999999
 21
117.198
 31
0.0
100
AcDbText
  0
TEXT
  5
2C9
330
17
100
AcDbEntity
  8
TABLE
100
AcDbText
 10
162.25
 20
117.198
 30
0.0
 40
2.35
  1
--
  7
CRE_ARIAL_NARROW
 72
1
 11
162.25
 21
117.198
 31
0.0
100
AcDbText
  0
TEXT
  5
2CA
330
17
100
AcDbEntity
  8
TABLE
100
AcDbText
 10
191.89999999999998
 20
117.198
 30
0.0
 40
2.35
  1
04NO
  7
CRE_ARIAL_NARROW
 72
1
 11
191.89999999999998
 21
117.198
 31
0.0
100
AcDbText
  0
TEXT
  5
2CB
330
17
100
AcDbEntity
  8
TABLE
100
AcDbText
 10
26.05
 20
124.49799999999999
 30
0.0
 40
2.35
  1
12
  7
CRE_ARIAL_NARROW
 72
1
 11
26.05
 21
124.49799999999999
 31
0.0
100
AcDbText
  0
TEXT
  5
2CC
330
17
100
AcDbEntity
  8
TABLE
100
AcDbText
 10
38.1
 20
124.49799999999999
 30
0.0
 40
2.35
  1
FIGURE-8 FLANGE CL150
  7
CRE_ARIAL_NARROW
 11
38.1
 21
124.49799999999999
 31
0.0
100
AcDbText
  0
TEXT
  5
2CD
330
17
100
AcDbEntity
  8
TABLE
100
AcDbText
 10
125.64999999999999
 20
124.49799999999999
 30
0.0
 40
2.35
  1
2"
  7
CRE_ARIAL_NARROW
 72
1
 11
125.64999999999999
 21
124.49799999999999
 31
0.0
100
AcDbText
  0
TEXT
  5
2CE
330
17
100
AcDbEntity
  8
TABLE
100
AcDbText
 10
162.25
 20
124.49799999999999
 30
0.0
 40
2.35
  1
--
  7
CRE_ARIAL_NARROW
 72
1
 11
162.25
 21
124.49799999999999
 31
0.0
100
AcDbText
  0
TEXT
  5
2CF
330
17
100
AcDbEntity
  8
TABLE
100
AcDbText
 10
191.89999999999998
 20
124.49799999999999
 30
0.0
 40
2.35
  1
01NO
  7
CRE_ARIAL_NARROW
 72
1
 11
191.89999999999998
 21
124.49799999999999
 31
0.0
100
AcDbText
  0
TEXT
  5
2D0
330
17
100
AcDbEntity
  8
TABLE
100
AcDbText
 10
26.05
 20
131.79799999999997
 30
0.0
 40
2.35
  1
13
  7
CRE_ARIAL_NARROW
 72
1
 11
26.05
 21
131.79799999999997
 31
0.0
100
AcDbText
  0
TEXT
  5
2D1
330
17
100
AcDbEntity
  8
TABLE
100
AcDbText
 10
38.1
 20
131.79799999999997
 30
0.0
 40
2.35
  1
WN FLANGE CL150
  7
CRE_ARIAL_NARROW
 11
38.1
 21
131.79799999999997
 31
0.0
100
AcDbText
  0
TEXT
  5
2D2
330
17
100
AcDbEntity
  8
TABLE
100
AcDbText
 10
125.64999999999999
 20
131.79799999999997
 30
0.0
 40
2.35
  1
2"
  7
CRE_ARIAL_NARROW
 72
1
 11
125.64999999999999
 21
131.79799999999997
 31
0.0
100
AcDbText
  0
TEXT
  5
2D3
330
17
100
AcDbEntity
  8
TABLE
100
AcDbText
 10
162.25
 20
131.79799999999997
 30
0.0
 40
2.35
  1
--
  7
CRE_ARIAL_NARROW
 72
1
 11
162.25
 21
131.79799999999997
 31
0.0
100
AcDbText
  0
TEXT
  5
2D4
330
17
100
AcDbEntity
  8
TABLE
100
AcDbText
 10
191.89999999999998
 20
131.79799999999997
 30
0.0
 40
2.35
  1
03NO
  7
CRE_ARIAL_NARROW
 72
1
 11
191.89999999999998
 21
131.79799999999997
 31
0.0
100
AcDbText
  0
TEXT
  5
2D5
330
17
100
AcDbEntity
  8
TABLE
100
AcDbText
 10
26.05
 20
139.09799999999998
 30
0.0
 40
2.35
  1
14
  7
CRE_ARIAL_NARROW
 72
1
 11
26.05
 21
139.09799999999998
 31
0.0
100
AcDbText
  0
TEXT
  5
2D6
330
17
100
AcDbEntity
  8
TABLE
100
AcDbText
 10
38.1
 20
139.09799999999998
 30
0.0
 40
2.35
  1
WN FLANGE CL150
  7
CRE_ARIAL_NARROW
 11
38.1
 21
139.09799999999998
 31
0.0
100
AcDbText
  0
TEXT
  5
2D7
330
17
100
AcDbEntity
  8
TABLE
100
AcDbText
 10
125.64999999999999
 20
139.09799999999998
 30
0.0
 40
2.35
  1
3/4"
  7
CRE_ARIAL_NARROW
 72
1
 11
125.64999999999999
 21
139.09799999999998
 31
0.0
100
AcDbText
  0
TEXT
  5
2D8
330
17
100
AcDbEntity
  8
TABLE
100
AcDbText
 10
162.25
 20
139.09799999999998
 30
0.0
 40
2.35
  1
--
  7
CRE_ARIAL_NARROW
 72
1
 11
162.25
 21
139.09799999999998
 31
0.0
100
AcDbText
  0
TEXT
  5
2D9
330
17
100
AcDbEntity
  8
TABLE
100
AcDbText
 10
191.89999999999998
 20
139.09799999999998
 30
0.0
 40
2.35
  1
01NO
  7
CRE_ARIAL_NARROW
 72
1
 11
191.89999999999998
 21
139.09799999999998
 31
0.0
100
AcDbText
  0
TEXT
  5
2DA
330
17
100
AcDbEntity
  8
TABLE
100
AcDbText
 10
26.05
 20
146.398
 30
0.0
 40
2.35
  1
15
  7
CRE_ARIAL_NARROW
 72
1
 11
26.05
 21
146.398
 31
0.0
100
AcDbText
  0
TEXT
  5
2DB
330
17
100
AcDbEntity
  8
TABLE
100
AcDbText
 10
38.1
 20
146.398
 30
0.0
 40
2.35
  1
BLIND FLANGE CL150
  7
CRE_ARIAL_NARROW
 11
38.1
 21
146.398
 31
0.0
100
AcDbText
  0
TEXT
  5
2DC
330
17
100
AcDbEntity
  8
TABLE
100
AcDbText
 10
125.64999999999999
 20
146.398
 30
0.0
 40
2.35
  1
3/4"
  7
CRE_ARIAL_NARROW
 72
1
 11
125.64999999999999
 21
146.398
 31
0.0
100
AcDbText
  0
TEXT
  5
2DD
330
17
100
AcDbEntity
  8
TABLE
100
AcDbText
 10
162.25
 20
146.398
 30
0.0
 40
2.35
  1
--
  7
CRE_ARIAL_NARROW
 72
1
 11
162.25
 21
146.398
 31
0.0
100
AcDbText
  0
TEXT
  5
2DE
330
17
100
AcDbEntity
  8
TABLE
100
AcDbText
 10
191.89999999999998
 20
146.398
 30
0.0
 40
2.35
  1
01NO
  7
CRE_ARIAL_NARROW
 72
1
 11
191.89999999999998
 21
146.398
 31
0.0
100
AcDbText
  0
TEXT
  5
2DF
330
17
100
AcDbEntity
  8
TABLE
100
AcDbText
 10
26.05
 20
153.698
 30
0.0
 40
2.35
  1
16
  7
CRE_ARIAL_NARROW
 72
1
 11
26.05
 21
153.698
 31
0.0
100
AcDbText
  0
TEXT
  5
2E0
330
17
100
AcDbEntity
  8
TABLE
100
AcDbText
 10
38.1
 20
153.698
 30
0.0
 40
2.35
  1
BALL VALVE
  7
CRE_ARIAL_NARROW
 11
38.1
 21
153.698
 31
0.0
100
AcDbText
  0
TEXT
  5
2E1
330
17
100
AcDbEntity
  8
TABLE
100
AcDbText
 10
125.64999999999999
 20
153.698
 30
0.0
 40
2.35
  1
2"
  7
CRE_ARIAL_NARROW
 72
1
 11
125.64999999999999
 21
153.698
 31
0.0
100
AcDbText
  0
TEXT
  5
2E2
330
17
100
AcDbEntity
  8
TABLE
100
AcDbText
 10
162.25
 20
153.698
 30
0.0
 40
2.35
  1
178
  7
CRE_ARIAL_NARROW
 72
1
 11
162.25
 21
153.698
 31
0.0
100
AcDbText
  0
TEXT
  5
2E3
330
17
100
AcDbEntity
  8
TABLE
100
AcDbText
 10
191.89999999999998
 20
153.698
 30
0.0
 40
2.35
  1
01NO
  7
CRE_ARIAL_NARROW
 72
1
 11
191.89999999999998
 21
153.698
 31
0.0
100
AcDbText
  0
TEXT
  5
2E4
330
17
100
AcDbEntity
  8
TABLE
100
AcDbText
 10
26.05
 20
160.998
 30
0.0
 40
2.35
  1
17
  7
CRE_ARIAL_NARROW
 72
1
 11
26.05
 21
160.998
 31
0.0
100
AcDbText
  0
TEXT
  5
2E5
330
17
100
AcDbEntity
  8
TABLE
100
AcDbText
 10
38.1
 20
160.998
 30
0.0
 40
2.35
  1
BALL VALVE
  7
CRE_ARIAL_NARROW
 11
38.1
 21
160.998
 31
0.0
100
AcDbText
  0
TEXT
  5
2E6
330
17
100
AcDbEntity
  8
TABLE
100
AcDbText
 10
125.64999999999999
 20
160.998
 30
0.0
 40
2.35
  1
3/4"
  7
CRE_ARIAL_NARROW
 72
1
 11
125.64999999999999
 21
160.998
 31
0.0
100
AcDbText
  0
TEXT
  5
2E7
330
17
100
AcDbEntity
  8
TABLE
100
AcDbText
 10
162.25
 20
160.998
 30
0.0
 40
2.35
  1
118
  7
CRE_ARIAL_NARROW
 72
1
 11
162.25
 21
160.998
 31
0.0
100
AcDbText
  0
TEXT
  5
2E8
330
17
100
AcDbEntity
  8
TABLE
100
AcDbText
 10
191.89999999999998
 20
160.998
 30
0.0
 40
2.35
  1
01NO
  7
CRE_ARIAL_NARROW
 72
1
 11
191.89999999999998
 21
160.998
 31
0.0
100
AcDbText
  0
TEXT
  5
2E9
330
17
100
AcDbEntity
  8
TITLE
100
AcDbText
 10
215.0
 20
198.0
 30
0.0
 40
4.0
  1
GENERAL NOTES :-
  7
CRE_ARIAL_NARROW_BOLD
 11
215.0
 21
198.0
 31
0.0
100
AcDbText
  0
LINE
  5
2EA
330
17
100
AcDbEntity
  8
TITLE
370
20
100
AcDbLine
 10
215.0
 20
196.4
 30
0.0
 11
253.0
 21
196.4
 31
0.0
  0
TEXT
  5
2EB
330
17
100
AcDbEntity
  8
NOTES
100
AcDbText
 10
217.0
 20
190.0
 30
0.0
 40
2.8
  1
1) ALL DIMENSIONS ARE IN MM.
  7
CRE_ARIAL_NARROW_BOLD
 11
217.0
 21
190.0
 31
0.0
100
AcDbText
  0
TEXT
  5
2EC
330
17
100
AcDbEntity
  8
NOTES
100
AcDbText
 10
217.0
 20
183.8
 30
0.0
 40
2.8
  1
2) FLANGE CONN. DRILLING AS PER ANSI B16.5 CLASS 150#.
  7
CRE_ARIAL_NARROW
 11
217.0
 21
183.8
 31
0.0
100
AcDbText
  0
TEXT
  5
2ED
330
17
100
AcDbEntity
  8
NOTES
100
AcDbText
 10
217.0
 20
177.6
 30
0.0
 40
2.8
  1
3) PTFE LINING AS PER ASTM D4895 STANDARD.
  7
CRE_ARIAL_NARROW
 11
217.0
 21
177.6
 31
0.0
100
AcDbText
  0
TEXT
  5
2EE
330
17
100
AcDbEntity
  8
NOTES
100
AcDbText
 10
217.0
 20
171.4
 30
0.0
 40
2.8
  1
4) TESTING AND DIMENSIONS AS PER ASTM 1545.
  7
CRE_ARIAL_NARROW
 11
217.0
 21
171.4
 31
0.0
100
AcDbText
  0
TEXT
  5
2EF
330
17
100
AcDbEntity
  8
TITLE
100
AcDbText
 10
215.0
 20
160.0
 30
0.0
 40
3.6
  1
INSPECTION
  7
CRE_ARIAL_NARROW_BOLD
 11
215.0
 21
160.0
 31
0.0
100
AcDbText
  0
LINE
  5
2F0
330
17
100
AcDbEntity
  8
TITLE
370
18
100
AcDbLine
 10
215.0
 20
158.4
 30
0.0
 11
242.0
 21
158.4
 31
0.0
  0
TEXT
  5
2F1
330
17
100
AcDbEntity
  8
NOTES
100
AcDbText
 10
217.0
 20
152.0
 30
0.0
 40
2.8
  1
- HYDRO TEST :- 29 KG/CM2
  7
CRE_ARIAL_NARROW
 11
217.0
 21
152.0
 31
0.0
100
AcDbText
  0
TEXT
  5
2F2
330
17
100
AcDbEntity
  8
NOTES
100
AcDbText
 10
217.0
 20
145.0
 30
0.0
 40
2.8
  1
- SPARK TEST :- 15 KVA
  7
CRE_ARIAL_NARROW
 11
217.0
 21
145.0
 31
0.0
100
AcDbText
  0
TEXT
  5
2F3
330
17
100
AcDbEntity
  8
NOTES
100
AcDbText
 10
215.0
 20
134.0
 30
0.0
 40
2.55
  1
PACKING:- WOODEN / PLASTIC COVERS WILL BE USED
  7
CRE_ARIAL_NARROW
 11
215.0
 21
134.0
 31
0.0
100
AcDbText
  0
TEXT
  5
2F4
330
17
100
AcDbEntity
  8
NOTES
100
AcDbText
 10
215.0
 20
128.0
 30
0.0
 40
2.55
  1
TO PROTECT ALL LINED PORTIONS.
  7
CRE_ARIAL_NARROW
 11
215.0
 21
128.0
 31
0.0
100
AcDbText
  0
LWPOLYLINE
  5
2F5
330
17
100
AcDbEntity
  8
BORDER
370
30
100
AcDbPolyline
 90
4
 70
1
 10
215.0
 20
12.0
 10
405.0
 20
12.0
 10
405.0
 20
91.0
 10
215.0
 20
91.0
  0
LINE
  5
2F6
330
17
100
AcDbEntity
  8
BORDER
370
20
100
AcDbLine
 10
215.0
 20
80.0
 30
0.0
 11
405.0
 21
80.0
 31
0.0
  0
LINE
  5
2F7
330
17
100
AcDbEntity
  8
BORDER
370
20
100
AcDbLine
 10
215.0
 20
69.0
 30
0.0
 11
405.0
 21
69.0
 31
0.0
  0
LINE
  5
2F8
330
17
100
AcDbEntity
  8
BORDER
370
20
100
AcDbLine
 10
215.0
 20
58.0
 30
0.0
 11
405.0
 21
58.0
 31
0.0
  0
LINE
  5
2F9
330
17
100
AcDbEntity
  8
BORDER
370
20
100
AcDbLine
 10
215.0
 20
43.0
 30
0.0
 11
405.0
 21
43.0
 31
0.0
  0
LINE
  5
2FA
330
17
100
AcDbEntity
  8
BORDER
370
20
100
AcDbLine
 10
215.0
 20
22.0
 30
0.0
 11
405.0
 21
22.0
 31
0.0
  0
TEXT
  5
2FB
330
17
100
AcDbEntity
  8
COMPANY
100
AcDbText
 10
310.0
 20
83.0
 30
0.0
 40
4.7
  1
CORROSION RESISTANT EQUIPMENT PVT LTD
  7
CRE_ARIAL_NARROW_BOLD
 72
1
 11
310.0
 21
83.0
 31
0.0
100
AcDbText
  0
TEXT
  5
2FC
330
17
100
AcDbEntity
  8
TITLE
100
AcDbText
 10
217.0
 20
72.2
 30
0.0
 40
2.8
  1
CUSTOMER: ENGINEERS INDIA LTD, NEW DELHI
  7
CRE_ARIAL_NARROW_BOLD
 11
217.0
 21
72.2
 31
0.0
100
AcDbText
  0
TEXT
  5
2FD
330
17
100
AcDbEntity
  8
TITLE
100
AcDbText
 10
217.0
 20
61.2
 30
0.0
 40
2.6
  1
PROJECT: MIL PROJECT, TNT PLANT, HEF KHADKI, PUNE
  7
CRE_ARIAL_NARROW_BOLD
 11
217.0
 21
61.2
 31
0.0
100
AcDbText
  0
LINE
  5
2FE
330
17
100
AcDbEntity
  8
BORDER
370
20
100
AcDbLine
 10
287.0
 20
22.0
 30
0.0
 11
287.0
 21
58.0
 31
0.0
  0
LINE
  5
2FF
330
17
100
AcDbEntity
  8
BORDER
370
20
100
AcDbLine
 10
215.0
 20
31.0
 30
0.0
 11
287.0
 21
31.0
 31
0.0
  0
LINE
  5
300
330
17
100
AcDbEntity
  8
BORDER
370
20
100
AcDbLine
 10
215.0
 20
40.0
 30
0.0
 11
287.0
 21
40.0
 31
0.0
  0
LINE
  5
301
330
17
100
AcDbEntity
  8
BORDER
370
20
100
AcDbLine
 10
215.0
 20
49.0
 30
0.0
 11
287.0
 21
49.0
 31
0.0
  0
LINE
  5
302
330
17
100
AcDbEntity
  8
BORDER
370
20
100
AcDbLine
 10
235.0
 20
22.0
 30
0.0
 11
235.0
 21
58.0
 31
0.0
  0
LINE
  5
303
330
17
100
AcDbEntity
  8
BORDER
370
20
100
AcDbLine
 10
260.0
 20
22.0
 30
0.0
 11
260.0
 21
58.0
 31
0.0
  0
LINE
  5
304
330
17
100
AcDbEntity
  8
BORDER
370
20
100
AcDbLine
 10
272.0
 20
22.0
 30
0.0
 11
272.0
 21
58.0
 31
0.0
  0
TEXT
  5
305
330
17
100
AcDbEntity
  8
TITLE
100
AcDbText
 10
247.5
 20
52.2
 30
0.0
 40
2.3
  1
NAME
  7
CRE_ARIAL_NARROW_BOLD
 72
1
 11
247.5
 21
52.2
 31
0.0
100
AcDbText
  0
TEXT
  5
306
330
17
100
AcDbEntity
  8
TITLE
100
AcDbText
 10
266.0
 20
52.2
 30
0.0
 40
2.3
  1
SIGN
  7
CRE_ARIAL_NARROW_BOLD
 72
1
 11
266.0
 21
52.2
 31
0.0
100
AcDbText
  0
TEXT
  5
307
330
17
100
AcDbEntity
  8
TITLE
100
AcDbText
 10
279.5
 20
52.2
 30
0.0
 40
2.3
  1
DATE
  7
CRE_ARIAL_NARROW_BOLD
 72
1
 11
279.5
 21
52.2
 31
0.0
100
AcDbText
  0
TEXT
  5
308
330
17
100
AcDbEntity
  8
TITLE
100
AcDbText
 10
225.0
 20
43.2
 30
0.0
 40
2.4
  1
DRAN
  7
CRE_ARIAL_NARROW_BOLD
 72
1
 11
225.0
 21
43.2
 31
0.0
100
AcDbText
  0
TEXT
  5
309
330
17
100
AcDbEntity
  8
TITLE
100
AcDbText
 10
225.0
 20
34.2
 30
0.0
 40
2.4
  1
CHK
  7
CRE_ARIAL_NARROW_BOLD
 72
1
 11
225.0
 21
34.2
 31
0.0
100
AcDbText
  0
TEXT
  5
30A
330
17
100
AcDbEntity
  8
TITLE
100
AcDbText
 10
225.0
 20
25.2
 30
0.0
 40
2.4
  1
APPD.
  7
CRE_ARIAL_NARROW_BOLD
 72
1
 11
225.0
 21
25.2
 31
0.0
100
AcDbText
  0
TEXT
  5
30B
330
17
100
AcDbEntity
  8
TITLE
100
AcDbText
 10
247.5
 20
43.2
 30
0.0
 40
2.0
  1
RAM GAWAS
  7
CRE_ARIAL_NARROW
 72
1
 11
247.5
 21
43.2
 31
0.0
100
AcDbText
  0
TEXT
  5
30C
330
17
100
AcDbEntity
  8
TITLE
100
AcDbText
 10
279.5
 20
43.2
 30
0.0
 40
2.0
  1
15.7.26
  7
CRE_ARIAL_NARROW
 72
1
 11
279.5
 21
43.2
 31
0.0
100
AcDbText
  0
TEXT
  5
30D
330
17
100
AcDbEntity
  8
HIGHLIGHT
100
AcDbText
 10
292.0
 20
48.5
 30
0.0
 40
3.1
  1
LINE NO.
  7
CRE_ARIAL_NARROW_BOLD
 11
292.0
 21
48.5
 31
0.0
100
AcDbText
  0
TEXT
  5
30E
330
17
100
AcDbEntity
  8
HIGHLIGHT
100
AcDbText
 10
292.0
 20
35.2
 30
0.0
 40
2.9
  1
2"-WNA-418-1401-A82Y-G
  7
CRE_ARIAL_NARROW_BOLD
 11
292.0
 21
35.2
 31
0.0
100
AcDbText
  0
LINE
  5
30F
330
17
100
AcDbEntity
  8
BORDER
370
20
100
AcDbLine
 10
265.0
 20
12.0
 30
0.0
 11
265.0
 21
22.0
 31
0.0
  0
LINE
  5
310
330
17
100
AcDbEntity
  8
BORDER
370
20
100
AcDbLine
 10
305.0
 20
12.0
 30
0.0
 11
305.0
 21
22.0
 31
0.0
  0
LINE
  5
311
330
17
100
AcDbEntity
  8
BORDER
370
20
100
AcDbLine
 10
375.0
 20
12.0
 30
0.0
 11
375.0
 21
22.0
 31
0.0
  0
TEXT
  5
312
330
17
100
AcDbEntity
  8
TITLE
100
AcDbText
 10
240.0
 20
15.0
 30
0.0
 40
2.7
  1
SCALE=NTS
  7
CRE_ARIAL_NARROW_BOLD
 72
1
 11
240.0
 21
15.0
 31
0.0
100
AcDbText
  0
LINE
  5
313
330
17
100
AcDbEntity
  8
SYMBOL
370
20
100
AcDbLine
 10
270.0
 20
15.0
 30
0.0
 11
280.0
 21
17.0
 31
0.0
  0
LINE
  5
314
330
17
100
AcDbEntity
  8
SYMBOL
370
20
100
AcDbLine
 10
270.0
 20
19.0
 30
0.0
 11
280.0
 21
17.0
 31
0.0
  0
LINE
  5
315
330
17
100
AcDbEntity
  8
SYMBOL
370
20
100
AcDbLine
 10
270.0
 20
15.0
 30
0.0
 11
270.0
 21
19.0
 31
0.0
  0
CIRCLE
  5
316
330
17
100
AcDbEntity
  8
SYMBOL
370
20
100
AcDbCircle
 10
293.0
 20
17.0
 30
0.0
 40
3.4
  0
CIRCLE
  5
317
330
17
100
AcDbEntity
  8
SYMBOL
370
20
100
AcDbCircle
 10
293.0
 20
17.0
 30
0.0
 40
1.9
  0
LINE
  5
318
330
17
100
AcDbEntity
  8
CENTER
370
20
100
AcDbLine
 10
287.5
 20
17.0
 30
0.0
 11
298.5
 21
17.0
 31
0.0
  0
LINE
  5
319
330
17
100
AcDbEntity
  8
CENTER
370
20
100
AcDbLine
 10
293.0
 20
11.5
 30
0.0
 11
293.0
 21
22.5
 31
0.0
  0
TEXT
  5
31A
330
17
100
AcDbEntity
  8
TITLE
100
AcDbText
 10
340.0
 20
15.0
 30
0.0
 40
2.7
  1
SHEET NO. 2 OF 2
  7
CRE_ARIAL_NARROW_BOLD
 72
1
 11
340.0
 21
15.0
 31
0.0
100
AcDbText
  0
TEXT
  5
31B
330
17
100
AcDbEntity
  8
TITLE
100
AcDbText
 10
390.0
 20
18.0
 30
0.0
 40
2.3
  1
REV.
  7
CRE_ARIAL_NARROW_BOLD
 72
1
 11
390.0
 21
18.0
 31
0.0
100
AcDbText
  0
LINE
  5
31C
330
17
100
AcDbEntity
  8
BORDER
370
20
100
AcDbLine
 10
375.0
 20
16.0
 30
0.0
 11
405.0
 21
16.0
 31
0.0
  0
TEXT
  5
31D
330
17
100
AcDbEntity
  8
TITLE
100
AcDbText
 10
390.0
 20
12.5
 30
0.0
 40
2.3
  1
-1
  7
CRE_ARIAL_NARROW_BOLD
 72
1
 11
390.0
 21
12.5
 31
0.0
100
AcDbText
  0
LWPOLYLINE
  5
31E
330
17
100
AcDbEntity
  8
BORDER
370
25
100
AcDbPolyline
 90
4
 70
1
 10
15.0
 20
12.0
 10
215.0
 20
12.0
 10
215.0
 20
31.0
 10
15.0
 20
31.0
  0
LINE
  5
31F
330
17
100
AcDbEntity
  8
BORDER
370
20
100
AcDbLine
 10
15.0
 20
22.0
 30
0.0
 11
215.0
 21
22.0
 31
0.0
  0
LINE
  5
320
330
17
100
AcDbEntity
  8
BORDER
370
20
100
AcDbLine
 10
30.5
 20
12.0
 30
0.0
 11
30.5
 21
31.0
 31
0.0
  0
LINE
  5
321
330
17
100
AcDbEntity
  8
BORDER
370
20
100
AcDbLine
 10
176.4
 20
12.0
 30
0.0
 11
176.4
 21
31.0
 31
0.0
  0
LINE
  5
322
330
17
100
AcDbEntity
  8
BORDER
370
20
100
AcDbLine
 10
187.9
 20
12.0
 30
0.0
 11
187.9
 21
31.0
 31
0.0
  0
LINE
  5
323
330
17
100
AcDbEntity
  8
BORDER
370
20
100
AcDbLine
 10
202.3
 20
12.0
 30
0.0
 11
202.3
 21
31.0
 31
0.0
  0
TEXT
  5
324
330
17
100
AcDbEntity
  8
TITLE
100
AcDbText
 10
22.75
 20
15.0
 30
0.0
 40
2.7
  1
REV.
  7
CRE_ARIAL_NARROW_BOLD
 72
1
 11
22.75
 21
15.0
 31
0.0
100
AcDbText
  0
TEXT
  5
325
330
17
100
AcDbEntity
  8
TITLE
100
AcDbText
 10
103.45
 20
15.0
 30
0.0
 40
2.7
  1
DESCRIPTION
  7
CRE_ARIAL_NARROW_BOLD
 72
1
 11
103.45
 21
15.0
 31
0.0
100
AcDbText
  0
TEXT
  5
326
330
17
100
AcDbEntity
  8
TITLE
100
AcDbText
 10
182.15
 20
15.0
 30
0.0
 40
2.5
  1
BY
  7
CRE_ARIAL_NARROW_BOLD
 72
1
 11
182.15
 21
15.0
 31
0.0
100
AcDbText
  0
TEXT
  5
327
330
17
100
AcDbEntity
  8
TITLE
100
AcDbText
 10
195.1
 20
15.0
 30
0.0
 40
2.4
  1
CHD.
  7
CRE_ARIAL_NARROW_BOLD
 72
1
 11
195.1
 21
15.0
 31
0.0
100
AcDbText
  0
TEXT
  5
328
330
17
100
AcDbEntity
  8
TITLE
100
AcDbText
 10
208.65
 20
15.0
 30
0.0
 40
2.2
  1
APPD
  7
CRE_ARIAL_NARROW_BOLD
 72
1
 11
208.65
 21
15.0
 31
0.0
100
AcDbText
  0
VIEWPORT
  5
329
330
1B
100
AcDbEntity
 67
1
  8
VIEWPORTS
100
AcDbViewport
 10
210.0
 20
297.0
 30
0.0
 40
462.00000000000006
 41
653.4000000000001
 68
1
 69
1
 12
210.0
 22
297.0
 13
0.0
 23
0.0
 14
10.0
 24
10.0
 15
10.0
 25
10.0
 16
0.0
 26
0.0
 36
1.0
 17
0.0
 27
0.0
 37
0.0
 42
50.0
 43
0.0
 44
0.0
 45
653.4000000000001
 50
0.0
 51
0.0
 72
100
 90
557088
  1

281
0
 71
0
 74
0
110
0.0
120
0.0
130
0.0
111
1.0
121
0.0
131
0.0
112
0.0
122
1.0
132
0.0
 79
0
146
0.0
282
0
  0
VIEWPORT
  5
32A
330
1B
100
AcDbEntity
 67
1
  8
VIEWPORTS
100
AcDbViewport
 10
210.0
 20
297.0
 30
0.0
 40
420.0
 41
594.0
 68
2
 69
3
 12
210.0
 22
297.0
 13
0.0
 23
0.0
 14
10.0
 24
10.0
 15
10.0
 25
10.0
 16
0.0
 26
0.0
 36
1.0
 17
0.0
 27
0.0
 37
0.0
 42
50.0
 43
0.0
 44
0.0
 45
594.0
 50
0.0
 51
0.0
 72
100
 90
0
  1

281
0
 71
0
 74
0
110
0.0
120
0.0
130
0.0
111
1.0
121
0.0
131
0.0
112
0.0
122
1.0
132
0.0
 79
0
146
0.0
282
0
  0
ENDSEC
  0
SECTION
  2
OBJECTS
  0
DICTIONARY
  5
A
330
0
100
AcDbDictionary
281
1
  3
ACAD_COLOR
350
B
  3
ACAD_GROUP
350
C
  3
ACAD_LAYOUT
350
D
  3
ACAD_MATERIAL
350
E
  3
ACAD_MLEADERSTYLE
350
F
  3
ACAD_MLINESTYLE
350
10
  3
ACAD_PLOTSETTINGS
350
11
  3
ACAD_PLOTSTYLENAME
350
12
  3
ACAD_SCALELIST
350
14
  3
ACAD_TABLESTYLE
350
15
  3
ACAD_VISUALSTYLE
350
16
  3
EZDXF_META
350
2D
  0
DICTIONARY
  5
B
330
A
100
AcDbDictionary
281
1
  0
DICTIONARY
  5
C
330
A
100
AcDbDictionary
281
1
  0
DICTIONARY
  5
D
330
A
100
AcDbDictionary
281
1
  3
Model
350
1A
  3
Layout1
350
1E
  0
DICTIONARY
  5
E
330
A
100
AcDbDictionary
281
1
  3
ByBlock
350
1F
  3
ByLayer
350
20
  3
Global
350
21
  0
DICTIONARY
  5
F
330
A
100
AcDbDictionary
281
1
  3
Standard
350
2C
  0
DICTIONARY
  5
10
330
A
100
AcDbDictionary
281
1
  3
Standard
350
22
  0
DICTIONARY
  5
11
330
A
100
AcDbDictionary
281
1
  0
ACDBDICTIONARYWDFLT
  5
12
330
A
100
AcDbDictionary
281
1
  3
Normal
350
13
100
AcDbDictionaryWithDefault
340
13
  0
ACDBPLACEHOLDER
  5
13
330
12
  0
DICTIONARY
  5
14
330
A
100
AcDbDictionary
281
1
  0
DICTIONARY
  5
15
330
A
100
AcDbDictionary
281
1
  0
DICTIONARY
  5
16
330
A
100
AcDbDictionary
281
1
  3
2dWireframe
350
5A
  3
Basic
350
5B
  3
Brighten
350
5C
  3
ColorChange
350
5D
  3
Conceptual
350
5E
  3
Dim
350
5F
  3
EdgeColorOff
350
60
  3
Facepattern
350
61
  3
Flat
350
62
  3
FlatWithEdges
350
63
  3
Gouraud
350
64
  3
GouraudWithEdges
350
65
  3
Hidden
350
66
  3
JitterOff
350
67
  3
Linepattern
350
68
  3
Modeling
350
69
  3
OverhangOff
350
6A
  3
Realistic
350
6B
  3
Shaded
350
6C
  3
Shaded with edges
350
6D
  3
Shades of Gray
350
6E
  3
Sketchy
350
6F
  3
Thicken
350
70
  3
Wireframe
350
71
  3
X-Ray
350
72
  0
LAYOUT
  5
1A
330
D
100
AcDbPlotSettings
  1

  4
A3
  6

 40
7.5
 41
20.0
 42
7.5
 43
20.0
 44
420.0
 45
297.0
 46
0.0
 47
0.0
 48
0.0
 49
0.0
140
0.0
141
0.0
142
1.0
143
1.0
 70
1024
 72
1
 73
0
 74
5
  7

 75
16
 76
0
 77
2
 78
300
147
1.0
148
0.0
149
0.0
100
AcDbLayout
  1
Model
 70
1
 71
0
 10
0.0
 20
0.0
 11
420.0
 21
297.0
 12
0.0
 22
0.0
 32
0.0
 14
1e+20
 24
1e+20
 34
1e+20
 15
-1e+20
 25
-1e+20
 35
-1e+20
146
0.0
 13
0.0
 23
0.0
 33
0.0
 16
1.0
 26
0.0
 36
0.0
 17
0.0
 27
1.0
 37
0.0
 76
1
330
17
  0
LAYOUT
  5
1E
330
D
100
AcDbPlotSettings
  1

  2
DWG To PDF.pc3
  4
ISO_A2_PORTRAIT_(420.00_x_594.00_MM)
  6

 40
0.0
 41
0.0
 42
0.0
 43
0.0
 44
420.0
 45
594.0
 46
0.0
 47
0.0
 48
0.0
 49
0.0
140
0.0
141
0.0
142
1.0
143
1.0
 70
672
 72
1
 73
0
 74
5
  7

 75
16
 76
0
 77
2
 78
300
147
1.0
148
0.0
149
0.0
100
AcDbLayout
  1
Layout1
 70
1
 71
1
 10
-0.0
 20
-0.0
 11
420.0
 21
594.0
 12
0.0
 22
0.0
 32
0.0
 14
1e+20
 24
1e+20
 34
1e+20
 15
-1e+20
 25
-1e+20
 35
-1e+20
146
0.0
 13
0.0
 23
0.0
 33
0.0
 16
1.0
 26
0.0
 36
0.0
 17
0.0
 27
1.0
 37
0.0
 76
1
330
1B
331
329
  0
MATERIAL
  5
1F
102
{ACAD_REACTORS
330
E
102
}
330
E
100
AcDbMaterial
  1
ByBlock
  2

 70
0
 40
1.0
 71
1
 41
1.0
 91
-1023410177
 42
1.0
 72
1
  3

 73
1
 74
1
 75
1
 44
0.5
 73
0
 45
1.0
 46
1.0
 77
1
  4

 78
1
 79
1
170
1
 48
1.0
171
1
  6

172
1
173
1
174
1
140
1.0
141
1.0
175
1
  7

176
1
177
1
178
1
143
1.0
179
1
  8

270
1
271
1
272
1
145
1.0
146
1.0
273
1
  9

274
1
275
1
276
1
 42
1.0
 72
1
  3

 73
1
 74
1
 75
1
 94
63
  0
MATERIAL
  5
20
102
{ACAD_REACTORS
330
E
102
}
330
E
100
AcDbMaterial
  1
ByLayer
  2

 70
0
 40
1.0
 71
1
 41
1.0
 91
-1023410177
 42
1.0
 72
1
  3

 73
1
 74
1
 75
1
 44
0.5
 73
0
 45
1.0
 46
1.0
 77
1
  4

 78
1
 79
1
170
1
 48
1.0
171
1
  6

172
1
173
1
174
1
140
1.0
141
1.0
175
1
  7

176
1
177
1
178
1
143
1.0
179
1
  8

270
1
271
1
272
1
145
1.0
146
1.0
273
1
  9

274
1
275
1
276
1
 42
1.0
 72
1
  3

 73
1
 74
1
 75
1
 94
63
  0
MATERIAL
  5
21
102
{ACAD_REACTORS
330
E
102
}
330
E
100
AcDbMaterial
  1
Global
  2

 70
0
 40
1.0
 71
1
 41
1.0
 91
-1023410177
 42
1.0
 72
1
  3

 73
1
 74
1
 75
1
 44
0.5
 73
0
 45
1.0
 46
1.0
 77
1
  4

 78
1
 79
1
170
1
 48
1.0
171
1
  6

172
1
173
1
174
1
140
1.0
141
1.0
175
1
  7

176
1
177
1
178
1
143
1.0
179
1
  8

270
1
271
1
272
1
145
1.0
146
1.0
273
1
  9

274
1
275
1
276
1
 42
1.0
 72
1
  3

 73
1
 74
1
 75
1
 94
63
  0
MLINESTYLE
  5
22
102
{ACAD_REACTORS
330
10
102
}
330
10
100
AcDbMlineStyle
  2
Standard
 70
0
  3

 62
256
 51
90.0
 52
90.0
 71
2
 49
0.5
 62
256
  6
BYLAYER
 49
-0.5
 62
256
  6
BYLAYER
  0
MLEADERSTYLE
  5
2C
102
{ACAD_REACTORS
330
F
102
}
330
F
100
AcDbMLeaderStyle
179
2
170
2
171
1
172
0
 90
2
 40
0.0
 41
0.0
173
1
 91
-1056964608
 92
-2
290
1
 42
2.0
291
1
 43
8.0
  3
Standard
 44
4.0
300

342
29
174
1
175
1
176
0
178
1
 93
-1056964608
 45
4.0
292
0
297
0
 46
4.0
 94
-1056964608
 47
1.0
 49
1.0
140
1.0
294
1
141
0.0
177
0
142
1.0
295
0
296
0
143
3.75
271
0
272
9
273
9
  0
DICTIONARY
  5
2D
330
A
100
AcDbDictionary
280
1
281
1
  3
CREATED_BY_EZDXF
350
2E
  3
WRITTEN_BY_EZDXF
350
32D
  0
DICTIONARYVAR
  5
2E
330
2D
100
DictionaryVariables
280
0
  1
1.4.4 @ 2026-07-15T18:08:23.972452+00:00
  0
VISUALSTYLE
  5
5A
102
{ACAD_REACTORS
330
16
102
}
330
16
100
AcDbVisualStyle
  2
2dWireframe
 70
4
 90
0
 40
0.6
 62
7
290
0
291
0
  0
VISUALSTYLE
  5
5B
102
{ACAD_REACTORS
330
16
102
}
330
16
100
AcDbVisualStyle
  2
Basic
 70
7
 90
1
 40
0.6
 62
7
290
0
291
1
  0
VISUALSTYLE
  5
5C
102
{ACAD_REACTORS
330
16
102
}
330
16
100
AcDbVisualStyle
  2
Brighten
 70
12
 90
2
 40
0.6
 62
7
290
0
291
1
  0
VISUALSTYLE
  5
5D
102
{ACAD_REACTORS
330
16
102
}
330
16
100
AcDbVisualStyle
  2
ColorChange
 70
16
 90
2
 40
0.6
 62
8
290
0
291
1
  0
VISUALSTYLE
  5
5E
102
{ACAD_REACTORS
330
16
102
}
330
16
100
AcDbVisualStyle
  2
Conceptual
 70
9
 90
3
 40
0.6
 62
7
290
0
291
0
  0
VISUALSTYLE
  5
5F
102
{ACAD_REACTORS
330
16
102
}
330
16
100
AcDbVisualStyle
  2
Dim
 70
11
 90
2
 40
0.6
 62
7
290
0
291
1
  0
VISUALSTYLE
  5
60
102
{ACAD_REACTORS
330
16
102
}
330
16
100
AcDbVisualStyle
  2
EdgeColorOff
 70
22
 90
2
 40
0.6
 62
7
290
0
291
1
  0
VISUALSTYLE
  5
61
102
{ACAD_REACTORS
330
16
102
}
330
16
100
AcDbVisualStyle
  2
Facepattern
 70
15
 90
2
 40
0.6
 62
7
290
0
291
1
  0
VISUALSTYLE
  5
62
102
{ACAD_REACTORS
330
16
102
}
330
16
100
AcDbVisualStyle
  2
Flat
 70
0
 90
2
 40
0.6
 62
7
290
0
291
1
  0
VISUALSTYLE
  5
63
102
{ACAD_REACTORS
330
16
102
}
330
16
100
AcDbVisualStyle
  2
FlatWithEdges
 70
1
 90
2
 40
0.6
 62
7
290
0
291
1
  0
VISUALSTYLE
  5
64
102
{ACAD_REACTORS
330
16
102
}
330
16
100
AcDbVisualStyle
  2
Gouraud
 70
2
 90
2
 40
0.6
 62
7
290
0
291
1
  0
VISUALSTYLE
  5
65
102
{ACAD_REACTORS
330
16
102
}
330
16
100
AcDbVisualStyle
  2
GouraudWithEdges
 70
3
 90
2
 40
0.6
 62
7
290
0
291
1
  0
VISUALSTYLE
  5
66
102
{ACAD_REACTORS
330
16
102
}
330
16
100
AcDbVisualStyle
  2
Hidden
 70
6
 90
1
 40
0.6
 62
7
290
0
291
0
  0
VISUALSTYLE
  5
67
102
{ACAD_REACTORS
330
16
102
}
330
16
100
AcDbVisualStyle
  2
JitterOff
 70
20
 90
2
 40
0.6
 62
7
290
0
291
1
  0
VISUALSTYLE
  5
68
102
{ACAD_REACTORS
330
16
102
}
330
16
100
AcDbVisualStyle
  2
Linepattern
 70
14
 90
2
 40
0.6
 62
7
290
0
291
1
  0
VISUALSTYLE
  5
69
102
{ACAD_REACTORS
330
16
102
}
330
16
100
AcDbVisualStyle
  2
Modeling
 70
10
 90
2
 40
0.6
 62
7
290
0
291
0
  0
VISUALSTYLE
  5
6A
102
{ACAD_REACTORS
330
16
102
}
330
16
100
AcDbVisualStyle
  2
OverhangOff
 70
21
 90
2
 40
0.6
 62
7
290
0
291
1
  0
VISUALSTYLE
  5
6B
102
{ACAD_REACTORS
330
16
102
}
330
16
100
AcDbVisualStyle
  2
Realistic
 70
8
 90
2
 40
0.6
 62
7
290
0
291
0
  0
VISUALSTYLE
  5
6C
102
{ACAD_REACTORS
330
16
102
}
330
16
100
AcDbVisualStyle
  2
Shaded
 70
27
 90
2
 40
0.6
 62
7
290
0
291
0
  0
VISUALSTYLE
  5
6D
102
{ACAD_REACTORS
330
16
102
}
330
16
100
AcDbVisualStyle
  2
Shaded with edges
 70
26
 90
2
 40
0.6
 62
7
290
0
291
0
  0
VISUALSTYLE
  5
6E
102
{ACAD_REACTORS
330
16
102
}
330
16
100
AcDbVisualStyle
  2
Shades of Gray
 70
23
 90
2
 40
0.6
 62
7
290
0
291
0
  0
VISUALSTYLE
  5
6F
102
{ACAD_REACTORS
330
16
102
}
330
16
100
AcDbVisualStyle
  2
Sketchy
 70
24
 90
1
 40
0.6
 62
7
290
0
291
0
  0
VISUALSTYLE
  5
70
102
{ACAD_REACTORS
330
16
102
}
330
16
100
AcDbVisualStyle
  2
Thicken
 70
13
 90
2
 40
0.6
 62
7
290
0
291
1
  0
VISUALSTYLE
  5
71
102
{ACAD_REACTORS
330
16
102
}
330
16
100
AcDbVisualStyle
  2
Wireframe
 70
5
 90
0
 40
0.6
 62
7
290
0
291
0
  0
VISUALSTYLE
  5
72
102
{ACAD_REACTORS
330
16
102
}
330
16
100
AcDbVisualStyle
  2
X-Ray
 70
25
 90
2
 40
0.5
 62
7
290
0
291
0
  0
DICTIONARYVAR
  5
32D
330
2D
100
DictionaryVariables
280
0
  1
1.4.4 @ 2026-07-15T18:08:23.980738+00:00
  0
ENDSEC
  0
EOF
