  0
SECTION
  2
HEADER
  9
$ACADVER
  1
AC1024
  9
$ACADMAINTVER
 70
6
  9
$DWGCODEPAGE
  3
ANSI_1252
  9
$LASTSAVEDBY
  1
ezdxf
  9
$INSBASE
 10
0.0
 20
0.0
 30
0.0
  9
$EXTMIN
 10
1e+20
 20
1e+20
 30
1e+20
  9
$EXTMAX
 10
-1e+20
 20
-1e+20
 30
-1e+20
  9
$LIMMIN
 10
0.0
 20
0.0
  9
$LIMMAX
 10
420.0
 20
297.0
  9
$ORTHOMODE
 70
0
  9
$REGENMODE
 70
1
  9
$FILLMODE
 70
1
  9
$QTEXTMODE
 70
0
  9
$MIRRTEXT
 70
1
  9
$LTSCALE
 40
1.0
  9
$ATTMODE
 70
1
  9
$TEXTSIZE
 40
2.5
  9
$TRACEWID
 40
1.0
  9
$TEXTSTYLE
  7
OpenSans
  9
$CLAYER
  8
0
  9
$CELTYPE
  6
ByLayer
  9
$CECOLOR
 62
256
  9
$CELTSCALE
 40
1.0
  9
$DISPSILH
 70
0
  9
$DIMSCALE
 40
1.0
  9
$DIMASZ
 40
0.175
  9
$DIMEXO
 40
0.125
  9
$DIMDLI
 40
3.75
  9
$DIMRND
 40
0.0
  9
$DIMDLE
 40
0.0
  9
$DIMEXE
 40
0.375
  9
$DIMTP
 40
0.0
  9
$DIMTM
 40
0.0
  9
$DIMTXT
 40
0.25
  9
$DIMCEN
 40
2.5
  9
$DIMTSZ
 40
0.0
  9
$DIMTOL
 70
0
  9
$DIMLIM
 70
0
  9
$DIMTIH
 70
0
  9
$DIMTOH
 70
0
  9
$DIMSE1
 70
0
  9
$DIMSE2
 70
0
  9
$DIMTAD
 70
1
  9
$DIMZIN
 70
12
  9
$DIMBLK
  1
ARCHTICK
  9
$DIMASO
 70
1
  9
$DIMSHO
 70
1
  9
$DIMPOST
  1

  9
$DIMAPOST
  1

  9
$DIMALT
 70
0
  9
$DIMALTD
 70
3
  9
$DIMALTF
 40
0.03937007874
  9
$DIMLFAC
 40
100.0
  9
$DIMTOFL
 70
1
  9
$DIMTVP
 40
0.0
  9
$DIMTIX
 70
0
  9
$DIMSOXD
 70
0
  9
$DIMSAH
 70
0
  9
$DIMBLK1
  1

  9
$DIMBLK2
  1

  9
$DIMSTYLE
  2
EZDXF
  9
$DIMCLRD
 70
0
  9
$DIMCLRE
 70
0
  9
$DIMCLRT
 70
0
  9
$DIMTFAC
 40
0.5
  9
$DIMGAP
 40
0.1
  9
$DIMJUST
 70
0
  9
$DIMSD1
 70
0
  9
$DIMSD2
 70
0
  9
$DIMTOLJ
 70
0
  9
$DIMTZIN
 70
8
  9
$DIMALTZ
 70
0
  9
$DIMALTTZ
 70
0
  9
$DIMUPT
 70
1
  9
$DIMDEC
 70
2
  9
$DIMTDEC
 70
2
  9
$DIMALTU
 70
2
  9
$DIMALTTD
 70
3
  9
$DIMTXSTY
  7
OpenSansCondensed-Light
  9
$DIMAUNIT
 70
0
  9
$DIMADEC
 70
2
  9
$DIMALTRND
 40
0.0
  9
$DIMAZIN
 70
3
  9
$DIMDSEP
 70
46
  9
$DIMATFIT
 70
3
  9
$DIMFRAC
 70
0
  9
$DIMLDRBLK
  1

  9
$DIMLUNIT
 70
2
  9
$DIMLWD
 70
-2
  9
$DIMLWE
 70
-2
  9
$DIMTMOVE
 70
2
  9
$DIMFXL
 40
1.0
  9
$DIMFXLON
 70
0
  9
$DIMJOGANG
 40
0.785398163397
  9
$DIMTFILL
 70
0
  9
$DIMTFILLCLR
 70
0
  9
$DIMARCSYM
 70
0
  9
$DIMLTYPE
  6

  9
$DIMLTEX1
  6

  9
$DIMLTEX2
  6

  9
$DIMTXTDIRECTION
 70
0
  9
$LUNITS
 70
2
  9
$LUPREC
 70
4
  9
$SKETCHINC
 40
1.0
  9
$FILLETRAD
 40
10.0
  9
$AUNITS
 70
0
  9
$AUPREC
 70
2
  9
$MENU
  1
.
  9
$ELEVATION
 40
0.0
  9
$PELEVATION
 40
0.0
  9
$THICKNESS
 40
0.0
  9
$LIMCHECK
 70
0
  9
$CHAMFERA
 40
0.0
  9
$CHAMFERB
 40
0.0
  9
$CHAMFERC
 40
0.0
  9
$CHAMFERD
 40
0.0
  9
$SKPOLY
 70
0
  9
$TDCREATE
 40
2461237.514814815
  9
$TDUCREATE
 40
2458532.153996898
  9
$TDUPDATE
 40
2461237.514814815
  9
$TDUUPDATE
 40
2458532.1544311
  9
$TDINDWG
 40
0.0
  9
$TDUSRTIMER
 40
0.0
  9
$USRTIMER
 70
1
  9
$ANGBASE
 50
0.0
  9
$ANGDIR
 70
0
  9
$PDMODE
 70
0
  9
$PDSIZE
 40
0.0
  9
$PLINEWID
 40
0.0
  9
$SPLFRAME
 70
0
  9
$SPLINETYPE
 70
6
  9
$SPLINESEGS
 70
8
  9
$HANDSEED
  5
476
  9
$SURFTAB1
 70
6
  9
$SURFTAB2
 70
6
  9
$SURFTYPE
 70
6
  9
$SURFU
 70
6
  9
$SURFV
 70
6
  9
$UCSBASE
  2

  9
$UCSNAME
  2

  9
$UCSORG
 10
0.0
 20
0.0
 30
0.0
  9
$UCSXDIR
 10
1.0
 20
0.0
 30
0.0
  9
$UCSYDIR
 10
0.0
 20
1.0
 30
0.0
  9
$UCSORTHOREF
  2

  9
$UCSORTHOVIEW
 70
0
  9
$UCSORGTOP
 10
0.0
 20
0.0
 30
0.0
  9
$UCSORGBOTTOM
 10
0.0
 20
0.0
 30
0.0
  9
$UCSORGLEFT
 10
0.0
 20
0.0
 30
0.0
  9
$UCSORGRIGHT
 10
0.0
 20
0.0
 30
0.0
  9
$UCSORGFRONT
 10
0.0
 20
0.0
 30
0.0
  9
$UCSORGBACK
 10
0.0
 20
0.0
 30
0.0
  9
$PUCSBASE
  2

  9
$PUCSNAME
  2

  9
$PUCSORG
 10
0.0
 20
0.0
 30
0.0
  9
$PUCSXDIR
 10
1.0
 20
0.0
 30
0.0
  9
$PUCSYDIR
 10
0.0
 20
1.0
 30
0.0
  9
$PUCSORTHOREF
  2

  9
$PUCSORTHOVIEW
 70
0
  9
$PUCSORGTOP
 10
0.0
 20
0.0
 30
0.0
  9
$PUCSORGBOTTOM
 10
0.0
 20
0.0
 30
0.0
  9
$PUCSORGLEFT
 10
0.0
 20
0.0
 30
0.0
  9
$PUCSORGRIGHT
 10
0.0
 20
0.0
 30
0.0
  9
$PUCSORGFRONT
 10
0.0
 20
0.0
 30
0.0
  9
$PUCSORGBACK
 10
0.0
 20
0.0
 30
0.0
  9
$USERI1
 70
0
  9
$USERI2
 70
0
  9
$USERI3
 70
0
  9
$USERI4
 70
0
  9
$USERI5
 70
0
  9
$USERR1
 40
0.0
  9
$USERR2
 40
0.0
  9
$USERR3
 40
0.0
  9
$USERR4
 40
0.0
  9
$USERR5
 40
0.0
  9
$WORLDVIEW
 70
1
  9
$SHADEDGE
 70
3
  9
$SHADEDIF
 70
70
  9
$TILEMODE
 70
1
  9
$MAXACTVP
 70
64
  9
$PINSBASE
 10
0.0
 20
0.0
 30
0.0
  9
$PLIMCHECK
 70
0
  9
$PEXTMIN
 10
1e+20
 20
1e+20
 30
1e+20
  9
$PEXTMAX
 10
-1e+20
 20
-1e+20
 30
-1e+20
  9
$PLIMMIN
 10
-0.0
 20
-0.0
  9
$PLIMMAX
 10
420.0
 20
594.0
  9
$UNITMODE
 70
0
  9
$VISRETAIN
 70
1
  9
$PLINEGEN
 70
0
  9
$PSLTSCALE
 70
1
  9
$TREEDEPTH
 70
3020
  9
$CMLSTYLE
  2
Standard
  9
$CMLJUST
 70
0
  9
$CMLSCALE
 40
20.0
  9
$PROXYGRAPHICS
 70
1
  9
$MEASUREMENT
 70
1
  9
$CELWEIGHT
370
-1
  9
$ENDCAPS
280
0
  9
$JOINSTYLE
280
0
  9
$LWDISPLAY
290
0
  9
$INSUNITS
 70
4
  9
$HYPERLINKBASE
  1

  9
$STYLESHEET
  1

  9
$XEDIT
290
1
  9
$CEPSNTYPE
380
0
  9
$PSTYLEMODE
290
1
  9
$FINGERPRINTGUID
  2
{173C395C-8509-4158-8266-B368D424F75C}
  9
$VERSIONGUID
  2
{BEA9F3B6-8BED-4F6E-A2D6-4CD4ED9D07A8}
  9
$EXTNAMES
290
1
  9
$PSVPSCALE
 40
0.0
  9
$OLESTARTUP
290
0
  9
$SORTENTS
280
127
  9
$INDEXCTL
280
0
  9
$HIDETEXT
280
1
  9
$XCLIPFRAME
280
1
  9
$HALOGAP
280
0
  9
$OBSCOLOR
 70
257
  9
$OBSLTYPE
280
0
  9
$INTERSECTIONDISPLAY
280
0
  9
$INTERSECTIONCOLOR
 70
257
  9
$DIMASSOC
280
2
  9
$PROJECTNAME
  1

  9
$CAMERADISPLAY
290
0
  9
$LENSLENGTH
 40
50.0
  9
$CAMERAHEIGHT
 40
0.0
  9
$STEPSPERSEC
 40
24.0
  9
$STEPSIZE
 40
100.0
  9
$3DDWFPREC
 40
2.0
  9
$PSOLWIDTH
 40
0.005
  9
$PSOLHEIGHT
 40
0.08
  9
$LOFTANG1
 40
1.570796326795
  9
$LOFTANG2
 40
1.570796326795
  9
$LOFTMAG1
 40
0.0
  9
$LOFTMAG2
 40
0.0
  9
$LOFTPARAM
 70
7
  9
$LOFTNORMALS
280
1
  9
$LATITUDE
 40
37.795
  9
$LONGITUDE
 40
-122.394
  9
$NORTHDIRECTION
 40
0.0
  9
$TIMEZONE
 70
-8000
  9
$LIGHTGLYPHDISPLAY
280
1
  9
$TILEMODELIGHTSYNCH
280
1
  9
$CMATERIAL
347
20
  9
$SOLIDHIST
280
0
  9
$SHOWHIST
280
1
  9
$DWFFRAME
280
2
  9
$DGNFRAME
280
2
  9
$REALWORLDSCALE
290
1
  9
$INTERFERECOLOR
 62
256
  9
$CSHADOW
280
0
  9
$SHADOWPLANELOCATION
 40
0.0
  0
ENDSEC
  0
SECTION
  2
CLASSES
  0
CLASS
  1
ACDBDICTIONARYWDFLT
  2
AcDbDictionaryWithDefault
  3
ObjectDBX Classes
 90
0
 91
0
280
0
281
0
  0
CLASS
  1
SUN
  2
AcDbSun
  3
SCENEOE
 90
1153
 91
0
280
0
281
0
  0
CLASS
  1
VISUALSTYLE
  2
AcDbVisualStyle
  3
ObjectDBX Classes
 90
4095
 91
0
280
0
281
0
  0
CLASS
  1
MATERIAL
  2
AcDbMaterial
  3
ObjectDBX Classes
 90
1153
 91
0
280
0
281
0
  0
CLASS
  1
SCALE
  2
AcDbScale
  3
ObjectDBX Classes
 90
1153
 91
0
280
0
281
0
  0
CLASS
  1
TABLESTYLE
  2
AcDbTableStyle
  3
ObjectDBX Classes
 90
4095
 91
0
280
0
281
0
  0
CLASS
  1
MLEADERSTYLE
  2
AcDbMLeaderStyle
  3
ACDB_MLEADERSTYLE_CLASS
 90
4095
 91
0
280
0
281
0
  0
CLASS
  1
DICTIONARYVAR
  2
AcDbDictionaryVar
  3
ObjectDBX Classes
 90
0
 91
0
280
0
281
0
  0
CLASS
  1
CELLSTYLEMAP
  2
AcDbCellStyleMap
  3
ObjectDBX Classes
 90
1152
 91
0
280
0
281
0
  0
CLASS
  1
MENTALRAYRENDERSETTINGS
  2
AcDbMentalRayRenderSettings
  3
SCENEOE
 90
1024
 91
0
280
0
281
0
  0
CLASS
  1
ACDBDETAILVIEWSTYLE
  2
AcDbDetailViewStyle
  3
ObjectDBX Classes
 90
1025
 91
0
280
0
281
0
  0
CLASS
  1
ACDBSECTIONVIEWSTYLE
  2
AcDbSectionViewStyle
  3
ObjectDBX Classes
 90
1025
 91
0
280
0
281
0
  0
CLASS
  1
RASTERVARIABLES
  2
AcDbRasterVariables
  3
ISM
 90
0
 91
0
280
0
281
0
  0
CLASS
  1
LAYOUT
  2
AcDbLayout
  3
ObjectDBX Classes
 90
0
 91
0
280
0
281
0
  0
CLASS
  1
ACDBPLACEHOLDER
  2
AcDbPlaceHolder
  3
ObjectDBX Classes
 90
0
 91
0
280
0
281
0
  0
ENDSEC
  0
SECTION
  2
TABLES
  0
TABLE
  2
VPORT
  5
8
330
0
100
AcDbSymbolTable
 70
1
  0
VPORT
  5
23
330
8
100
AcDbSymbolTableRecord
100
AcDbViewportTableRecord
  2
*Active
 70
0
 10
0.0
 20
0.0
 11
1.0
 21
1.0
 12
0.0
 22
0.0
 13
0.0
 23
0.0
 14
0.5
 24
0.5
 15
0.5
 25
0.5
 16
0.0
 26
0.0
 36
1.0
 17
0.0
 27
0.0
 37
0.0
 40
1000.0
 41
1.34
 42
50.0
 43
0.0
 44
0.0
 50
0.0
 51
0.0
 71
0
 72
1000
 73
1
 74
3
 75
0
 76
0
 77
0
 78
0
281
0
 65
0
146
0.0
  0
ENDTAB
  0
TABLE
  2
LTYPE
  5
2
330
0
100
AcDbSymbolTable
 70
21
  0
LTYPE
  5
24
330
2
100
AcDbSymbolTableRecord
100
AcDbLinetypeTableRecord
  2
ByBlock
 70
0
  3

 72
65
 73
0
 40
0.0
  0
LTYPE
  5
25
330
2
100
AcDbSymbolTableRecord
100
AcDbLinetypeTableRecord
  2
ByLayer
 70
0
  3

 72
65
 73
0
 40
0.0
  0
LTYPE
  5
26
330
2
100
AcDbSymbolTableRecord
100
AcDbLinetypeTableRecord
  2
Continuous
 70
0
  3

 72
65
 73
0
 40
0.0
  0
LTYPE
  5
2F
330
2
100
AcDbSymbolTableRecord
100
AcDbLinetypeTableRecord
  2
CENTER
 70
0
  3
Center ____ _ ____ _ ____ _ ____ _ ____ _ ____
 72
65
 73
4
 40
5.08
 49
3.175
 74
0
 49
-0.635
 74
0
 49
0.635
 74
0
 49
-0.635
 74
0
  0
LTYPE
  5
30
330
2
100
AcDbSymbolTableRecord
100
AcDbLinetypeTableRecord
  2
CENTERX2
 70
0
  3
Center (2x) ________  __  ________  __  ________
 72
65
 73
4
 40
8.89
 49
6.35
 74
0
 49
-0.635
 74
0
 49
1.27
 74
0
 49
-0.635
 74
0
  0
LTYPE
  5
31
330
2
100
AcDbSymbolTableRecord
100
AcDbLinetypeTableRecord
  2
CENTER2
 70
0
  3
Center (.5x) ____ _ ____ _ ____ _ ____ _ ____
 72
65
 73
4
 40
2.54
 49
1.587
 74
0
 49
-0.318
 74
0
 49
0.318
 74
0
 49
-0.318
 74
0
  0
LTYPE
  5
32
330
2
100
AcDbSymbolTableRecord
100
AcDbLinetypeTableRecord
  2
DASHED
 70
0
  3
Dashed __ __ __ __ __ __ __ __ __ __ __ __ __ _
 72
65
 73
2
 40
1.524
 49
1.27
 74
0
 49
-0.254
 74
0
  0
LTYPE
  5
33
330
2
100
AcDbSymbolTableRecord
100
AcDbLinetypeTableRecord
  2
DASHEDX2
 70
0
  3
Dashed (2x) ____  ____  ____  ____  ____  ____
 72
65
 73
2
 40
3.048
 49
2.54
 74
0
 49
-0.508
 74
0
  0
LTYPE
  5
34
330
2
100
AcDbSymbolTableRecord
100
AcDbLinetypeTableRecord
  2
DASHED2
 70
0
  3
Dashed (.5x) _ _ _ _ _ _ _ _ _ _ _ _ _ _
 72
65
 73
2
 40
0.762
 49
0.635
 74
0
 49
-0.127
 74
0
  0
LTYPE
  5
35
330
2
100
AcDbSymbolTableRecord
100
AcDbLinetypeTableRecord
  2
PHANTOM
 70
0
  3
Phantom ______  __  __  ______  __  __  ______
 72
65
 73
6
 40
6.35
 49
3.175
 74
0
 49
-0.635
 74
0
 49
0.635
 74
0
 49
-0.635
 74
0
 49
0.635
 74
0
 49
-0.635
 74
0
  0
LTYPE
  5
36
330
2
100
AcDbSymbolTableRecord
100
AcDbLinetypeTableRecord
  2
PHANTOMX2
 70
0
  3
Phantom (2x)____________    ____    ____    ____________
 72
65
 73
6
 40
10.795
 49
6.35
 74
0
 49
-0.635
 74
0
 49
1.27
 74
0
 49
-0.635
 74
0
 49
1.27
 74
0
 49
-0.635
 74
0
  0
LTYPE
  5
37
330
2
100
AcDbSymbolTableRecord
100
AcDbLinetypeTableRecord
  2
PHANTOM2
 70
0
  3
Phantom (.5x) ___ _ _ ___ _ _ ___ _ _ ___ _ _ ___
 72
65
 73
6
 40
3.175
 49
1.587
 74
0
 49
-0.318
 74
0
 49
0.318
 74
0
 49
-0.318
 74
0
 49
0.318
 74
0
 49
-0.318
 74
0
  0
LTYPE
  5
38
330
2
100
AcDbSymbolTableRecord
100
AcDbLinetypeTableRecord
  2
DASHDOT
 70
0
  3
Dash dot __ . __ . __ . __ . __ . __ . __ . __
 72
65
 73
4
 40
3.556
 49
2.54
 74
0
 49
-0.508
 74
0
 49
0.0
 74
0
 49
-0.508
 74
0
  0
LTYPE
  5
39
330
2
100
AcDbSymbolTableRecord
100
AcDbLinetypeTableRecord
  2
DASHDOTX2
 70
0
  3
Dash dot (2x) ____  .  ____  .  ____  .  ____
 72
65
 73
4
 40
6.096
 49
5.08
 74
0
 49
-0.508
 74
0
 49
0.0
 74
0
 49
-0.508
 74
0
  0
LTYPE
  5
3A
330
2
100
AcDbSymbolTableRecord
100
AcDbLinetypeTableRecord
  2
DASHDOT2
 70
0
  3
Dash dot (.5x) _ . _ . _ . _ . _ . _ . _ . _
 72
65
 73
4
 40
1.778
 49
1.27
 74
0
 49
-0.254
 74
0
 49
0.0
 74
0
 49
-0.254
 74
0
  0
LTYPE
  5
3B
330
2
100
AcDbSymbolTableRecord
100
AcDbLinetypeTableRecord
  2
DOT
 70
0
  3
Dot .  .  .  .  .  .  .  .  .  .  .  .  .  .  .  .
 72
65
 73
2
 40
0.508
 49
0.0
 74
0
 49
-0.508
 74
0
  0
LTYPE
  5
3C
330
2
100
AcDbSymbolTableRecord
100
AcDbLinetypeTableRecord
  2
DOTX2
 70
0
  3
Dot (2x) .    .    .    .    .    .    .    . 
 72
65
 73
2
 40
1.016
 49
0.0
 74
0
 49
-1.016
 74
0
  0
LTYPE
  5
3D
330
2
100
AcDbSymbolTableRecord
100
AcDbLinetypeTableRecord
  2
DOT2
 70
0
  3
Dot (.5) . . . . . . . . . . . . . . . . . . . 
 72
65
 73
2
 40
0.254
 49
0.0
 74
0
 49
-0.254
 74
0
  0
LTYPE
  5
3E
330
2
100
AcDbSymbolTableRecord
100
AcDbLinetypeTableRecord
  2
DIVIDE
 70
0
  3
Divide __ . . __ . . __ . . __ . . __ . . __
 72
65
 73
6
 40
4.064
 49
2.54
 74
0
 49
-0.508
 74
0
 49
0.0
 74
0
 49
-0.508
 74
0
 49
0.0
 74
0
 49
-0.508
 74
0
  0
LTYPE
  5
3F
330
2
100
AcDbSymbolTableRecord
100
AcDbLinetypeTableRecord
  2
DIVIDEX2
 70
0
  3
Divide (2x) ____  . .  ____  . .  ____  . .  ____
 72
65
 73
6
 40
6.604
 49
5.08
 74
0
 49
-0.508
 74
0
 49
0.0
 74
0
 49
-0.508
 74
0
 49
0.0
 74
0
 49
-0.508
 74
0
  0
LTYPE
  5
40
330
2
100
AcDbSymbolTableRecord
100
AcDbLinetypeTableRecord
  2
DIVIDE2
 70
0
  3
Divide(.5x) _ . _ . _ . _ . _ . _ . _ . _
 72
65
 73
6
 40
2.032
 49
1.27
 74
0
 49
-0.254
 74
0
 49
0.0
 74
0
 49
-0.254
 74
0
 49
0.0
 74
0
 49
-0.254
 74
0
  0
ENDTAB
  0
TABLE
  2
LAYER
  5
1
330
0
100
AcDbSymbolTable
 70
17
  0
LAYER
  5
27
330
1
100
AcDbSymbolTableRecord
100
AcDbLayerTableRecord
  2
0
 70
0
 62
7
  6
Continuous
370
-3
390
13
347
21
  0
LAYER
  5
28
330
1
100
AcDbSymbolTableRecord
100
AcDbLayerTableRecord
  2
Defpoints
 70
0
 62
7
  6
Continuous
290
0
370
-3
390
13
347
21
  0
LAYER
  5
8A
330
1
100
AcDbSymbolTableRecord
100
AcDbLayerTableRecord
  2
BORDER
 70
0
 62
7
  6
Continuous
370
35
390
13
347
21
  0
LAYER
  5
8B
330
1
100
AcDbSymbolTableRecord
100
AcDbLayerTableRecord
  2
TITLE
 70
0
 62
7
  6
Continuous
370
20
390
13
347
21
  0
LAYER
  5
8C
330
1
100
AcDbSymbolTableRecord
100
AcDbLayerTableRecord
  2
TEXT
 70
0
 62
7
  6
Continuous
370
20
390
13
347
21
  0
LAYER
  5
8D
330
1
100
AcDbSymbolTableRecord
100
AcDbLayerTableRecord
  2
LABEL
 70
0
 62
7
  6
Continuous
370
20
390
13
347
21
  0
LAYER
  5
8E
330
1
100
AcDbSymbolTableRecord
100
AcDbLayerTableRecord
  2
TABLE
 70
0
 62
7
  6
Continuous
370
25
390
13
347
21
  0
LAYER
  5
8F
330
1
100
AcDbSymbolTableRecord
100
AcDbLayerTableRecord
  2
NOTES
 70
0
 62
7
  6
Continuous
370
18
390
13
347
21
  0
LAYER
  5
90
330
1
100
AcDbSymbolTableRecord
100
AcDbLayerTableRecord
  2
SYMBOL
 70
0
 62
2
  6
Continuous
370
20
390
13
347
21
  0
LAYER
  5
91
330
1
100
AcDbSymbolTableRecord
100
AcDbLayerTableRecord
  2
PIPE
 70
0
 62
4
  6
Continuous
370
53
390
13
347
21
  0
LAYER
  5
92
330
1
100
AcDbSymbolTableRecord
100
AcDbLayerTableRecord
  2
DIM
 70
0
 62
2
  6
Continuous
370
20
390
13
347
21
  0
LAYER
  5
93
330
1
100
AcDbSymbolTableRecord
100
AcDbLayerTableRecord
  2
CALLOUT
 70
0
 62
3
  6
Continuous
370
35
390
13
347
21
  0
LAYER
  5
94
330
1
100
AcDbSymbolTableRecord
100
AcDbLayerTableRecord
  2
COMPONENT
 70
0
 62
4
  6
Continuous
370
50
390
13
347
21
  0
LAYER
  5
95
330
1
100
AcDbSymbolTableRecord
100
AcDbLayerTableRecord
  2
COMPANY
 70
0
 62
4
  6
Continuous
370
20
390
13
347
21
  0
LAYER
  5
96
330
1
100
AcDbSymbolTableRecord
100
AcDbLayerTableRecord
  2
HIGHLIGHT
 70
0
 62
3
  6
Continuous
370
20
390
13
347
21
  0
LAYER
  5
97
330
1
100
AcDbSymbolTableRecord
100
AcDbLayerTableRecord
  2
CENTER
 70
0
 62
2
  6
CENTER
370
20
390
13
347
21
  0
LAYER
  5
98
330
1
100
AcDbSymbolTableRecord
100
AcDbLayerTableRecord
  2
VIEWPORTS
 70
0
 62
8
  6
Continuous
290
0
370
5
390
13
347
21
  0
ENDTAB
  0
TABLE
  2
STYLE
  5
5
330
0
100
AcDbSymbolTable
 70
29
  0
STYLE
  5
29
330
5
100
AcDbSymbolTableRecord
100
AcDbTextStyleTableRecord
  2
Standard
 70
0
 40
0.0
 41
1.0
 50
0.0
 71
0
 42
2.5
  3
txt
  4

  0
STYLE
  5
41
330
5
100
AcDbSymbolTableRecord
100
AcDbTextStyleTableRecord
  2
OpenSans-Light
 70
0
 40
0.0
 41
1.0
 50
0.0
 71
0
 42
2.5
  3
OpenSans-Light.ttf
  4

  0
STYLE
  5
42
330
5
100
AcDbSymbolTableRecord
100
AcDbTextStyleTableRecord
  2
OpenSans-Light-Italic
 70
0
 40
0.0
 41
1.0
 50
0.0
 71
0
 42
2.5
  3
OpenSans-LightItalic.ttf
  4

  0
STYLE
  5
43
330
5
100
AcDbSymbolTableRecord
100
AcDbTextStyleTableRecord
  2
OpenSans
 70
0
 40
0.0
 41
1.0
 50
0.0
 71
0
 42
2.5
  3
OpenSans-Regular.ttf
  4

  0
STYLE
  5
44
330
5
100
AcDbSymbolTableRecord
100
AcDbTextStyleTableRecord
  2
OpenSans-Italic
 70
0
 40
0.0
 41
1.0
 50
0.0
 71
0
 42
2.5
  3
OpenSans-Italic.ttf
  4

  0
STYLE
  5
45
330
5
100
AcDbSymbolTableRecord
100
AcDbTextStyleTableRecord
  2
OpenSans-SemiBold
 70
0
 40
0.0
 41
1.0
 50
0.0
 71
0
 42
2.5
  3
OpenSans-SemiBold.ttf
  4

  0
STYLE
  5
46
330
5
100
AcDbSymbolTableRecord
100
AcDbTextStyleTableRecord
  2
OpenSans-SemiBoldItalic
 70
0
 40
0.0
 41
1.0
 50
0.0
 71
0
 42
2.5
  3
OpenSans-SemiBoldItalic.ttf
  4

  0
STYLE
  5
47
330
5
100
AcDbSymbolTableRecord
100
AcDbTextStyleTableRecord
  2
OpenSans-Bold
 70
0
 40
0.0
 41
1.0
 50
0.0
 71
0
 42
2.5
  3
OpenSans-Bold.ttf
  4

  0
STYLE
  5
48
330
5
100
AcDbSymbolTableRecord
100
AcDbTextStyleTableRecord
  2
OpenSans-BoldItalic
 70
0
 40
0.0
 41
1.0
 50
0.0
 71
0
 42
2.5
  3
OpenSans-BoldItalic.ttf
  4

  0
STYLE
  5
49
330
5
100
AcDbSymbolTableRecord
100
AcDbTextStyleTableRecord
  2
OpenSans-ExtraBold
 70
0
 40
0.0
 41
1.0
 50
0.0
 71
0
 42
2.5
  3
OpenSans-ExtraBold.ttf
  4

  0
STYLE
  5
4A
330
5
100
AcDbSymbolTableRecord
100
AcDbTextStyleTableRecord
  2
OpenSans-ExtraBoldItalic
 70
0
 40
0.0
 41
1.0
 50
0.0
 71
0
 42
2.5
  3
OpenSans-ExtraBoldItalic.ttf
  4

  0
STYLE
  5
4B
330
5
100
AcDbSymbolTableRecord
100
AcDbTextStyleTableRecord
  2
OpenSansCondensed-Bold
 70
0
 40
0.0
 41
1.0
 50
0.0
 71
0
 42
2.5
  3
OpenSansCondensed-Bold.ttf
  4

  0
STYLE
  5
4C
330
5
100
AcDbSymbolTableRecord
100
AcDbTextStyleTableRecord
  2
OpenSansCondensed-Light
 70
0
 40
0.0
 41
1.0
 50
0.0
 71
0
 42
2.5
  3
OpenSansCondensed-Light.ttf
  4

  0
STYLE
  5
4D
330
5
100
AcDbSymbolTableRecord
100
AcDbTextStyleTableRecord
  2
OpenSansCondensed-Italic
 70
0
 40
0.0
 41
1.0
 50
0.0
 71
0
 42
2.5
  3
OpenSansCondensed-LightItalic.ttf
  4

  0
STYLE
  5
4E
330
5
100
AcDbSymbolTableRecord
100
AcDbTextStyleTableRecord
  2
LiberationSans
 70
0
 40
0.0
 41
1.0
 50
0.0
 71
0
 42
2.5
  3
LiberationSans-Regular.ttf
  4

  0
STYLE
  5
4F
330
5
100
AcDbSymbolTableRecord
100
AcDbTextStyleTableRecord
  2
LiberationSans-Bold
 70
0
 40
0.0
 41
1.0
 50
0.0
 71
0
 42
2.5
  3
LiberationSans-Bold.ttf
  4

  0
STYLE
  5
50
330
5
100
AcDbSymbolTableRecord
100
AcDbTextStyleTableRecord
  2
LiberationSans-BoldItalic
 70
0
 40
0.0
 41
1.0
 50
0.0
 71
0
 42
2.5
  3
LiberationSans-BoldItalic.ttf
  4

  0
STYLE
  5
51
330
5
100
AcDbSymbolTableRecord
100
AcDbTextStyleTableRecord
  2
LiberationSans-Italic
 70
0
 40
0.0
 41
1.0
 50
0.0
 71
0
 42
2.5
  3
LiberationSans-Italic.ttf
  4

  0
STYLE
  5
52
330
5
100
AcDbSymbolTableRecord
100
AcDbTextStyleTableRecord
  2
LiberationSerif
 70
0
 40
0.0
 41
1.0
 50
0.0
 71
0
 42
2.5
  3
LiberationSerif-Regular.ttf
  4

  0
STYLE
  5
53
330
5
100
AcDbSymbolTableRecord
100
AcDbTextStyleTableRecord
  2
LiberationSerif-Bold
 70
0
 40
0.0
 41
1.0
 50
0.0
 71
0
 42
2.5
  3
LiberationSerif-Bold.ttf
  4

  0
STYLE
  5
54
330
5
100
AcDbSymbolTableRecord
100
AcDbTextStyleTableRecord
  2
LiberationSerif-BoldItalic
 70
0
 40
0.0
 41
1.0
 50
0.0
 71
0
 42
2.5
  3
LiberationSerif-BoldItalic.ttf
  4

  0
STYLE
  5
55
330
5
100
AcDbSymbolTableRecord
100
AcDbTextStyleTableRecord
  2
LiberationSerif-Italic
 70
0
 40
0.0
 41
1.0
 50
0.0
 71
0
 42
2.5
  3
LiberationSerif-Italic.ttf
  4

  0
STYLE
  5
56
330
5
100
AcDbSymbolTableRecord
100
AcDbTextStyleTableRecord
  2
LiberationMono
 70
0
 40
0.0
 41
1.0
 50
0.0
 71
0
 42
2.5
  3
LiberationMono-Regular.ttf
  4

  0
STYLE
  5
57
330
5
100
AcDbSymbolTableRecord
100
AcDbTextStyleTableRecord
  2
LiberationMono-Bold
 70
0
 40
0.0
 41
1.0
 50
0.0
 71
0
 42
2.5
  3
LiberationMono-Bold.ttf
  4

  0
STYLE
  5
58
330
5
100
AcDbSymbolTableRecord
100
AcDbTextStyleTableRecord
  2
LiberationMono-BoldItalic
 70
0
 40
0.0
 41
1.0
 50
0.0
 71
0
 42
2.5
  3
LiberationMono-BoldItalic.ttf
  4

  0
STYLE
  5
59
330
5
100
AcDbSymbolTableRecord
100
AcDbTextStyleTableRecord
  2
LiberationMono-Italic
 70
0
 40
0.0
 41
1.0
 50
0.0
 71
0
 42
2.5
  3
LiberationMono-Italic.ttf
  4

  0
STYLE
  5
99
330
5
100
AcDbSymbolTableRecord
100
AcDbTextStyleTableRecord
  2
CRE_ARIAL_NARROW
 70
0
 40
0.0
 41
1.0
 50
0.0
 71
0
 42
2.5
  3
Arial Narrow.ttf
  4

  0
STYLE
  5
9A
330
5
100
AcDbSymbolTableRecord
100
AcDbTextStyleTableRecord
  2
CRE_ARIAL_NARROW_BOLD
 70
0
 40
0.0
 41
1.0
 50
0.0
 71
0
 42
2.5
  3
Arial Narrow Bold.ttf
  4

  0
STYLE
  5
9B
330
5
100
AcDbSymbolTableRecord
100
AcDbTextStyleTableRecord
  2
CRE_ROMANS
 70
0
 40
0.0
 41
1.0
 50
0.0
 71
0
 42
2.5
  3
romans.shx
  4

  0
ENDTAB
  0
TABLE
  2
VIEW
  5
7
330
0
100
AcDbSymbolTable
 70
0
  0
ENDTAB
  0
TABLE
  2
UCS
  5
6
330
0
100
AcDbSymbolTable
 70
0
  0
ENDTAB
  0
TABLE
  2
APPID
  5
3
330
0
100
AcDbSymbolTable
 70
3
  0
APPID
  5
2A
330
3
100
AcDbSymbolTableRecord
100
AcDbRegAppTableRecord
  2
ACAD
 70
0
  0
APPID
  5
473
330
3
100
AcDbSymbolTableRecord
100
AcDbRegAppTableRecord
  2
HATCHBACKGROUNDCOLOR
 70
0
  0
APPID
  5
474
330
3
100
AcDbSymbolTableRecord
100
AcDbRegAppTableRecord
  2
EZDXF
 70
0
  0
ENDTAB
  0
TABLE
  2
DIMSTYLE
  5
4
330
0
100
AcDbSymbolTable
 70
13
100
AcDbDimStyleTable
  0
DIMSTYLE
105
2B
330
4
100
AcDbSymbolTableRecord
100
AcDbDimStyleTableRecord
  2
Standard
 70
0
 40
1.0
 41
2.5
 42
0.625
 43
3.75
 44
1.25
 45
0.0
 46
0.0
 47
0.0
 48
0.0
 49
2.5
140
2.5
141
2.5
142
0.0
143
0.03937007874
144
1.0
145
0.0
146
1.0
147
0.625
148
0.0
 69
0
 70
0
 71
0
 72
0
 73
0
 74
0
 75
0
 76
0
 77
1
 78
8
 79
3
170
0
171
3
172
1
173
0
174
0
175
0
176
0
177
0
178
0
179
2
271
2
272
2
273
2
274
3
275
0
276
0
277
2
278
44
279
0
280
0
281
0
282
0
283
0
284
8
285
0
286
0
288
0
289
3
290
0
371
-2
372
-2
  0
DIMSTYLE
105
73
330
4
100
AcDbSymbolTableRecord
100
AcDbDimStyleTableRecord
  2
EZDXF
 70
0
 40
1.0
 41
0.175
 42
0.125
 43
3.75
 44
0.375
 45
0.0
 46
0.0
 47
0.0
 48
0.0
 49
2.5
140
0.25
141
2.5
142
0.0
143
0.03937007874
144
100.0
145
0.0
146
0.5
147
0.1
148
0.0
 69
0
 70
0
 71
0
 72
0
 73
0
 74
0
 75
0
 76
0
 77
1
 78
12
 79
3
170
0
171
3
172
1
173
0
174
0
175
0
176
0
177
0
178
0
179
2
271
2
272
2
273
2
274
3
275
0
276
0
277
2
278
46
279
2
280
0
281
0
282
0
283
0
284
8
285
0
286
0
288
1
289
3
290
0
340
4C
342
74
371
-2
372
-2
  0
DIMSTYLE
105
7C
330
4
100
AcDbSymbolTableRecord
100
AcDbDimStyleTableRecord
  2
EZ_M_100_H25_CM
 70
0
 40
1.0
 41
0.25
 42
0.125
 43
3.75
 44
0.375
 45
0.0
 46
0.0
 47
0.0
 48
0.0
 49
2.5
140
0.25
141
2.5
142
0.125
143
0.03937007874
144
100.0
145
0.0
146
0.5
147
0.1
148
0.0
 69
0
 70
0
 71
0
 72
0
 73
0
 74
0
 75
0
 76
0
 77
1
 78
12
 79
3
170
0
171
3
172
1
173
0
174
0
175
0
176
0
177
0
178
0
179
2
271
2
272
2
273
2
274
3
275
0
276
0
277
2
278
46
279
2
280
0
281
0
282
0
283
0
284
8
285
0
286
0
288
1
289
3
290
0
340
4C
371
-2
372
-2
  0
DIMSTYLE
105
7D
330
4
100
AcDbSymbolTableRecord
100
AcDbDimStyleTableRecord
  2
EZ_M_50_H25_CM
 70
0
 40
1.0
 41
0.125
 42
0.0625
 43
3.75
 44
0.1875
 45
0.0
 46
0.0
 47
0.0
 48
0.0
 49
2.5
140
0.125
141
2.5
142
0.0625
143
0.03937007874
144
100.0
145
0.0
146
0.5
147
0.05
148
0.0
 69
0
 70
0
 71
0
 72
0
 73
0
 74
0
 75
0
 76
0
 77
1
 78
12
 79
3
170
0
171
3
172
1
173
0
174
0
175
0
176
0
177
0
178
0
179
2
271
2
272
2
273
2
274
3
275
0
276
0
277
2
278
46
279
2
280
0
281
0
282
0
283
0
284
8
285
0
286
0
288
1
289
3
290
0
340
4C
371
-2
372
-2
  0
DIMSTYLE
105
7E
330
4
100
AcDbSymbolTableRecord
100
AcDbDimStyleTableRecord
  2
EZ_M_25_H25_CM
 70
0
 40
1.0
 41
0.0625
 42
0.03125
 43
3.75
 44
0.09375
 45
0.0
 46
0.0
 47
0.0
 48
0.0
 49
2.5
140
0.0625
141
2.5
142
0.03125
143
0.03937007874
144
100.0
145
0.0
146
0.5
147
0.025
148
0.0
 69
0
 70
0
 71
0
 72
0
 73
0
 74
0
 75
0
 76
0
 77
1
 78
12
 79
3
170
0
171
3
172
1
173
0
174
0
175
0
176
0
177
0
178
0
179
2
271
2
272
2
273
2
274
3
275
0
276
0
277
2
278
46
279
2
280
0
281
0
282
0
283
0
284
8
285
0
286
0
288
1
289
3
290
0
340
4C
371
-2
372
-2
  0
DIMSTYLE
105
7F
330
4
100
AcDbSymbolTableRecord
100
AcDbDimStyleTableRecord
  2
EZ_M_20_H25_CM
 70
0
 40
1.0
 41
0.05
 42
0.025
 43
3.75
 44
0.07500000000000001
 45
0.0
 46
0.0
 47
0.0
 48
0.0
 49
2.5
140
0.05
141
2.5
142
0.025
143
0.03937007874
144
100.0
145
0.0
146
0.5
147
0.020000000000000004
148
0.0
 69
0
 70
0
 71
0
 72
0
 73
0
 74
0
 75
0
 76
0
 77
1
 78
12
 79
3
170
0
171
3
172
1
173
0
174
0
175
0
176
0
177
0
178
0
179
2
271
2
272
2
273
2
274
3
275
0
276
0
277
2
278
46
279
2
280
0
281
0
282
0
283
0
284
8
285
0
286
0
288
1
289
3
290
0
340
4C
371
-2
372
-2
  0
DIMSTYLE
105
80
330
4
100
AcDbSymbolTableRecord
100
AcDbDimStyleTableRecord
  2
EZ_M_10_H25_CM
 70
0
 40
1.0
 41
0.025
 42
0.0125
 43
3.75
 44
0.037500000000000006
 45
0.0
 46
0.0
 47
0.0
 48
0.0
 49
2.5
140
0.025
141
2.5
142
0.0125
143
0.03937007874
144
100.0
145
0.0
146
0.5
147
0.010000000000000002
148
0.0
 69
0
 70
0
 71
0
 72
0
 73
0
 74
0
 75
0
 76
0
 77
1
 78
12
 79
3
170
0
171
3
172
1
173
0
174
0
175
0
176
0
177
0
178
0
179
2
271
2
272
2
273
2
274
3
275
0
276
0
277
2
278
46
279
2
280
0
281
0
282
0
283
0
284
8
285
0
286
0
288
1
289
3
290
0
340
4C
371
-2
372
-2
  0
DIMSTYLE
105
81
330
4
100
AcDbSymbolTableRecord
100
AcDbDimStyleTableRecord
  2
EZ_M_5_H25_CM
 70
0
 40
1.0
 41
0.0125
 42
0.00625
 43
3.75
 44
0.018750000000000003
 45
0.0
 46
0.0
 47
0.0
 48
0.0
 49
2.5
140
0.0125
141
2.5
142
0.00625
143
0.03937007874
144
100.0
145
0.0
146
0.5
147
0.005000000000000001
148
0.0
 69
0
 70
0
 71
0
 72
0
 73
0
 74
0
 75
0
 76
0
 77
1
 78
12
 79
3
170
0
171
3
172
1
173
0
174
0
175
0
176
0
177
0
178
0
179
2
271
2
272
2
273
2
274
3
275
0
276
0
277
2
278
46
279
2
280
0
281
0
282
0
283
0
284
8
285
0
286
0
288
1
289
3
290
0
340
4C
371
-2
372
-2
  0
DIMSTYLE
105
82
330
4
100
AcDbSymbolTableRecord
100
AcDbDimStyleTableRecord
  2
EZ_M_1_H25_CM
 70
0
 40
1.0
 41
0.0025
 42
0.00125
 43
3.75
 44
0.00375
 45
0.0
 46
0.0
 47
0.0
 48
0.0
 49
2.5
140
0.0025
141
2.5
142
0.00125
143
0.03937007874
144
100.0
145
0.0
146
0.5
147
0.001
148
0.0
 69
0
 70
0
 71
0
 72
0
 73
0
 74
0
 75
0
 76
0
 77
1
 78
12
 79
3
170
0
171
3
172
1
173
0
174
0
175
0
176
0
177
0
178
0
179
2
271
2
272
2
273
2
274
3
275
0
276
0
277
2
278
46
279
2
280
0
281
0
282
0
283
0
284
8
285
0
286
0
288
1
289
3
290
0
340
4C
371
-2
372
-2
  0
DIMSTYLE
105
83
330
4
100
AcDbSymbolTableRecord
100
AcDbDimStyleTableRecord
  2
EZ_RADIUS
 70
0
 40
1.0
 41
0.25
 42
0.125
 43
3.75
 44
0.375
 45
0.0
 46
0.0
 47
0.0
 48
0.0
 49
2.5
140
0.25
141
0.0
142
0.0
143
0.03937007874
144
100.0
145
0.0
146
0.5
147
0.1
148
0.0
 69
0
 70
0
 71
0
 72
0
 73
0
 74
0
 75
0
 76
0
 77
1
 78
12
 79
3
170
0
171
3
172
0
173
0
174
0
175
0
176
0
177
0
178
0
179
2
271
2
272
2
273
2
274
3
275
0
276
0
277
2
278
46
279
1
280
0
281
0
282
0
283
0
284
8
285
0
286
0
288
1
289
3
290
0
340
4C
342
84
371
-2
372
-2
  0
DIMSTYLE
105
88
330
4
100
AcDbSymbolTableRecord
100
AcDbDimStyleTableRecord
  2
EZ_RADIUS_INSIDE
 70
0
 40
1.0
 41
0.25
 42
0.125
 43
3.75
 44
0.375
 45
0.0
 46
0.0
 47
0.0
 48
0.0
 49
2.5
140
0.25
141
0.0
142
0.0
143
0.03937007874
144
100.0
145
0.0
146
0.5
147
0.1
148
0.0
 69
0
 70
0
 71
0
 72
0
 73
0
 74
0
 75
0
 76
0
 77
0
 78
12
 79
3
170
0
171
3
172
0
173
0
174
1
175
0
176
0
177
0
178
0
179
2
271
2
272
2
273
2
274
3
275
0
276
0
277
2
278
46
279
0
280
0
281
0
282
0
283
0
284
8
285
0
286
0
288
1
289
0
290
0
340
4C
342
84
371
-2
372
-2
  0
DIMSTYLE
105
89
330
4
100
AcDbSymbolTableRecord
100
AcDbDimStyleTableRecord
  2
EZ_CURVED
 70
0
 40
1.0
 41
0.25
 42
0.125
 43
3.75
 44
0.375
 45
0.0
 46
0.0
 47
0.0
 48
0.0
 49
2.5
140
0.25
141
2.5
142
0.0
143
0.03937007874
144
100.0
145
0.0
146
0.5
147
0.1
148
0.0
 69
0
 70
0
 71
0
 72
0
 73
0
 74
0
 75
0
 76
0
 77
1
 78
12
 79
2
 90
2
170
0
171
3
172
1
173
0
174
0
175
0
176
0
177
0
178
0
179
2
271
2
272
2
273
2
274
3
275
0
276
0
277
2
278
46
279
2
280
0
281
0
282
0
283
0
284
8
285
0
286
0
288
1
289
3
290
0
340
4C
371
-2
372
-2
  0
DIMSTYLE
105
9C
330
4
100
AcDbSymbolTableRecord
100
AcDbDimStyleTableRecord
  2
CRE_PTFE_DIM
 70
0
 40
1.0
 41
2.1
 42
1.05
 43
3.75
 44
1.05
 45
0.0
 46
0.0
 47
0.0
 48
0.0
 49
2.5
140
2.1
141
2.5
142
0.0
143
0.03937007874
144
1.0
145
0.0
146
1.0
147
0.8400000000000001
148
0.0
 69
0
 70
0
 71
0
 72
0
 73
0
 74
0
 75
0
 76
0
 77
1
 78
12
 79
3
170
0
171
3
172
1
173
0
174
0
175
1
176
2
177
2
178
2
179
2
271
0
272
2
273
2
274
3
275
0
276
0
277
2
278
44
279
0
280
0
281
0
282
0
283
0
284
8
285
0
286
0
288
0
289
3
290
0
340
9B
371
20
372
20
  0
ENDTAB
  0
TABLE
  2
BLOCK_RECORD
  5
9
330
0
100
AcDbSymbolTable
 70
39
  0
BLOCK_RECORD
  5
17
330
9
100
AcDbSymbolTableRecord
100
AcDbBlockTableRecord
  2
*Model_Space
340
1A
 70
0
280
1
281
0
  0
BLOCK_RECORD
  5
1B
330
9
100
AcDbSymbolTableRecord
100
AcDbBlockTableRecord
  2
*Paper_Space
340
1E
 70
0
280
1
281
0
  0
BLOCK_RECORD
  5
74
330
9
100
AcDbSymbolTableRecord
100
AcDbBlockTableRecord
  2
_ARCHTICK
340
0
 70
0
280
1
281
0
  0
BLOCK_RECORD
  5
78
330
9
100
AcDbSymbolTableRecord
100
AcDbBlockTableRecord
  2
_CLOSEDFILLED
340
0
 70
0
280
1
281
0
  0
BLOCK_RECORD
  5
84
330
9
100
AcDbSymbolTableRecord
100
AcDbBlockTableRecord
  2
_CLOSEDBLANK
340
0
 70
0
280
1
281
0
  0
BLOCK_RECORD
  5
120
330
9
100
AcDbSymbolTableRecord
100
AcDbBlockTableRecord
  2
*D1
340
0
 70
0
280
1
281
0
  0
BLOCK_RECORD
  5
12F
330
9
100
AcDbSymbolTableRecord
100
AcDbBlockTableRecord
  2
*D2
340
0
 70
0
280
1
281
0
  0
BLOCK_RECORD
  5
13E
330
9
100
AcDbSymbolTableRecord
100
AcDbBlockTableRecord
  2
*D3
340
0
 70
0
280
1
281
0
  0
BLOCK_RECORD
  5
14D
330
9
100
AcDbSymbolTableRecord
100
AcDbBlockTableRecord
  2
*D4
340
0
 70
0
280
1
281
0
  0
BLOCK_RECORD
  5
15C
330
9
100
AcDbSymbolTableRecord
100
AcDbBlockTableRecord
  2
*D5
340
0
 70
0
280
1
281
0
  0
BLOCK_RECORD
  5
16B
330
9
100
AcDbSymbolTableRecord
100
AcDbBlockTableRecord
  2
*D6
340
0
 70
0
280
1
281
0
  0
BLOCK_RECORD
  5
17A
330
9
100
AcDbSymbolTableRecord
100
AcDbBlockTableRecord
  2
*D7
340
0
 70
0
280
1
281
0
  0
BLOCK_RECORD
  5
189
330
9
100
AcDbSymbolTableRecord
100
AcDbBlockTableRecord
  2
*D8
340
0
 70
0
280
1
281
0
  0
BLOCK_RECORD
  5
198
330
9
100
AcDbSymbolTableRecord
100
AcDbBlockTableRecord
  2
*D9
340
0
 70
0
280
1
281
0
  0
BLOCK_RECORD
  5
1A7
330
9
100
AcDbSymbolTableRecord
100
AcDbBlockTableRecord
  2
*D10
340
0
 70
0
280
1
281
0
  0
BLOCK_RECORD
  5
1B6
330
9
100
AcDbSymbolTableRecord
100
AcDbBlockTableRecord
  2
*D11
340
0
 70
0
280
1
281
0
  0
BLOCK_RECORD
  5
1C5
330
9
100
AcDbSymbolTableRecord
100
AcDbBlockTableRecord
  2
*D12
340
0
 70
0
280
1
281
0
  0
BLOCK_RECORD
  5
1D4
330
9
100
AcDbSymbolTableRecord
100
AcDbBlockTableRecord
  2
*D13
340
0
 70
0
280
1
281
0
  0
BLOCK_RECORD
  5
1E3
330
9
100
AcDbSymbolTableRecord
100
AcDbBlockTableRecord
  2
*D14
340
0
 70
0
280
1
281
0
  0
BLOCK_RECORD
  5
1F2
330
9
100
AcDbSymbolTableRecord
100
AcDbBlockTableRecord
  2
*D15
340
0
 70
0
280
1
281
0
  0
BLOCK_RECORD
  5
201
330
9
100
AcDbSymbolTableRecord
100
AcDbBlockTableRecord
  2
*D16
340
0
 70
0
280
1
281
0
  0
BLOCK_RECORD
  5
210
330
9
100
AcDbSymbolTableRecord
100
AcDbBlockTableRecord
  2
*D17
340
0
 70
0
280
1
281
0
  0
BLOCK_RECORD
  5
21F
330
9
100
AcDbSymbolTableRecord
100
AcDbBlockTableRecord
  2
*D18
340
0
 70
0
280
1
281
0
  0
BLOCK_RECORD
  5
22E
330
9
100
AcDbSymbolTableRecord
100
AcDbBlockTableRecord
  2
*D19
340
0
 70
0
280
1
281
0
  0
BLOCK_RECORD
  5
23D
330
9
100
AcDbSymbolTableRecord
100
AcDbBlockTableRecord
  2
*D20
340
0
 70
0
280
1
281
0
  0
BLOCK_RECORD
  5
24C
330
9
100
AcDbSymbolTableRecord
100
AcDbBlockTableRecord
  2
*D21
340
0
 70
0
280
1
281
0
  0
BLOCK_RECORD
  5
25B
330
9
100
AcDbSymbolTableRecord
100
AcDbBlockTableRecord
  2
*D22
340
0
 70
0
280
1
281
0
  0
BLOCK_RECORD
  5
26A
330
9
100
AcDbSymbolTableRecord
100
AcDbBlockTableRecord
  2
*D23
340
0
 70
0
280
1
281
0
  0
BLOCK_RECORD
  5
279
330
9
100
AcDbSymbolTableRecord
100
AcDbBlockTableRecord
  2
*D24
340
0
 70
0
280
1
281
0
  0
BLOCK_RECORD
  5
288
330
9
100
AcDbSymbolTableRecord
100
AcDbBlockTableRecord
  2
*D25
340
0
 70
0
280
1
281
0
  0
BLOCK_RECORD
  5
297
330
9
100
AcDbSymbolTableRecord
100
AcDbBlockTableRecord
  2
*D26
340
0
 70
0
280
1
281
0
  0
BLOCK_RECORD
  5
2A6
330
9
100
AcDbSymbolTableRecord
100
AcDbBlockTableRecord
  2
*D27
340
0
 70
0
280
1
281
0
  0
BLOCK_RECORD
  5
2B5
330
9
100
AcDbSymbolTableRecord
100
AcDbBlockTableRecord
  2
*D28
340
0
 70
0
280
1
281
0
  0
BLOCK_RECORD
  5
2C4
330
9
100
AcDbSymbolTableRecord
100
AcDbBlockTableRecord
  2
*D29
340
0
 70
0
280
1
281
0
  0
BLOCK_RECORD
  5
2D3
330
9
100
AcDbSymbolTableRecord
100
AcDbBlockTableRecord
  2
*D30
340
0
 70
0
280
1
281
0
  0
BLOCK_RECORD
  5
2E2
330
9
100
AcDbSymbolTableRecord
100
AcDbBlockTableRecord
  2
*D31
340
0
 70
0
280
1
281
0
  0
BLOCK_RECORD
  5
2F1
330
9
100
AcDbSymbolTableRecord
100
AcDbBlockTableRecord
  2
*D32
340
0
 70
0
280
1
281
0
  0
BLOCK_RECORD
  5
300
330
9
100
AcDbSymbolTableRecord
100
AcDbBlockTableRecord
  2
*D33
340
0
 70
0
280
1
281
0
  0
BLOCK_RECORD
  5
30F
330
9
100
AcDbSymbolTableRecord
100
AcDbBlockTableRecord
  2
*D34
340
0
 70
0
280
1
281
0
  0
ENDTAB
  0
ENDSEC
  0
SECTION
  2
BLOCKS
  0
BLOCK
  5
18
330
17
100
AcDbEntity
  8
0
100
AcDbBlockBegin
  2
*Model_Space
 70
0
 10
0.0
 20
0.0
 30
0.0
  3
*Model_Space
  1

  0
ENDBLK
  5
19
330
17
100
AcDbEntity
  8
0
100
AcDbBlockEnd
  0
BLOCK
  5
1C
330
1B
100
AcDbEntity
  8
0
100
AcDbBlockBegin
  2
*Paper_Space
 70
0
 10
0.0
 20
0.0
 30
0.0
  3
*Paper_Space
  1

  0
ENDBLK
  5
1D
330
1B
100
AcDbEntity
  8
0
100
AcDbBlockEnd
  0
BLOCK
  5
75
330
74
100
AcDbEntity
  8
0
100
AcDbBlockBegin
  2
_ARCHTICK
 70
0
 10
0.0
 20
0.0
 30
0.0
  3
_ARCHTICK
  1

  0
LWPOLYLINE
  5
77
330
74
100
AcDbEntity
  8
0
  6
BYBLOCK
 62
0
100
AcDbPolyline
 90
2
 70
0
 43
0.15
 10
-0.5
 20
-0.5
 10
0.5
 20
0.5
  0
ENDBLK
  5
76
330
74
100
AcDbEntity
  8
0
100
AcDbBlockEnd
  0
BLOCK
  5
79
330
78
100
AcDbEntity
  8
0
100
AcDbBlockBegin
  2
_CLOSEDFILLED
 70
0
 10
0.0
 20
0.0
 30
0.0
  3
_CLOSEDFILLED
  1

  0
SOLID
  5
7B
330
78
100
AcDbEntity
  8
0
  6
BYBLOCK
 62
0
100
AcDbTrace
 10
-1.0
 20
0.16439898372402537
 30
0.0
 11
0.0
 21
0.0
 31
0.0
 12
-1.0
 22
-0.16439898372402537
 32
0.0
 13
-1.0
 23
-0.16439898372402537
 33
0.0
  0
ENDBLK
  5
7A
330
78
100
AcDbEntity
  8
0
100
AcDbBlockEnd
  0
BLOCK
  5
85
330
84
100
AcDbEntity
  8
0
100
AcDbBlockBegin
  2
_CLOSEDBLANK
 70
0
 10
0.0
 20
0.0
 30
0.0
  3
_CLOSEDBLANK
  1

  0
LWPOLYLINE
  5
87
330
84
100
AcDbEntity
  8
0
  6
BYBLOCK
 62
0
100
AcDbPolyline
 90
3
 70
1
 10
-1.0
 20
0.16439898372402537
 10
0.0
 20
0.0
 10
-1.0
 20
-0.16439898372402537
  0
ENDBLK
  5
86
330
84
100
AcDbEntity
  8
0
100
AcDbBlockEnd
  0
BLOCK
  5
121
330
120
100
AcDbEntity
  8
0
100
AcDbBlockBegin
  2
*D1
 70
1
 10
0.0
 20
0.0
 30
0.0
  3
*D1
  1

  0
LINE
  5
123
330
120
100
AcDbEntity
  8
0
 62
2
370
20
100
AcDbLine
 10
52.806406460551024
 20
256.33
 30
0.0
 11
40.80640646055104
 21
256.33
 31
0.0
  0
LINE
  5
124
330
120
100
AcDbEntity
  8
0
 62
2
370
20
100
AcDbLine
 10
116.95
 20
293.3633209967908
 30
0.0
 11
104.95000000000002
 21
293.3633209967908
 31
0.0
  0
INSERT
  5
125
330
120
100
AcDbEntity
  8
DIM
 62
2
100
AcDbBlockReference
  2
_CLOSEDFILLED
 10
41.856406460551035
 20
256.33
 30
0.0
 41
2.1
 42
2.1
 50
210.0
  0
INSERT
  5
127
330
120
100
AcDbEntity
  8
DIM
 62
2
100
AcDbBlockReference
  2
_CLOSEDFILLED
 10
106.00000000000001
 20
293.3633209967908
 30
0.0
 41
2.1
 42
2.1
 50
29.999999999999993
  0
LINE
  5
129
330
120
100
AcDbEntity
  8
0
 62
2
370
20
100
AcDbLine
 10
43.675059808498354
 20
257.38
 30
0.0
 11
104.1813466520527
 21
292.31332099679076
 31
0.0
  0
MTEXT
  5
12A
330
120
100
AcDbEntity
  8
DIM
 62
2
100
AcDbMText
 10
72.98320323027554
 20
276.483448511548
 30
0.0
 40
2.1
 71
5
  1
167
  7
CRE_ROMANS
 50
29.999999999999993
  0
POINT
  5
12B
330
120
100
AcDbEntity
  8
Defpoints
100
AcDbPoint
 10
41.856406460551035
 20
256.33
 30
0.0
  0
POINT
  5
12C
330
120
100
AcDbEntity
  8
Defpoints
100
AcDbPoint
 10
53.85640646055102
 20
256.33
 30
0.0
  0
POINT
  5
12D
330
120
100
AcDbEntity
  8
Defpoints
100
AcDbPoint
 10
118.0
 20
293.3633209967908
 30
0.0
  0
ENDBLK
  5
122
330
120
100
AcDbEntity
  8
0
100
AcDbBlockEnd
  0
BLOCK
  5
130
330
12F
100
AcDbEntity
  8
0
100
AcDbBlockBegin
  2
*D2
 70
1
 10
0.0
 20
0.0
 30
0.0
  3
*D2
  1

  0
LINE
  5
132
330
12F
100
AcDbEntity
  8
0
 62
2
370
20
100
AcDbLine
 10
52.806406460551024
 20
256.33
 30
0.0
 11
30.80640646055098
 21
256.33
 31
0.0
  0
LINE
  5
133
330
12F
100
AcDbEntity
  8
0
 62
2
370
20
100
AcDbLine
 10
116.95
 20
293.3633209967908
 30
0.0
 11
94.94999999999996
 21
293.3633209967908
 31
0.0
  0
INSERT
  5
134
330
12F
100
AcDbEntity
  8
DIM
 62
2
100
AcDbBlockReference
  2
_CLOSEDFILLED
 10
31.856406460550982
 20
256.33
 30
0.0
 41
2.1
 42
2.1
 50
210.0
  0
INSERT
  5
136
330
12F
100
AcDbEntity
  8
DIM
 62
2
100
AcDbBlockReference
  2
_CLOSEDFILLED
 10
95.99999999999996
 20
293.3633209967908
 30
0.0
 41
2.1
 42
2.1
 50
29.999999999999993
  0
LINE
  5
138
330
12F
100
AcDbEntity
  8
0
 62
2
370
20
100
AcDbLine
 10
33.675059808498304
 20
257.38
 30
0.0
 11
94.18134665205264
 21
292.31332099679076
 31
0.0
  0
MTEXT
  5
139
330
12F
100
AcDbEntity
  8
DIM
 62
2
100
AcDbMText
 10
62.98320323027547
 20
276.483448511548
 30
0.0
 40
2.1
 71
5
  1
243
  7
CRE_ROMANS
 50
29.999999999999993
  0
POINT
  5
13A
330
12F
100
AcDbEntity
  8
Defpoints
100
AcDbPoint
 10
31.856406460550982
 20
256.33
 30
0.0
  0
POINT
  5
13B
330
12F
100
AcDbEntity
  8
Defpoints
100
AcDbPoint
 10
53.85640646055102
 20
256.33
 30
0.0
  0
POINT
  5
13C
330
12F
100
AcDbEntity
  8
Defpoints
100
AcDbPoint
 10
118.0
 20
293.3633209967908
 30
0.0
  0
ENDBLK
  5
131
330
12F
100
AcDbEntity
  8
0
100
AcDbBlockEnd
  0
BLOCK
  5
13F
330
13E
100
AcDbEntity
  8
0
100
AcDbBlockBegin
  2
*D3
 70
1
 10
0.0
 20
0.0
 30
0.0
  3
*D3
  1

  0
LINE
  5
141
330
13E
100
AcDbEntity
  8
0
 62
2
370
20
100
AcDbLine
 10
117.475
 20
331.2723266739737
 30
0.0
 11
110.475
 21
343.39668232695584
 31
0.0
  0
LINE
  5
142
330
13E
100
AcDbEntity
  8
0
 62
2
370
20
100
AcDbLine
 10
117.475
 20
423.9093266739737
 30
0.0
 11
110.475
 21
436.0336823269558
 31
0.0
  0
INSERT
  5
143
330
13E
100
AcDbEntity
  8
DIM
 62
2
100
AcDbBlockReference
  2
_CLOSEDFILLED
 10
111.0
 20
342.48735565298216
 30
0.0
 41
2.1
 42
2.1
 50
270.0
  0
INSERT
  5
145
330
13E
100
AcDbEntity
  8
DIM
 62
2
100
AcDbBlockReference
  2
_CLOSEDFILLED
 10
111.0
 20
435.1243556529821
 30
0.0
 41
2.1
 42
2.1
 50
90.0
  0
LINE
  5
147
330
13E
100
AcDbEntity
  8
0
 62
2
370
20
100
AcDbLine
 10
111.0
 20
344.5873556529822
 30
0.0
 11
111.0
 21
433.0243556529821
 31
0.0
  0
MTEXT
  5
148
330
13E
100
AcDbEntity
  8
DIM
 62
2
100
AcDbMText
 10
109.11
 20
388.80585565298213
 30
0.0
 40
2.1
 71
5
  1
576
  7
CRE_ROMANS
 50
90.0
  0
POINT
  5
149
330
13E
100
AcDbEntity
  8
Defpoints
100
AcDbPoint
 10
111.0
 20
342.48735565298216
 30
0.0
  0
POINT
  5
14A
330
13E
100
AcDbEntity
  8
Defpoints
100
AcDbPoint
 10
118.0
 20
330.363
 30
0.0
  0
POINT
  5
14B
330
13E
100
AcDbEntity
  8
Defpoints
100
AcDbPoint
 10
118.0
 20
423.0
 30
0.0
  0
ENDBLK
  5
140
330
13E
100
AcDbEntity
  8
0
100
AcDbBlockEnd
  0
BLOCK
  5
14E
330
14D
100
AcDbEntity
  8
0
100
AcDbBlockBegin
  2
*D4
 70
1
 10
0.0
 20
0.0
 30
0.0
  3
*D4
  1

  0
LINE
  5
150
330
14D
100
AcDbEntity
  8
0
 62
2
370
20
100
AcDbLine
 10
117.475
 20
331.2723266739737
 30
0.0
 11
104.475
 21
353.7889871723691
 31
0.0
  0
LINE
  5
151
330
14D
100
AcDbEntity
  8
0
 62
2
370
20
100
AcDbLine
 10
117.475
 20
423.9093266739737
 30
0.0
 11
104.475
 21
446.42598717236905
 31
0.0
  0
INSERT
  5
152
330
14D
100
AcDbEntity
  8
DIM
 62
2
100
AcDbBlockReference
  2
_CLOSEDFILLED
 10
105.0
 20
352.8796604983954
 30
0.0
 41
2.1
 42
2.1
 50
270.0
  0
INSERT
  5
154
330
14D
100
AcDbEntity
  8
DIM
 62
2
100
AcDbBlockReference
  2
_CLOSEDFILLED
 10
105.0
 20
445.51666049839537
 30
0.0
 41
2.1
 42
2.1
 50
90.0
  0
LINE
  5
156
330
14D
100
AcDbEntity
  8
0
 62
2
370
20
100
AcDbLine
 10
105.0
 20
354.97966049839545
 30
0.0
 11
105.0
 21
443.41666049839534
 31
0.0
  0
MTEXT
  5
157
330
14D
100
AcDbEntity
  8
DIM
 62
2
100
AcDbMText
 10
103.11
 20
399.1981604983954
 30
0.0
 40
2.1
 71
5
  1
669
  7
CRE_ROMANS
 50
90.0
  0
POINT
  5
158
330
14D
100
AcDbEntity
  8
Defpoints
100
AcDbPoint
 10
105.0
 20
352.8796604983954
 30
0.0
  0
POINT
  5
159
330
14D
100
AcDbEntity
  8
Defpoints
100
AcDbPoint
 10
118.0
 20
330.363
 30
0.0
  0
POINT
  5
15A
330
14D
100
AcDbEntity
  8
Defpoints
100
AcDbPoint
 10
118.0
 20
423.0
 30
0.0
  0
ENDBLK
  5
14F
330
14D
100
AcDbEntity
  8
0
100
AcDbBlockEnd
  0
BLOCK
  5
15D
330
15C
100
AcDbEntity
  8
0
100
AcDbBlockBegin
  2
*D5
 70
1
 10
0.0
 20
0.0
 30
0.0
  3
*D5
  1

  0
LINE
  5
15F
330
15C
100
AcDbEntity
  8
0
 62
2
370
20
100
AcDbLine
 10
116.95
 20
423.0
 30
0.0
 11
102.94999999999999
 21
423.0
 31
0.0
  0
LINE
  5
160
330
15C
100
AcDbEntity
  8
0
 62
2
370
20
100
AcDbLine
 10
271.95
 20
512.4892917243919
 30
0.0
 11
257.95
 21
512.4892917243919
 31
0.0
  0
INSERT
  5
161
330
15C
100
AcDbEntity
  8
DIM
 62
2
100
AcDbBlockReference
  2
_CLOSEDFILLED
 10
103.99999999999999
 20
423.0
 30
0.0
 41
2.1
 42
2.1
 50
210.0
  0
INSERT
  5
163
330
15C
100
AcDbEntity
  8
DIM
 62
2
100
AcDbBlockReference
  2
_CLOSEDFILLED
 10
259.0
 20
512.4892917243919
 30
0.0
 41
2.1
 42
2.1
 50
29.999999999999986
  0
LINE
  5
165
330
15C
100
AcDbEntity
  8
0
 62
2
370
20
100
AcDbLine
 10
105.8186533479473
 20
424.05
 30
0.0
 11
257.1813466520527
 21
511.4392917243919
 31
0.0
  0
MTEXT
  5
166
330
15C
100
AcDbEntity
  8
DIM
 62
2
100
AcDbMText
 10
180.555
 20
469.38143387534853
 30
0.0
 40
2.1
 71
5
  1
2576
  7
CRE_ROMANS
 50
29.999999999999986
  0
POINT
  5
167
330
15C
100
AcDbEntity
  8
Defpoints
100
AcDbPoint
 10
103.99999999999999
 20
423.0
 30
0.0
  0
POINT
  5
168
330
15C
100
AcDbEntity
  8
Defpoints
100
AcDbPoint
 10
118.0
 20
423.0
 30
0.0
  0
POINT
  5
169
330
15C
100
AcDbEntity
  8
Defpoints
100
AcDbPoint
 10
273.0
 20
512.4892917243919
 30
0.0
  0
ENDBLK
  5
15E
330
15C
100
AcDbEntity
  8
0
100
AcDbBlockEnd
  0
BLOCK
  5
16C
330
16B
100
AcDbEntity
  8
0
100
AcDbBlockBegin
  2
*D6
 70
1
 10
0.0
 20
0.0
 30
0.0
  3
*D6
  1

  0
LINE
  5
16E
330
16B
100
AcDbEntity
  8
0
 62
2
370
20
100
AcDbLine
 10
116.95
 20
423.0
 30
0.0
 11
90.95000000000006
 21
423.0
 31
0.0
  0
LINE
  5
16F
330
16B
100
AcDbEntity
  8
0
 62
2
370
20
100
AcDbLine
 10
271.95
 20
512.4892917243919
 30
0.0
 11
245.95000000000005
 21
512.4892917243919
 31
0.0
  0
INSERT
  5
170
330
16B
100
AcDbEntity
  8
DIM
 62
2
100
AcDbBlockReference
  2
_CLOSEDFILLED
 10
92.00000000000006
 20
423.0
 30
0.0
 41
2.1
 42
2.1
 50
210.0
  0
INSERT
  5
172
330
16B
100
AcDbEntity
  8
DIM
 62
2
100
AcDbBlockReference
  2
_CLOSEDFILLED
 10
247.00000000000006
 20
512.4892917243919
 30
0.0
 41
2.1
 42
2.1
 50
29.999999999999986
  0
LINE
  5
174
330
16B
100
AcDbEntity
  8
0
 62
2
370
20
100
AcDbLine
 10
93.81865334794738
 20
424.05
 30
0.0
 11
245.18134665205272
 21
511.4392917243919
 31
0.0
  0
MTEXT
  5
175
330
16B
100
AcDbEntity
  8
DIM
 62
2
100
AcDbMText
 10
168.55500000000006
 20
469.38143387534853
 30
0.0
 40
2.1
 71
5
  1
2652
  7
CRE_ROMANS
 50
29.999999999999986
  0
POINT
  5
176
330
16B
100
AcDbEntity
  8
Defpoints
100
AcDbPoint
 10
92.00000000000006
 20
423.0
 30
0.0
  0
POINT
  5
177
330
16B
100
AcDbEntity
  8
Defpoints
100
AcDbPoint
 10
118.0
 20
423.0
 30
0.0
  0
POINT
  5
178
330
16B
100
AcDbEntity
  8
Defpoints
100
AcDbPoint
 10
273.0
 20
512.4892917243919
 30
0.0
  0
ENDBLK
  5
16D
330
16B
100
AcDbEntity
  8
0
100
AcDbBlockEnd
  0
BLOCK
  5
17B
330
17A
100
AcDbEntity
  8
0
100
AcDbBlockBegin
  2
*D7
 70
1
 10
0.0
 20
0.0
 30
0.0
  3
*D7
  1

  0
LINE
  5
17D
330
17A
100
AcDbEntity
  8
0
 62
2
370
20
100
AcDbLine
 10
272.475
 20
513.3986183983656
 30
0.0
 11
265.475
 21
525.5229740513477
 31
0.0
  0
LINE
  5
17E
330
17A
100
AcDbEntity
  8
0
 62
2
370
20
100
AcDbLine
 10
272.475
 20
434.0723266739737
 30
0.0
 11
265.475
 21
446.19668232695585
 31
0.0
  0
INSERT
  5
17F
330
17A
100
AcDbEntity
  8
DIM
 62
2
100
AcDbBlockReference
  2
_CLOSEDFILLED
 10
266.0
 20
524.613647377374
 30
0.0
 41
2.1
 42
2.1
 50
90.0
  0
INSERT
  5
181
330
17A
100
AcDbEntity
  8
DIM
 62
2
100
AcDbBlockReference
  2
_CLOSEDFILLED
 10
266.0
 20
445.28735565298217
 30
0.0
 41
2.1
 42
2.1
 50
-90.0
  0
LINE
  5
183
330
17A
100
AcDbEntity
  8
0
 62
2
370
20
100
AcDbLine
 10
266.0
 20
522.513647377374
 30
0.0
 11
266.0
 21
447.3873556529822
 31
0.0
  0
MTEXT
  5
184
330
17A
100
AcDbEntity
  8
DIM
 62
2
100
AcDbMText
 10
267.89
 20
484.9505015151781
 30
0.0
 40
2.1
 71
5
  1
857
  7
CRE_ROMANS
 50
-90.0
  0
POINT
  5
185
330
17A
100
AcDbEntity
  8
Defpoints
100
AcDbPoint
 10
266.0
 20
524.613647377374
 30
0.0
  0
POINT
  5
186
330
17A
100
AcDbEntity
  8
Defpoints
100
AcDbPoint
 10
273.0
 20
512.4892917243919
 30
0.0
  0
POINT
  5
187
330
17A
100
AcDbEntity
  8
Defpoints
100
AcDbPoint
 10
273.0
 20
433.163
 30
0.0
  0
ENDBLK
  5
17C
330
17A
100
AcDbEntity
  8
0
100
AcDbBlockEnd
  0
BLOCK
  5
18A
330
189
100
AcDbEntity
  8
0
100
AcDbBlockBegin
  2
*D8
 70
1
 10
0.0
 20
0.0
 30
0.0
  3
*D8
  1

  0
LINE
  5
18C
330
189
100
AcDbEntity
  8
0
 62
2
370
20
100
AcDbLine
 10
272.475
 20
513.3986183983656
 30
0.0
 11
259.475
 21
535.9152788967609
 31
0.0
  0
LINE
  5
18D
330
189
100
AcDbEntity
  8
0
 62
2
370
20
100
AcDbLine
 10
272.475
 20
434.0723266739737
 30
0.0
 11
259.475
 21
456.5889871723691
 31
0.0
  0
INSERT
  5
18E
330
189
100
AcDbEntity
  8
DIM
 62
2
100
AcDbBlockReference
  2
_CLOSEDFILLED
 10
260.0
 20
535.0059522227873
 30
0.0
 41
2.1
 42
2.1
 50
90.0
  0
INSERT
  5
190
330
189
100
AcDbEntity
  8
DIM
 62
2
100
AcDbBlockReference
  2
_CLOSEDFILLED
 10
260.0
 20
455.67966049839544
 30
0.0
 41
2.1
 42
2.1
 50
-90.0
  0
LINE
  5
192
330
189
100
AcDbEntity
  8
0
 62
2
370
20
100
AcDbLine
 10
260.0
 20
532.9059522227873
 30
0.0
 11
260.0
 21
457.77966049839546
 31
0.0
  0
MTEXT
  5
193
330
189
100
AcDbEntity
  8
DIM
 62
2
100
AcDbMText
 10
261.89
 20
495.34280636059134
 30
0.0
 40
2.1
 71
5
  1
933
  7
CRE_ROMANS
 50
-90.0
  0
POINT
  5
194
330
189
100
AcDbEntity
  8
Defpoints
100
AcDbPoint
 10
260.0
 20
535.0059522227873
 30
0.0
  0
POINT
  5
195
330
189
100
AcDbEntity
  8
Defpoints
100
AcDbPoint
 10
273.0
 20
512.4892917243919
 30
0.0
  0
POINT
  5
196
330
189
100
AcDbEntity
  8
Defpoints
100
AcDbPoint
 10
273.0
 20
433.163
 30
0.0
  0
ENDBLK
  5
18B
330
189
100
AcDbEntity
  8
0
100
AcDbBlockEnd
  0
BLOCK
  5
199
330
198
100
AcDbEntity
  8
0
100
AcDbBlockBegin
  2
*D9
 70
1
 10
0.0
 20
0.0
 30
0.0
  3
*D9
  1

  0
LINE
  5
19B
330
198
100
AcDbEntity
  8
0
 62
2
370
20
100
AcDbLine
 10
274.05
 20
433.163
 30
0.0
 11
286.04999999999995
 21
433.163
 31
0.0
  0
LINE
  5
19C
330
198
100
AcDbEntity
  8
0
 62
2
370
20
100
AcDbLine
 10
321.48782217350896
 20
405.77476059835504
 30
0.0
 11
333.4878221735089
 21
405.77476059835504
 31
0.0
  0
INSERT
  5
19D
330
198
100
AcDbEntity
  8
DIM
 62
2
100
AcDbBlockReference
  2
_CLOSEDFILLED
 10
284.99999999999994
 20
433.163
 30
0.0
 41
2.1
 42
2.1
 50
150.00000000000003
  0
INSERT
  5
19F
330
198
100
AcDbEntity
  8
DIM
 62
2
100
AcDbBlockReference
  2
_CLOSEDFILLED
 10
332.4378221735089
 20
405.77476059835504
 30
0.0
 41
2.1
 42
2.1
 50
-29.99999999999998
  0
LINE
  5
1A1
330
198
100
AcDbEntity
  8
0
 62
2
370
20
100
AcDbLine
 10
286.81865334794725
 20
432.113
 30
0.0
 11
330.6191688255616
 21
406.82476059835506
 31
0.0
  0
MTEXT
  5
1A2
330
198
100
AcDbEntity
  8
DIM
 62
2
100
AcDbMText
 10
309.6639110867544
 20
421.10566831233007
 30
0.0
 40
2.1
 71
5
  1
625
  7
CRE_ROMANS
 50
-29.99999999999998
  0
POINT
  5
1A3
330
198
100
AcDbEntity
  8
Defpoints
100
AcDbPoint
 10
284.99999999999994
 20
433.163
 30
0.0
  0
POINT
  5
1A4
330
198
100
AcDbEntity
  8
Defpoints
100
AcDbPoint
 10
273.0
 20
433.163
 30
0.0
  0
POINT
  5
1A5
330
198
100
AcDbEntity
  8
Defpoints
100
AcDbPoint
 10
320.43782217350895
 20
405.77476059835504
 30
0.0
  0
ENDBLK
  5
19A
330
198
100
AcDbEntity
  8
0
100
AcDbBlockEnd
  0
BLOCK
  5
1A8
330
1A7
100
AcDbEntity
  8
0
100
AcDbBlockBegin
  2
*D10
 70
1
 10
0.0
 20
0.0
 30
0.0
  3
*D10
  1

  0
LINE
  5
1AA
330
1A7
100
AcDbEntity
  8
0
 62
2
370
20
100
AcDbLine
 10
274.05
 20
433.163
 30
0.0
 11
296.04999999999995
 21
433.163
 31
0.0
  0
LINE
  5
1AB
330
1A7
100
AcDbEntity
  8
0
 62
2
370
20
100
AcDbLine
 10
321.48782217350896
 20
405.77476059835504
 30
0.0
 11
343.4878221735089
 21
405.77476059835504
 31
0.0
  0
INSERT
  5
1AC
330
1A7
100
AcDbEntity
  8
DIM
 62
2
100
AcDbBlockReference
  2
_CLOSEDFILLED
 10
294.99999999999994
 20
433.163
 30
0.0
 41
2.1
 42
2.1
 50
150.00000000000003
  0
INSERT
  5
1AE
330
1A7
100
AcDbEntity
  8
DIM
 62
2
100
AcDbBlockReference
  2
_CLOSEDFILLED
 10
342.4378221735089
 20
405.77476059835504
 30
0.0
 41
2.1
 42
2.1
 50
-29.99999999999998
  0
LINE
  5
1B0
330
1A7
100
AcDbEntity
  8
0
 62
2
370
20
100
AcDbLine
 10
296.81865334794725
 20
432.113
 30
0.0
 11
340.6191688255616
 21
406.82476059835506
 31
0.0
  0
MTEXT
  5
1B1
330
1A7
100
AcDbEntity
  8
DIM
 62
2
100
AcDbMText
 10
319.6639110867544
 20
421.10566831233007
 30
0.0
 40
2.1
 71
5
  1
719
  7
CRE_ROMANS
 50
-29.99999999999998
  0
POINT
  5
1B2
330
1A7
100
AcDbEntity
  8
Defpoints
100
AcDbPoint
 10
294.99999999999994
 20
433.163
 30
0.0
  0
POINT
  5
1B3
330
1A7
100
AcDbEntity
  8
Defpoints
100
AcDbPoint
 10
273.0
 20
433.163
 30
0.0
  0
POINT
  5
1B4
330
1A7
100
AcDbEntity
  8
Defpoints
100
AcDbPoint
 10
320.43782217350895
 20
405.77476059835504
 30
0.0
  0
ENDBLK
  5
1A9
330
1A7
100
AcDbEntity
  8
0
100
AcDbBlockEnd
  0
BLOCK
  5
1B7
330
1B6
100
AcDbEntity
  8
0
100
AcDbBlockBegin
  2
*D11
 70
1
 10
0.0
 20
0.0
 30
0.0
  3
*D11
  1

  0
LINE
  5
1B9
330
1B6
100
AcDbEntity
  8
0
 62
2
370
20
100
AcDbLine
 10
272.475
 20
434.0723266739737
 30
0.0
 11
265.475
 21
446.19668232695585
 31
0.0
  0
LINE
  5
1BA
330
1B6
100
AcDbEntity
  8
0
 62
2
370
20
100
AcDbLine
 10
272.475
 20
413.9093266739737
 30
0.0
 11
265.475
 21
426.03368232695584
 31
0.0
  0
INSERT
  5
1BB
330
1B6
100
AcDbEntity
  8
DIM
 62
2
100
AcDbBlockReference
  2
_CLOSEDFILLED
 10
266.0
 20
445.28735565298217
 30
0.0
 41
2.1
 42
2.1
 50
90.0
  0
INSERT
  5
1BD
330
1B6
100
AcDbEntity
  8
DIM
 62
2
100
AcDbBlockReference
  2
_CLOSEDFILLED
 10
266.0
 20
425.12435565298216
 30
0.0
 41
2.1
 42
2.1
 50
-90.0
  0
LINE
  5
1BF
330
1B6
100
AcDbEntity
  8
0
 62
2
370
20
100
AcDbLine
 10
266.0
 20
443.18735565298215
 30
0.0
 11
266.0
 21
427.2243556529822
 31
0.0
  0
MTEXT
  5
1C0
330
1B6
100
AcDbEntity
  8
DIM
 62
2
100
AcDbMText
 10
267.89
 20
435.20585565298217
 30
0.0
 40
2.1
 71
5
  1
100
  7
CRE_ROMANS
 50
-90.0
  0
POINT
  5
1C1
330
1B6
100
AcDbEntity
  8
Defpoints
100
AcDbPoint
 10
266.0
 20
445.28735565298217
 30
0.0
  0
POINT
  5
1C2
330
1B6
100
AcDbEntity
  8
Defpoints
100
AcDbPoint
 10
273.0
 20
433.163
 30
0.0
  0
POINT
  5
1C3
330
1B6
100
AcDbEntity
  8
Defpoints
100
AcDbPoint
 10
273.0
 20
413.0
 30
0.0
  0
ENDBLK
  5
1B8
330
1B6
100
AcDbEntity
  8
0
100
AcDbBlockEnd
  0
BLOCK
  5
1C6
330
1C5
100
AcDbEntity
  8
0
100
AcDbBlockBegin
  2
*D12
 70
1
 10
0.0
 20
0.0
 30
0.0
  3
*D12
  1

  0
LINE
  5
1C8
330
1C5
100
AcDbEntity
  8
0
 62
2
370
20
100
AcDbLine
 10
272.475
 20
434.0723266739737
 30
0.0
 11
259.475
 21
456.5889871723691
 31
0.0
  0
LINE
  5
1C9
330
1C5
100
AcDbEntity
  8
0
 62
2
370
20
100
AcDbLine
 10
272.475
 20
413.9093266739737
 30
0.0
 11
259.475
 21
436.4259871723691
 31
0.0
  0
INSERT
  5
1CA
330
1C5
100
AcDbEntity
  8
DIM
 62
2
100
AcDbBlockReference
  2
_CLOSEDFILLED
 10
260.0
 20
455.67966049839544
 30
0.0
 41
2.1
 42
2.1
 50
90.0
  0
INSERT
  5
1CC
330
1C5
100
AcDbEntity
  8
DIM
 62
2
100
AcDbBlockReference
  2
_CLOSEDFILLED
 10
260.0
 20
435.5166604983954
 30
0.0
 41
2.1
 42
2.1
 50
-90.0
  0
LINE
  5
1CE
330
1C5
100
AcDbEntity
  8
0
 62
2
370
20
100
AcDbLine
 10
260.0
 20
453.5796604983954
 30
0.0
 11
260.0
 21
437.61666049839545
 31
0.0
  0
MTEXT
  5
1CF
330
1C5
100
AcDbEntity
  8
DIM
 62
2
100
AcDbMText
 10
261.89
 20
445.59816049839543
 30
0.0
 40
2.1
 71
5
  1
194
  7
CRE_ROMANS
 50
-90.0
  0
POINT
  5
1D0
330
1C5
100
AcDbEntity
  8
Defpoints
100
AcDbPoint
 10
260.0
 20
455.67966049839544
 30
0.0
  0
POINT
  5
1D1
330
1C5
100
AcDbEntity
  8
Defpoints
100
AcDbPoint
 10
273.0
 20
433.163
 30
0.0
  0
POINT
  5
1D2
330
1C5
100
AcDbEntity
  8
Defpoints
100
AcDbPoint
 10
273.0
 20
413.0
 30
0.0
  0
ENDBLK
  5
1C7
330
1C5
100
AcDbEntity
  8
0
100
AcDbBlockEnd
  0
BLOCK
  5
1D5
330
1D4
100
AcDbEntity
  8
0
100
AcDbBlockBegin
  2
*D13
 70
1
 10
0.0
 20
0.0
 30
0.0
  3
*D13
  1

  0
LINE
  5
1D7
330
1D4
100
AcDbEntity
  8
0
 62
2
370
20
100
AcDbLine
 10
379.475
 20
343.0053266739737
 30
0.0
 11
372.475
 21
355.1296823269558
 31
0.0
  0
LINE
  5
1D8
330
1D4
100
AcDbEntity
  8
0
 62
2
370
20
100
AcDbLine
 10
379.475
 20
372.29584787068376
 30
0.0
 11
372.475
 21
384.42020352366586
 31
0.0
  0
INSERT
  5
1D9
330
1D4
100
AcDbEntity
  8
DIM
 62
2
100
AcDbBlockReference
  2
_CLOSEDFILLED
 10
373.0
 20
354.2203556529821
 30
0.0
 41
2.1
 42
2.1
 50
270.0
  0
INSERT
  5
1DB
330
1D4
100
AcDbEntity
  8
DIM
 62
2
100
AcDbBlockReference
  2
_CLOSEDFILLED
 10
373.0
 20
383.5108768496922
 30
0.0
 41
2.1
 42
2.1
 50
90.0
  0
LINE
  5
1DD
330
1D4
100
AcDbEntity
  8
0
 62
2
370
20
100
AcDbLine
 10
373.0
 20
356.32035565298213
 30
0.0
 11
373.0
 21
381.41087684969216
 31
0.0
  0
MTEXT
  5
1DE
330
1D4
100
AcDbEntity
  8
DIM
 62
2
100
AcDbMText
 10
371.11
 20
368.86561625133714
 30
0.0
 40
2.1
 71
5
  1
100
  7
CRE_ROMANS
 50
90.0
  0
POINT
  5
1DF
330
1D4
100
AcDbEntity
  8
Defpoints
100
AcDbPoint
 10
373.0
 20
354.2203556529821
 30
0.0
  0
POINT
  5
1E0
330
1D4
100
AcDbEntity
  8
Defpoints
100
AcDbPoint
 10
380.0
 20
342.096
 30
0.0
  0
POINT
  5
1E1
330
1D4
100
AcDbEntity
  8
Defpoints
100
AcDbPoint
 10
380.0
 20
371.3865211967101
 30
0.0
  0
ENDBLK
  5
1D6
330
1D4
100
AcDbEntity
  8
0
100
AcDbBlockEnd
  0
BLOCK
  5
1E4
330
1E3
100
AcDbEntity
  8
0
100
AcDbBlockBegin
  2
*D14
 70
1
 10
0.0
 20
0.0
 30
0.0
  3
*D14
  1

  0
LINE
  5
1E6
330
1E3
100
AcDbEntity
  8
0
 62
2
370
20
100
AcDbLine
 10
379.475
 20
343.0053266739737
 30
0.0
 11
366.475
 21
365.52198717236905
 31
0.0
  0
LINE
  5
1E7
330
1E3
100
AcDbEntity
  8
0
 62
2
370
20
100
AcDbLine
 10
379.475
 20
372.29584787068376
 30
0.0
 11
366.475
 21
394.8125083690791
 31
0.0
  0
INSERT
  5
1E8
330
1E3
100
AcDbEntity
  8
DIM
 62
2
100
AcDbBlockReference
  2
_CLOSEDFILLED
 10
367.0
 20
364.61266049839537
 30
0.0
 41
2.1
 42
2.1
 50
270.0
  0
INSERT
  5
1EA
330
1E3
100
AcDbEntity
  8
DIM
 62
2
100
AcDbBlockReference
  2
_CLOSEDFILLED
 10
367.0
 20
393.90318169510545
 30
0.0
 41
2.1
 42
2.1
 50
90.0
  0
LINE
  5
1EC
330
1E3
100
AcDbEntity
  8
0
 62
2
370
20
100
AcDbLine
 10
367.0
 20
366.7126604983954
 30
0.0
 11
367.0
 21
391.8031816951054
 31
0.0
  0
MTEXT
  5
1ED
330
1E3
100
AcDbEntity
  8
DIM
 62
2
100
AcDbMText
 10
365.11
 20
379.2579210967504
 30
0.0
 40
2.1
 71
5
  1
194
  7
CRE_ROMANS
 50
90.0
  0
POINT
  5
1EE
330
1E3
100
AcDbEntity
  8
Defpoints
100
AcDbPoint
 10
367.0
 20
364.61266049839537
 30
0.0
  0
POINT
  5
1EF
330
1E3
100
AcDbEntity
  8
Defpoints
100
AcDbPoint
 10
380.0
 20
342.096
 30
0.0
  0
POINT
  5
1F0
330
1E3
100
AcDbEntity
  8
Defpoints
100
AcDbPoint
 10
380.0
 20
371.3865211967101
 30
0.0
  0
ENDBLK
  5
1E5
330
1E3
100
AcDbEntity
  8
0
100
AcDbBlockEnd
  0
BLOCK
  5
1F3
330
1F2
100
AcDbEntity
  8
0
100
AcDbBlockBegin
  2
*D15
 70
1
 10
0.0
 20
0.0
 30
0.0
  3
*D15
  1

  0
LINE
  5
1F5
330
1F2
100
AcDbEntity
  8
0
 62
2
370
20
100
AcDbLine
 10
117.475
 20
313.2723266739737
 30
0.0
 11
110.475
 21
325.39668232695584
 31
0.0
  0
LINE
  5
1F6
330
1F2
100
AcDbEntity
  8
0
 62
2
370
20
100
AcDbLine
 10
117.475
 20
331.2723266739737
 30
0.0
 11
110.475
 21
343.39668232695584
 31
0.0
  0
INSERT
  5
1F7
330
1F2
100
AcDbEntity
  8
DIM
 62
2
100
AcDbBlockReference
  2
_CLOSEDFILLED
 10
111.0
 20
324.48735565298216
 30
0.0
 41
2.1
 42
2.1
 50
270.0
  0
INSERT
  5
1F9
330
1F2
100
AcDbEntity
  8
DIM
 62
2
100
AcDbBlockReference
  2
_CLOSEDFILLED
 10
111.0
 20
342.48735565298216
 30
0.0
 41
2.1
 42
2.1
 50
90.0
  0
LINE
  5
1FB
330
1F2
100
AcDbEntity
  8
0
 62
2
370
20
100
AcDbLine
 10
111.0
 20
326.5873556529822
 30
0.0
 11
111.0
 21
340.38735565298214
 31
0.0
  0
MTEXT
  5
1FC
330
1F2
100
AcDbEntity
  8
DIM
 62
2
100
AcDbMText
 10
109.11
 20
333.48735565298216
 30
0.0
 40
2.1
 71
5
  1
300
  7
CRE_ROMANS
 50
90.0
  0
POINT
  5
1FD
330
1F2
100
AcDbEntity
  8
Defpoints
100
AcDbPoint
 10
111.0
 20
324.48735565298216
 30
0.0
  0
POINT
  5
1FE
330
1F2
100
AcDbEntity
  8
Defpoints
100
AcDbPoint
 10
118.0
 20
312.363
 30
0.0
  0
POINT
  5
1FF
330
1F2
100
AcDbEntity
  8
Defpoints
100
AcDbPoint
 10
118.0
 20
330.363
 30
0.0
  0
ENDBLK
  5
1F4
330
1F2
100
AcDbEntity
  8
0
100
AcDbBlockEnd
  0
BLOCK
  5
202
330
201
100
AcDbEntity
  8
0
100
AcDbBlockBegin
  2
*D16
 70
1
 10
0.0
 20
0.0
 30
0.0
  3
*D16
  1

  0
LINE
  5
204
330
201
100
AcDbEntity
  8
0
 62
2
370
20
100
AcDbLine
 10
319.38782217350894
 20
405.77476059835504
 30
0.0
 11
305.387822173509
 21
405.77476059835504
 31
0.0
  0
LINE
  5
205
330
201
100
AcDbEntity
  8
0
 62
2
370
20
100
AcDbLine
 10
331.51217782649104
 20
398.77476059835504
 30
0.0
 11
317.5121778264911
 21
398.77476059835504
 31
0.0
  0
INSERT
  5
206
330
201
100
AcDbEntity
  8
DIM
 62
2
100
AcDbBlockReference
  2
_CLOSEDFILLED
 10
306.437822173509
 20
405.77476059835504
 30
0.0
 41
2.1
 42
2.1
 50
149.99999999999991
  0
INSERT
  5
208
330
201
100
AcDbEntity
  8
DIM
 62
2
100
AcDbBlockReference
  2
_CLOSEDFILLED
 10
318.5621778264911
 20
398.77476059835504
 30
0.0
 41
2.1
 42
2.1
 50
-30.00000000000008
  0
LINE
  5
20A
330
201
100
AcDbEntity
  8
0
 62
2
370
20
100
AcDbLine
 10
308.2564755214563
 20
404.72476059835503
 30
0.0
 11
316.7435244785438
 21
399.82476059835506
 31
0.0
  0
MTEXT
  5
20B
330
201
100
AcDbEntity
  8
DIM
 62
2
100
AcDbMText
 10
313.44500000000005
 20
403.9115486115076
 30
0.0
 40
2.1
 71
5
  1
127
  7
CRE_ROMANS
 50
-30.00000000000008
  0
POINT
  5
20C
330
201
100
AcDbEntity
  8
Defpoints
100
AcDbPoint
 10
306.437822173509
 20
405.77476059835504
 30
0.0
  0
POINT
  5
20D
330
201
100
AcDbEntity
  8
Defpoints
100
AcDbPoint
 10
320.43782217350895
 20
405.77476059835504
 30
0.0
  0
POINT
  5
20E
330
201
100
AcDbEntity
  8
Defpoints
100
AcDbPoint
 10
332.56217782649105
 20
398.77476059835504
 30
0.0
  0
ENDBLK
  5
203
330
201
100
AcDbEntity
  8
0
100
AcDbBlockEnd
  0
BLOCK
  5
211
330
210
100
AcDbEntity
  8
0
100
AcDbBlockBegin
  2
*D17
 70
1
 10
0.0
 20
0.0
 30
0.0
  3
*D17
  1

  0
LINE
  5
213
330
210
100
AcDbEntity
  8
0
 62
2
370
20
100
AcDbLine
 10
333.61217782649106
 20
398.77476059835504
 30
0.0
 11
343.6121778264911
 21
398.77476059835504
 31
0.0
  0
LINE
  5
214
330
210
100
AcDbEntity
  8
0
 62
2
370
20
100
AcDbLine
 10
381.05
 20
371.3865211967101
 30
0.0
 11
391.05000000000007
 21
371.3865211967101
 31
0.0
  0
INSERT
  5
215
330
210
100
AcDbEntity
  8
DIM
 62
2
100
AcDbBlockReference
  2
_CLOSEDFILLED
 10
342.5621778264911
 20
398.77476059835504
 30
0.0
 41
2.1
 42
2.1
 50
150.00000000000003
  0
INSERT
  5
217
330
210
100
AcDbEntity
  8
DIM
 62
2
100
AcDbBlockReference
  2
_CLOSEDFILLED
 10
390.00000000000006
 20
371.3865211967101
 30
0.0
 41
2.1
 42
2.1
 50
-29.99999999999998
  0
LINE
  5
219
330
210
100
AcDbEntity
  8
0
 62
2
370
20
100
AcDbLine
 10
344.3808311744384
 20
397.72476059835503
 30
0.0
 11
388.18134665205275
 21
372.4365211967101
 31
0.0
  0
MTEXT
  5
21A
330
210
100
AcDbEntity
  8
DIM
 62
2
100
AcDbMText
 10
367.2260889132456
 20
386.71742891068516
 30
0.0
 40
2.1
 71
5
  1
94
  7
CRE_ROMANS
 50
-29.99999999999998
  0
POINT
  5
21B
330
210
100
AcDbEntity
  8
Defpoints
100
AcDbPoint
 10
342.5621778264911
 20
398.77476059835504
 30
0.0
  0
POINT
  5
21C
330
210
100
AcDbEntity
  8
Defpoints
100
AcDbPoint
 10
332.56217782649105
 20
398.77476059835504
 30
0.0
  0
POINT
  5
21D
330
210
100
AcDbEntity
  8
Defpoints
100
AcDbPoint
 10
380.0
 20
371.3865211967101
 30
0.0
  0
ENDBLK
  5
212
330
210
100
AcDbEntity
  8
0
100
AcDbBlockEnd
  0
BLOCK
  5
220
330
21F
100
AcDbEntity
  8
0
100
AcDbBlockBegin
  2
*D18
 70
1
 10
0.0
 20
0.0
 30
0.0
  3
*D18
  1

  0
LINE
  5
222
330
21F
100
AcDbEntity
  8
0
 62
2
370
20
100
AcDbLine
 10
379.475
 20
372.29584787068376
 30
0.0
 11
373.475
 21
382.688152716097
 31
0.0
  0
LINE
  5
223
330
21F
100
AcDbEntity
  8
0
 62
2
370
20
100
AcDbLine
 10
379.475
 20
387.29584787068376
 30
0.0
 11
373.475
 21
397.688152716097
 31
0.0
  0
INSERT
  5
224
330
21F
100
AcDbEntity
  8
DIM
 62
2
100
AcDbBlockReference
  2
_CLOSEDFILLED
 10
374.0
 20
381.77882604212334
 30
0.0
 41
2.1
 42
2.1
 50
270.0
  0
INSERT
  5
226
330
21F
100
AcDbEntity
  8
DIM
 62
2
100
AcDbBlockReference
  2
_CLOSEDFILLED
 10
374.0
 20
396.77882604212334
 30
0.0
 41
2.1
 42
2.1
 50
90.0
  0
LINE
  5
228
330
21F
100
AcDbEntity
  8
0
 62
2
370
20
100
AcDbLine
 10
374.0
 20
383.87882604212336
 30
0.0
 11
374.0
 21
394.6788260421233
 31
0.0
  0
MTEXT
  5
229
330
21F
100
AcDbEntity
  8
DIM
 62
2
100
AcDbMText
 10
372.11
 20
389.27882604212334
 30
0.0
 40
2.1
 71
5
  1
38
  7
CRE_ROMANS
 50
90.0
  0
POINT
  5
22A
330
21F
100
AcDbEntity
  8
Defpoints
100
AcDbPoint
 10
374.0
 20
381.77882604212334
 30
0.0
  0
POINT
  5
22B
330
21F
100
AcDbEntity
  8
Defpoints
100
AcDbPoint
 10
380.0
 20
371.3865211967101
 30
0.0
  0
POINT
  5
22C
330
21F
100
AcDbEntity
  8
Defpoints
100
AcDbPoint
 10
380.0
 20
386.3865211967101
 30
0.0
  0
ENDBLK
  5
221
330
21F
100
AcDbEntity
  8
0
100
AcDbBlockEnd
  0
BLOCK
  5
22F
330
22E
100
AcDbEntity
  8
0
100
AcDbBlockBegin
  2
*D19
 70
1
 10
0.0
 20
0.0
 30
0.0
  3
*D19
  1

  0
LINE
  5
231
330
22E
100
AcDbEntity
  8
0
 62
2
370
20
100
AcDbLine
 10
273.525
 20
412.0906733260263
 30
0.0
 11
280.525
 21
399.9663176730442
 31
0.0
  0
LINE
  5
232
330
22E
100
AcDbEntity
  8
0
 62
2
370
20
100
AcDbLine
 10
273.525
 20
398.0906733260263
 30
0.0
 11
280.525
 21
385.9663176730442
 31
0.0
  0
INSERT
  5
233
330
22E
100
AcDbEntity
  8
DIM
 62
2
100
AcDbBlockReference
  2
_CLOSEDFILLED
 10
280.0
 20
400.8756443470179
 30
0.0
 41
2.1
 42
2.1
 50
90.0
  0
INSERT
  5
235
330
22E
100
AcDbEntity
  8
DIM
 62
2
100
AcDbBlockReference
  2
_CLOSEDFILLED
 10
280.0
 20
386.8756443470179
 30
0.0
 41
2.1
 42
2.1
 50
-90.0
  0
LINE
  5
237
330
22E
100
AcDbEntity
  8
0
 62
2
370
20
100
AcDbLine
 10
280.0
 20
398.7756443470179
 30
0.0
 11
280.0
 21
388.9756443470179
 31
0.0
  0
MTEXT
  5
238
330
22E
100
AcDbEntity
  8
DIM
 62
2
100
AcDbMText
 10
281.89
 20
393.8756443470179
 30
0.0
 40
2.1
 71
5
  1
128
  7
CRE_ROMANS
 50
-90.0
  0
POINT
  5
239
330
22E
100
AcDbEntity
  8
Defpoints
100
AcDbPoint
 10
280.0
 20
400.8756443470179
 30
0.0
  0
POINT
  5
23A
330
22E
100
AcDbEntity
  8
Defpoints
100
AcDbPoint
 10
273.0
 20
413.0
 30
0.0
  0
POINT
  5
23B
330
22E
100
AcDbEntity
  8
Defpoints
100
AcDbPoint
 10
273.0
 20
399.0
 30
0.0
  0
ENDBLK
  5
230
330
22E
100
AcDbEntity
  8
0
100
AcDbBlockEnd
  0
BLOCK
  5
23E
330
23D
100
AcDbEntity
  8
0
100
AcDbBlockBegin
  2
*D20
 70
1
 10
0.0
 20
0.0
 30
0.0
  3
*D20
  1

  0
LINE
  5
240
330
23D
100
AcDbEntity
  8
0
 62
2
370
20
100
AcDbLine
 10
380.525
 20
327.1866733260263
 30
0.0
 11
387.525
 21
315.0623176730441
 31
0.0
  0
LINE
  5
241
330
23D
100
AcDbEntity
  8
0
 62
2
370
20
100
AcDbLine
 10
380.525
 20
341.1866733260263
 30
0.0
 11
387.525
 21
329.0623176730441
 31
0.0
  0
INSERT
  5
242
330
23D
100
AcDbEntity
  8
DIM
 62
2
100
AcDbBlockReference
  2
_CLOSEDFILLED
 10
387.0
 20
315.9716443470178
 30
0.0
 41
2.1
 42
2.1
 50
270.0
  0
INSERT
  5
244
330
23D
100
AcDbEntity
  8
DIM
 62
2
100
AcDbBlockReference
  2
_CLOSEDFILLED
 10
387.0
 20
329.9716443470178
 30
0.0
 41
2.1
 42
2.1
 50
90.0
  0
LINE
  5
246
330
23D
100
AcDbEntity
  8
0
 62
2
370
20
100
AcDbLine
 10
387.0
 20
318.0716443470178
 30
0.0
 11
387.0
 21
327.87164434701776
 31
0.0
  0
MTEXT
  5
247
330
23D
100
AcDbEntity
  8
DIM
 62
2
100
AcDbMText
 10
385.11
 20
322.9716443470178
 30
0.0
 40
2.1
 71
5
  1
128
  7
CRE_ROMANS
 50
90.0
  0
POINT
  5
248
330
23D
100
AcDbEntity
  8
Defpoints
100
AcDbPoint
 10
387.0
 20
315.9716443470178
 30
0.0
  0
POINT
  5
249
330
23D
100
AcDbEntity
  8
Defpoints
100
AcDbPoint
 10
380.0
 20
328.096
 30
0.0
  0
POINT
  5
24A
330
23D
100
AcDbEntity
  8
Defpoints
100
AcDbPoint
 10
380.0
 20
342.096
 30
0.0
  0
ENDBLK
  5
23F
330
23D
100
AcDbEntity
  8
0
100
AcDbBlockEnd
  0
BLOCK
  5
24D
330
24C
100
AcDbEntity
  8
0
100
AcDbBlockBegin
  2
*D21
 70
1
 10
0.0
 20
0.0
 30
0.0
  3
*D21
  1

  0
LINE
  5
24F
330
24C
100
AcDbEntity
  8
0
 62
2
370
20
100
AcDbLine
 10
296.05
 20
347.8812940778283
 30
0.0
 11
306.05
 21
347.8812940778283
 31
0.0
  0
LINE
  5
250
330
24C
100
AcDbEntity
  8
0
 62
2
370
20
100
AcDbLine
 10
314.55961894323343
 20
337.19476059835506
 30
0.0
 11
324.55961894323343
 21
337.19476059835506
 31
0.0
  0
INSERT
  5
251
330
24C
100
AcDbEntity
  8
DIM
 62
2
100
AcDbBlockReference
  2
_CLOSEDFILLED
 10
305.0
 20
347.8812940778283
 30
0.0
 41
2.1
 42
2.1
 50
150.0
  0
INSERT
  5
253
330
24C
100
AcDbEntity
  8
DIM
 62
2
100
AcDbBlockReference
  2
_CLOSEDFILLED
 10
323.5096189432334
 20
337.19476059835506
 30
0.0
 41
2.1
 42
2.1
 50
-30.000000000000004
  0
LINE
  5
255
330
24C
100
AcDbEntity
  8
0
 62
2
370
20
100
AcDbLine
 10
306.8186533479473
 20
346.83129407782826
 30
0.0
 11
321.6909655952861
 21
338.2447605983551
 31
0.0
  0
MTEXT
  5
256
330
24C
100
AcDbEntity
  8
DIM
 62
2
100
AcDbMText
 10
315.1998094716167
 20
344.1748153512442
 30
0.0
 40
2.1
 71
5
  1
94
  7
CRE_ROMANS
 50
-30.000000000000004
  0
POINT
  5
257
330
24C
100
AcDbEntity
  8
Defpoints
100
AcDbPoint
 10
305.0
 20
347.8812940778283
 30
0.0
  0
POINT
  5
258
330
24C
100
AcDbEntity
  8
Defpoints
100
AcDbPoint
 10
295.0
 20
347.8812940778283
 30
0.0
  0
POINT
  5
259
330
24C
100
AcDbEntity
  8
Defpoints
100
AcDbPoint
 10
313.5096189432334
 20
337.19476059835506
 30
0.0
  0
ENDBLK
  5
24E
330
24C
100
AcDbEntity
  8
0
100
AcDbBlockEnd
  0
BLOCK
  5
25C
330
25B
100
AcDbEntity
  8
0
100
AcDbBlockBegin
  2
*D22
 70
1
 10
0.0
 20
0.0
 30
0.0
  3
*D22
  1

  0
LINE
  5
25E
330
25B
100
AcDbEntity
  8
0
 62
2
370
20
100
AcDbLine
 10
314.55961894323343
 20
337.19476059835506
 30
0.0
 11
326.5596189432335
 21
337.19476059835506
 31
0.0
  0
LINE
  5
25F
330
25B
100
AcDbEntity
  8
0
 62
2
370
20
100
AcDbLine
 10
340.5403810567666
 20
322.19476059835506
 30
0.0
 11
352.54038105676665
 21
322.19476059835506
 31
0.0
  0
INSERT
  5
260
330
25B
100
AcDbEntity
  8
DIM
 62
2
100
AcDbBlockReference
  2
_CLOSEDFILLED
 10
325.5096189432335
 20
337.19476059835506
 30
0.0
 41
2.1
 42
2.1
 50
150.0
  0
INSERT
  5
262
330
25B
100
AcDbEntity
  8
DIM
 62
2
100
AcDbBlockReference
  2
_CLOSEDFILLED
 10
351.49038105676664
 20
322.19476059835506
 30
0.0
 41
2.1
 42
2.1
 50
-29.999999999999996
  0
LINE
  5
264
330
25B
100
AcDbEntity
  8
0
 62
2
370
20
100
AcDbLine
 10
327.3282722911808
 20
336.14476059835505
 30
0.0
 11
349.67172770881933
 21
323.2447605983551
 31
0.0
  0
MTEXT
  5
265
330
25B
100
AcDbEntity
  8
DIM
 62
2
100
AcDbMText
 10
339.44500000000005
 20
331.3315486115076
 30
0.0
 40
2.1
 71
5
  1
600
  7
CRE_ROMANS
 50
-29.999999999999996
  0
POINT
  5
266
330
25B
100
AcDbEntity
  8
Defpoints
100
AcDbPoint
 10
325.5096189432335
 20
337.19476059835506
 30
0.0
  0
POINT
  5
267
330
25B
100
AcDbEntity
  8
Defpoints
100
AcDbPoint
 10
313.5096189432334
 20
337.19476059835506
 30
0.0
  0
POINT
  5
268
330
25B
100
AcDbEntity
  8
Defpoints
100
AcDbPoint
 10
339.4903810567666
 20
322.19476059835506
 30
0.0
  0
ENDBLK
  5
25D
330
25B
100
AcDbEntity
  8
0
100
AcDbBlockEnd
  0
BLOCK
  5
26B
330
26A
100
AcDbEntity
  8
0
100
AcDbBlockBegin
  2
*D23
 70
1
 10
0.0
 20
0.0
 30
0.0
  3
*D23
  1

  0
LINE
  5
26D
330
26A
100
AcDbEntity
  8
0
 62
2
370
20
100
AcDbLine
 10
340.5403810567666
 20
322.19476059835506
 30
0.0
 11
350.5403810567666
 21
322.19476059835506
 31
0.0
  0
LINE
  5
26E
330
26A
100
AcDbEntity
  8
0
 62
2
370
20
100
AcDbLine
 10
359.05
 20
311.50822711888185
 30
0.0
 11
369.05
 21
311.50822711888185
 31
0.0
  0
INSERT
  5
26F
330
26A
100
AcDbEntity
  8
DIM
 62
2
100
AcDbBlockReference
  2
_CLOSEDFILLED
 10
349.4903810567666
 20
322.19476059835506
 30
0.0
 41
2.1
 42
2.1
 50
150.0
  0
INSERT
  5
271
330
26A
100
AcDbEntity
  8
DIM
 62
2
100
AcDbBlockReference
  2
_CLOSEDFILLED
 10
368.0
 20
311.50822711888185
 30
0.0
 41
2.1
 42
2.1
 50
-30.000000000000004
  0
LINE
  5
273
330
26A
100
AcDbEntity
  8
0
 62
2
370
20
100
AcDbLine
 10
351.3090344047139
 20
321.14476059835505
 30
0.0
 11
366.1813466520527
 21
312.55822711888186
 31
0.0
  0
MTEXT
  5
274
330
26A
100
AcDbEntity
  8
DIM
 62
2
100
AcDbMText
 10
359.6901905283833
 20
318.48828187177105
 30
0.0
 40
2.1
 71
5
  1
94
  7
CRE_ROMANS
 50
-30.000000000000004
  0
POINT
  5
275
330
26A
100
AcDbEntity
  8
Defpoints
100
AcDbPoint
 10
349.4903810567666
 20
322.19476059835506
 30
0.0
  0
POINT
  5
276
330
26A
100
AcDbEntity
  8
Defpoints
100
AcDbPoint
 10
339.4903810567666
 20
322.19476059835506
 30
0.0
  0
POINT
  5
277
330
26A
100
AcDbEntity
  8
Defpoints
100
AcDbPoint
 10
358.0
 20
311.50822711888185
 30
0.0
  0
ENDBLK
  5
26C
330
26A
100
AcDbEntity
  8
0
100
AcDbBlockEnd
  0
BLOCK
  5
27A
330
279
100
AcDbEntity
  8
0
100
AcDbBlockBegin
  2
*D24
 70
1
 10
0.0
 20
0.0
 30
0.0
  3
*D24
  1

  0
LINE
  5
27C
330
279
100
AcDbEntity
  8
0
 62
2
370
20
100
AcDbLine
 10
273.525
 20
398.0906733260263
 30
0.0
 11
280.525
 21
385.9663176730442
 31
0.0
  0
LINE
  5
27D
330
279
100
AcDbEntity
  8
0
 62
2
370
20
100
AcDbLine
 10
273.525
 20
359.67367332602635
 30
0.0
 11
280.525
 21
347.5493176730442
 31
0.0
  0
INSERT
  5
27E
330
279
100
AcDbEntity
  8
DIM
 62
2
100
AcDbBlockReference
  2
_CLOSEDFILLED
 10
280.0
 20
386.8756443470179
 30
0.0
 41
2.1
 42
2.1
 50
90.0
  0
INSERT
  5
280
330
279
100
AcDbEntity
  8
DIM
 62
2
100
AcDbBlockReference
  2
_CLOSEDFILLED
 10
280.0
 20
348.45864434701787
 30
0.0
 41
2.1
 42
2.1
 50
-90.0
  0
LINE
  5
282
330
279
100
AcDbEntity
  8
0
 62
2
370
20
100
AcDbLine
 10
280.0
 20
384.7756443470179
 30
0.0
 11
280.0
 21
350.5586443470179
 31
0.0
  0
MTEXT
  5
283
330
279
100
AcDbEntity
  8
DIM
 62
2
100
AcDbMText
 10
281.89
 20
367.6671443470179
 30
0.0
 40
2.1
 71
5
  1
93
  7
CRE_ROMANS
 50
-90.0
  0
POINT
  5
284
330
279
100
AcDbEntity
  8
Defpoints
100
AcDbPoint
 10
280.0
 20
386.8756443470179
 30
0.0
  0
POINT
  5
285
330
279
100
AcDbEntity
  8
Defpoints
100
AcDbPoint
 10
273.0
 20
399.0
 30
0.0
  0
POINT
  5
286
330
279
100
AcDbEntity
  8
Defpoints
100
AcDbPoint
 10
273.0
 20
360.583
 30
0.0
  0
ENDBLK
  5
27B
330
279
100
AcDbEntity
  8
0
100
AcDbBlockEnd
  0
BLOCK
  5
289
330
288
100
AcDbEntity
  8
0
100
AcDbBlockBegin
  2
*D25
 70
1
 10
0.0
 20
0.0
 30
0.0
  3
*D25
  1

  0
LINE
  5
28B
330
288
100
AcDbEntity
  8
0
 62
2
370
20
100
AcDbLine
 10
271.95
 20
360.583
 30
0.0
 11
261.95
 21
360.583
 31
0.0
  0
LINE
  5
28C
330
288
100
AcDbEntity
  8
0
 62
2
370
20
100
AcDbLine
 10
293.95
 20
347.8812940778283
 30
0.0
 11
283.95
 21
347.8812940778283
 31
0.0
  0
INSERT
  5
28D
330
288
100
AcDbEntity
  8
DIM
 62
2
100
AcDbBlockReference
  2
_CLOSEDFILLED
 10
263.0
 20
360.583
 30
0.0
 41
2.1
 42
2.1
 50
150.00000000000003
  0
INSERT
  5
28F
330
288
100
AcDbEntity
  8
DIM
 62
2
100
AcDbBlockReference
  2
_CLOSEDFILLED
 10
285.0
 20
347.8812940778283
 30
0.0
 41
2.1
 42
2.1
 50
-29.99999999999998
  0
LINE
  5
291
330
288
100
AcDbEntity
  8
0
 62
2
370
20
100
AcDbLine
 10
264.8186533479473
 20
359.533
 30
0.0
 11
283.1813466520527
 21
348.9312940778283
 31
0.0
  0
MTEXT
  5
292
330
288
100
AcDbEntity
  8
DIM
 62
2
100
AcDbMText
 10
274.945
 20
355.8689350520667
 30
0.0
 40
2.1
 71
5
  1
76
  7
CRE_ROMANS
 50
-29.99999999999998
  0
POINT
  5
293
330
288
100
AcDbEntity
  8
Defpoints
100
AcDbPoint
 10
263.0
 20
360.583
 30
0.0
  0
POINT
  5
294
330
288
100
AcDbEntity
  8
Defpoints
100
AcDbPoint
 10
273.0
 20
360.583
 30
0.0
  0
POINT
  5
295
330
288
100
AcDbEntity
  8
Defpoints
100
AcDbPoint
 10
295.0
 20
347.8812940778283
 30
0.0
  0
ENDBLK
  5
28A
330
288
100
AcDbEntity
  8
0
100
AcDbBlockEnd
  0
BLOCK
  5
298
330
297
100
AcDbEntity
  8
0
100
AcDbBlockBegin
  2
*D26
 70
1
 10
0.0
 20
0.0
 30
0.0
  3
*D26
  1

  0
LINE
  5
29A
330
297
100
AcDbEntity
  8
0
 62
2
370
20
100
AcDbLine
 10
356.95
 20
311.50822711888185
 30
0.0
 11
346.9499999999999
 21
311.50822711888185
 31
0.0
  0
LINE
  5
29B
330
297
100
AcDbEntity
  8
0
 62
2
370
20
100
AcDbLine
 10
378.95
 20
298.8065211967101
 30
0.0
 11
368.9499999999999
 21
298.8065211967101
 31
0.0
  0
INSERT
  5
29C
330
297
100
AcDbEntity
  8
DIM
 62
2
100
AcDbBlockReference
  2
_CLOSEDFILLED
 10
347.9999999999999
 20
311.50822711888185
 30
0.0
 41
2.1
 42
2.1
 50
150.00000000000003
  0
INSERT
  5
29E
330
297
100
AcDbEntity
  8
DIM
 62
2
100
AcDbBlockReference
  2
_CLOSEDFILLED
 10
369.9999999999999
 20
298.8065211967101
 30
0.0
 41
2.1
 42
2.1
 50
-29.99999999999998
  0
LINE
  5
2A0
330
297
100
AcDbEntity
  8
0
 62
2
370
20
100
AcDbLine
 10
349.8186533479472
 20
310.45822711888184
 30
0.0
 11
368.1813466520526
 21
299.8565211967101
 31
0.0
  0
MTEXT
  5
2A1
330
297
100
AcDbEntity
  8
DIM
 62
2
100
AcDbMText
 10
359.9449999999999
 20
306.79416217094854
 30
0.0
 40
2.1
 71
5
  1
76
  7
CRE_ROMANS
 50
-29.99999999999998
  0
POINT
  5
2A2
330
297
100
AcDbEntity
  8
Defpoints
100
AcDbPoint
 10
347.9999999999999
 20
311.50822711888185
 30
0.0
  0
POINT
  5
2A3
330
297
100
AcDbEntity
  8
Defpoints
100
AcDbPoint
 10
358.0
 20
311.50822711888185
 30
0.0
  0
POINT
  5
2A4
330
297
100
AcDbEntity
  8
Defpoints
100
AcDbPoint
 10
380.0
 20
298.8065211967101
 30
0.0
  0
ENDBLK
  5
299
330
297
100
AcDbEntity
  8
0
100
AcDbBlockEnd
  0
BLOCK
  5
2A7
330
2A6
100
AcDbEntity
  8
0
100
AcDbBlockBegin
  2
*D27
 70
1
 10
0.0
 20
0.0
 30
0.0
  3
*D27
  1

  0
LINE
  5
2A9
330
2A6
100
AcDbEntity
  8
0
 62
2
370
20
100
AcDbLine
 10
380.525
 20
297.8971945227364
 30
0.0
 11
387.525
 21
285.77283886975425
 31
0.0
  0
LINE
  5
2AA
330
2A6
100
AcDbEntity
  8
0
 62
2
370
20
100
AcDbLine
 10
380.525
 20
327.1866733260263
 30
0.0
 11
387.525
 21
315.0623176730441
 31
0.0
  0
INSERT
  5
2AB
330
2A6
100
AcDbEntity
  8
DIM
 62
2
100
AcDbBlockReference
  2
_CLOSEDFILLED
 10
387.0
 20
286.68216554372793
 30
0.0
 41
2.1
 42
2.1
 50
270.0
  0
INSERT
  5
2AD
330
2A6
100
AcDbEntity
  8
DIM
 62
2
100
AcDbBlockReference
  2
_CLOSEDFILLED
 10
387.0
 20
315.9716443470178
 30
0.0
 41
2.1
 42
2.1
 50
90.0
  0
LINE
  5
2AF
330
2A6
100
AcDbEntity
  8
0
 62
2
370
20
100
AcDbLine
 10
387.0
 20
288.78216554372796
 30
0.0
 11
387.0
 21
313.87164434701776
 31
0.0
  0
MTEXT
  5
2B0
330
2A6
100
AcDbEntity
  8
DIM
 62
2
100
AcDbMText
 10
385.11
 20
301.32690494537286
 30
0.0
 40
2.1
 71
5
  1
94
  7
CRE_ROMANS
 50
90.0
  0
POINT
  5
2B1
330
2A6
100
AcDbEntity
  8
Defpoints
100
AcDbPoint
 10
387.0
 20
286.68216554372793
 30
0.0
  0
POINT
  5
2B2
330
2A6
100
AcDbEntity
  8
Defpoints
100
AcDbPoint
 10
380.0
 20
298.8065211967101
 30
0.0
  0
POINT
  5
2B3
330
2A6
100
AcDbEntity
  8
Defpoints
100
AcDbPoint
 10
380.0
 20
328.096
 30
0.0
  0
ENDBLK
  5
2A8
330
2A6
100
AcDbEntity
  8
0
100
AcDbBlockEnd
  0
BLOCK
  5
2B6
330
2B5
100
AcDbEntity
  8
0
100
AcDbBlockBegin
  2
*D28
 70
1
 10
0.0
 20
0.0
 30
0.0
  3
*D28
  1

  0
LINE
  5
2B8
330
2B5
100
AcDbEntity
  8
0
 62
2
370
20
100
AcDbLine
 10
294.475
 20
348.79062075180195
 30
0.0
 11
288.475
 21
359.1829255972153
 31
0.0
  0
LINE
  5
2B9
330
2B5
100
AcDbEntity
  8
0
 62
2
370
20
100
AcDbLine
 10
294.475
 20
335.9093266739737
 30
0.0
 11
288.475
 21
346.30163151938694
 31
0.0
  0
INSERT
  5
2BA
330
2B5
100
AcDbEntity
  8
DIM
 62
2
100
AcDbBlockReference
  2
_CLOSEDFILLED
 10
289.0
 20
358.2735989232416
 30
0.0
 41
2.1
 42
2.1
 50
90.0
  0
INSERT
  5
2BC
330
2B5
100
AcDbEntity
  8
DIM
 62
2
100
AcDbBlockReference
  2
_CLOSEDFILLED
 10
289.0
 20
345.39230484541326
 30
0.0
 41
2.1
 42
2.1
 50
-90.0
  0
LINE
  5
2BE
330
2B5
100
AcDbEntity
  8
0
 62
2
370
20
100
AcDbLine
 10
289.0
 20
356.17359892324157
 30
0.0
 11
289.0
 21
347.4923048454133
 31
0.0
  0
MTEXT
  5
2BF
330
2B5
100
AcDbEntity
  8
DIM
 62
2
100
AcDbMText
 10
290.89
 20
351.83295188432743
 30
0.0
 40
2.1
 71
5
  1
90
  7
CRE_ROMANS
 50
-90.0
  0
POINT
  5
2C0
330
2B5
100
AcDbEntity
  8
Defpoints
100
AcDbPoint
 10
289.0
 20
358.2735989232416
 30
0.0
  0
POINT
  5
2C1
330
2B5
100
AcDbEntity
  8
Defpoints
100
AcDbPoint
 10
295.0
 20
347.8812940778283
 30
0.0
  0
POINT
  5
2C2
330
2B5
100
AcDbEntity
  8
Defpoints
100
AcDbPoint
 10
295.0
 20
335.0
 30
0.0
  0
ENDBLK
  5
2B7
330
2B5
100
AcDbEntity
  8
0
100
AcDbBlockEnd
  0
BLOCK
  5
2C5
330
2C4
100
AcDbEntity
  8
0
100
AcDbBlockBegin
  2
*D29
 70
1
 10
0.0
 20
0.0
 30
0.0
  3
*D29
  1

  0
LINE
  5
2C7
330
2C4
100
AcDbEntity
  8
0
 62
2
370
20
100
AcDbLine
 10
294.475
 20
335.9093266739737
 30
0.0
 11
288.475
 21
346.30163151938694
 31
0.0
  0
LINE
  5
2C8
330
2C4
100
AcDbEntity
  8
0
 62
2
370
20
100
AcDbLine
 10
294.475
 20
321.9093266739737
 30
0.0
 11
288.475
 21
332.30163151938694
 31
0.0
  0
INSERT
  5
2C9
330
2C4
100
AcDbEntity
  8
DIM
 62
2
100
AcDbBlockReference
  2
_CLOSEDFILLED
 10
289.0
 20
345.39230484541326
 30
0.0
 41
2.1
 42
2.1
 50
90.0
  0
INSERT
  5
2CB
330
2C4
100
AcDbEntity
  8
DIM
 62
2
100
AcDbBlockReference
  2
_CLOSEDFILLED
 10
289.0
 20
331.39230484541326
 30
0.0
 41
2.1
 42
2.1
 50
-90.0
  0
LINE
  5
2CD
330
2C4
100
AcDbEntity
  8
0
 62
2
370
20
100
AcDbLine
 10
289.0
 20
343.29230484541324
 30
0.0
 11
289.0
 21
333.4923048454133
 31
0.0
  0
MTEXT
  5
2CE
330
2C4
100
AcDbEntity
  8
DIM
 62
2
100
AcDbMText
 10
290.89
 20
338.39230484541326
 30
0.0
 40
2.1
 71
5
  1
118
  7
CRE_ROMANS
 50
-90.0
  0
POINT
  5
2CF
330
2C4
100
AcDbEntity
  8
Defpoints
100
AcDbPoint
 10
289.0
 20
345.39230484541326
 30
0.0
  0
POINT
  5
2D0
330
2C4
100
AcDbEntity
  8
Defpoints
100
AcDbPoint
 10
295.0
 20
335.0
 30
0.0
  0
POINT
  5
2D1
330
2C4
100
AcDbEntity
  8
Defpoints
100
AcDbPoint
 10
295.0
 20
321.0
 30
0.0
  0
ENDBLK
  5
2C6
330
2C4
100
AcDbEntity
  8
0
100
AcDbBlockEnd
  0
BLOCK
  5
2D4
330
2D3
100
AcDbEntity
  8
0
100
AcDbBlockBegin
  2
*D30
 70
1
 10
0.0
 20
0.0
 30
0.0
  3
*D30
  1

  0
LINE
  5
2D6
330
2D3
100
AcDbEntity
  8
0
 62
2
370
20
100
AcDbLine
 10
357.47499999999997
 20
312.41755379285553
 30
0.0
 11
351.47499999999997
 21
322.8098586382686
 31
0.0
  0
LINE
  5
2D7
330
2D3
100
AcDbEntity
  8
0
 62
2
370
20
100
AcDbLine
 10
357.475
 20
299.4093266739737
 30
0.0
 11
351.475
 21
309.80163151938683
 31
0.0
  0
INSERT
  5
2D8
330
2D3
100
AcDbEntity
  8
DIM
 62
2
100
AcDbBlockReference
  2
_CLOSEDFILLED
 10
352.0
 20
321.90053196429494
 30
0.0
 41
2.1
 42
2.1
 50
90.0
  0
INSERT
  5
2DA
330
2D3
100
AcDbEntity
  8
DIM
 62
2
100
AcDbBlockReference
  2
_CLOSEDFILLED
 10
352.0
 20
308.89230484541315
 30
0.0
 41
2.1
 42
2.1
 50
-90.0
  0
LINE
  5
2DC
330
2D3
100
AcDbEntity
  8
0
 62
2
370
20
100
AcDbLine
 10
352.0
 20
319.8005319642949
 30
0.0
 11
352.0
 21
310.9923048454132
 31
0.0
  0
MTEXT
  5
2DD
330
2D3
100
AcDbEntity
  8
DIM
 62
2
100
AcDbMText
 10
353.89
 20
315.39641840485405
 30
0.0
 40
2.1
 71
5
  1
90
  7
CRE_ROMANS
 50
-90.0
  0
POINT
  5
2DE
330
2D3
100
AcDbEntity
  8
Defpoints
100
AcDbPoint
 10
352.0
 20
321.90053196429494
 30
0.0
  0
POINT
  5
2DF
330
2D3
100
AcDbEntity
  8
Defpoints
100
AcDbPoint
 10
358.0
 20
311.50822711888185
 30
0.0
  0
POINT
  5
2E0
330
2D3
100
AcDbEntity
  8
Defpoints
100
AcDbPoint
 10
358.0
 20
298.5
 30
0.0
  0
ENDBLK
  5
2D5
330
2D3
100
AcDbEntity
  8
0
100
AcDbBlockEnd
  0
BLOCK
  5
2E3
330
2E2
100
AcDbEntity
  8
0
100
AcDbBlockBegin
  2
*D31
 70
1
 10
0.0
 20
0.0
 30
0.0
  3
*D31
  1

  0
LINE
  5
2E5
330
2E2
100
AcDbEntity
  8
0
 62
2
370
20
100
AcDbLine
 10
357.475
 20
299.4093266739737
 30
0.0
 11
351.475
 21
309.80163151938683
 31
0.0
  0
LINE
  5
2E6
330
2E2
100
AcDbEntity
  8
0
 62
2
370
20
100
AcDbLine
 10
357.475
 20
285.4093266739737
 30
0.0
 11
351.475
 21
295.80163151938683
 31
0.0
  0
INSERT
  5
2E7
330
2E2
100
AcDbEntity
  8
DIM
 62
2
100
AcDbBlockReference
  2
_CLOSEDFILLED
 10
352.0
 20
308.89230484541315
 30
0.0
 41
2.1
 42
2.1
 50
90.0
  0
INSERT
  5
2E9
330
2E2
100
AcDbEntity
  8
DIM
 62
2
100
AcDbBlockReference
  2
_CLOSEDFILLED
 10
352.0
 20
294.89230484541315
 30
0.0
 41
2.1
 42
2.1
 50
-90.0
  0
LINE
  5
2EB
330
2E2
100
AcDbEntity
  8
0
 62
2
370
20
100
AcDbLine
 10
352.0
 20
306.7923048454131
 30
0.0
 11
352.0
 21
296.9923048454132
 31
0.0
  0
MTEXT
  5
2EC
330
2E2
100
AcDbEntity
  8
DIM
 62
2
100
AcDbMText
 10
353.89
 20
301.89230484541315
 30
0.0
 40
2.1
 71
5
  1
118
  7
CRE_ROMANS
 50
-90.0
  0
POINT
  5
2ED
330
2E2
100
AcDbEntity
  8
Defpoints
100
AcDbPoint
 10
352.0
 20
308.89230484541315
 30
0.0
  0
POINT
  5
2EE
330
2E2
100
AcDbEntity
  8
Defpoints
100
AcDbPoint
 10
358.0
 20
298.5
 30
0.0
  0
POINT
  5
2EF
330
2E2
100
AcDbEntity
  8
Defpoints
100
AcDbPoint
 10
358.0
 20
284.5
 30
0.0
  0
ENDBLK
  5
2E4
330
2E2
100
AcDbEntity
  8
0
100
AcDbBlockEnd
  0
BLOCK
  5
2F2
330
2F1
100
AcDbEntity
  8
0
100
AcDbBlockBegin
  2
*D32
 70
1
 10
0.0
 20
0.0
 30
0.0
  3
*D32
  1

  0
LINE
  5
2F4
330
2F1
100
AcDbEntity
  8
0
 62
2
370
20
100
AcDbLine
 10
38.95
 20
264.33
 30
0.0
 11
24.95000000000006
 21
264.33
 31
0.0
  0
LINE
  5
2F5
330
2F1
100
AcDbEntity
  8
0
 62
2
370
20
100
AcDbLine
 10
52.806406460551024
 20
256.33
 30
0.0
 11
38.80640646055109
 21
256.33
 31
0.0
  0
INSERT
  5
2F6
330
2F1
100
AcDbEntity
  8
DIM
 62
2
100
AcDbBlockReference
  2
_CLOSEDFILLED
 10
26.00000000000006
 20
264.33
 30
0.0
 41
2.1
 42
2.1
 50
150.0
  0
INSERT
  5
2F8
330
2F1
100
AcDbEntity
  8
DIM
 62
2
100
AcDbBlockReference
  2
_CLOSEDFILLED
 10
39.856406460551085
 20
256.33
 30
0.0
 41
2.1
 42
2.1
 50
-29.999999999999996
  0
LINE
  5
2FA
330
2F1
100
AcDbEntity
  8
0
 62
2
370
20
100
AcDbLine
 10
27.818653347947382
 20
263.28
 30
0.0
 11
38.03775311260377
 21
257.38
 31
0.0
  0
MTEXT
  5
2FB
330
2F1
100
AcDbEntity
  8
DIM
 62
2
100
AcDbMText
 10
33.87320323027557
 20
261.96678801315255
 30
0.0
 40
2.1
 71
5
  1
125
  7
CRE_ROMANS
 50
-29.999999999999996
  0
POINT
  5
2FC
330
2F1
100
AcDbEntity
  8
Defpoints
100
AcDbPoint
 10
26.00000000000006
 20
264.33
 30
0.0
  0
POINT
  5
2FD
330
2F1
100
AcDbEntity
  8
Defpoints
100
AcDbPoint
 10
40.0
 20
264.33
 30
0.0
  0
POINT
  5
2FE
330
2F1
100
AcDbEntity
  8
Defpoints
100
AcDbPoint
 10
53.85640646055102
 20
256.33
 30
0.0
  0
ENDBLK
  5
2F3
330
2F1
100
AcDbEntity
  8
0
100
AcDbBlockEnd
  0
BLOCK
  5
301
330
300
100
AcDbEntity
  8
0
100
AcDbBlockBegin
  2
*D33
 70
1
 10
0.0
 20
0.0
 30
0.0
  3
*D33
  1

  0
LINE
  5
303
330
300
100
AcDbEntity
  8
0
 62
2
370
20
100
AcDbLine
 10
118.525
 20
292.4539943228171
 30
0.0
 11
125.525
 21
280.32963866983494
 31
0.0
  0
LINE
  5
304
330
300
100
AcDbEntity
  8
0
 62
2
370
20
100
AcDbLine
 10
118.525
 20
311.4536733260263
 30
0.0
 11
125.525
 21
299.3293176730442
 31
0.0
  0
INSERT
  5
305
330
300
100
AcDbEntity
  8
DIM
 62
2
100
AcDbBlockReference
  2
_CLOSEDFILLED
 10
125.0
 20
281.2389653438086
 30
0.0
 41
2.1
 42
2.1
 50
270.0
  0
INSERT
  5
307
330
300
100
AcDbEntity
  8
DIM
 62
2
100
AcDbBlockReference
  2
_CLOSEDFILLED
 10
125.0
 20
300.2386443470179
 30
0.0
 41
2.1
 42
2.1
 50
90.0
  0
LINE
  5
309
330
300
100
AcDbEntity
  8
0
 62
2
370
20
100
AcDbLine
 10
125.0
 20
283.33896534380864
 30
0.0
 11
125.0
 21
298.1386443470179
 31
0.0
  0
MTEXT
  5
30A
330
300
100
AcDbEntity
  8
DIM
 62
2
100
AcDbMText
 10
123.11
 20
290.73880484541326
 30
0.0
 40
2.1
 71
5
  1
94
  7
CRE_ROMANS
 50
90.0
  0
POINT
  5
30B
330
300
100
AcDbEntity
  8
Defpoints
100
AcDbPoint
 10
125.0
 20
281.2389653438086
 30
0.0
  0
POINT
  5
30C
330
300
100
AcDbEntity
  8
Defpoints
100
AcDbPoint
 10
118.0
 20
293.3633209967908
 30
0.0
  0
POINT
  5
30D
330
300
100
AcDbEntity
  8
Defpoints
100
AcDbPoint
 10
118.0
 20
312.363
 30
0.0
  0
ENDBLK
  5
302
330
300
100
AcDbEntity
  8
0
100
AcDbBlockEnd
  0
BLOCK
  5
310
330
30F
100
AcDbEntity
  8
0
100
AcDbBlockBegin
  2
*D34
 70
1
 10
0.0
 20
0.0
 30
0.0
  3
*D34
  1

  0
LINE
  5
312
330
30F
100
AcDbEntity
  8
0
 62
2
370
20
100
AcDbLine
 10
51.875317547305485
 20
258.08
 30
0.0
 11
63.87531754730545
 21
258.08
 31
0.0
  0
LINE
  5
313
330
30F
100
AcDbEntity
  8
0
 62
2
370
20
100
AcDbLine
 10
54.90640646055102
 20
256.33
 30
0.0
 11
66.90640646055098
 21
256.33
 31
0.0
  0
INSERT
  5
314
330
30F
100
AcDbEntity
  8
DIM
 62
2
100
AcDbBlockReference
  2
_CLOSEDFILLED
 10
62.82531754730545
 20
258.08
 30
0.0
 41
2.1
 42
2.1
 50
-30.000000000000018
  0
INSERT
  5
316
330
30F
100
AcDbEntity
  8
DIM
 62
2
100
AcDbBlockReference
  2
_CLOSEDFILLED
 10
65.85640646055099
 20
256.33
 30
0.0
 41
2.1
 42
2.1
 50
149.99999999999997
  0
LINE
  5
318
330
30F
100
AcDbEntity
  8
0
 62
2
370
20
100
AcDbLine
 10
61.006664199358134
 20
259.13
 30
0.0
 11
59.18801085141081
 21
260.18
 31
0.0
  0
LINE
  5
319
330
30F
100
AcDbEntity
  8
0
 62
2
370
20
100
AcDbLine
 10
67.6750598084983
 20
255.27999999999997
 30
0.0
 11
69.49371315644562
 21
254.23
 31
0.0
  0
LINE
  5
31A
330
30F
100
AcDbEntity
  8
0
 62
2
370
20
100
AcDbLine
 10
62.82531754730545
 20
258.08
 30
0.0
 11
65.85640646055099
 21
256.33
 31
0.0
  0
MTEXT
  5
31B
330
30F
100
AcDbEntity
  8
DIM
 62
2
100
AcDbMText
 10
65.81086200392822
 20
259.75111468712623
 30
0.0
 40
2.1
 71
5
  1
38
  7
CRE_ROMANS
 50
-30.000000000000018
  0
POINT
  5
31C
330
30F
100
AcDbEntity
  8
Defpoints
100
AcDbPoint
 10
62.82531754730545
 20
258.08
 30
0.0
  0
POINT
  5
31D
330
30F
100
AcDbEntity
  8
Defpoints
100
AcDbPoint
 10
50.82531754730549
 20
258.08
 30
0.0
  0
POINT
  5
31E
330
30F
100
AcDbEntity
  8
Defpoints
100
AcDbPoint
 10
53.85640646055102
 20
256.33
 30
0.0
  0
ENDBLK
  5
311
330
30F
100
AcDbEntity
  8
0
100
AcDbBlockEnd
  0
ENDSEC
  0
SECTION
  2
ENTITIES
  0
LWPOLYLINE
  5
9D
330
17
100
AcDbEntity
  8
BORDER
370
35
100
AcDbPolyline
 90
4
 70
1
 10
8.0
 20
8.0
 10
412.0
 20
8.0
 10
412.0
 20
586.0
 10
8.0
 20
586.0
  0
LWPOLYLINE
  5
9E
330
17
100
AcDbEntity
  8
BORDER
370
20
100
AcDbPolyline
 90
4
 70
1
 10
11.0
 20
11.0
 10
409.0
 20
11.0
 10
409.0
 20
583.0
 10
11.0
 20
583.0
  0
LWPOLYLINE
  5
9F
330
17
100
AcDbEntity
  8
BORDER
370
25
100
AcDbPolyline
 90
4
 70
1
 10
11.0
 20
568.0
 10
123.0
 20
568.0
 10
123.0
 20
581.0
 10
11.0
 20
581.0
  0
TEXT
  5
A0
330
17
100
AcDbEntity
  8
TITLE
100
AcDbText
 10
67.0
 20
571.8
 30
0.0
 40
3.75
  1
IF IN ANY DOUBT PLS ASK
  7
CRE_ARIAL_NARROW_BOLD
 72
1
 11
67.0
 21
571.8
 31
0.0
100
AcDbText
  0
LWPOLYLINE
  5
A1
330
17
100
AcDbEntity
  8
BORDER
370
25
100
AcDbPolyline
 90
4
 70
1
 10
309.0
 20
568.0
 10
409.0
 20
568.0
 10
409.0
 20
581.0
 10
309.0
 20
581.0
  0
TEXT
  5
A2
330
17
100
AcDbEntity
  8
TITLE
100
AcDbText
 10
359.0
 20
571.8
 30
0.0
 40
3.75
  1
DO NOT SCALE
  7
CRE_ARIAL_NARROW_BOLD
 72
1
 11
359.0
 21
571.8
 31
0.0
100
AcDbText
  0
LINE
  5
A3
330
17
100
AcDbEntity
  8
CENTER
370
20
100
AcDbLine
 10
40.0
 20
264.33
 30
0.0
 11
34.80384757729337
 21
267.33
 31
0.0
  0
LINE
  5
A4
330
17
100
AcDbEntity
  8
PIPE
370
53
100
AcDbLine
 10
40.0
 20
264.33
 30
0.0
 11
44.33012701892219
 21
261.83
 31
0.0
  0
LINE
  5
A5
330
17
100
AcDbEntity
  8
COMPONENT
370
35
100
AcDbLine
 10
41.117691453623976
 20
259.06589838486224
 30
0.0
 11
45.117691453623976
 21
265.9941016151377
 31
0.0
  0
LINE
  5
A6
330
17
100
AcDbEntity
  8
COMPONENT
370
35
100
AcDbLine
 10
43.542562584220406
 20
257.66589838486226
 30
0.0
 11
47.542562584220406
 21
264.59410161513773
 31
0.0
  0
LINE
  5
A7
330
17
100
AcDbEntity
  8
PIPE
370
53
100
AcDbLine
 10
44.33012701892219
 20
261.83
 30
0.0
 11
46.49519052838329
 21
260.58
 31
0.0
  0
LINE
  5
A8
330
17
100
AcDbEntity
  8
COMPONENT
370
35
100
AcDbLine
 10
48.24519052838329
 20
263.6110889132455
 30
0.0
 11
51.775317547305484
 21
259.7254482671904
 31
0.0
  0
LINE
  5
A9
330
17
100
AcDbEntity
  8
COMPONENT
370
35
100
AcDbLine
 10
44.74519052838329
 20
257.54891108675446
 30
0.0
 11
49.87531754730549
 21
256.43455173280955
 31
0.0
  0
LINE
  5
AA
330
17
100
AcDbEntity
  8
PIPE
370
53
100
AcDbLine
 10
46.49519052838329
 20
260.58
 30
0.0
 11
50.82531754730549
 21
258.08
 31
0.0
  0
LINE
  5
AB
330
17
100
AcDbEntity
  8
PIPE
370
53
100
AcDbLine
 10
50.82531754730549
 20
258.08
 30
0.0
 11
53.85640646055102
 21
256.33
 31
0.0
  0
LINE
  5
AC
330
17
100
AcDbEntity
  8
PIPE
370
53
100
AcDbLine
 10
53.85640646055102
 20
256.33
 30
0.0
 11
118.0
 21
293.3633209967908
 31
0.0
  0
CIRCLE
  5
AD
330
17
100
AcDbEntity
  8
COMPONENT
370
35
100
AcDbCircle
 10
118.0
 20
312.363
 30
0.0
 40
0.85
  0
CIRCLE
  5
AE
330
17
100
AcDbEntity
  8
COMPONENT
370
35
100
AcDbCircle
 10
118.0
 20
330.363
 30
0.0
 40
0.85
  0
LINE
  5
AF
330
17
100
AcDbEntity
  8
COMPONENT
370
35
100
AcDbLine
 10
117.48038475772934
 20
312.063
 30
0.0
 11
115.57512886940357
 21
311.463
 31
0.0
  0
LINE
  5
B0
330
17
100
AcDbEntity
  8
COMPONENT
370
35
100
AcDbLine
 10
118.51961524227066
 20
312.663
 30
0.0
 11
120.42487113059643
 21
314.263
 31
0.0
  0
LINE
  5
B1
330
17
100
AcDbEntity
  8
COMPONENT
370
35
100
AcDbLine
 10
117.48038475772934
 20
330.063
 30
0.0
 11
115.57512886940357
 21
328.463
 31
0.0
  0
LINE
  5
B2
330
17
100
AcDbEntity
  8
COMPONENT
370
35
100
AcDbLine
 10
118.51961524227066
 20
330.663
 30
0.0
 11
120.42487113059643
 21
331.263
 31
0.0
  0
LINE
  5
B3
330
17
100
AcDbEntity
  8
COMPONENT
370
35
100
AcDbLine
 10
115.2287187078898
 20
311.863
 30
0.0
 11
120.7712812921102
 21
315.06300000000005
 31
0.0
  0
LINE
  5
B4
330
17
100
AcDbEntity
  8
COMPONENT
370
35
100
AcDbLine
 10
115.2287187078898
 20
310.66299999999995
 30
0.0
 11
120.7712812921102
 21
313.863
 31
0.0
  0
LINE
  5
B5
330
17
100
AcDbEntity
  8
COMPONENT
370
35
100
AcDbLine
 10
115.2287187078898
 20
311.863
 30
0.0
 11
115.2287187078898
 21
310.66299999999995
 31
0.0
  0
LINE
  5
B6
330
17
100
AcDbEntity
  8
COMPONENT
370
35
100
AcDbLine
 10
120.7712812921102
 20
315.06300000000005
 30
0.0
 11
120.7712812921102
 21
313.863
 31
0.0
  0
LINE
  5
B7
330
17
100
AcDbEntity
  8
COMPONENT
370
35
100
AcDbLine
 10
115.2287187078898
 20
328.863
 30
0.0
 11
120.7712812921102
 21
332.06300000000005
 31
0.0
  0
LINE
  5
B8
330
17
100
AcDbEntity
  8
COMPONENT
370
35
100
AcDbLine
 10
115.2287187078898
 20
327.66299999999995
 30
0.0
 11
120.7712812921102
 21
330.863
 31
0.0
  0
LINE
  5
B9
330
17
100
AcDbEntity
  8
COMPONENT
370
35
100
AcDbLine
 10
115.2287187078898
 20
328.863
 30
0.0
 11
115.2287187078898
 21
327.66299999999995
 31
0.0
  0
LINE
  5
BA
330
17
100
AcDbEntity
  8
COMPONENT
370
35
100
AcDbLine
 10
120.7712812921102
 20
332.06300000000005
 30
0.0
 11
120.7712812921102
 21
330.863
 31
0.0
  0
LINE
  5
BB
330
17
100
AcDbEntity
  8
COMPONENT
370
35
100
AcDbLine
 10
116.09474411167423
 20
314.46299999999997
 30
0.0
 11
116.09474411167423
 21
326.063
 31
0.0
  0
LINE
  5
BC
330
17
100
AcDbEntity
  8
COMPONENT
370
35
100
AcDbLine
 10
119.90525588832577
 20
316.663
 30
0.0
 11
119.90525588832577
 21
328.26300000000003
 31
0.0
  0
LINE
  5
BD
330
17
100
AcDbEntity
  8
COMPONENT
370
35
100
AcDbLine
 10
116.09474411167423
 20
314.46299999999997
 30
0.0
 11
119.90525588832577
 21
316.663
 31
0.0
  0
LINE
  5
BE
330
17
100
AcDbEntity
  8
COMPONENT
370
35
100
AcDbLine
 10
116.09474411167423
 20
326.063
 30
0.0
 11
119.90525588832577
 21
328.26300000000003
 31
0.0
  0
LINE
  5
BF
330
17
100
AcDbEntity
  8
PIPE
370
53
100
AcDbLine
 10
118.0
 20
293.3633209967908
 30
0.0
 11
118.0
 21
312.363
 31
0.0
  0
LINE
  5
C0
330
17
100
AcDbEntity
  8
PIPE
370
53
100
AcDbLine
 10
118.0
 20
330.363
 30
0.0
 11
118.0
 21
423.0
 31
0.0
  0
LINE
  5
C1
330
17
100
AcDbEntity
  8
PIPE
370
53
100
AcDbLine
 10
118.0
 20
423.0
 30
0.0
 11
273.0
 21
512.4892917243919
 31
0.0
  0
LINE
  5
C2
330
17
100
AcDbEntity
  8
PIPE
370
53
100
AcDbLine
 10
273.0
 20
512.4892917243919
 30
0.0
 11
273.0
 21
433.163
 31
0.0
  0
LINE
  5
C3
330
17
100
AcDbEntity
  8
COMPONENT
370
35
100
AcDbLine
 10
317.2253866082107
 20
403.0106589832173
 30
0.0
 11
321.2253866082107
 21
409.93886221349277
 31
0.0
  0
LINE
  5
C4
330
17
100
AcDbEntity
  8
COMPONENT
370
35
100
AcDbLine
 10
319.65025773880717
 20
401.6106589832173
 30
0.0
 11
323.65025773880717
 21
408.5388622134928
 31
0.0
  0
LINE
  5
C5
330
17
100
AcDbEntity
  8
COMPONENT
370
35
100
AcDbLine
 10
329.34974226119283
 20
396.0106589832173
 30
0.0
 11
333.34974226119283
 21
402.93886221349277
 31
0.0
  0
LINE
  5
C6
330
17
100
AcDbEntity
  8
COMPONENT
370
35
100
AcDbLine
 10
331.7746133917893
 20
394.6106589832173
 30
0.0
 11
335.7746133917893
 21
401.5388622134928
 31
0.0
  0
LINE
  5
C7
330
17
100
AcDbEntity
  8
PIPE
370
53
100
AcDbLine
 10
320.43782217350895
 20
405.77476059835504
 30
0.0
 11
322.1698729810778
 21
404.77476059835504
 31
0.0
  0
LINE
  5
C8
330
17
100
AcDbEntity
  8
PIPE
370
53
100
AcDbLine
 10
330.8301270189222
 20
399.77476059835504
 30
0.0
 11
332.56217782649105
 21
398.77476059835504
 31
0.0
  0
LINE
  5
C9
330
17
100
AcDbEntity
  8
COMPONENT
370
35
100
AcDbLine
 10
322.1698729810778
 20
404.77476059835504
 30
0.0
 11
328.5
 21
405.7388622134928
 31
0.0
  0
LINE
  5
CA
330
17
100
AcDbEntity
  8
COMPONENT
370
35
100
AcDbLine
 10
328.5
 20
405.7388622134928
 30
0.0
 11
330.8301270189222
 21
399.77476059835504
 31
0.0
  0
LINE
  5
CB
330
17
100
AcDbEntity
  8
COMPONENT
370
35
100
AcDbLine
 10
330.8301270189222
 20
399.77476059835504
 30
0.0
 11
324.5
 21
398.8106589832173
 31
0.0
  0
LINE
  5
CC
330
17
100
AcDbEntity
  8
COMPONENT
370
35
100
AcDbLine
 10
324.5
 20
398.8106589832173
 30
0.0
 11
322.1698729810778
 21
404.77476059835504
 31
0.0
  0
CIRCLE
  5
CD
330
17
100
AcDbEntity
  8
COMPONENT
370
35
100
AcDbCircle
 10
326.5
 20
402.27476059835504
 30
0.0
 40
1.2
  0
LINE
  5
CE
330
17
100
AcDbEntity
  8
COMPONENT
370
35
100
AcDbLine
 10
326.5
 20
402.27476059835504
 30
0.0
 11
329.5
 21
407.4709130210617
 31
0.0
  0
CIRCLE
  5
CF
330
17
100
AcDbEntity
  8
COMPONENT
370
35
100
AcDbCircle
 10
329.5
 20
407.4709130210617
 30
0.0
 40
1.2
  0
LINE
  5
D0
330
17
100
AcDbEntity
  8
PIPE
370
53
100
AcDbLine
 10
273.0
 20
433.163
 30
0.0
 11
320.43782217350895
 21
405.77476059835504
 31
0.0
  0
LINE
  5
D1
330
17
100
AcDbEntity
  8
PIPE
370
53
100
AcDbLine
 10
332.56217782649105
 20
398.77476059835504
 30
0.0
 11
380.0
 21
371.3865211967101
 31
0.0
  0
LINE
  5
D2
330
17
100
AcDbEntity
  8
PIPE
370
53
100
AcDbLine
 10
380.0
 20
371.3865211967101
 30
0.0
 11
380.0
 21
386.3865211967101
 31
0.0
  0
TEXT
  5
D3
330
17
100
AcDbEntity
  8
LABEL
100
AcDbText
 10
380.0
 20
393.0
 30
0.0
 40
2.6
  1
CONT. FROM DRG 1
  7
CRE_ARIAL_NARROW_BOLD
 72
1
 11
380.0
 21
393.0
 31
0.0
100
AcDbText
  0
TEXT
  5
D4
330
17
100
AcDbEntity
  8
LABEL
100
AcDbText
 10
384.0
 20
379.0
 30
0.0
 40
2.35
  1
1"NS
 50
90.0
  7
CRE_ARIAL_NARROW_BOLD
 11
384.0
 21
379.0
 31
0.0
100
AcDbText
  0
LINE
  5
D5
330
17
100
AcDbEntity
  8
COMPONENT
370
35
100
AcDbLine
 10
269.53589838486226
 20
412.4
 30
0.0
 11
276.46410161513774
 21
416.4
 31
0.0
  0
LINE
  5
D6
330
17
100
AcDbEntity
  8
COMPONENT
370
35
100
AcDbLine
 10
269.53589838486226
 20
409.6
 30
0.0
 11
276.46410161513774
 21
413.6
 31
0.0
  0
LINE
  5
D7
330
17
100
AcDbEntity
  8
COMPONENT
370
35
100
AcDbLine
 10
269.53589838486226
 20
398.4
 30
0.0
 11
276.46410161513774
 21
402.4
 31
0.0
  0
LINE
  5
D8
330
17
100
AcDbEntity
  8
COMPONENT
370
35
100
AcDbLine
 10
269.53589838486226
 20
395.6
 30
0.0
 11
276.46410161513774
 21
399.6
 31
0.0
  0
LINE
  5
D9
330
17
100
AcDbEntity
  8
PIPE
370
53
100
AcDbLine
 10
273.0
 20
413.0
 30
0.0
 11
273.0
 21
411.0
 31
0.0
  0
LINE
  5
DA
330
17
100
AcDbEntity
  8
PIPE
370
53
100
AcDbLine
 10
273.0
 20
401.0
 30
0.0
 11
273.0
 21
399.0
 31
0.0
  0
LINE
  5
DB
330
17
100
AcDbEntity
  8
COMPONENT
370
35
100
AcDbLine
 10
273.0
 20
411.0
 30
0.0
 11
277.0
 21
406.0
 31
0.0
  0
LINE
  5
DC
330
17
100
AcDbEntity
  8
COMPONENT
370
35
100
AcDbLine
 10
277.0
 20
406.0
 30
0.0
 11
273.0
 21
401.0
 31
0.0
  0
LINE
  5
DD
330
17
100
AcDbEntity
  8
COMPONENT
370
35
100
AcDbLine
 10
273.0
 20
401.0
 30
0.0
 11
269.0
 21
406.0
 31
0.0
  0
LINE
  5
DE
330
17
100
AcDbEntity
  8
COMPONENT
370
35
100
AcDbLine
 10
269.0
 20
406.0
 30
0.0
 11
273.0
 21
411.0
 31
0.0
  0
CIRCLE
  5
DF
330
17
100
AcDbEntity
  8
COMPONENT
370
35
100
AcDbCircle
 10
273.0
 20
406.0
 30
0.0
 40
1.2
  0
LINE
  5
E0
330
17
100
AcDbEntity
  8
PIPE
370
53
100
AcDbLine
 10
273.0
 20
433.163
 30
0.0
 11
273.0
 21
413.0
 31
0.0
  0
LINE
  5
E1
330
17
100
AcDbEntity
  8
PIPE
370
53
100
AcDbLine
 10
273.0
 20
399.0
 30
0.0
 11
273.0
 21
360.583
 31
0.0
  0
LINE
  5
E2
330
17
100
AcDbEntity
  8
PIPE
370
53
100
AcDbLine
 10
273.0
 20
360.583
 30
0.0
 11
295.0
 21
347.8812940778283
 31
0.0
  0
CIRCLE
  5
E3
330
17
100
AcDbEntity
  8
COMPONENT
370
35
100
AcDbCircle
 10
313.5096189432334
 20
337.19476059835506
 30
0.0
 40
0.85
  0
CIRCLE
  5
E4
330
17
100
AcDbEntity
  8
COMPONENT
370
35
100
AcDbCircle
 10
339.4903810567666
 20
322.19476059835506
 30
0.0
 40
0.85
  0
LINE
  5
E5
330
17
100
AcDbEntity
  8
COMPONENT
370
35
100
AcDbLine
 10
313.2096189432334
 20
336.6751453560844
 30
0.0
 11
317.7387840678323
 21
331.5198894677586
 31
0.0
  0
LINE
  5
E6
330
17
100
AcDbEntity
  8
COMPONENT
370
35
100
AcDbLine
 10
313.80961894323343
 20
337.71437584062573
 30
0.0
 11
320.53878406783224
 21
336.3696317289515
 31
0.0
  0
LINE
  5
E7
330
17
100
AcDbEntity
  8
COMPONENT
370
35
100
AcDbLine
 10
339.19038105676657
 20
321.6751453560844
 30
0.0
 11
332.46121593216776
 21
323.0198894677586
 31
0.0
  0
LINE
  5
E8
330
17
100
AcDbEntity
  8
COMPONENT
370
35
100
AcDbLine
 10
339.7903810567666
 20
322.71437584062573
 30
0.0
 11
335.2612159321677
 21
327.8696317289515
 31
0.0
  0
LINE
  5
E9
330
17
100
AcDbEntity
  8
COMPONENT
370
35
100
AcDbLine
 10
318.0583993101029
 20
330.87347930624486
 30
0.0
 11
321.25839931010296
 21
336.41604189046524
 31
0.0
  0
LINE
  5
EA
330
17
100
AcDbEntity
  8
COMPONENT
370
35
100
AcDbLine
 10
317.01916882556156
 20
331.4734793062449
 30
0.0
 11
320.2191688255616
 21
337.01604189046526
 31
0.0
  0
LINE
  5
EB
330
17
100
AcDbEntity
  8
COMPONENT
370
35
100
AcDbLine
 10
318.0583993101029
 20
330.87347930624486
 30
0.0
 11
317.01916882556156
 21
331.4734793062449
 31
0.0
  0
LINE
  5
EC
330
17
100
AcDbEntity
  8
COMPONENT
370
35
100
AcDbLine
 10
321.25839931010296
 20
336.41604189046524
 30
0.0
 11
320.2191688255616
 21
337.01604189046526
 31
0.0
  0
LINE
  5
ED
330
17
100
AcDbEntity
  8
COMPONENT
370
35
100
AcDbLine
 10
332.7808311744384
 20
322.37347930624486
 30
0.0
 11
335.98083117443844
 21
327.91604189046524
 31
0.0
  0
LINE
  5
EE
330
17
100
AcDbEntity
  8
COMPONENT
370
35
100
AcDbLine
 10
331.74160068989704
 20
322.9734793062449
 30
0.0
 11
334.9416006898971
 21
328.51604189046526
 31
0.0
  0
LINE
  5
EF
330
17
100
AcDbEntity
  8
COMPONENT
370
35
100
AcDbLine
 10
332.7808311744384
 20
322.37347930624486
 30
0.0
 11
331.74160068989704
 21
322.9734793062449
 31
0.0
  0
LINE
  5
F0
330
17
100
AcDbEntity
  8
COMPONENT
370
35
100
AcDbLine
 10
335.98083117443844
 20
327.91604189046524
 30
0.0
 11
334.9416006898971
 21
328.51604189046526
 31
0.0
  0
LINE
  5
F1
330
17
100
AcDbEntity
  8
COMPONENT
370
35
100
AcDbLine
 10
320.3770526580502
 20
330.68950471002927
 30
0.0
 11
330.42294734194974
 21
324.8895047100293
 31
0.0
  0
LINE
  5
F2
330
17
100
AcDbEntity
  8
COMPONENT
370
35
100
AcDbLine
 10
322.57705265805026
 20
334.5000164866808
 30
0.0
 11
332.6229473419498
 21
328.70001648668085
 31
0.0
  0
LINE
  5
F3
330
17
100
AcDbEntity
  8
COMPONENT
370
35
100
AcDbLine
 10
320.3770526580502
 20
330.68950471002927
 30
0.0
 11
322.57705265805026
 21
334.5000164866808
 31
0.0
  0
LINE
  5
F4
330
17
100
AcDbEntity
  8
COMPONENT
370
35
100
AcDbLine
 10
330.42294734194974
 20
324.8895047100293
 30
0.0
 11
332.6229473419498
 21
328.70001648668085
 31
0.0
  0
LINE
  5
F5
330
17
100
AcDbEntity
  8
PIPE
370
53
100
AcDbLine
 10
295.0
 20
347.8812940778283
 30
0.0
 11
313.5096189432334
 21
337.19476059835506
 31
0.0
  0
LINE
  5
F6
330
17
100
AcDbEntity
  8
PIPE
370
53
100
AcDbLine
 10
339.4903810567666
 20
322.19476059835506
 30
0.0
 11
358.0
 21
311.50822711888185
 31
0.0
  0
LINE
  5
F7
330
17
100
AcDbEntity
  8
COMPONENT
370
35
100
AcDbLine
 10
376.53589838486226
 20
324.696
 30
0.0
 11
383.46410161513774
 21
328.696
 31
0.0
  0
LINE
  5
F8
330
17
100
AcDbEntity
  8
COMPONENT
370
35
100
AcDbLine
 10
376.53589838486226
 20
327.496
 30
0.0
 11
383.46410161513774
 21
331.496
 31
0.0
  0
LINE
  5
F9
330
17
100
AcDbEntity
  8
COMPONENT
370
35
100
AcDbLine
 10
376.53589838486226
 20
338.696
 30
0.0
 11
383.46410161513774
 21
342.696
 31
0.0
  0
LINE
  5
FA
330
17
100
AcDbEntity
  8
COMPONENT
370
35
100
AcDbLine
 10
376.53589838486226
 20
341.496
 30
0.0
 11
383.46410161513774
 21
345.496
 31
0.0
  0
LINE
  5
FB
330
17
100
AcDbEntity
  8
PIPE
370
53
100
AcDbLine
 10
380.0
 20
328.096
 30
0.0
 11
380.0
 21
330.096
 31
0.0
  0
LINE
  5
FC
330
17
100
AcDbEntity
  8
PIPE
370
53
100
AcDbLine
 10
380.0
 20
340.096
 30
0.0
 11
380.0
 21
342.096
 31
0.0
  0
LINE
  5
FD
330
17
100
AcDbEntity
  8
COMPONENT
370
35
100
AcDbLine
 10
380.0
 20
330.096
 30
0.0
 11
376.0
 21
335.096
 31
0.0
  0
LINE
  5
FE
330
17
100
AcDbEntity
  8
COMPONENT
370
35
100
AcDbLine
 10
376.0
 20
335.096
 30
0.0
 11
380.0
 21
340.096
 31
0.0
  0
LINE
  5
FF
330
17
100
AcDbEntity
  8
COMPONENT
370
35
100
AcDbLine
 10
380.0
 20
340.096
 30
0.0
 11
384.0
 21
335.096
 31
0.0
  0
LINE
  5
100
330
17
100
AcDbEntity
  8
COMPONENT
370
35
100
AcDbLine
 10
384.0
 20
335.096
 30
0.0
 11
380.0
 21
330.096
 31
0.0
  0
CIRCLE
  5
101
330
17
100
AcDbEntity
  8
COMPONENT
370
35
100
AcDbCircle
 10
380.0
 20
335.096
 30
0.0
 40
1.2
  0
LINE
  5
102
330
17
100
AcDbEntity
  8
PIPE
370
53
100
AcDbLine
 10
358.0
 20
311.50822711888185
 30
0.0
 11
380.0
 21
298.8065211967101
 31
0.0
  0
LINE
  5
103
330
17
100
AcDbEntity
  8
PIPE
370
53
100
AcDbLine
 10
380.0
 20
298.8065211967101
 30
0.0
 11
380.0
 21
328.096
 31
0.0
  0
LINE
  5
104
330
17
100
AcDbEntity
  8
PIPE
370
53
100
AcDbLine
 10
380.0
 20
342.096
 30
0.0
 11
380.0
 21
371.3865211967101
 31
0.0
  0
LINE
  5
105
330
17
100
AcDbEntity
  8
PIPE
370
53
100
AcDbLine
 10
295.0
 20
347.8812940778283
 30
0.0
 11
295.0
 21
335.0
 31
0.0
  0
LINE
  5
106
330
17
100
AcDbEntity
  8
COMPONENT
370
35
100
AcDbLine
 10
291.53589838486226
 20
334.4
 30
0.0
 11
298.46410161513774
 21
338.4
 31
0.0
  0
LINE
  5
107
330
17
100
AcDbEntity
  8
COMPONENT
370
35
100
AcDbLine
 10
291.53589838486226
 20
331.6
 30
0.0
 11
298.46410161513774
 21
335.6
 31
0.0
  0
LINE
  5
108
330
17
100
AcDbEntity
  8
PIPE
370
53
100
AcDbLine
 10
295.0
 20
335.0
 30
0.0
 11
295.0
 21
333.0
 31
0.0
  0
LINE
  5
109
330
17
100
AcDbEntity
  8
COMPONENT
370
35
100
AcDbLine
 10
295.0
 20
333.0
 30
0.0
 11
299.0
 21
328.0
 31
0.0
  0
LINE
  5
10A
330
17
100
AcDbEntity
  8
COMPONENT
370
35
100
AcDbLine
 10
299.0
 20
328.0
 30
0.0
 11
295.0
 21
323.0
 31
0.0
  0
LINE
  5
10B
330
17
100
AcDbEntity
  8
COMPONENT
370
35
100
AcDbLine
 10
295.0
 20
323.0
 30
0.0
 11
291.0
 21
328.0
 31
0.0
  0
LINE
  5
10C
330
17
100
AcDbEntity
  8
COMPONENT
370
35
100
AcDbLine
 10
291.0
 20
328.0
 30
0.0
 11
295.0
 21
333.0
 31
0.0
  0
CIRCLE
  5
10D
330
17
100
AcDbEntity
  8
COMPONENT
370
35
100
AcDbCircle
 10
295.0
 20
328.0
 30
0.0
 40
1.2
  0
LINE
  5
10E
330
17
100
AcDbEntity
  8
PIPE
370
53
100
AcDbLine
 10
295.0
 20
323.0
 30
0.0
 11
295.0
 21
321.0
 31
0.0
  0
LINE
  5
10F
330
17
100
AcDbEntity
  8
COMPONENT
370
35
100
AcDbLine
 10
291.53589838486226
 20
320.4
 30
0.0
 11
298.46410161513774
 21
324.4
 31
0.0
  0
LINE
  5
110
330
17
100
AcDbEntity
  8
COMPONENT
370
35
100
AcDbLine
 10
291.53589838486226
 20
317.6
 30
0.0
 11
298.46410161513774
 21
321.6
 31
0.0
  0
LINE
  5
111
330
17
100
AcDbEntity
  8
COMPONENT
370
35
100
AcDbLine
 10
290.8
 20
319.2
 30
0.0
 11
299.2
 21
319.2
 31
0.0
  0
LINE
  5
112
330
17
100
AcDbEntity
  8
PIPE
370
53
100
AcDbLine
 10
358.0
 20
311.50822711888185
 30
0.0
 11
358.0
 21
298.5
 31
0.0
  0
LINE
  5
113
330
17
100
AcDbEntity
  8
COMPONENT
370
35
100
AcDbLine
 10
354.53589838486226
 20
297.9
 30
0.0
 11
361.46410161513774
 21
301.9
 31
0.0
  0
LINE
  5
114
330
17
100
AcDbEntity
  8
COMPONENT
370
35
100
AcDbLine
 10
354.53589838486226
 20
295.1
 30
0.0
 11
361.46410161513774
 21
299.1
 31
0.0
  0
LINE
  5
115
330
17
100
AcDbEntity
  8
PIPE
370
53
100
AcDbLine
 10
358.0
 20
298.5
 30
0.0
 11
358.0
 21
296.5
 31
0.0
  0
LINE
  5
116
330
17
100
AcDbEntity
  8
COMPONENT
370
35
100
AcDbLine
 10
358.0
 20
296.5
 30
0.0
 11
362.0
 21
291.5
 31
0.0
  0
LINE
  5
117
330
17
100
AcDbEntity
  8
COMPONENT
370
35
100
AcDbLine
 10
362.0
 20
291.5
 30
0.0
 11
358.0
 21
286.5
 31
0.0
  0
LINE
  5
118
330
17
100
AcDbEntity
  8
COMPONENT
370
35
100
AcDbLine
 10
358.0
 20
286.5
 30
0.0
 11
354.0
 21
291.5
 31
0.0
  0
LINE
  5
119
330
17
100
AcDbEntity
  8
COMPONENT
370
35
100
AcDbLine
 10
354.0
 20
291.5
 30
0.0
 11
358.0
 21
296.5
 31
0.0
  0
CIRCLE
  5
11A
330
17
100
AcDbEntity
  8
COMPONENT
370
35
100
AcDbCircle
 10
358.0
 20
291.5
 30
0.0
 40
1.2
  0
LINE
  5
11B
330
17
100
AcDbEntity
  8
PIPE
370
53
100
AcDbLine
 10
358.0
 20
286.5
 30
0.0
 11
358.0
 21
284.5
 31
0.0
  0
LINE
  5
11C
330
17
100
AcDbEntity
  8
COMPONENT
370
35
100
AcDbLine
 10
354.53589838486226
 20
283.9
 30
0.0
 11
361.46410161513774
 21
287.9
 31
0.0
  0
LINE
  5
11D
330
17
100
AcDbEntity
  8
COMPONENT
370
35
100
AcDbLine
 10
354.53589838486226
 20
281.1
 30
0.0
 11
361.46410161513774
 21
285.1
 31
0.0
  0
LINE
  5
11E
330
17
100
AcDbEntity
  8
COMPONENT
370
35
100
AcDbLine
 10
353.8
 20
282.7
 30
0.0
 11
362.2
 21
282.7
 31
0.0
  0
DIMENSION
  5
11F
330
17
100
AcDbEntity
  8
DIM
370
20
100
AcDbDimension
280
0
  2
*D1
  3
CRE_PTFE_DIM
 10
41.856406460551035
 20
256.33
 30
0.0
 11
72.98320323027554
 21
276.483448511548
 31
0.0
 70
32
 71
5
  1
167
 52
150.0
100
AcDbAlignedDimension
 13
53.85640646055102
 23
256.33
 33
0.0
 14
118.0
 24
293.3633209967908
 34
0.0
 50
29.999999999999993
100
AcDbRotatedDimension
1001
ACAD
1000
DSTYLE
1002
{
1070
176
1070
2
1070
177
1070
2
1070
178
1070
2
1070
340
1005
9B
1002
}
  0
DIMENSION
  5
12E
330
17
100
AcDbEntity
  8
DIM
370
20
100
AcDbDimension
280
0
  2
*D2
  3
CRE_PTFE_DIM
 10
31.856406460550982
 20
256.33
 30
0.0
 11
62.98320323027547
 21
276.483448511548
 31
0.0
 70
32
 71
5
  1
243
 52
150.0
100
AcDbAlignedDimension
 13
53.85640646055102
 23
256.33
 33
0.0
 14
118.0
 24
293.3633209967908
 34
0.0
 50
29.999999999999993
100
AcDbRotatedDimension
1001
ACAD
1000
DSTYLE
1002
{
1070
176
1070
2
1070
177
1070
2
1070
178
1070
2
1070
340
1005
9B
1002
}
  0
DIMENSION
  5
13D
330
17
100
AcDbEntity
  8
DIM
370
20
100
AcDbDimension
280
0
  2
*D3
  3
CRE_PTFE_DIM
 10
111.0
 20
342.48735565298216
 30
0.0
 11
109.11
 21
388.80585565298213
 31
0.0
 70
32
 71
5
  1
576
 52
30.0
100
AcDbAlignedDimension
 13
118.0
 23
330.363
 33
0.0
 14
118.0
 24
423.0
 34
0.0
 50
90.0
100
AcDbRotatedDimension
1001
ACAD
1000
DSTYLE
1002
{
1070
176
1070
2
1070
177
1070
2
1070
178
1070
2
1070
340
1005
9B
1002
}
  0
DIMENSION
  5
14C
330
17
100
AcDbEntity
  8
DIM
370
20
100
AcDbDimension
280
0
  2
*D4
  3
CRE_PTFE_DIM
 10
105.0
 20
352.8796604983954
 30
0.0
 11
103.11
 21
399.1981604983954
 31
0.0
 70
32
 71
5
  1
669
 52
30.0
100
AcDbAlignedDimension
 13
118.0
 23
330.363
 33
0.0
 14
118.0
 24
423.0
 34
0.0
 50
90.0
100
AcDbRotatedDimension
1001
ACAD
1000
DSTYLE
1002
{
1070
176
1070
2
1070
177
1070
2
1070
178
1070
2
1070
340
1005
9B
1002
}
  0
DIMENSION
  5
15B
330
17
100
AcDbEntity
  8
DIM
370
20
100
AcDbDimension
280
0
  2
*D5
  3
CRE_PTFE_DIM
 10
103.99999999999999
 20
423.0
 30
0.0
 11
180.555
 21
469.38143387534853
 31
0.0
 70
32
 71
5
  1
2576
 52
150.0
100
AcDbAlignedDimension
 13
118.0
 23
423.0
 33
0.0
 14
273.0
 24
512.4892917243919
 34
0.0
 50
29.999999999999986
100
AcDbRotatedDimension
1001
ACAD
1000
DSTYLE
1002
{
1070
176
1070
2
1070
177
1070
2
1070
178
1070
2
1070
340
1005
9B
1002
}
  0
DIMENSION
  5
16A
330
17
100
AcDbEntity
  8
DIM
370
20
100
AcDbDimension
280
0
  2
*D6
  3
CRE_PTFE_DIM
 10
92.00000000000006
 20
423.0
 30
0.0
 11
168.55500000000006
 21
469.38143387534853
 31
0.0
 70
32
 71
5
  1
2652
 52
150.0
100
AcDbAlignedDimension
 13
118.0
 23
423.0
 33
0.0
 14
273.0
 24
512.4892917243919
 34
0.0
 50
29.999999999999986
100
AcDbRotatedDimension
1001
ACAD
1000
DSTYLE
1002
{
1070
176
1070
2
1070
177
1070
2
1070
178
1070
2
1070
340
1005
9B
1002
}
  0
DIMENSION
  5
179
330
17
100
AcDbEntity
  8
DIM
370
20
100
AcDbDimension
280
0
  2
*D7
  3
CRE_PTFE_DIM
 10
266.0
 20
524.613647377374
 30
0.0
 11
267.89
 21
484.9505015151781
 31
0.0
 70
32
 71
5
  1
857
 52
30.0
100
AcDbAlignedDimension
 13
273.0
 23
512.4892917243919
 33
0.0
 14
273.0
 24
433.163
 34
0.0
 50
-90.0
100
AcDbRotatedDimension
1001
ACAD
1000
DSTYLE
1002
{
1070
176
1070
2
1070
177
1070
2
1070
178
1070
2
1070
340
1005
9B
1002
}
  0
DIMENSION
  5
188
330
17
100
AcDbEntity
  8
DIM
370
20
100
AcDbDimension
280
0
  2
*D8
  3
CRE_PTFE_DIM
 10
260.0
 20
535.0059522227873
 30
0.0
 11
261.89
 21
495.34280636059134
 31
0.0
 70
32
 71
5
  1
933
 52
30.0
100
AcDbAlignedDimension
 13
273.0
 23
512.4892917243919
 33
0.0
 14
273.0
 24
433.163
 34
0.0
 50
-90.0
100
AcDbRotatedDimension
1001
ACAD
1000
DSTYLE
1002
{
1070
176
1070
2
1070
177
1070
2
1070
178
1070
2
1070
340
1005
9B
1002
}
  0
DIMENSION
  5
197
330
17
100
AcDbEntity
  8
DIM
370
20
100
AcDbDimension
280
0
  2
*D9
  3
CRE_PTFE_DIM
 10
284.99999999999994
 20
433.163
 30
0.0
 11
309.6639110867544
 21
421.10566831233007
 31
0.0
 70
32
 71
5
  1
625
 52
30.0
100
AcDbAlignedDimension
 13
273.0
 23
433.163
 33
0.0
 14
320.43782217350895
 24
405.77476059835504
 34
0.0
 50
-29.99999999999998
100
AcDbRotatedDimension
1001
ACAD
1000
DSTYLE
1002
{
1070
176
1070
2
1070
177
1070
2
1070
178
1070
2
1070
340
1005
9B
1002
}
  0
DIMENSION
  5
1A6
330
17
100
AcDbEntity
  8
DIM
370
20
100
AcDbDimension
280
0
  2
*D10
  3
CRE_PTFE_DIM
 10
294.99999999999994
 20
433.163
 30
0.0
 11
319.6639110867544
 21
421.10566831233007
 31
0.0
 70
32
 71
5
  1
719
 52
30.0
100
AcDbAlignedDimension
 13
273.0
 23
433.163
 33
0.0
 14
320.43782217350895
 24
405.77476059835504
 34
0.0
 50
-29.99999999999998
100
AcDbRotatedDimension
1001
ACAD
1000
DSTYLE
1002
{
1070
176
1070
2
1070
177
1070
2
1070
178
1070
2
1070
340
1005
9B
1002
}
  0
DIMENSION
  5
1B5
330
17
100
AcDbEntity
  8
DIM
370
20
100
AcDbDimension
280
0
  2
*D11
  3
CRE_PTFE_DIM
 10
266.0
 20
445.28735565298217
 30
0.0
 11
267.89
 21
435.20585565298217
 31
0.0
 70
32
 71
5
  1
100
 52
30.0
100
AcDbAlignedDimension
 13
273.0
 23
433.163
 33
0.0
 14
273.0
 24
413.0
 34
0.0
 50
-90.0
100
AcDbRotatedDimension
1001
ACAD
1000
DSTYLE
1002
{
1070
176
1070
2
1070
177
1070
2
1070
178
1070
2
1070
340
1005
9B
1002
}
  0
DIMENSION
  5
1C4
330
17
100
AcDbEntity
  8
DIM
370
20
100
AcDbDimension
280
0
  2
*D12
  3
CRE_PTFE_DIM
 10
260.0
 20
455.67966049839544
 30
0.0
 11
261.89
 21
445.59816049839543
 31
0.0
 70
32
 71
5
  1
194
 52
30.0
100
AcDbAlignedDimension
 13
273.0
 23
433.163
 33
0.0
 14
273.0
 24
413.0
 34
0.0
 50
-90.0
100
AcDbRotatedDimension
1001
ACAD
1000
DSTYLE
1002
{
1070
176
1070
2
1070
177
1070
2
1070
178
1070
2
1070
340
1005
9B
1002
}
  0
DIMENSION
  5
1D3
330
17
100
AcDbEntity
  8
DIM
370
20
100
AcDbDimension
280
0
  2
*D13
  3
CRE_PTFE_DIM
 10
373.0
 20
354.2203556529821
 30
0.0
 11
371.11
 21
368.86561625133714
 31
0.0
 70
32
 71
5
  1
100
 52
30.0
100
AcDbAlignedDimension
 13
380.0
 23
342.096
 33
0.0
 14
380.0
 24
371.3865211967101
 34
0.0
 50
90.0
100
AcDbRotatedDimension
1001
ACAD
1000
DSTYLE
1002
{
1070
176
1070
2
1070
177
1070
2
1070
178
1070
2
1070
340
1005
9B
1002
}
  0
DIMENSION
  5
1E2
330
17
100
AcDbEntity
  8
DIM
370
20
100
AcDbDimension
280
0
  2
*D14
  3
CRE_PTFE_DIM
 10
367.0
 20
364.61266049839537
 30
0.0
 11
365.11
 21
379.2579210967504
 31
0.0
 70
32
 71
5
  1
194
 52
30.0
100
AcDbAlignedDimension
 13
380.0
 23
342.096
 33
0.0
 14
380.0
 24
371.3865211967101
 34
0.0
 50
90.0
100
AcDbRotatedDimension
1001
ACAD
1000
DSTYLE
1002
{
1070
176
1070
2
1070
177
1070
2
1070
178
1070
2
1070
340
1005
9B
1002
}
  0
DIMENSION
  5
1F1
330
17
100
AcDbEntity
  8
DIM
370
20
100
AcDbDimension
280
0
  2
*D15
  3
CRE_PTFE_DIM
 10
111.0
 20
324.48735565298216
 30
0.0
 11
109.11
 21
333.48735565298216
 31
0.0
 70
32
 71
5
  1
300
 52
30.0
100
AcDbAlignedDimension
 13
118.0
 23
312.363
 33
0.0
 14
118.0
 24
330.363
 34
0.0
 50
90.0
100
AcDbRotatedDimension
1001
ACAD
1000
DSTYLE
1002
{
1070
176
1070
2
1070
177
1070
2
1070
178
1070
2
1070
340
1005
9B
1002
}
  0
DIMENSION
  5
200
330
17
100
AcDbEntity
  8
DIM
370
20
100
AcDbDimension
280
0
  2
*D16
  3
CRE_PTFE_DIM
 10
306.437822173509
 20
405.77476059835504
 30
0.0
 11
313.44500000000005
 21
403.9115486115076
 31
0.0
 70
32
 71
5
  1
127
 52
30.0
100
AcDbAlignedDimension
 13
320.43782217350895
 23
405.77476059835504
 33
0.0
 14
332.56217782649105
 24
398.77476059835504
 34
0.0
 50
-30.00000000000008
100
AcDbRotatedDimension
1001
ACAD
1000
DSTYLE
1002
{
1070
176
1070
2
1070
177
1070
2
1070
178
1070
2
1070
340
1005
9B
1002
}
  0
DIMENSION
  5
20F
330
17
100
AcDbEntity
  8
DIM
370
20
100
AcDbDimension
280
0
  2
*D17
  3
CRE_PTFE_DIM
 10
342.5621778264911
 20
398.77476059835504
 30
0.0
 11
367.2260889132456
 21
386.71742891068516
 31
0.0
 70
32
 71
5
  1
94
 52
30.0
100
AcDbAlignedDimension
 13
332.56217782649105
 23
398.77476059835504
 33
0.0
 14
380.0
 24
371.3865211967101
 34
0.0
 50
-29.99999999999998
100
AcDbRotatedDimension
1001
ACAD
1000
DSTYLE
1002
{
1070
176
1070
2
1070
177
1070
2
1070
178
1070
2
1070
340
1005
9B
1002
}
  0
DIMENSION
  5
21E
330
17
100
AcDbEntity
  8
DIM
370
20
100
AcDbDimension
280
0
  2
*D18
  3
CRE_PTFE_DIM
 10
374.0
 20
381.77882604212334
 30
0.0
 11
372.11
 21
389.27882604212334
 31
0.0
 70
32
 71
5
  1
38
 52
30.0
100
AcDbAlignedDimension
 13
380.0
 23
371.3865211967101
 33
0.0
 14
380.0
 24
386.3865211967101
 34
0.0
 50
90.0
100
AcDbRotatedDimension
1001
ACAD
1000
DSTYLE
1002
{
1070
176
1070
2
1070
177
1070
2
1070
178
1070
2
1070
340
1005
9B
1002
}
  0
DIMENSION
  5
22D
330
17
100
AcDbEntity
  8
DIM
370
20
100
AcDbDimension
280
0
  2
*D19
  3
CRE_PTFE_DIM
 10
280.0
 20
400.8756443470179
 30
0.0
 11
281.89
 21
393.8756443470179
 31
0.0
 70
32
 71
5
  1
128
 52
30.0
100
AcDbAlignedDimension
 13
273.0
 23
413.0
 33
0.0
 14
273.0
 24
399.0
 34
0.0
 50
-90.0
100
AcDbRotatedDimension
1001
ACAD
1000
DSTYLE
1002
{
1070
176
1070
2
1070
177
1070
2
1070
178
1070
2
1070
340
1005
9B
1002
}
  0
DIMENSION
  5
23C
330
17
100
AcDbEntity
  8
DIM
370
20
100
AcDbDimension
280
0
  2
*D20
  3
CRE_PTFE_DIM
 10
387.0
 20
315.9716443470178
 30
0.0
 11
385.11
 21
322.9716443470178
 31
0.0
 70
32
 71
5
  1
128
 52
30.0
100
AcDbAlignedDimension
 13
380.0
 23
328.096
 33
0.0
 14
380.0
 24
342.096
 34
0.0
 50
90.0
100
AcDbRotatedDimension
1001
ACAD
1000
DSTYLE
1002
{
1070
176
1070
2
1070
177
1070
2
1070
178
1070
2
1070
340
1005
9B
1002
}
  0
DIMENSION
  5
24B
330
17
100
AcDbEntity
  8
DIM
370
20
100
AcDbDimension
280
0
  2
*D21
  3
CRE_PTFE_DIM
 10
305.0
 20
347.8812940778283
 30
0.0
 11
315.1998094716167
 21
344.1748153512442
 31
0.0
 70
32
 71
5
  1
94
 52
30.0
100
AcDbAlignedDimension
 13
295.0
 23
347.8812940778283
 33
0.0
 14
313.5096189432334
 24
337.19476059835506
 34
0.0
 50
-30.000000000000004
100
AcDbRotatedDimension
1001
ACAD
1000
DSTYLE
1002
{
1070
176
1070
2
1070
177
1070
2
1070
178
1070
2
1070
340
1005
9B
1002
}
  0
DIMENSION
  5
25A
330
17
100
AcDbEntity
  8
DIM
370
20
100
AcDbDimension
280
0
  2
*D22
  3
CRE_PTFE_DIM
 10
325.5096189432335
 20
337.19476059835506
 30
0.0
 11
339.44500000000005
 21
331.3315486115076
 31
0.0
 70
32
 71
5
  1
600
 52
30.0
100
AcDbAlignedDimension
 13
313.5096189432334
 23
337.19476059835506
 33
0.0
 14
339.4903810567666
 24
322.19476059835506
 34
0.0
 50
-29.999999999999996
100
AcDbRotatedDimension
1001
ACAD
1000
DSTYLE
1002
{
1070
176
1070
2
1070
177
1070
2
1070
178
1070
2
1070
340
1005
9B
1002
}
  0
DIMENSION
  5
269
330
17
100
AcDbEntity
  8
DIM
370
20
100
AcDbDimension
280
0
  2
*D23
  3
CRE_PTFE_DIM
 10
349.4903810567666
 20
322.19476059835506
 30
0.0
 11
359.6901905283833
 21
318.48828187177105
 31
0.0
 70
32
 71
5
  1
94
 52
30.0
100
AcDbAlignedDimension
 13
339.4903810567666
 23
322.19476059835506
 33
0.0
 14
358.0
 24
311.50822711888185
 34
0.0
 50
-30.000000000000004
100
AcDbRotatedDimension
1001
ACAD
1000
DSTYLE
1002
{
1070
176
1070
2
1070
177
1070
2
1070
178
1070
2
1070
340
1005
9B
1002
}
  0
DIMENSION
  5
278
330
17
100
AcDbEntity
  8
DIM
370
20
100
AcDbDimension
280
0
  2
*D24
  3
CRE_PTFE_DIM
 10
280.0
 20
386.8756443470179
 30
0.0
 11
281.89
 21
367.6671443470179
 31
0.0
 70
32
 71
5
  1
93
 52
30.0
100
AcDbAlignedDimension
 13
273.0
 23
399.0
 33
0.0
 14
273.0
 24
360.583
 34
0.0
 50
-90.0
100
AcDbRotatedDimension
1001
ACAD
1000
DSTYLE
1002
{
1070
176
1070
2
1070
177
1070
2
1070
178
1070
2
1070
340
1005
9B
1002
}
  0
DIMENSION
  5
287
330
17
100
AcDbEntity
  8
DIM
370
20
100
AcDbDimension
280
0
  2
*D25
  3
CRE_PTFE_DIM
 10
263.0
 20
360.583
 30
0.0
 11
274.945
 21
355.8689350520667
 31
0.0
 70
32
 71
5
  1
76
 52
30.0
100
AcDbAlignedDimension
 13
273.0
 23
360.583
 33
0.0
 14
295.0
 24
347.8812940778283
 34
0.0
 50
-29.99999999999998
100
AcDbRotatedDimension
1001
ACAD
1000
DSTYLE
1002
{
1070
176
1070
2
1070
177
1070
2
1070
178
1070
2
1070
340
1005
9B
1002
}
  0
DIMENSION
  5
296
330
17
100
AcDbEntity
  8
DIM
370
20
100
AcDbDimension
280
0
  2
*D26
  3
CRE_PTFE_DIM
 10
347.9999999999999
 20
311.50822711888185
 30
0.0
 11
359.9449999999999
 21
306.79416217094854
 31
0.0
 70
32
 71
5
  1
76
 52
30.0
100
AcDbAlignedDimension
 13
358.0
 23
311.50822711888185
 33
0.0
 14
380.0
 24
298.8065211967101
 34
0.0
 50
-29.99999999999998
100
AcDbRotatedDimension
1001
ACAD
1000
DSTYLE
1002
{
1070
176
1070
2
1070
177
1070
2
1070
178
1070
2
1070
340
1005
9B
1002
}
  0
DIMENSION
  5
2A5
330
17
100
AcDbEntity
  8
DIM
370
20
100
AcDbDimension
280
0
  2
*D27
  3
CRE_PTFE_DIM
 10
387.0
 20
286.68216554372793
 30
0.0
 11
385.11
 21
301.32690494537286
 31
0.0
 70
32
 71
5
  1
94
 52
30.0
100
AcDbAlignedDimension
 13
380.0
 23
298.8065211967101
 33
0.0
 14
380.0
 24
328.096
 34
0.0
 50
90.0
100
AcDbRotatedDimension
1001
ACAD
1000
DSTYLE
1002
{
1070
176
1070
2
1070
177
1070
2
1070
178
1070
2
1070
340
1005
9B
1002
}
  0
DIMENSION
  5
2B4
330
17
100
AcDbEntity
  8
DIM
370
20
100
AcDbDimension
280
0
  2
*D28
  3
CRE_PTFE_DIM
 10
289.0
 20
358.2735989232416
 30
0.0
 11
290.89
 21
351.83295188432743
 31
0.0
 70
32
 71
5
  1
90
 52
30.0
100
AcDbAlignedDimension
 13
295.0
 23
347.8812940778283
 33
0.0
 14
295.0
 24
335.0
 34
0.0
 50
-90.0
100
AcDbRotatedDimension
1001
ACAD
1000
DSTYLE
1002
{
1070
176
1070
2
1070
177
1070
2
1070
178
1070
2
1070
340
1005
9B
1002
}
  0
DIMENSION
  5
2C3
330
17
100
AcDbEntity
  8
DIM
370
20
100
AcDbDimension
280
0
  2
*D29
  3
CRE_PTFE_DIM
 10
289.0
 20
345.39230484541326
 30
0.0
 11
290.89
 21
338.39230484541326
 31
0.0
 70
32
 71
5
  1
118
 52
30.0
100
AcDbAlignedDimension
 13
295.0
 23
335.0
 33
0.0
 14
295.0
 24
321.0
 34
0.0
 50
-90.0
100
AcDbRotatedDimension
1001
ACAD
1000
DSTYLE
1002
{
1070
176
1070
2
1070
177
1070
2
1070
178
1070
2
1070
340
1005
9B
1002
}
  0
DIMENSION
  5
2D2
330
17
100
AcDbEntity
  8
DIM
370
20
100
AcDbDimension
280
0
  2
*D30
  3
CRE_PTFE_DIM
 10
352.0
 20
321.90053196429494
 30
0.0
 11
353.89
 21
315.39641840485405
 31
0.0
 70
32
 71
5
  1
90
 52
30.0
100
AcDbAlignedDimension
 13
358.0
 23
311.50822711888185
 33
0.0
 14
358.0
 24
298.5
 34
0.0
 50
-90.0
100
AcDbRotatedDimension
1001
ACAD
1000
DSTYLE
1002
{
1070
176
1070
2
1070
177
1070
2
1070
178
1070
2
1070
340
1005
9B
1002
}
  0
DIMENSION
  5
2E1
330
17
100
AcDbEntity
  8
DIM
370
20
100
AcDbDimension
280
0
  2
*D31
  3
CRE_PTFE_DIM
 10
352.0
 20
308.89230484541315
 30
0.0
 11
353.89
 21
301.89230484541315
 31
0.0
 70
32
 71
5
  1
118
 52
30.0
100
AcDbAlignedDimension
 13
358.0
 23
298.5
 33
0.0
 14
358.0
 24
284.5
 34
0.0
 50
-90.0
100
AcDbRotatedDimension
1001
ACAD
1000
DSTYLE
1002
{
1070
176
1070
2
1070
177
1070
2
1070
178
1070
2
1070
340
1005
9B
1002
}
  0
DIMENSION
  5
2F0
330
17
100
AcDbEntity
  8
DIM
370
20
100
AcDbDimension
280
0
  2
*D32
  3
CRE_PTFE_DIM
 10
26.00000000000006
 20
264.33
 30
0.0
 11
33.87320323027557
 21
261.96678801315255
 31
0.0
 70
32
 71
5
  1
125
 52
30.0
100
AcDbAlignedDimension
 13
40.0
 23
264.33
 33
0.0
 14
53.85640646055102
 24
256.33
 34
0.0
 50
-29.999999999999996
100
AcDbRotatedDimension
1001
ACAD
1000
DSTYLE
1002
{
1070
176
1070
2
1070
177
1070
2
1070
178
1070
2
1070
340
1005
9B
1002
}
  0
DIMENSION
  5
2FF
330
17
100
AcDbEntity
  8
DIM
370
20
100
AcDbDimension
280
0
  2
*D33
  3
CRE_PTFE_DIM
 10
125.0
 20
281.2389653438086
 30
0.0
 11
123.11
 21
290.73880484541326
 31
0.0
 70
32
 71
5
  1
94
 52
30.0
100
AcDbAlignedDimension
 13
118.0
 23
293.3633209967908
 33
0.0
 14
118.0
 24
312.363
 34
0.0
 50
90.0
100
AcDbRotatedDimension
1001
ACAD
1000
DSTYLE
1002
{
1070
176
1070
2
1070
177
1070
2
1070
178
1070
2
1070
340
1005
9B
1002
}
  0
DIMENSION
  5
30E
330
17
100
AcDbEntity
  8
DIM
370
20
100
AcDbDimension
280
0
  2
*D34
  3
CRE_PTFE_DIM
 10
62.82531754730545
 20
258.08
 30
0.0
 11
65.81086200392822
 21
259.75111468712623
 31
0.0
 70
32
 71
5
  1
38
 52
30.0
100
AcDbAlignedDimension
 13
50.82531754730549
 23
258.08
 33
0.0
 14
53.85640646055102
 24
256.33
 34
0.0
 50
-30.000000000000018
100
AcDbRotatedDimension
1001
ACAD
1000
DSTYLE
1002
{
1070
176
1070
2
1070
177
1070
2
1070
178
1070
2
1070
340
1005
9B
1002
}
  0
TEXT
  5
31F
330
17
100
AcDbEntity
  8
LABEL
100
AcDbText
 10
54.0
 20
245.0
 30
0.0
 40
2.35
  1
1"NS
  7
CRE_ARIAL_NARROW_BOLD
 11
54.0
 21
245.0
 31
0.0
100
AcDbText
  0
TEXT
  5
320
330
17
100
AcDbEntity
  8
LABEL
100
AcDbText
 10
18.0
 20
250.0
 30
0.0
 40
2.35
  1
CONN. TO
  7
CRE_ARIAL_NARROW_BOLD
 11
18.0
 21
250.0
 31
0.0
100
AcDbText
  0
TEXT
  5
321
330
17
100
AcDbEntity
  8
LABEL
100
AcDbText
 10
18.0
 20
245.0
 30
0.0
 40
2.35
  1
424-N-104/S
  7
CRE_ARIAL_NARROW_BOLD
 11
18.0
 21
245.0
 31
0.0
100
AcDbText
  0
TEXT
  5
322
330
17
100
AcDbEntity
  8
LABEL
100
AcDbText
 10
18.0
 20
240.5
 30
0.0
 40
2.15
  1
E 677077
  7
CRE_ARIAL_NARROW
 11
18.0
 21
240.5
 31
0.0
100
AcDbText
  0
TEXT
  5
323
330
17
100
AcDbEntity
  8
LABEL
100
AcDbText
 10
18.0
 20
236.5
 30
0.0
 40
2.15
  1
N 532036
  7
CRE_ARIAL_NARROW
 11
18.0
 21
236.5
 31
0.0
100
AcDbText
  0
TEXT
  5
324
330
17
100
AcDbEntity
  8
LABEL
100
AcDbText
 10
18.0
 20
232.0
 30
0.0
 40
2.35
  1
EL +104060
  7
CRE_ARIAL_NARROW_BOLD
 11
18.0
 21
232.0
 31
0.0
100
AcDbText
  0
LINE
  5
325
330
17
100
AcDbEntity
  8
LABEL
370
25
100
AcDbLine
 10
36.0
 20
251.5
 30
0.0
 11
40.0
 21
264.33
 31
0.0
  0
TEXT
  5
326
330
17
100
AcDbEntity
  8
LABEL
100
AcDbText
 10
18.0
 20
225.0
 30
0.0
 40
2.35
  1
1.1/2"x1"NS
  7
CRE_ARIAL_NARROW_BOLD
 11
18.0
 21
225.0
 31
0.0
100
AcDbText
  0
TEXT
  5
327
330
17
100
AcDbEntity
  8
LABEL
100
AcDbText
 10
18.0
 20
220.0
 30
0.0
 40
2.35
  1
7MM OFFSET
  7
CRE_ARIAL_NARROW_BOLD
 11
18.0
 21
220.0
 31
0.0
100
AcDbText
  0
TEXT
  5
328
330
17
100
AcDbEntity
  8
LABEL
100
AcDbText
 10
18.0
 20
215.0
 30
0.0
 40
2.35
  1
FLAT SIDE DOWN
  7
CRE_ARIAL_NARROW_BOLD
 11
18.0
 21
215.0
 31
0.0
100
AcDbText
  0
LINE
  5
329
330
17
100
AcDbEntity
  8
LABEL
370
25
100
AcDbLine
 10
40.0
 20
226.5
 30
0.0
 11
48.66025403784439
 21
259.33
 31
0.0
  0
LINE
  5
32A
330
17
100
AcDbEntity
  8
COMPONENT
370
35
100
AcDbLine
 10
69.0
 20
337.5
 30
0.0
 11
95.0
 21
337.5
 31
0.0
  0
LINE
  5
32B
330
17
100
AcDbEntity
  8
COMPONENT
370
35
100
AcDbLine
 10
69.0
 20
332.5
 30
0.0
 11
95.0
 21
332.5
 31
0.0
  0
CIRCLE
  5
32C
330
17
100
AcDbEntity
  8
COMPONENT
370
35
100
AcDbCircle
 10
69.0
 20
335.0
 30
0.0
 40
2.5
  0
CIRCLE
  5
32D
330
17
100
AcDbEntity
  8
COMPONENT
370
35
100
AcDbCircle
 10
95.0
 20
335.0
 30
0.0
 40
2.5
  0
TEXT
  5
32E
330
17
100
AcDbEntity
  8
LABEL
100
AcDbText
 10
82.0
 20
334.1
 30
0.0
 40
2.15
  1
424-SG-1601
  7
CRE_ARIAL_NARROW_BOLD
 72
1
 11
82.0
 21
334.1
 31
0.0
100
AcDbText
  0
LWPOLYLINE
  5
32F
330
17
100
AcDbEntity
  8
CALLOUT
370
25
100
AcDbPolyline
 90
4
 70
1
 10
69.8
 20
339.8
 10
74.2
 20
339.8
 10
74.2
 20
344.2
 10
69.8
 20
344.2
  0
TEXT
  5
330
330
17
100
AcDbEntity
  8
CALLOUT
100
AcDbText
 10
72.0
 20
341.1
 30
0.0
 40
2.0
  1
19
  7
CRE_ROMANS
 72
1
 11
72.0
 21
341.1
 31
0.0
100
AcDbText
  0
LINE
  5
331
330
17
100
AcDbEntity
  8
CALLOUT
370
25
100
AcDbLine
 10
97.5
 20
335.0
 30
0.0
 11
118.0
 21
321.363
 31
0.0
  0
TEXT
  5
332
330
17
100
AcDbEntity
  8
LABEL
100
AcDbText
 10
118.0
 20
395.0
 30
0.0
 40
2.35
  1
<16>
 50
90.0
  7
CRE_ARIAL_NARROW_BOLD
 72
1
 11
118.0
 21
395.0
 31
0.0
100
AcDbText
  0
TEXT
  5
333
330
17
100
AcDbEntity
  8
LABEL
100
AcDbText
 10
124.0
 20
293.363
 30
0.0
 40
2.25
  1
EL +104053
  7
CRE_ARIAL_NARROW_BOLD
 11
124.0
 21
293.363
 31
0.0
100
AcDbText
  0
TEXT
  5
334
330
17
100
AcDbEntity
  8
LABEL
100
AcDbText
 10
290.0
 20
510.0
 30
0.0
 40
2.25
  1
EL +105122
  7
CRE_ARIAL_NARROW_BOLD
 11
290.0
 21
510.0
 31
0.0
100
AcDbText
  0
TEXT
  5
335
330
17
100
AcDbEntity
  8
LABEL
100
AcDbText
 10
243.0
 20
442.0
 30
0.0
 40
2.25
  1
1"x1"NS EL +104188
  7
CRE_ARIAL_NARROW_BOLD
 11
243.0
 21
442.0
 31
0.0
100
AcDbText
  0
TEXT
  5
336
330
17
100
AcDbEntity
  8
LABEL
100
AcDbText
 10
388.0
 20
368.0
 30
0.0
 40
2.25
  1
1"x1"NS EL +104188
  7
CRE_ARIAL_NARROW_BOLD
 11
388.0
 21
368.0
 31
0.0
100
AcDbText
  0
TEXT
  5
337
330
17
100
AcDbEntity
  8
LABEL
100
AcDbText
 10
385.0
 20
295.0
 30
0.0
 40
2.25
  1
EL +103767
  7
CRE_ARIAL_NARROW_BOLD
 11
385.0
 21
295.0
 31
0.0
100
AcDbText
  0
TEXT
  5
338
330
17
100
AcDbEntity
  8
LABEL
100
AcDbText
 10
280.0
 20
335.0
 30
0.0
 40
2.25
  1
1"x3/4"NS
  7
CRE_ARIAL_NARROW_BOLD
 11
280.0
 21
335.0
 31
0.0
100
AcDbText
  0
TEXT
  5
339
330
17
100
AcDbEntity
  8
LABEL
100
AcDbText
 10
345.0
 20
298.0
 30
0.0
 40
2.25
  1
1"x3/4"NS
  7
CRE_ARIAL_NARROW_BOLD
 11
345.0
 21
298.0
 31
0.0
100
AcDbText
  0
LINE
  5
33A
330
17
100
AcDbEntity
  8
CALLOUT
370
20
100
AcDbLine
 10
368.0
 20
362.0
 30
0.0
 11
380.0
 21
356.74126059835504
 31
0.0
  0
CIRCLE
  5
33B
330
17
100
AcDbEntity
  8
CALLOUT
370
35
100
AcDbCircle
 10
368.0
 20
362.0
 30
0.0
 40
2.15
  0
TEXT
  5
33C
330
17
100
AcDbEntity
  8
CALLOUT
100
AcDbText
 10
368.0
 20
361.1
 30
0.0
 40
1.8
  1
1
  7
CRE_ROMANS
 72
1
 11
368.0
 21
361.1
 31
0.0
100
AcDbText
  0
LINE
  5
33D
330
17
100
AcDbEntity
  8
CALLOUT
370
20
100
AcDbLine
 10
249.0
 20
421.0
 30
0.0
 11
273.0
 21
423.0815
 31
0.0
  0
CIRCLE
  5
33E
330
17
100
AcDbEntity
  8
CALLOUT
370
35
100
AcDbCircle
 10
249.0
 20
421.0
 30
0.0
 40
2.15
  0
TEXT
  5
33F
330
17
100
AcDbEntity
  8
CALLOUT
100
AcDbText
 10
249.0
 20
420.1
 30
0.0
 40
1.8
  1
2
  7
CRE_ROMANS
 72
1
 11
249.0
 21
420.1
 31
0.0
100
AcDbText
  0
LINE
  5
340
330
17
100
AcDbEntity
  8
CALLOUT
370
20
100
AcDbLine
 10
300.0
 20
425.0
 30
0.0
 11
296.7189110867545
 21
419.4688802991775
 31
0.0
  0
CIRCLE
  5
341
330
17
100
AcDbEntity
  8
CALLOUT
370
35
100
AcDbCircle
 10
300.0
 20
425.0
 30
0.0
 40
2.15
  0
TEXT
  5
342
330
17
100
AcDbEntity
  8
CALLOUT
100
AcDbText
 10
300.0
 20
424.1
 30
0.0
 40
1.8
  1
3
  7
CRE_ROMANS
 72
1
 11
300.0
 21
424.1
 31
0.0
100
AcDbText
  0
LINE
  5
343
330
17
100
AcDbEntity
  8
CALLOUT
370
20
100
AcDbLine
 10
286.0
 20
471.0
 30
0.0
 11
273.0
 21
472.826145862196
 31
0.0
  0
CIRCLE
  5
344
330
17
100
AcDbEntity
  8
CALLOUT
370
35
100
AcDbCircle
 10
286.0
 20
471.0
 30
0.0
 40
2.15
  0
TEXT
  5
345
330
17
100
AcDbEntity
  8
CALLOUT
100
AcDbText
 10
286.0
 20
470.1
 30
0.0
 40
1.8
  1
4
  7
CRE_ROMANS
 72
1
 11
286.0
 21
470.1
 31
0.0
100
AcDbText
  0
LINE
  5
346
330
17
100
AcDbEntity
  8
CALLOUT
370
20
100
AcDbLine
 10
191.0
 20
471.0
 30
0.0
 11
195.5
 21
467.74464586219597
 31
0.0
  0
CIRCLE
  5
347
330
17
100
AcDbEntity
  8
CALLOUT
370
35
100
AcDbCircle
 10
191.0
 20
471.0
 30
0.0
 40
2.15
  0
TEXT
  5
348
330
17
100
AcDbEntity
  8
CALLOUT
100
AcDbText
 10
191.0
 20
470.1
 30
0.0
 40
1.8
  1
5
  7
CRE_ROMANS
 72
1
 11
191.0
 21
470.1
 31
0.0
100
AcDbText
  0
LINE
  5
349
330
17
100
AcDbEntity
  8
CALLOUT
370
20
100
AcDbLine
 10
100.0
 20
378.0
 30
0.0
 11
118.0
 21
376.6815
 31
0.0
  0
CIRCLE
  5
34A
330
17
100
AcDbEntity
  8
CALLOUT
370
35
100
AcDbCircle
 10
100.0
 20
378.0
 30
0.0
 40
2.15
  0
TEXT
  5
34B
330
17
100
AcDbEntity
  8
CALLOUT
100
AcDbText
 10
100.0
 20
377.1
 30
0.0
 40
1.8
  1
6
  7
CRE_ROMANS
 72
1
 11
100.0
 21
377.1
 31
0.0
100
AcDbText
  0
LINE
  5
34C
330
17
100
AcDbEntity
  8
CALLOUT
370
20
100
AcDbLine
 10
88.0
 20
271.0
 30
0.0
 11
85.92820323027551
 21
274.8466604983954
 31
0.0
  0
CIRCLE
  5
34D
330
17
100
AcDbEntity
  8
CALLOUT
370
35
100
AcDbCircle
 10
88.0
 20
271.0
 30
0.0
 40
2.15
  0
TEXT
  5
34E
330
17
100
AcDbEntity
  8
CALLOUT
100
AcDbText
 10
88.0
 20
270.1
 30
0.0
 40
1.8
  1
7
  7
CRE_ROMANS
 72
1
 11
88.0
 21
270.1
 31
0.0
100
AcDbText
  0
LINE
  5
34F
330
17
100
AcDbEntity
  8
CALLOUT
370
20
100
AcDbLine
 10
46.0
 20
247.0
 30
0.0
 11
48.66025403784439
 21
259.33
 31
0.0
  0
CIRCLE
  5
350
330
17
100
AcDbEntity
  8
CALLOUT
370
35
100
AcDbCircle
 10
46.0
 20
247.0
 30
0.0
 40
2.15
  0
TEXT
  5
351
330
17
100
AcDbEntity
  8
CALLOUT
100
AcDbText
 10
46.0
 20
246.1
 30
0.0
 40
1.8
  1
8
  7
CRE_ROMANS
 72
1
 11
46.0
 21
246.1
 31
0.0
100
AcDbText
  0
LINE
  5
352
330
17
100
AcDbEntity
  8
CALLOUT
370
20
100
AcDbLine
 10
283.0
 20
438.0
 30
0.0
 11
273.0
 21
433.163
 31
0.0
  0
CIRCLE
  5
353
330
17
100
AcDbEntity
  8
CALLOUT
370
35
100
AcDbCircle
 10
283.0
 20
438.0
 30
0.0
 40
2.15
  0
TEXT
  5
354
330
17
100
AcDbEntity
  8
CALLOUT
100
AcDbText
 10
283.0
 20
437.1
 30
0.0
 40
1.8
  1
9
  7
CRE_ROMANS
 72
1
 11
283.0
 21
437.1
 31
0.0
100
AcDbText
  0
LINE
  5
355
330
17
100
AcDbEntity
  8
CALLOUT
370
20
100
AcDbLine
 10
371.0
 20
384.0
 30
0.0
 11
380.0
 21
371.3865211967101
 31
0.0
  0
CIRCLE
  5
356
330
17
100
AcDbEntity
  8
CALLOUT
370
35
100
AcDbCircle
 10
371.0
 20
384.0
 30
0.0
 40
2.15
  0
TEXT
  5
357
330
17
100
AcDbEntity
  8
CALLOUT
100
AcDbText
 10
371.0
 20
383.1
 30
0.0
 40
1.8
  1
9
  7
CRE_ROMANS
 72
1
 11
371.0
 21
383.1
 31
0.0
100
AcDbText
  0
LINE
  5
358
330
17
100
AcDbEntity
  8
CALLOUT
370
20
100
AcDbLine
 10
283.0
 20
371.0
 30
0.0
 11
295.0
 21
347.8812940778283
 31
0.0
  0
CIRCLE
  5
359
330
17
100
AcDbEntity
  8
CALLOUT
370
35
100
AcDbCircle
 10
283.0
 20
371.0
 30
0.0
 40
2.15
  0
TEXT
  5
35A
330
17
100
AcDbEntity
  8
CALLOUT
100
AcDbText
 10
283.0
 20
370.1
 30
0.0
 40
1.8
  1
10
  7
CRE_ROMANS
 72
1
 11
283.0
 21
370.1
 31
0.0
100
AcDbText
  0
LINE
  5
35B
330
17
100
AcDbEntity
  8
CALLOUT
370
20
100
AcDbLine
 10
365.0
 20
334.0
 30
0.0
 11
358.0
 21
311.50822711888185
 31
0.0
  0
CIRCLE
  5
35C
330
17
100
AcDbEntity
  8
CALLOUT
370
35
100
AcDbCircle
 10
365.0
 20
334.0
 30
0.0
 40
2.15
  0
TEXT
  5
35D
330
17
100
AcDbEntity
  8
CALLOUT
100
AcDbText
 10
365.0
 20
333.1
 30
0.0
 40
1.8
  1
10
  7
CRE_ROMANS
 72
1
 11
365.0
 21
333.1
 31
0.0
100
AcDbText
  0
LINE
  5
35E
330
17
100
AcDbEntity
  8
CALLOUT
370
20
100
AcDbLine
 10
60.0
 20
249.0
 30
0.0
 11
53.85640646055102
 21
256.33
 31
0.0
  0
CIRCLE
  5
35F
330
17
100
AcDbEntity
  8
CALLOUT
370
35
100
AcDbCircle
 10
60.0
 20
249.0
 30
0.0
 40
2.15
  0
TEXT
  5
360
330
17
100
AcDbEntity
  8
CALLOUT
100
AcDbText
 10
60.0
 20
248.1
 30
0.0
 40
1.8
  1
11
  7
CRE_ROMANS
 72
1
 11
60.0
 21
248.1
 31
0.0
100
AcDbText
  0
LINE
  5
361
330
17
100
AcDbEntity
  8
CALLOUT
370
20
100
AcDbLine
 10
133.0
 20
293.363
 30
0.0
 11
118.0
 21
293.3633209967908
 31
0.0
  0
CIRCLE
  5
362
330
17
100
AcDbEntity
  8
CALLOUT
370
35
100
AcDbCircle
 10
133.0
 20
293.363
 30
0.0
 40
2.15
  0
TEXT
  5
363
330
17
100
AcDbEntity
  8
CALLOUT
100
AcDbText
 10
133.0
 20
292.463
 30
0.0
 40
1.8
  1
11
  7
CRE_ROMANS
 72
1
 11
133.0
 21
292.463
 31
0.0
100
AcDbText
  0
LINE
  5
364
330
17
100
AcDbEntity
  8
CALLOUT
370
20
100
AcDbLine
 10
105.0
 20
429.0
 30
0.0
 11
118.0
 21
423.0
 31
0.0
  0
CIRCLE
  5
365
330
17
100
AcDbEntity
  8
CALLOUT
370
35
100
AcDbCircle
 10
105.0
 20
429.0
 30
0.0
 40
2.15
  0
TEXT
  5
366
330
17
100
AcDbEntity
  8
CALLOUT
100
AcDbText
 10
105.0
 20
428.1
 30
0.0
 40
1.8
  1
11
  7
CRE_ROMANS
 72
1
 11
105.0
 21
428.1
 31
0.0
100
AcDbText
  0
LINE
  5
367
330
17
100
AcDbEntity
  8
CALLOUT
370
20
100
AcDbLine
 10
282.0
 20
516.0
 30
0.0
 11
273.0
 21
512.4892917243919
 31
0.0
  0
CIRCLE
  5
368
330
17
100
AcDbEntity
  8
CALLOUT
370
35
100
AcDbCircle
 10
282.0
 20
516.0
 30
0.0
 40
2.15
  0
TEXT
  5
369
330
17
100
AcDbEntity
  8
CALLOUT
100
AcDbText
 10
282.0
 20
515.1
 30
0.0
 40
1.8
  1
11
  7
CRE_ROMANS
 72
1
 11
282.0
 21
515.1
 31
0.0
100
AcDbText
  0
LINE
  5
36A
330
17
100
AcDbEntity
  8
CALLOUT
370
20
100
AcDbLine
 10
263.0
 20
378.0
 30
0.0
 11
273.0
 21
360.583
 31
0.0
  0
CIRCLE
  5
36B
330
17
100
AcDbEntity
  8
CALLOUT
370
35
100
AcDbCircle
 10
263.0
 20
378.0
 30
0.0
 40
2.15
  0
TEXT
  5
36C
330
17
100
AcDbEntity
  8
CALLOUT
100
AcDbText
 10
263.0
 20
377.1
 30
0.0
 40
1.8
  1
11
  7
CRE_ROMANS
 72
1
 11
263.0
 21
377.1
 31
0.0
100
AcDbText
  0
LINE
  5
36D
330
17
100
AcDbEntity
  8
CALLOUT
370
20
100
AcDbLine
 10
393.0
 20
292.0
 30
0.0
 11
380.0
 21
298.8065211967101
 31
0.0
  0
CIRCLE
  5
36E
330
17
100
AcDbEntity
  8
CALLOUT
370
35
100
AcDbCircle
 10
393.0
 20
292.0
 30
0.0
 40
2.15
  0
TEXT
  5
36F
330
17
100
AcDbEntity
  8
CALLOUT
100
AcDbText
 10
393.0
 20
291.1
 30
0.0
 40
1.8
  1
11
  7
CRE_ROMANS
 72
1
 11
393.0
 21
291.1
 31
0.0
100
AcDbText
  0
LINE
  5
370
330
17
100
AcDbEntity
  8
CALLOUT
370
20
100
AcDbLine
 10
36.0
 20
268.0
 30
0.0
 11
44.33012701892219
 21
261.83
 31
0.0
  0
CIRCLE
  5
371
330
17
100
AcDbEntity
  8
CALLOUT
370
35
100
AcDbCircle
 10
36.0
 20
268.0
 30
0.0
 40
2.15
  0
TEXT
  5
372
330
17
100
AcDbEntity
  8
CALLOUT
100
AcDbText
 10
36.0
 20
267.1
 30
0.0
 40
1.8
  1
12
  7
CRE_ROMANS
 72
1
 11
36.0
 21
267.1
 31
0.0
100
AcDbText
  0
LINE
  5
373
330
17
100
AcDbEntity
  8
CALLOUT
370
20
100
AcDbLine
 10
133.0
 20
309.363
 30
0.0
 11
118.0
 21
312.363
 31
0.0
  0
CIRCLE
  5
374
330
17
100
AcDbEntity
  8
CALLOUT
370
35
100
AcDbCircle
 10
133.0
 20
309.363
 30
0.0
 40
2.15
  0
TEXT
  5
375
330
17
100
AcDbEntity
  8
CALLOUT
100
AcDbText
 10
133.0
 20
308.463
 30
0.0
 40
1.8
  1
13
  7
CRE_ROMANS
 72
1
 11
133.0
 21
308.463
 31
0.0
100
AcDbText
  0
LINE
  5
376
330
17
100
AcDbEntity
  8
CALLOUT
370
20
100
AcDbLine
 10
133.0
 20
333.363
 30
0.0
 11
118.0
 21
330.363
 31
0.0
  0
CIRCLE
  5
377
330
17
100
AcDbEntity
  8
CALLOUT
370
35
100
AcDbCircle
 10
133.0
 20
333.363
 30
0.0
 40
2.15
  0
TEXT
  5
378
330
17
100
AcDbEntity
  8
CALLOUT
100
AcDbText
 10
133.0
 20
332.463
 30
0.0
 40
1.8
  1
13
  7
CRE_ROMANS
 72
1
 11
133.0
 21
332.463
 31
0.0
100
AcDbText
  0
LINE
  5
379
330
17
100
AcDbEntity
  8
CALLOUT
370
20
100
AcDbLine
 10
313.0
 20
414.0
 30
0.0
 11
320.43782217350895
 21
405.77476059835504
 31
0.0
  0
CIRCLE
  5
37A
330
17
100
AcDbEntity
  8
CALLOUT
370
35
100
AcDbCircle
 10
313.0
 20
414.0
 30
0.0
 40
2.15
  0
TEXT
  5
37B
330
17
100
AcDbEntity
  8
CALLOUT
100
AcDbText
 10
313.0
 20
413.1
 30
0.0
 40
1.8
  1
13
  7
CRE_ROMANS
 72
1
 11
313.0
 21
413.1
 31
0.0
100
AcDbText
  0
LINE
  5
37C
330
17
100
AcDbEntity
  8
CALLOUT
370
20
100
AcDbLine
 10
347.0
 20
389.0
 30
0.0
 11
332.56217782649105
 21
398.77476059835504
 31
0.0
  0
CIRCLE
  5
37D
330
17
100
AcDbEntity
  8
CALLOUT
370
35
100
AcDbCircle
 10
347.0
 20
389.0
 30
0.0
 40
2.15
  0
TEXT
  5
37E
330
17
100
AcDbEntity
  8
CALLOUT
100
AcDbText
 10
347.0
 20
388.1
 30
0.0
 40
1.8
  1
13
  7
CRE_ROMANS
 72
1
 11
347.0
 21
388.1
 31
0.0
100
AcDbText
  0
LINE
  5
37F
330
17
100
AcDbEntity
  8
CALLOUT
370
20
100
AcDbLine
 10
260.0
 20
418.0
 30
0.0
 11
273.0
 21
413.0
 31
0.0
  0
CIRCLE
  5
380
330
17
100
AcDbEntity
  8
CALLOUT
370
35
100
AcDbCircle
 10
260.0
 20
418.0
 30
0.0
 40
2.15
  0
TEXT
  5
381
330
17
100
AcDbEntity
  8
CALLOUT
100
AcDbText
 10
260.0
 20
417.1
 30
0.0
 40
1.8
  1
13
  7
CRE_ROMANS
 72
1
 11
260.0
 21
417.1
 31
0.0
100
AcDbText
  0
LINE
  5
382
330
17
100
AcDbEntity
  8
CALLOUT
370
20
100
AcDbLine
 10
260.0
 20
396.0
 30
0.0
 11
273.0
 21
399.0
 31
0.0
  0
CIRCLE
  5
383
330
17
100
AcDbEntity
  8
CALLOUT
370
35
100
AcDbCircle
 10
260.0
 20
396.0
 30
0.0
 40
2.15
  0
TEXT
  5
384
330
17
100
AcDbEntity
  8
CALLOUT
100
AcDbText
 10
260.0
 20
395.1
 30
0.0
 40
1.8
  1
13
  7
CRE_ROMANS
 72
1
 11
260.0
 21
395.1
 31
0.0
100
AcDbText
  0
LINE
  5
385
330
17
100
AcDbEntity
  8
CALLOUT
370
20
100
AcDbLine
 10
307.0
 20
348.0
 30
0.0
 11
313.5096189432334
 21
337.19476059835506
 31
0.0
  0
CIRCLE
  5
386
330
17
100
AcDbEntity
  8
CALLOUT
370
35
100
AcDbCircle
 10
307.0
 20
348.0
 30
0.0
 40
2.15
  0
TEXT
  5
387
330
17
100
AcDbEntity
  8
CALLOUT
100
AcDbText
 10
307.0
 20
347.1
 30
0.0
 40
1.8
  1
13
  7
CRE_ROMANS
 72
1
 11
307.0
 21
347.1
 31
0.0
100
AcDbText
  0
LINE
  5
388
330
17
100
AcDbEntity
  8
CALLOUT
370
20
100
AcDbLine
 10
335.0
 20
320.0
 30
0.0
 11
339.4903810567666
 21
322.19476059835506
 31
0.0
  0
CIRCLE
  5
389
330
17
100
AcDbEntity
  8
CALLOUT
370
35
100
AcDbCircle
 10
335.0
 20
320.0
 30
0.0
 40
2.15
  0
TEXT
  5
38A
330
17
100
AcDbEntity
  8
CALLOUT
100
AcDbText
 10
335.0
 20
319.1
 30
0.0
 40
1.8
  1
13
  7
CRE_ROMANS
 72
1
 11
335.0
 21
319.1
 31
0.0
100
AcDbText
  0
LINE
  5
38B
330
17
100
AcDbEntity
  8
CALLOUT
370
20
100
AcDbLine
 10
368.0
 20
346.0
 30
0.0
 11
380.0
 21
342.096
 31
0.0
  0
CIRCLE
  5
38C
330
17
100
AcDbEntity
  8
CALLOUT
370
35
100
AcDbCircle
 10
368.0
 20
346.0
 30
0.0
 40
2.15
  0
TEXT
  5
38D
330
17
100
AcDbEntity
  8
CALLOUT
100
AcDbText
 10
368.0
 20
345.1
 30
0.0
 40
1.8
  1
13
  7
CRE_ROMANS
 72
1
 11
368.0
 21
345.1
 31
0.0
100
AcDbText
  0
LINE
  5
38E
330
17
100
AcDbEntity
  8
CALLOUT
370
20
100
AcDbLine
 10
368.0
 20
324.0
 30
0.0
 11
380.0
 21
328.096
 31
0.0
  0
CIRCLE
  5
38F
330
17
100
AcDbEntity
  8
CALLOUT
370
35
100
AcDbCircle
 10
368.0
 20
324.0
 30
0.0
 40
2.15
  0
TEXT
  5
390
330
17
100
AcDbEntity
  8
CALLOUT
100
AcDbText
 10
368.0
 20
323.1
 30
0.0
 40
1.8
  1
13
  7
CRE_ROMANS
 72
1
 11
368.0
 21
323.1
 31
0.0
100
AcDbText
  0
LINE
  5
391
330
17
100
AcDbEntity
  8
CALLOUT
370
20
100
AcDbLine
 10
273.0
 20
348.0
 30
0.0
 11
295.0
 21
335.0
 31
0.0
  0
CIRCLE
  5
392
330
17
100
AcDbEntity
  8
CALLOUT
370
35
100
AcDbCircle
 10
273.0
 20
348.0
 30
0.0
 40
2.15
  0
TEXT
  5
393
330
17
100
AcDbEntity
  8
CALLOUT
100
AcDbText
 10
273.0
 20
347.1
 30
0.0
 40
1.8
  1
14
  7
CRE_ROMANS
 72
1
 11
273.0
 21
347.1
 31
0.0
100
AcDbText
  0
LINE
  5
394
330
17
100
AcDbEntity
  8
CALLOUT
370
20
100
AcDbLine
 10
347.0
 20
311.0
 30
0.0
 11
358.0
 21
298.5
 31
0.0
  0
CIRCLE
  5
395
330
17
100
AcDbEntity
  8
CALLOUT
370
35
100
AcDbCircle
 10
347.0
 20
311.0
 30
0.0
 40
2.15
  0
TEXT
  5
396
330
17
100
AcDbEntity
  8
CALLOUT
100
AcDbText
 10
347.0
 20
310.1
 30
0.0
 40
1.8
  1
14
  7
CRE_ROMANS
 72
1
 11
347.0
 21
310.1
 31
0.0
100
AcDbText
  0
LINE
  5
397
330
17
100
AcDbEntity
  8
CALLOUT
370
20
100
AcDbLine
 10
273.0
 20
312.0
 30
0.0
 11
295.0
 21
321.0
 31
0.0
  0
CIRCLE
  5
398
330
17
100
AcDbEntity
  8
CALLOUT
370
35
100
AcDbCircle
 10
273.0
 20
312.0
 30
0.0
 40
2.15
  0
TEXT
  5
399
330
17
100
AcDbEntity
  8
CALLOUT
100
AcDbText
 10
273.0
 20
311.1
 30
0.0
 40
1.8
  1
15
  7
CRE_ROMANS
 72
1
 11
273.0
 21
311.1
 31
0.0
100
AcDbText
  0
LINE
  5
39A
330
17
100
AcDbEntity
  8
CALLOUT
370
20
100
AcDbLine
 10
347.0
 20
276.0
 30
0.0
 11
358.0
 21
284.5
 31
0.0
  0
CIRCLE
  5
39B
330
17
100
AcDbEntity
  8
CALLOUT
370
35
100
AcDbCircle
 10
347.0
 20
276.0
 30
0.0
 40
2.15
  0
TEXT
  5
39C
330
17
100
AcDbEntity
  8
CALLOUT
100
AcDbText
 10
347.0
 20
275.1
 30
0.0
 40
1.8
  1
15
  7
CRE_ROMANS
 72
1
 11
347.0
 21
275.1
 31
0.0
100
AcDbText
  0
LINE
  5
39D
330
17
100
AcDbEntity
  8
CALLOUT
370
20
100
AcDbLine
 10
339.0
 20
416.0
 30
0.0
 11
326.5
 21
402.27476059835504
 31
0.0
  0
CIRCLE
  5
39E
330
17
100
AcDbEntity
  8
CALLOUT
370
35
100
AcDbCircle
 10
339.0
 20
416.0
 30
0.0
 40
2.15
  0
TEXT
  5
39F
330
17
100
AcDbEntity
  8
CALLOUT
100
AcDbText
 10
339.0
 20
415.1
 30
0.0
 40
1.8
  1
16
  7
CRE_ROMANS
 72
1
 11
339.0
 21
415.1
 31
0.0
100
AcDbText
  0
LINE
  5
3A0
330
17
100
AcDbEntity
  8
CALLOUT
370
20
100
AcDbLine
 10
241.0
 20
406.0
 30
0.0
 11
273.0
 21
406.0
 31
0.0
  0
CIRCLE
  5
3A1
330
17
100
AcDbEntity
  8
CALLOUT
370
35
100
AcDbCircle
 10
241.0
 20
406.0
 30
0.0
 40
2.15
  0
TEXT
  5
3A2
330
17
100
AcDbEntity
  8
CALLOUT
100
AcDbText
 10
241.0
 20
405.1
 30
0.0
 40
1.8
  1
17
  7
CRE_ROMANS
 72
1
 11
241.0
 21
405.1
 31
0.0
100
AcDbText
  0
LINE
  5
3A3
330
17
100
AcDbEntity
  8
CALLOUT
370
20
100
AcDbLine
 10
403.0
 20
335.0
 30
0.0
 11
380.0
 21
335.096
 31
0.0
  0
CIRCLE
  5
3A4
330
17
100
AcDbEntity
  8
CALLOUT
370
35
100
AcDbCircle
 10
403.0
 20
335.0
 30
0.0
 40
2.15
  0
TEXT
  5
3A5
330
17
100
AcDbEntity
  8
CALLOUT
100
AcDbText
 10
403.0
 20
334.1
 30
0.0
 40
1.8
  1
17
  7
CRE_ROMANS
 72
1
 11
403.0
 21
334.1
 31
0.0
100
AcDbText
  0
LINE
  5
3A6
330
17
100
AcDbEntity
  8
CALLOUT
370
20
100
AcDbLine
 10
267.0
 20
320.0
 30
0.0
 11
295.0
 21
328.0
 31
0.0
  0
CIRCLE
  5
3A7
330
17
100
AcDbEntity
  8
CALLOUT
370
35
100
AcDbCircle
 10
267.0
 20
320.0
 30
0.0
 40
2.15
  0
TEXT
  5
3A8
330
17
100
AcDbEntity
  8
CALLOUT
100
AcDbText
 10
267.0
 20
319.1
 30
0.0
 40
1.8
  1
18
  7
CRE_ROMANS
 72
1
 11
267.0
 21
319.1
 31
0.0
100
AcDbText
  0
LINE
  5
3A9
330
17
100
AcDbEntity
  8
CALLOUT
370
20
100
AcDbLine
 10
373.0
 20
283.0
 30
0.0
 11
358.0
 21
291.5
 31
0.0
  0
CIRCLE
  5
3AA
330
17
100
AcDbEntity
  8
CALLOUT
370
35
100
AcDbCircle
 10
373.0
 20
283.0
 30
0.0
 40
2.15
  0
TEXT
  5
3AB
330
17
100
AcDbEntity
  8
CALLOUT
100
AcDbText
 10
373.0
 20
282.1
 30
0.0
 40
1.8
  1
18
  7
CRE_ROMANS
 72
1
 11
373.0
 21
282.1
 31
0.0
100
AcDbText
  0
LINE
  5
3AC
330
17
100
AcDbEntity
  8
CALLOUT
370
20
100
AcDbLine
 10
325.0
 20
368.0
 30
0.0
 11
326.5
 21
329.69476059835506
 31
0.0
  0
CIRCLE
  5
3AD
330
17
100
AcDbEntity
  8
CALLOUT
370
35
100
AcDbCircle
 10
325.0
 20
368.0
 30
0.0
 40
2.15
  0
TEXT
  5
3AE
330
17
100
AcDbEntity
  8
CALLOUT
100
AcDbText
 10
325.0
 20
367.1
 30
0.0
 40
1.8
  1
20
  7
CRE_ROMANS
 72
1
 11
325.0
 21
367.1
 31
0.0
100
AcDbText
  0
LWPOLYLINE
  5
3AF
330
17
100
AcDbEntity
  8
TABLE
370
25
100
AcDbPolyline
 90
4
 70
1
 10
15.0
 20
34.0
 10
205.0
 20
34.0
 10
205.0
 20
191.5
 10
15.0
 20
191.5
  0
LINE
  5
3B0
330
17
100
AcDbEntity
  8
TABLE
370
25
100
AcDbLine
 10
37.1
 20
34.0
 30
0.0
 11
37.1
 21
191.5
 31
0.0
  0
LINE
  5
3B1
330
17
100
AcDbEntity
  8
TABLE
370
25
100
AcDbLine
 10
105.6
 20
34.0
 30
0.0
 11
105.6
 21
191.5
 31
0.0
  0
LINE
  5
3B2
330
17
100
AcDbEntity
  8
TABLE
370
25
100
AcDbLine
 10
145.7
 20
34.0
 30
0.0
 11
145.7
 21
191.5
 31
0.0
  0
LINE
  5
3B3
330
17
100
AcDbEntity
  8
TABLE
370
25
100
AcDbLine
 10
178.79999999999998
 20
34.0
 30
0.0
 11
178.79999999999998
 21
191.5
 31
0.0
  0
LINE
  5
3B4
330
17
100
AcDbEntity
  8
TABLE
370
25
100
AcDbLine
 10
15.0
 20
41.5
 30
0.0
 11
205.0
 21
41.5
 31
0.0
  0
LINE
  5
3B5
330
17
100
AcDbEntity
  8
TABLE
370
25
100
AcDbLine
 10
15.0
 20
49.0
 30
0.0
 11
205.0
 21
49.0
 31
0.0
  0
LINE
  5
3B6
330
17
100
AcDbEntity
  8
TABLE
370
25
100
AcDbLine
 10
15.0
 20
56.5
 30
0.0
 11
205.0
 21
56.5
 31
0.0
  0
LINE
  5
3B7
330
17
100
AcDbEntity
  8
TABLE
370
25
100
AcDbLine
 10
15.0
 20
64.0
 30
0.0
 11
205.0
 21
64.0
 31
0.0
  0
LINE
  5
3B8
330
17
100
AcDbEntity
  8
TABLE
370
25
100
AcDbLine
 10
15.0
 20
71.5
 30
0.0
 11
205.0
 21
71.5
 31
0.0
  0
LINE
  5
3B9
330
17
100
AcDbEntity
  8
TABLE
370
25
100
AcDbLine
 10
15.0
 20
79.0
 30
0.0
 11
205.0
 21
79.0
 31
0.0
  0
LINE
  5
3BA
330
17
100
AcDbEntity
  8
TABLE
370
25
100
AcDbLine
 10
15.0
 20
86.5
 30
0.0
 11
205.0
 21
86.5
 31
0.0
  0
LINE
  5
3BB
330
17
100
AcDbEntity
  8
TABLE
370
25
100
AcDbLine
 10
15.0
 20
94.0
 30
0.0
 11
205.0
 21
94.0
 31
0.0
  0
LINE
  5
3BC
330
17
100
AcDbEntity
  8
TABLE
370
25
100
AcDbLine
 10
15.0
 20
101.5
 30
0.0
 11
205.0
 21
101.5
 31
0.0
  0
LINE
  5
3BD
330
17
100
AcDbEntity
  8
TABLE
370
25
100
AcDbLine
 10
15.0
 20
109.0
 30
0.0
 11
205.0
 21
109.0
 31
0.0
  0
LINE
  5
3BE
330
17
100
AcDbEntity
  8
TABLE
370
25
100
AcDbLine
 10
15.0
 20
116.5
 30
0.0
 11
205.0
 21
116.5
 31
0.0
  0
LINE
  5
3BF
330
17
100
AcDbEntity
  8
TABLE
370
25
100
AcDbLine
 10
15.0
 20
124.0
 30
0.0
 11
205.0
 21
124.0
 31
0.0
  0
LINE
  5
3C0
330
17
100
AcDbEntity
  8
TABLE
370
25
100
AcDbLine
 10
15.0
 20
131.5
 30
0.0
 11
205.0
 21
131.5
 31
0.0
  0
LINE
  5
3C1
330
17
100
AcDbEntity
  8
TABLE
370
25
100
AcDbLine
 10
15.0
 20
139.0
 30
0.0
 11
205.0
 21
139.0
 31
0.0
  0
LINE
  5
3C2
330
17
100
AcDbEntity
  8
TABLE
370
25
100
AcDbLine
 10
15.0
 20
146.5
 30
0.0
 11
205.0
 21
146.5
 31
0.0
  0
LINE
  5
3C3
330
17
100
AcDbEntity
  8
TABLE
370
25
100
AcDbLine
 10
15.0
 20
154.0
 30
0.0
 11
205.0
 21
154.0
 31
0.0
  0
LINE
  5
3C4
330
17
100
AcDbEntity
  8
TABLE
370
25
100
AcDbLine
 10
15.0
 20
161.5
 30
0.0
 11
205.0
 21
161.5
 31
0.0
  0
LINE
  5
3C5
330
17
100
AcDbEntity
  8
TABLE
370
25
100
AcDbLine
 10
15.0
 20
169.0
 30
0.0
 11
205.0
 21
169.0
 31
0.0
  0
LINE
  5
3C6
330
17
100
AcDbEntity
  8
TABLE
370
25
100
AcDbLine
 10
15.0
 20
176.5
 30
0.0
 11
205.0
 21
176.5
 31
0.0
  0
LINE
  5
3C7
330
17
100
AcDbEntity
  8
TABLE
370
25
100
AcDbLine
 10
15.0
 20
184.0
 30
0.0
 11
205.0
 21
184.0
 31
0.0
  0
TEXT
  5
3C8
330
17
100
AcDbEntity
  8
TABLE
100
AcDbText
 10
26.05
 20
36.966
 30
0.0
 40
2.45
  1
PART NO
  7
CRE_ARIAL_NARROW_BOLD
 72
1
 11
26.05
 21
36.966
 31
0.0
100
AcDbText
  0
TEXT
  5
3C9
330
17
100
AcDbEntity
  8
TABLE
100
AcDbText
 10
38.1
 20
36.966
 30
0.0
 40
2.45
  1
DESCRIPTION
  7
CRE_ARIAL_NARROW_BOLD
 11
38.1
 21
36.966
 31
0.0
100
AcDbText
  0
TEXT
  5
3CA
330
17
100
AcDbEntity
  8
TABLE
100
AcDbText
 10
125.64999999999999
 20
36.966
 30
0.0
 40
2.45
  1
SIZE
  7
CRE_ARIAL_NARROW_BOLD
 72
1
 11
125.64999999999999
 21
36.966
 31
0.0
100
AcDbText
  0
TEXT
  5
3CB
330
17
100
AcDbEntity
  8
TABLE
100
AcDbText
 10
162.25
 20
36.966
 30
0.0
 40
2.45
  1
LENGTH MM
  7
CRE_ARIAL_NARROW_BOLD
 72
1
 11
162.25
 21
36.966
 31
0.0
100
AcDbText
  0
TEXT
  5
3CC
330
17
100
AcDbEntity
  8
TABLE
100
AcDbText
 10
191.89999999999998
 20
36.966
 30
0.0
 40
2.45
  1
QTY.
  7
CRE_ARIAL_NARROW_BOLD
 72
1
 11
191.89999999999998
 21
36.966
 31
0.0
100
AcDbText
  0
TEXT
  5
3CD
330
17
100
AcDbEntity
  8
TABLE
100
AcDbText
 10
26.05
 20
44.466
 30
0.0
 40
2.45
  1
1
  7
CRE_ARIAL_NARROW
 72
1
 11
26.05
 21
44.466
 31
0.0
100
AcDbText
  0
TEXT
  5
3CE
330
17
100
AcDbEntity
  8
TABLE
100
AcDbText
 10
38.1
 20
44.466
 30
0.0
 40
2.45
  1
PIPE SPOOL
  7
CRE_ARIAL_NARROW
 11
38.1
 21
44.466
 31
0.0
100
AcDbText
  0
TEXT
  5
3CF
330
17
100
AcDbEntity
  8
TABLE
100
AcDbText
 10
125.64999999999999
 20
44.466
 30
0.0
 40
2.45
  1
1" (25NB)
  7
CRE_ARIAL_NARROW
 72
1
 11
125.64999999999999
 21
44.466
 31
0.0
100
AcDbText
  0
TEXT
  5
3D0
330
17
100
AcDbEntity
  8
TABLE
100
AcDbText
 10
162.25
 20
44.466
 30
0.0
 40
2.45
  1
100
  7
CRE_ARIAL_NARROW
 72
1
 11
162.25
 21
44.466
 31
0.0
100
AcDbText
  0
TEXT
  5
3D1
330
17
100
AcDbEntity
  8
TABLE
100
AcDbText
 10
191.89999999999998
 20
44.466
 30
0.0
 40
2.45
  1
01NO
  7
CRE_ARIAL_NARROW
 72
1
 11
191.89999999999998
 21
44.466
 31
0.0
100
AcDbText
  0
TEXT
  5
3D2
330
17
100
AcDbEntity
  8
TABLE
100
AcDbText
 10
26.05
 20
51.966
 30
0.0
 40
2.45
  1
2
  7
CRE_ARIAL_NARROW
 72
1
 11
26.05
 21
51.966
 31
0.0
100
AcDbText
  0
TEXT
  5
3D3
330
17
100
AcDbEntity
  8
TABLE
100
AcDbText
 10
38.1
 20
51.966
 30
0.0
 40
2.45
  1
PIPE SPOOL
  7
CRE_ARIAL_NARROW
 11
38.1
 21
51.966
 31
0.0
100
AcDbText
  0
TEXT
  5
3D4
330
17
100
AcDbEntity
  8
TABLE
100
AcDbText
 10
125.64999999999999
 20
51.966
 30
0.0
 40
2.45
  1
1" (25NB)
  7
CRE_ARIAL_NARROW
 72
1
 11
125.64999999999999
 21
51.966
 31
0.0
100
AcDbText
  0
TEXT
  5
3D5
330
17
100
AcDbEntity
  8
TABLE
100
AcDbText
 10
162.25
 20
51.966
 30
0.0
 40
2.45
  1
100
  7
CRE_ARIAL_NARROW
 72
1
 11
162.25
 21
51.966
 31
0.0
100
AcDbText
  0
TEXT
  5
3D6
330
17
100
AcDbEntity
  8
TABLE
100
AcDbText
 10
191.89999999999998
 20
51.966
 30
0.0
 40
2.45
  1
01NO
  7
CRE_ARIAL_NARROW
 72
1
 11
191.89999999999998
 21
51.966
 31
0.0
100
AcDbText
  0
TEXT
  5
3D7
330
17
100
AcDbEntity
  8
TABLE
100
AcDbText
 10
26.05
 20
59.466
 30
0.0
 40
2.45
  1
3
  7
CRE_ARIAL_NARROW
 72
1
 11
26.05
 21
59.466
 31
0.0
100
AcDbText
  0
TEXT
  5
3D8
330
17
100
AcDbEntity
  8
TABLE
100
AcDbText
 10
38.1
 20
59.466
 30
0.0
 40
2.45
  1
PIPE SPOOL
  7
CRE_ARIAL_NARROW
 11
38.1
 21
59.466
 31
0.0
100
AcDbText
  0
TEXT
  5
3D9
330
17
100
AcDbEntity
  8
TABLE
100
AcDbText
 10
125.64999999999999
 20
59.466
 30
0.0
 40
2.45
  1
1" (25NB)
  7
CRE_ARIAL_NARROW
 72
1
 11
125.64999999999999
 21
59.466
 31
0.0
100
AcDbText
  0
TEXT
  5
3DA
330
17
100
AcDbEntity
  8
TABLE
100
AcDbText
 10
162.25
 20
59.466
 30
0.0
 40
2.45
  1
625
  7
CRE_ARIAL_NARROW
 72
1
 11
162.25
 21
59.466
 31
0.0
100
AcDbText
  0
TEXT
  5
3DB
330
17
100
AcDbEntity
  8
TABLE
100
AcDbText
 10
191.89999999999998
 20
59.466
 30
0.0
 40
2.45
  1
01NO
  7
CRE_ARIAL_NARROW
 72
1
 11
191.89999999999998
 21
59.466
 31
0.0
100
AcDbText
  0
TEXT
  5
3DC
330
17
100
AcDbEntity
  8
TABLE
100
AcDbText
 10
26.05
 20
66.96600000000001
 30
0.0
 40
2.45
  1
4
  7
CRE_ARIAL_NARROW
 72
1
 11
26.05
 21
66.96600000000001
 31
0.0
100
AcDbText
  0
TEXT
  5
3DD
330
17
100
AcDbEntity
  8
TABLE
100
AcDbText
 10
38.1
 20
66.96600000000001
 30
0.0
 40
2.45
  1
PIPE SPOOL
  7
CRE_ARIAL_NARROW
 11
38.1
 21
66.96600000000001
 31
0.0
100
AcDbText
  0
TEXT
  5
3DE
330
17
100
AcDbEntity
  8
TABLE
100
AcDbText
 10
125.64999999999999
 20
66.96600000000001
 30
0.0
 40
2.45
  1
1" (25NB)
  7
CRE_ARIAL_NARROW
 72
1
 11
125.64999999999999
 21
66.96600000000001
 31
0.0
100
AcDbText
  0
TEXT
  5
3DF
330
17
100
AcDbEntity
  8
TABLE
100
AcDbText
 10
162.25
 20
66.96600000000001
 30
0.0
 40
2.45
  1
857
  7
CRE_ARIAL_NARROW
 72
1
 11
162.25
 21
66.96600000000001
 31
0.0
100
AcDbText
  0
TEXT
  5
3E0
330
17
100
AcDbEntity
  8
TABLE
100
AcDbText
 10
191.89999999999998
 20
66.96600000000001
 30
0.0
 40
2.45
  1
01NO
  7
CRE_ARIAL_NARROW
 72
1
 11
191.89999999999998
 21
66.96600000000001
 31
0.0
100
AcDbText
  0
TEXT
  5
3E1
330
17
100
AcDbEntity
  8
TABLE
100
AcDbText
 10
26.05
 20
74.46600000000001
 30
0.0
 40
2.45
  1
5
  7
CRE_ARIAL_NARROW
 72
1
 11
26.05
 21
74.46600000000001
 31
0.0
100
AcDbText
  0
TEXT
  5
3E2
330
17
100
AcDbEntity
  8
TABLE
100
AcDbText
 10
38.1
 20
74.46600000000001
 30
0.0
 40
2.45
  1
PIPE SPOOL
  7
CRE_ARIAL_NARROW
 11
38.1
 21
74.46600000000001
 31
0.0
100
AcDbText
  0
TEXT
  5
3E3
330
17
100
AcDbEntity
  8
TABLE
100
AcDbText
 10
125.64999999999999
 20
74.46600000000001
 30
0.0
 40
2.45
  1
1" (25NB)
  7
CRE_ARIAL_NARROW
 72
1
 11
125.64999999999999
 21
74.46600000000001
 31
0.0
100
AcDbText
  0
TEXT
  5
3E4
330
17
100
AcDbEntity
  8
TABLE
100
AcDbText
 10
162.25
 20
74.46600000000001
 30
0.0
 40
2.45
  1
2576
  7
CRE_ARIAL_NARROW
 72
1
 11
162.25
 21
74.46600000000001
 31
0.0
100
AcDbText
  0
TEXT
  5
3E5
330
17
100
AcDbEntity
  8
TABLE
100
AcDbText
 10
191.89999999999998
 20
74.46600000000001
 30
0.0
 40
2.45
  1
01NO
  7
CRE_ARIAL_NARROW
 72
1
 11
191.89999999999998
 21
74.46600000000001
 31
0.0
100
AcDbText
  0
TEXT
  5
3E6
330
17
100
AcDbEntity
  8
TABLE
100
AcDbText
 10
26.05
 20
81.96600000000001
 30
0.0
 40
2.45
  1
6
  7
CRE_ARIAL_NARROW
 72
1
 11
26.05
 21
81.96600000000001
 31
0.0
100
AcDbText
  0
TEXT
  5
3E7
330
17
100
AcDbEntity
  8
TABLE
100
AcDbText
 10
38.1
 20
81.96600000000001
 30
0.0
 40
2.45
  1
PIPE SPOOL
  7
CRE_ARIAL_NARROW
 11
38.1
 21
81.96600000000001
 31
0.0
100
AcDbText
  0
TEXT
  5
3E8
330
17
100
AcDbEntity
  8
TABLE
100
AcDbText
 10
125.64999999999999
 20
81.96600000000001
 30
0.0
 40
2.45
  1
1" (25NB)
  7
CRE_ARIAL_NARROW
 72
1
 11
125.64999999999999
 21
81.96600000000001
 31
0.0
100
AcDbText
  0
TEXT
  5
3E9
330
17
100
AcDbEntity
  8
TABLE
100
AcDbText
 10
162.25
 20
81.96600000000001
 30
0.0
 40
2.45
  1
576
  7
CRE_ARIAL_NARROW
 72
1
 11
162.25
 21
81.96600000000001
 31
0.0
100
AcDbText
  0
TEXT
  5
3EA
330
17
100
AcDbEntity
  8
TABLE
100
AcDbText
 10
191.89999999999998
 20
81.96600000000001
 30
0.0
 40
2.45
  1
01NO
  7
CRE_ARIAL_NARROW
 72
1
 11
191.89999999999998
 21
81.96600000000001
 31
0.0
100
AcDbText
  0
TEXT
  5
3EB
330
17
100
AcDbEntity
  8
TABLE
100
AcDbText
 10
26.05
 20
89.46600000000001
 30
0.0
 40
2.45
  1
7
  7
CRE_ARIAL_NARROW
 72
1
 11
26.05
 21
89.46600000000001
 31
0.0
100
AcDbText
  0
TEXT
  5
3EC
330
17
100
AcDbEntity
  8
TABLE
100
AcDbText
 10
38.1
 20
89.46600000000001
 30
0.0
 40
2.45
  1
PIPE SPOOL
  7
CRE_ARIAL_NARROW
 11
38.1
 21
89.46600000000001
 31
0.0
100
AcDbText
  0
TEXT
  5
3ED
330
17
100
AcDbEntity
  8
TABLE
100
AcDbText
 10
125.64999999999999
 20
89.46600000000001
 30
0.0
 40
2.45
  1
1" (25NB)
  7
CRE_ARIAL_NARROW
 72
1
 11
125.64999999999999
 21
89.46600000000001
 31
0.0
100
AcDbText
  0
TEXT
  5
3EE
330
17
100
AcDbEntity
  8
TABLE
100
AcDbText
 10
162.25
 20
89.46600000000001
 30
0.0
 40
2.45
  1
167
  7
CRE_ARIAL_NARROW
 72
1
 11
162.25
 21
89.46600000000001
 31
0.0
100
AcDbText
  0
TEXT
  5
3EF
330
17
100
AcDbEntity
  8
TABLE
100
AcDbText
 10
191.89999999999998
 20
89.46600000000001
 30
0.0
 40
2.45
  1
01NO
  7
CRE_ARIAL_NARROW
 72
1
 11
191.89999999999998
 21
89.46600000000001
 31
0.0
100
AcDbText
  0
TEXT
  5
3F0
330
17
100
AcDbEntity
  8
TABLE
100
AcDbText
 10
26.05
 20
96.96600000000001
 30
0.0
 40
2.45
  1
8
  7
CRE_ARIAL_NARROW
 72
1
 11
26.05
 21
96.96600000000001
 31
0.0
100
AcDbText
  0
TEXT
  5
3F1
330
17
100
AcDbEntity
  8
TABLE
100
AcDbText
 10
38.1
 20
96.96600000000001
 30
0.0
 40
2.45
  1
ECC. REDUCER
  7
CRE_ARIAL_NARROW
 11
38.1
 21
96.96600000000001
 31
0.0
100
AcDbText
  0
TEXT
  5
3F2
330
17
100
AcDbEntity
  8
TABLE
100
AcDbText
 10
125.64999999999999
 20
96.96600000000001
 30
0.0
 40
2.45
  1
1-1/2"x1"
  7
CRE_ARIAL_NARROW
 72
1
 11
125.64999999999999
 21
96.96600000000001
 31
0.0
100
AcDbText
  0
TEXT
  5
3F3
330
17
100
AcDbEntity
  8
TABLE
100
AcDbText
 10
162.25
 20
96.96600000000001
 30
0.0
 40
2.45
  1
--
  7
CRE_ARIAL_NARROW
 72
1
 11
162.25
 21
96.96600000000001
 31
0.0
100
AcDbText
  0
TEXT
  5
3F4
330
17
100
AcDbEntity
  8
TABLE
100
AcDbText
 10
191.89999999999998
 20
96.96600000000001
 30
0.0
 40
2.45
  1
01NO
  7
CRE_ARIAL_NARROW
 72
1
 11
191.89999999999998
 21
96.96600000000001
 31
0.0
100
AcDbText
  0
TEXT
  5
3F5
330
17
100
AcDbEntity
  8
TABLE
100
AcDbText
 10
26.05
 20
104.46600000000001
 30
0.0
 40
2.45
  1
9
  7
CRE_ARIAL_NARROW
 72
1
 11
26.05
 21
104.46600000000001
 31
0.0
100
AcDbText
  0
TEXT
  5
3F6
330
17
100
AcDbEntity
  8
TABLE
100
AcDbText
 10
38.1
 20
104.46600000000001
 30
0.0
 40
2.45
  1
EQUAL TEE
  7
CRE_ARIAL_NARROW
 11
38.1
 21
104.46600000000001
 31
0.0
100
AcDbText
  0
TEXT
  5
3F7
330
17
100
AcDbEntity
  8
TABLE
100
AcDbText
 10
125.64999999999999
 20
104.46600000000001
 30
0.0
 40
2.45
  1
1"x1"
  7
CRE_ARIAL_NARROW
 72
1
 11
125.64999999999999
 21
104.46600000000001
 31
0.0
100
AcDbText
  0
TEXT
  5
3F8
330
17
100
AcDbEntity
  8
TABLE
100
AcDbText
 10
162.25
 20
104.46600000000001
 30
0.0
 40
2.45
  1
--
  7
CRE_ARIAL_NARROW
 72
1
 11
162.25
 21
104.46600000000001
 31
0.0
100
AcDbText
  0
TEXT
  5
3F9
330
17
100
AcDbEntity
  8
TABLE
100
AcDbText
 10
191.89999999999998
 20
104.46600000000001
 30
0.0
 40
2.45
  1
02NO
  7
CRE_ARIAL_NARROW
 72
1
 11
191.89999999999998
 21
104.46600000000001
 31
0.0
100
AcDbText
  0
TEXT
  5
3FA
330
17
100
AcDbEntity
  8
TABLE
100
AcDbText
 10
26.05
 20
111.96600000000001
 30
0.0
 40
2.45
  1
10
  7
CRE_ARIAL_NARROW
 72
1
 11
26.05
 21
111.96600000000001
 31
0.0
100
AcDbText
  0
TEXT
  5
3FB
330
17
100
AcDbEntity
  8
TABLE
100
AcDbText
 10
38.1
 20
111.96600000000001
 30
0.0
 40
2.45
  1
REDUCING TEE
  7
CRE_ARIAL_NARROW
 11
38.1
 21
111.96600000000001
 31
0.0
100
AcDbText
  0
TEXT
  5
3FC
330
17
100
AcDbEntity
  8
TABLE
100
AcDbText
 10
125.64999999999999
 20
111.96600000000001
 30
0.0
 40
2.45
  1
1"x3/4"
  7
CRE_ARIAL_NARROW
 72
1
 11
125.64999999999999
 21
111.96600000000001
 31
0.0
100
AcDbText
  0
TEXT
  5
3FD
330
17
100
AcDbEntity
  8
TABLE
100
AcDbText
 10
162.25
 20
111.96600000000001
 30
0.0
 40
2.45
  1
--
  7
CRE_ARIAL_NARROW
 72
1
 11
162.25
 21
111.96600000000001
 31
0.0
100
AcDbText
  0
TEXT
  5
3FE
330
17
100
AcDbEntity
  8
TABLE
100
AcDbText
 10
191.89999999999998
 20
111.96600000000001
 30
0.0
 40
2.45
  1
02NO
  7
CRE_ARIAL_NARROW
 72
1
 11
191.89999999999998
 21
111.96600000000001
 31
0.0
100
AcDbText
  0
TEXT
  5
3FF
330
17
100
AcDbEntity
  8
TABLE
100
AcDbText
 10
26.05
 20
119.46600000000001
 30
0.0
 40
2.45
  1
11
  7
CRE_ARIAL_NARROW
 72
1
 11
26.05
 21
119.46600000000001
 31
0.0
100
AcDbText
  0
TEXT
  5
400
330
17
100
AcDbEntity
  8
TABLE
100
AcDbText
 10
38.1
 20
119.46600000000001
 30
0.0
 40
2.45
  1
90 DEG ELBOW
  7
CRE_ARIAL_NARROW
 11
38.1
 21
119.46600000000001
 31
0.0
100
AcDbText
  0
TEXT
  5
401
330
17
100
AcDbEntity
  8
TABLE
100
AcDbText
 10
125.64999999999999
 20
119.46600000000001
 30
0.0
 40
2.45
  1
1" (25NB)
  7
CRE_ARIAL_NARROW
 72
1
 11
125.64999999999999
 21
119.46600000000001
 31
0.0
100
AcDbText
  0
TEXT
  5
402
330
17
100
AcDbEntity
  8
TABLE
100
AcDbText
 10
162.25
 20
119.46600000000001
 30
0.0
 40
2.45
  1
38 C/H
  7
CRE_ARIAL_NARROW
 72
1
 11
162.25
 21
119.46600000000001
 31
0.0
100
AcDbText
  0
TEXT
  5
403
330
17
100
AcDbEntity
  8
TABLE
100
AcDbText
 10
191.89999999999998
 20
119.46600000000001
 30
0.0
 40
2.45
  1
06NO
  7
CRE_ARIAL_NARROW
 72
1
 11
191.89999999999998
 21
119.46600000000001
 31
0.0
100
AcDbText
  0
TEXT
  5
404
330
17
100
AcDbEntity
  8
TABLE
100
AcDbText
 10
26.05
 20
126.96600000000001
 30
0.0
 40
2.45
  1
12
  7
CRE_ARIAL_NARROW
 72
1
 11
26.05
 21
126.96600000000001
 31
0.0
100
AcDbText
  0
TEXT
  5
405
330
17
100
AcDbEntity
  8
TABLE
100
AcDbText
 10
38.1
 20
126.96600000000001
 30
0.0
 40
2.45
  1
WN FLANGE CL150
  7
CRE_ARIAL_NARROW
 11
38.1
 21
126.96600000000001
 31
0.0
100
AcDbText
  0
TEXT
  5
406
330
17
100
AcDbEntity
  8
TABLE
100
AcDbText
 10
125.64999999999999
 20
126.96600000000001
 30
0.0
 40
2.45
  1
1-1/2"
  7
CRE_ARIAL_NARROW
 72
1
 11
125.64999999999999
 21
126.96600000000001
 31
0.0
100
AcDbText
  0
TEXT
  5
407
330
17
100
AcDbEntity
  8
TABLE
100
AcDbText
 10
162.25
 20
126.96600000000001
 30
0.0
 40
2.45
  1
--
  7
CRE_ARIAL_NARROW
 72
1
 11
162.25
 21
126.96600000000001
 31
0.0
100
AcDbText
  0
TEXT
  5
408
330
17
100
AcDbEntity
  8
TABLE
100
AcDbText
 10
191.89999999999998
 20
126.96600000000001
 30
0.0
 40
2.45
  1
01NO
  7
CRE_ARIAL_NARROW
 72
1
 11
191.89999999999998
 21
126.96600000000001
 31
0.0
100
AcDbText
  0
TEXT
  5
409
330
17
100
AcDbEntity
  8
TABLE
100
AcDbText
 10
26.05
 20
134.466
 30
0.0
 40
2.45
  1
13
  7
CRE_ARIAL_NARROW
 72
1
 11
26.05
 21
134.466
 31
0.0
100
AcDbText
  0
TEXT
  5
40A
330
17
100
AcDbEntity
  8
TABLE
100
AcDbText
 10
38.1
 20
134.466
 30
0.0
 40
2.45
  1
WN FLANGE CL150
  7
CRE_ARIAL_NARROW
 11
38.1
 21
134.466
 31
0.0
100
AcDbText
  0
TEXT
  5
40B
330
17
100
AcDbEntity
  8
TABLE
100
AcDbText
 10
125.64999999999999
 20
134.466
 30
0.0
 40
2.45
  1
1"
  7
CRE_ARIAL_NARROW
 72
1
 11
125.64999999999999
 21
134.466
 31
0.0
100
AcDbText
  0
TEXT
  5
40C
330
17
100
AcDbEntity
  8
TABLE
100
AcDbText
 10
162.25
 20
134.466
 30
0.0
 40
2.45
  1
--
  7
CRE_ARIAL_NARROW
 72
1
 11
162.25
 21
134.466
 31
0.0
100
AcDbText
  0
TEXT
  5
40D
330
17
100
AcDbEntity
  8
TABLE
100
AcDbText
 10
191.89999999999998
 20
134.466
 30
0.0
 40
2.45
  1
10NO
  7
CRE_ARIAL_NARROW
 72
1
 11
191.89999999999998
 21
134.466
 31
0.0
100
AcDbText
  0
TEXT
  5
40E
330
17
100
AcDbEntity
  8
TABLE
100
AcDbText
 10
26.05
 20
141.966
 30
0.0
 40
2.45
  1
14
  7
CRE_ARIAL_NARROW
 72
1
 11
26.05
 21
141.966
 31
0.0
100
AcDbText
  0
TEXT
  5
40F
330
17
100
AcDbEntity
  8
TABLE
100
AcDbText
 10
38.1
 20
141.966
 30
0.0
 40
2.45
  1
WN FLANGE CL150
  7
CRE_ARIAL_NARROW
 11
38.1
 21
141.966
 31
0.0
100
AcDbText
  0
TEXT
  5
410
330
17
100
AcDbEntity
  8
TABLE
100
AcDbText
 10
125.64999999999999
 20
141.966
 30
0.0
 40
2.45
  1
3/4"
  7
CRE_ARIAL_NARROW
 72
1
 11
125.64999999999999
 21
141.966
 31
0.0
100
AcDbText
  0
TEXT
  5
411
330
17
100
AcDbEntity
  8
TABLE
100
AcDbText
 10
162.25
 20
141.966
 30
0.0
 40
2.45
  1
--
  7
CRE_ARIAL_NARROW
 72
1
 11
162.25
 21
141.966
 31
0.0
100
AcDbText
  0
TEXT
  5
412
330
17
100
AcDbEntity
  8
TABLE
100
AcDbText
 10
191.89999999999998
 20
141.966
 30
0.0
 40
2.45
  1
02NO
  7
CRE_ARIAL_NARROW
 72
1
 11
191.89999999999998
 21
141.966
 31
0.0
100
AcDbText
  0
TEXT
  5
413
330
17
100
AcDbEntity
  8
TABLE
100
AcDbText
 10
26.05
 20
149.466
 30
0.0
 40
2.45
  1
15
  7
CRE_ARIAL_NARROW
 72
1
 11
26.05
 21
149.466
 31
0.0
100
AcDbText
  0
TEXT
  5
414
330
17
100
AcDbEntity
  8
TABLE
100
AcDbText
 10
38.1
 20
149.466
 30
0.0
 40
2.45
  1
BLIND FLANGE CL150
  7
CRE_ARIAL_NARROW
 11
38.1
 21
149.466
 31
0.0
100
AcDbText
  0
TEXT
  5
415
330
17
100
AcDbEntity
  8
TABLE
100
AcDbText
 10
125.64999999999999
 20
149.466
 30
0.0
 40
2.45
  1
3/4"
  7
CRE_ARIAL_NARROW
 72
1
 11
125.64999999999999
 21
149.466
 31
0.0
100
AcDbText
  0
TEXT
  5
416
330
17
100
AcDbEntity
  8
TABLE
100
AcDbText
 10
162.25
 20
149.466
 30
0.0
 40
2.45
  1
--
  7
CRE_ARIAL_NARROW
 72
1
 11
162.25
 21
149.466
 31
0.0
100
AcDbText
  0
TEXT
  5
417
330
17
100
AcDbEntity
  8
TABLE
100
AcDbText
 10
191.89999999999998
 20
149.466
 30
0.0
 40
2.45
  1
02NO
  7
CRE_ARIAL_NARROW
 72
1
 11
191.89999999999998
 21
149.466
 31
0.0
100
AcDbText
  0
TEXT
  5
418
330
17
100
AcDbEntity
  8
TABLE
100
AcDbText
 10
26.05
 20
156.966
 30
0.0
 40
2.45
  1
16
  7
CRE_ARIAL_NARROW
 72
1
 11
26.05
 21
156.966
 31
0.0
100
AcDbText
  0
TEXT
  5
419
330
17
100
AcDbEntity
  8
TABLE
100
AcDbText
 10
38.1
 20
156.966
 30
0.0
 40
2.45
  1
GLOBE VALVE
  7
CRE_ARIAL_NARROW
 11
38.1
 21
156.966
 31
0.0
100
AcDbText
  0
TEXT
  5
41A
330
17
100
AcDbEntity
  8
TABLE
100
AcDbText
 10
125.64999999999999
 20
156.966
 30
0.0
 40
2.45
  1
1"
  7
CRE_ARIAL_NARROW
 72
1
 11
125.64999999999999
 21
156.966
 31
0.0
100
AcDbText
  0
TEXT
  5
41B
330
17
100
AcDbEntity
  8
TABLE
100
AcDbText
 10
162.25
 20
156.966
 30
0.0
 40
2.45
  1
127
  7
CRE_ARIAL_NARROW
 72
1
 11
162.25
 21
156.966
 31
0.0
100
AcDbText
  0
TEXT
  5
41C
330
17
100
AcDbEntity
  8
TABLE
100
AcDbText
 10
191.89999999999998
 20
156.966
 30
0.0
 40
2.45
  1
01NO
  7
CRE_ARIAL_NARROW
 72
1
 11
191.89999999999998
 21
156.966
 31
0.0
100
AcDbText
  0
TEXT
  5
41D
330
17
100
AcDbEntity
  8
TABLE
100
AcDbText
 10
26.05
 20
164.466
 30
0.0
 40
2.45
  1
17
  7
CRE_ARIAL_NARROW
 72
1
 11
26.05
 21
164.466
 31
0.0
100
AcDbText
  0
TEXT
  5
41E
330
17
100
AcDbEntity
  8
TABLE
100
AcDbText
 10
38.1
 20
164.466
 30
0.0
 40
2.45
  1
BALL VALVE
  7
CRE_ARIAL_NARROW
 11
38.1
 21
164.466
 31
0.0
100
AcDbText
  0
TEXT
  5
41F
330
17
100
AcDbEntity
  8
TABLE
100
AcDbText
 10
125.64999999999999
 20
164.466
 30
0.0
 40
2.45
  1
1"
  7
CRE_ARIAL_NARROW
 72
1
 11
125.64999999999999
 21
164.466
 31
0.0
100
AcDbText
  0
TEXT
  5
420
330
17
100
AcDbEntity
  8
TABLE
100
AcDbText
 10
162.25
 20
164.466
 30
0.0
 40
2.45
  1
128
  7
CRE_ARIAL_NARROW
 72
1
 11
162.25
 21
164.466
 31
0.0
100
AcDbText
  0
TEXT
  5
421
330
17
100
AcDbEntity
  8
TABLE
100
AcDbText
 10
191.89999999999998
 20
164.466
 30
0.0
 40
2.45
  1
02NO
  7
CRE_ARIAL_NARROW
 72
1
 11
191.89999999999998
 21
164.466
 31
0.0
100
AcDbText
  0
TEXT
  5
422
330
17
100
AcDbEntity
  8
TABLE
100
AcDbText
 10
26.05
 20
171.966
 30
0.0
 40
2.45
  1
18
  7
CRE_ARIAL_NARROW
 72
1
 11
26.05
 21
171.966
 31
0.0
100
AcDbText
  0
TEXT
  5
423
330
17
100
AcDbEntity
  8
TABLE
100
AcDbText
 10
38.1
 20
171.966
 30
0.0
 40
2.45
  1
BALL VALVE
  7
CRE_ARIAL_NARROW
 11
38.1
 21
171.966
 31
0.0
100
AcDbText
  0
TEXT
  5
424
330
17
100
AcDbEntity
  8
TABLE
100
AcDbText
 10
125.64999999999999
 20
171.966
 30
0.0
 40
2.45
  1
3/4"
  7
CRE_ARIAL_NARROW
 72
1
 11
125.64999999999999
 21
171.966
 31
0.0
100
AcDbText
  0
TEXT
  5
425
330
17
100
AcDbEntity
  8
TABLE
100
AcDbText
 10
162.25
 20
171.966
 30
0.0
 40
2.45
  1
118
  7
CRE_ARIAL_NARROW
 72
1
 11
162.25
 21
171.966
 31
0.0
100
AcDbText
  0
TEXT
  5
426
330
17
100
AcDbEntity
  8
TABLE
100
AcDbText
 10
191.89999999999998
 20
171.966
 30
0.0
 40
2.45
  1
02NO
  7
CRE_ARIAL_NARROW
 72
1
 11
191.89999999999998
 21
171.966
 31
0.0
100
AcDbText
  0
TEXT
  5
427
330
17
100
AcDbEntity
  8
TABLE
100
AcDbText
 10
26.05
 20
179.466
 30
0.0
 40
2.45
  1
19
  7
CRE_ARIAL_NARROW
 72
1
 11
26.05
 21
179.466
 31
0.0
100
AcDbText
  0
TEXT
  5
428
330
17
100
AcDbEntity
  8
TABLE
100
AcDbText
 10
38.1
 20
179.466
 30
0.0
 40
2.45
  1
ORIFICE FLOW ELEMENT
  7
CRE_ARIAL_NARROW
 11
38.1
 21
179.466
 31
0.0
100
AcDbText
  0
TEXT
  5
429
330
17
100
AcDbEntity
  8
TABLE
100
AcDbText
 10
125.64999999999999
 20
179.466
 30
0.0
 40
2.45
  1
1"
  7
CRE_ARIAL_NARROW
 72
1
 11
125.64999999999999
 21
179.466
 31
0.0
100
AcDbText
  0
TEXT
  5
42A
330
17
100
AcDbEntity
  8
TABLE
100
AcDbText
 10
162.25
 20
179.466
 30
0.0
 40
2.45
  1
300
  7
CRE_ARIAL_NARROW
 72
1
 11
162.25
 21
179.466
 31
0.0
100
AcDbText
  0
TEXT
  5
42B
330
17
100
AcDbEntity
  8
TABLE
100
AcDbText
 10
191.89999999999998
 20
179.466
 30
0.0
 40
2.45
  1
01NO
  7
CRE_ARIAL_NARROW
 72
1
 11
191.89999999999998
 21
179.466
 31
0.0
100
AcDbText
  0
TEXT
  5
42C
330
17
100
AcDbEntity
  8
TABLE
100
AcDbText
 10
26.05
 20
186.966
 30
0.0
 40
2.45
  1
20
  7
CRE_ARIAL_NARROW
 72
1
 11
26.05
 21
186.966
 31
0.0
100
AcDbText
  0
TEXT
  5
42D
330
17
100
AcDbEntity
  8
TABLE
100
AcDbText
 10
38.1
 20
186.966
 30
0.0
 40
2.45
  1
ORIFICE FLOW ELEMENT
  7
CRE_ARIAL_NARROW
 11
38.1
 21
186.966
 31
0.0
100
AcDbText
  0
TEXT
  5
42E
330
17
100
AcDbEntity
  8
TABLE
100
AcDbText
 10
125.64999999999999
 20
186.966
 30
0.0
 40
2.45
  1
1"
  7
CRE_ARIAL_NARROW
 72
1
 11
125.64999999999999
 21
186.966
 31
0.0
100
AcDbText
  0
TEXT
  5
42F
330
17
100
AcDbEntity
  8
TABLE
100
AcDbText
 10
162.25
 20
186.966
 30
0.0
 40
2.45
  1
600
  7
CRE_ARIAL_NARROW
 72
1
 11
162.25
 21
186.966
 31
0.0
100
AcDbText
  0
TEXT
  5
430
330
17
100
AcDbEntity
  8
TABLE
100
AcDbText
 10
191.89999999999998
 20
186.966
 30
0.0
 40
2.45
  1
01NO
  7
CRE_ARIAL_NARROW
 72
1
 11
191.89999999999998
 21
186.966
 31
0.0
100
AcDbText
  0
TEXT
  5
431
330
17
100
AcDbEntity
  8
TITLE
100
AcDbText
 10
215.0
 20
198.0
 30
0.0
 40
4.0
  1
GENERAL NOTES :-
  7
CRE_ARIAL_NARROW_BOLD
 11
215.0
 21
198.0
 31
0.0
100
AcDbText
  0
LINE
  5
432
330
17
100
AcDbEntity
  8
TITLE
370
20
100
AcDbLine
 10
215.0
 20
196.4
 30
0.0
 11
253.0
 21
196.4
 31
0.0
  0
TEXT
  5
433
330
17
100
AcDbEntity
  8
NOTES
100
AcDbText
 10
217.0
 20
190.0
 30
0.0
 40
2.8
  1
1) ALL DIMENSIONS ARE IN MM.
  7
CRE_ARIAL_NARROW_BOLD
 11
217.0
 21
190.0
 31
0.0
100
AcDbText
  0
TEXT
  5
434
330
17
100
AcDbEntity
  8
NOTES
100
AcDbText
 10
217.0
 20
183.8
 30
0.0
 40
2.8
  1
2) FLANGE CONN. DRILLING AS PER ANSI B16.5 CLASS 150#.
  7
CRE_ARIAL_NARROW
 11
217.0
 21
183.8
 31
0.0
100
AcDbText
  0
TEXT
  5
435
330
17
100
AcDbEntity
  8
NOTES
100
AcDbText
 10
217.0
 20
177.6
 30
0.0
 40
2.8
  1
3) PTFE LINING AS PER ASTM D4895 STANDARD.
  7
CRE_ARIAL_NARROW
 11
217.0
 21
177.6
 31
0.0
100
AcDbText
  0
TEXT
  5
436
330
17
100
AcDbEntity
  8
NOTES
100
AcDbText
 10
217.0
 20
171.4
 30
0.0
 40
2.8
  1
4) TESTING AND DIMENSIONS AS PER ASTM 1545.
  7
CRE_ARIAL_NARROW
 11
217.0
 21
171.4
 31
0.0
100
AcDbText
  0
TEXT
  5
437
330
17
100
AcDbEntity
  8
TITLE
100
AcDbText
 10
215.0
 20
160.0
 30
0.0
 40
3.6
  1
INSPECTION
  7
CRE_ARIAL_NARROW_BOLD
 11
215.0
 21
160.0
 31
0.0
100
AcDbText
  0
LINE
  5
438
330
17
100
AcDbEntity
  8
TITLE
370
18
100
AcDbLine
 10
215.0
 20
158.4
 30
0.0
 11
242.0
 21
158.4
 31
0.0
  0
TEXT
  5
439
330
17
100
AcDbEntity
  8
NOTES
100
AcDbText
 10
217.0
 20
152.0
 30
0.0
 40
2.8
  1
- HYDRO TEST :- 29 KG/CM2
  7
CRE_ARIAL_NARROW
 11
217.0
 21
152.0
 31
0.0
100
AcDbText
  0
TEXT
  5
43A
330
17
100
AcDbEntity
  8
NOTES
100
AcDbText
 10
217.0
 20
145.0
 30
0.0
 40
2.8
  1
- SPARK TEST :- 15 KVA
  7
CRE_ARIAL_NARROW
 11
217.0
 21
145.0
 31
0.0
100
AcDbText
  0
TEXT
  5
43B
330
17
100
AcDbEntity
  8
NOTES
100
AcDbText
 10
215.0
 20
134.0
 30
0.0
 40
2.55
  1
PACKING:- WOODEN / PLASTIC COVERS WILL BE USED
  7
CRE_ARIAL_NARROW
 11
215.0
 21
134.0
 31
0.0
100
AcDbText
  0
TEXT
  5
43C
330
17
100
AcDbEntity
  8
NOTES
100
AcDbText
 10
215.0
 20
128.0
 30
0.0
 40
2.55
  1
TO PROTECT ALL LINED PORTIONS.
  7
CRE_ARIAL_NARROW
 11
215.0
 21
128.0
 31
0.0
100
AcDbText
  0
LWPOLYLINE
  5
43D
330
17
100
AcDbEntity
  8
BORDER
370
30
100
AcDbPolyline
 90
4
 70
1
 10
215.0
 20
12.0
 10
405.0
 20
12.0
 10
405.0
 20
91.0
 10
215.0
 20
91.0
  0
LINE
  5
43E
330
17
100
AcDbEntity
  8
BORDER
370
20
100
AcDbLine
 10
215.0
 20
80.0
 30
0.0
 11
405.0
 21
80.0
 31
0.0
  0
LINE
  5
43F
330
17
100
AcDbEntity
  8
BORDER
370
20
100
AcDbLine
 10
215.0
 20
69.0
 30
0.0
 11
405.0
 21
69.0
 31
0.0
  0
LINE
  5
440
330
17
100
AcDbEntity
  8
BORDER
370
20
100
AcDbLine
 10
215.0
 20
58.0
 30
0.0
 11
405.0
 21
58.0
 31
0.0
  0
LINE
  5
441
330
17
100
AcDbEntity
  8
BORDER
370
20
100
AcDbLine
 10
215.0
 20
43.0
 30
0.0
 11
405.0
 21
43.0
 31
0.0
  0
LINE
  5
442
330
17
100
AcDbEntity
  8
BORDER
370
20
100
AcDbLine
 10
215.0
 20
22.0
 30
0.0
 11
405.0
 21
22.0
 31
0.0
  0
TEXT
  5
443
330
17
100
AcDbEntity
  8
COMPANY
100
AcDbText
 10
310.0
 20
83.0
 30
0.0
 40
4.7
  1
CORROSION RESISTANT EQUIPMENT PVT LTD
  7
CRE_ARIAL_NARROW_BOLD
 72
1
 11
310.0
 21
83.0
 31
0.0
100
AcDbText
  0
TEXT
  5
444
330
17
100
AcDbEntity
  8
TITLE
100
AcDbText
 10
217.0
 20
72.2
 30
0.0
 40
2.8
  1
CUSTOMER: ENGINEERS INDIA LTD, NEW DELHI
  7
CRE_ARIAL_NARROW_BOLD
 11
217.0
 21
72.2
 31
0.0
100
AcDbText
  0
TEXT
  5
445
330
17
100
AcDbEntity
  8
TITLE
100
AcDbText
 10
217.0
 20
61.2
 30
0.0
 40
2.6
  1
PROJECT: MIL PROJECT, TNT PLANT, HEF KHADKI, PUNE
  7
CRE_ARIAL_NARROW_BOLD
 11
217.0
 21
61.2
 31
0.0
100
AcDbText
  0
LINE
  5
446
330
17
100
AcDbEntity
  8
BORDER
370
20
100
AcDbLine
 10
287.0
 20
22.0
 30
0.0
 11
287.0
 21
58.0
 31
0.0
  0
LINE
  5
447
330
17
100
AcDbEntity
  8
BORDER
370
20
100
AcDbLine
 10
215.0
 20
31.0
 30
0.0
 11
287.0
 21
31.0
 31
0.0
  0
LINE
  5
448
330
17
100
AcDbEntity
  8
BORDER
370
20
100
AcDbLine
 10
215.0
 20
40.0
 30
0.0
 11
287.0
 21
40.0
 31
0.0
  0
LINE
  5
449
330
17
100
AcDbEntity
  8
BORDER
370
20
100
AcDbLine
 10
215.0
 20
49.0
 30
0.0
 11
287.0
 21
49.0
 31
0.0
  0
LINE
  5
44A
330
17
100
AcDbEntity
  8
BORDER
370
20
100
AcDbLine
 10
235.0
 20
22.0
 30
0.0
 11
235.0
 21
58.0
 31
0.0
  0
LINE
  5
44B
330
17
100
AcDbEntity
  8
BORDER
370
20
100
AcDbLine
 10
260.0
 20
22.0
 30
0.0
 11
260.0
 21
58.0
 31
0.0
  0
LINE
  5
44C
330
17
100
AcDbEntity
  8
BORDER
370
20
100
AcDbLine
 10
272.0
 20
22.0
 30
0.0
 11
272.0
 21
58.0
 31
0.0
  0
TEXT
  5
44D
330
17
100
AcDbEntity
  8
TITLE
100
AcDbText
 10
247.5
 20
52.2
 30
0.0
 40
2.3
  1
NAME
  7
CRE_ARIAL_NARROW_BOLD
 72
1
 11
247.5
 21
52.2
 31
0.0
100
AcDbText
  0
TEXT
  5
44E
330
17
100
AcDbEntity
  8
TITLE
100
AcDbText
 10
266.0
 20
52.2
 30
0.0
 40
2.3
  1
SIGN
  7
CRE_ARIAL_NARROW_BOLD
 72
1
 11
266.0
 21
52.2
 31
0.0
100
AcDbText
  0
TEXT
  5
44F
330
17
100
AcDbEntity
  8
TITLE
100
AcDbText
 10
279.5
 20
52.2
 30
0.0
 40
2.3
  1
DATE
  7
CRE_ARIAL_NARROW_BOLD
 72
1
 11
279.5
 21
52.2
 31
0.0
100
AcDbText
  0
TEXT
  5
450
330
17
100
AcDbEntity
  8
TITLE
100
AcDbText
 10
225.0
 20
43.2
 30
0.0
 40
2.4
  1
DRAN
  7
CRE_ARIAL_NARROW_BOLD
 72
1
 11
225.0
 21
43.2
 31
0.0
100
AcDbText
  0
TEXT
  5
451
330
17
100
AcDbEntity
  8
TITLE
100
AcDbText
 10
225.0
 20
34.2
 30
0.0
 40
2.4
  1
CHK
  7
CRE_ARIAL_NARROW_BOLD
 72
1
 11
225.0
 21
34.2
 31
0.0
100
AcDbText
  0
TEXT
  5
452
330
17
100
AcDbEntity
  8
TITLE
100
AcDbText
 10
225.0
 20
25.2
 30
0.0
 40
2.4
  1
APPD.
  7
CRE_ARIAL_NARROW_BOLD
 72
1
 11
225.0
 21
25.2
 31
0.0
100
AcDbText
  0
TEXT
  5
453
330
17
100
AcDbEntity
  8
TITLE
100
AcDbText
 10
247.5
 20
43.2
 30
0.0
 40
2.0
  1
RAM GAWAS
  7
CRE_ARIAL_NARROW
 72
1
 11
247.5
 21
43.2
 31
0.0
100
AcDbText
  0
TEXT
  5
454
330
17
100
AcDbEntity
  8
TITLE
100
AcDbText
 10
279.5
 20
43.2
 30
0.0
 40
2.0
  1
14.7.26
  7
CRE_ARIAL_NARROW
 72
1
 11
279.5
 21
43.2
 31
0.0
100
AcDbText
  0
TEXT
  5
455
330
17
100
AcDbEntity
  8
HIGHLIGHT
100
AcDbText
 10
292.0
 20
48.5
 30
0.0
 40
3.1
  1
LINE NO.
  7
CRE_ARIAL_NARROW_BOLD
 11
292.0
 21
48.5
 31
0.0
100
AcDbText
  0
TEXT
  5
456
330
17
100
AcDbEntity
  8
HIGHLIGHT
100
AcDbText
 10
292.0
 20
35.2
 30
0.0
 40
2.9
  1
1"-SNA-424-1501-1-A82Y-A
  7
CRE_ARIAL_NARROW_BOLD
 11
292.0
 21
35.2
 31
0.0
100
AcDbText
  0
LINE
  5
457
330
17
100
AcDbEntity
  8
BORDER
370
20
100
AcDbLine
 10
265.0
 20
12.0
 30
0.0
 11
265.0
 21
22.0
 31
0.0
  0
LINE
  5
458
330
17
100
AcDbEntity
  8
BORDER
370
20
100
AcDbLine
 10
305.0
 20
12.0
 30
0.0
 11
305.0
 21
22.0
 31
0.0
  0
LINE
  5
459
330
17
100
AcDbEntity
  8
BORDER
370
20
100
AcDbLine
 10
375.0
 20
12.0
 30
0.0
 11
375.0
 21
22.0
 31
0.0
  0
TEXT
  5
45A
330
17
100
AcDbEntity
  8
TITLE
100
AcDbText
 10
240.0
 20
15.0
 30
0.0
 40
2.7
  1
SCALE=NTS
  7
CRE_ARIAL_NARROW_BOLD
 72
1
 11
240.0
 21
15.0
 31
0.0
100
AcDbText
  0
LINE
  5
45B
330
17
100
AcDbEntity
  8
SYMBOL
370
20
100
AcDbLine
 10
270.0
 20
15.0
 30
0.0
 11
280.0
 21
17.0
 31
0.0
  0
LINE
  5
45C
330
17
100
AcDbEntity
  8
SYMBOL
370
20
100
AcDbLine
 10
270.0
 20
19.0
 30
0.0
 11
280.0
 21
17.0
 31
0.0
  0
LINE
  5
45D
330
17
100
AcDbEntity
  8
SYMBOL
370
20
100
AcDbLine
 10
270.0
 20
15.0
 30
0.0
 11
270.0
 21
19.0
 31
0.0
  0
CIRCLE
  5
45E
330
17
100
AcDbEntity
  8
SYMBOL
370
20
100
AcDbCircle
 10
293.0
 20
17.0
 30
0.0
 40
3.4
  0
CIRCLE
  5
45F
330
17
100
AcDbEntity
  8
SYMBOL
370
20
100
AcDbCircle
 10
293.0
 20
17.0
 30
0.0
 40
1.9
  0
LINE
  5
460
330
17
100
AcDbEntity
  8
CENTER
370
20
100
AcDbLine
 10
287.5
 20
17.0
 30
0.0
 11
298.5
 21
17.0
 31
0.0
  0
LINE
  5
461
330
17
100
AcDbEntity
  8
CENTER
370
20
100
AcDbLine
 10
293.0
 20
11.5
 30
0.0
 11
293.0
 21
22.5
 31
0.0
  0
TEXT
  5
462
330
17
100
AcDbEntity
  8
TITLE
100
AcDbText
 10
340.0
 20
15.0
 30
0.0
 40
2.7
  1
SHEET NO. 2 OF 2
  7
CRE_ARIAL_NARROW_BOLD
 72
1
 11
340.0
 21
15.0
 31
0.0
100
AcDbText
  0
TEXT
  5
463
330
17
100
AcDbEntity
  8
TITLE
100
AcDbText
 10
390.0
 20
18.0
 30
0.0
 40
2.3
  1
REV.
  7
CRE_ARIAL_NARROW_BOLD
 72
1
 11
390.0
 21
18.0
 31
0.0
100
AcDbText
  0
LINE
  5
464
330
17
100
AcDbEntity
  8
BORDER
370
20
100
AcDbLine
 10
375.0
 20
16.0
 30
0.0
 11
405.0
 21
16.0
 31
0.0
  0
TEXT
  5
465
330
17
100
AcDbEntity
  8
TITLE
100
AcDbText
 10
390.0
 20
12.5
 30
0.0
 40
2.3
  1
0
  7
CRE_ARIAL_NARROW_BOLD
 72
1
 11
390.0
 21
12.5
 31
0.0
100
AcDbText
  0
LWPOLYLINE
  5
466
330
17
100
AcDbEntity
  8
BORDER
370
25
100
AcDbPolyline
 90
4
 70
1
 10
15.0
 20
12.0
 10
215.0
 20
12.0
 10
215.0
 20
31.0
 10
15.0
 20
31.0
  0
LINE
  5
467
330
17
100
AcDbEntity
  8
BORDER
370
20
100
AcDbLine
 10
15.0
 20
22.0
 30
0.0
 11
215.0
 21
22.0
 31
0.0
  0
LINE
  5
468
330
17
100
AcDbEntity
  8
BORDER
370
20
100
AcDbLine
 10
30.5
 20
12.0
 30
0.0
 11
30.5
 21
31.0
 31
0.0
  0
LINE
  5
469
330
17
100
AcDbEntity
  8
BORDER
370
20
100
AcDbLine
 10
176.4
 20
12.0
 30
0.0
 11
176.4
 21
31.0
 31
0.0
  0
LINE
  5
46A
330
17
100
AcDbEntity
  8
BORDER
370
20
100
AcDbLine
 10
187.9
 20
12.0
 30
0.0
 11
187.9
 21
31.0
 31
0.0
  0
LINE
  5
46B
330
17
100
AcDbEntity
  8
BORDER
370
20
100
AcDbLine
 10
202.3
 20
12.0
 30
0.0
 11
202.3
 21
31.0
 31
0.0
  0
TEXT
  5
46C
330
17
100
AcDbEntity
  8
TITLE
100
AcDbText
 10
22.75
 20
15.0
 30
0.0
 40
2.7
  1
REV.
  7
CRE_ARIAL_NARROW_BOLD
 72
1
 11
22.75
 21
15.0
 31
0.0
100
AcDbText
  0
TEXT
  5
46D
330
17
100
AcDbEntity
  8
TITLE
100
AcDbText
 10
103.45
 20
15.0
 30
0.0
 40
2.7
  1
DESCRIPTION
  7
CRE_ARIAL_NARROW_BOLD
 72
1
 11
103.45
 21
15.0
 31
0.0
100
AcDbText
  0
TEXT
  5
46E
330
17
100
AcDbEntity
  8
TITLE
100
AcDbText
 10
182.15
 20
15.0
 30
0.0
 40
2.5
  1
BY
  7
CRE_ARIAL_NARROW_BOLD
 72
1
 11
182.15
 21
15.0
 31
0.0
100
AcDbText
  0
TEXT
  5
46F
330
17
100
AcDbEntity
  8
TITLE
100
AcDbText
 10
195.1
 20
15.0
 30
0.0
 40
2.4
  1
CHD.
  7
CRE_ARIAL_NARROW_BOLD
 72
1
 11
195.1
 21
15.0
 31
0.0
100
AcDbText
  0
TEXT
  5
470
330
17
100
AcDbEntity
  8
TITLE
100
AcDbText
 10
208.65
 20
15.0
 30
0.0
 40
2.2
  1
APPD
  7
CRE_ARIAL_NARROW_BOLD
 72
1
 11
208.65
 21
15.0
 31
0.0
100
AcDbText
  0
VIEWPORT
  5
471
330
1B
100
AcDbEntity
 67
1
  8
VIEWPORTS
100
AcDbViewport
 10
210.0
 20
297.0
 30
0.0
 40
462.00000000000006
 41
653.4000000000001
 68
1
 69
1
 12
210.0
 22
297.0
 13
0.0
 23
0.0
 14
10.0
 24
10.0
 15
10.0
 25
10.0
 16
0.0
 26
0.0
 36
1.0
 17
0.0
 27
0.0
 37
0.0
 42
50.0
 43
0.0
 44
0.0
 45
653.4000000000001
 50
0.0
 51
0.0
 72
100
 90
557088
  1

281
0
 71
0
 74
0
110
0.0
120
0.0
130
0.0
111
1.0
121
0.0
131
0.0
112
0.0
122
1.0
132
0.0
 79
0
146
0.0
282
0
  0
VIEWPORT
  5
472
330
1B
100
AcDbEntity
 67
1
  8
VIEWPORTS
100
AcDbViewport
 10
210.0
 20
297.0
 30
0.0
 40
420.0
 41
594.0
 68
2
 69
3
 12
210.0
 22
297.0
 13
0.0
 23
0.0
 14
10.0
 24
10.0
 15
10.0
 25
10.0
 16
0.0
 26
0.0
 36
1.0
 17
0.0
 27
0.0
 37
0.0
 42
50.0
 43
0.0
 44
0.0
 45
594.0
 50
0.0
 51
0.0
 72
100
 90
0
  1

281
0
 71
0
 74
0
110
0.0
120
0.0
130
0.0
111
1.0
121
0.0
131
0.0
112
0.0
122
1.0
132
0.0
 79
0
146
0.0
282
0
  0
ENDSEC
  0
SECTION
  2
OBJECTS
  0
DICTIONARY
  5
A
330
0
100
AcDbDictionary
281
1
  3
ACAD_COLOR
350
B
  3
ACAD_GROUP
350
C
  3
ACAD_LAYOUT
350
D
  3
ACAD_MATERIAL
350
E
  3
ACAD_MLEADERSTYLE
350
F
  3
ACAD_MLINESTYLE
350
10
  3
ACAD_PLOTSETTINGS
350
11
  3
ACAD_PLOTSTYLENAME
350
12
  3
ACAD_SCALELIST
350
14
  3
ACAD_TABLESTYLE
350
15
  3
ACAD_VISUALSTYLE
350
16
  3
EZDXF_META
350
2D
  0
DICTIONARY
  5
B
330
A
100
AcDbDictionary
281
1
  0
DICTIONARY
  5
C
330
A
100
AcDbDictionary
281
1
  0
DICTIONARY
  5
D
330
A
100
AcDbDictionary
281
1
  3
Model
350
1A
  3
Layout1
350
1E
  0
DICTIONARY
  5
E
330
A
100
AcDbDictionary
281
1
  3
ByBlock
350
1F
  3
ByLayer
350
20
  3
Global
350
21
  0
DICTIONARY
  5
F
330
A
100
AcDbDictionary
281
1
  3
Standard
350
2C
  0
DICTIONARY
  5
10
330
A
100
AcDbDictionary
281
1
  3
Standard
350
22
  0
DICTIONARY
  5
11
330
A
100
AcDbDictionary
281
1
  0
ACDBDICTIONARYWDFLT
  5
12
330
A
100
AcDbDictionary
281
1
  3
Normal
350
13
100
AcDbDictionaryWithDefault
340
13
  0
ACDBPLACEHOLDER
  5
13
330
12
  0
DICTIONARY
  5
14
330
A
100
AcDbDictionary
281
1
  0
DICTIONARY
  5
15
330
A
100
AcDbDictionary
281
1
  0
DICTIONARY
  5
16
330
A
100
AcDbDictionary
281
1
  3
2dWireframe
350
5A
  3
Basic
350
5B
  3
Brighten
350
5C
  3
ColorChange
350
5D
  3
Conceptual
350
5E
  3
Dim
350
5F
  3
EdgeColorOff
350
60
  3
Facepattern
350
61
  3
Flat
350
62
  3
FlatWithEdges
350
63
  3
Gouraud
350
64
  3
GouraudWithEdges
350
65
  3
Hidden
350
66
  3
JitterOff
350
67
  3
Linepattern
350
68
  3
Modeling
350
69
  3
OverhangOff
350
6A
  3
Realistic
350
6B
  3
Shaded
350
6C
  3
Shaded with edges
350
6D
  3
Shades of Gray
350
6E
  3
Sketchy
350
6F
  3
Thicken
350
70
  3
Wireframe
350
71
  3
X-Ray
350
72
  0
LAYOUT
  5
1A
330
D
100
AcDbPlotSettings
  1

  4
A3
  6

 40
7.5
 41
20.0
 42
7.5
 43
20.0
 44
420.0
 45
297.0
 46
0.0
 47
0.0
 48
0.0
 49
0.0
140
0.0
141
0.0
142
1.0
143
1.0
 70
1024
 72
1
 73
0
 74
5
  7

 75
16
 76
0
 77
2
 78
300
147
1.0
148
0.0
149
0.0
100
AcDbLayout
  1
Model
 70
1
 71
0
 10
0.0
 20
0.0
 11
420.0
 21
297.0
 12
0.0
 22
0.0
 32
0.0
 14
1e+20
 24
1e+20
 34
1e+20
 15
-1e+20
 25
-1e+20
 35
-1e+20
146
0.0
 13
0.0
 23
0.0
 33
0.0
 16
1.0
 26
0.0
 36
0.0
 17
0.0
 27
1.0
 37
0.0
 76
1
330
17
  0
LAYOUT
  5
1E
330
D
100
AcDbPlotSettings
  1

  2
DWG To PDF.pc3
  4
ISO_A2_PORTRAIT_(420.00_x_594.00_MM)
  6

 40
0.0
 41
0.0
 42
0.0
 43
0.0
 44
420.0
 45
594.0
 46
0.0
 47
0.0
 48
0.0
 49
0.0
140
0.0
141
0.0
142
1.0
143
1.0
 70
672
 72
1
 73
0
 74
5
  7

 75
16
 76
0
 77
2
 78
300
147
1.0
148
0.0
149
0.0
100
AcDbLayout
  1
Layout1
 70
1
 71
1
 10
-0.0
 20
-0.0
 11
420.0
 21
594.0
 12
0.0
 22
0.0
 32
0.0
 14
1e+20
 24
1e+20
 34
1e+20
 15
-1e+20
 25
-1e+20
 35
-1e+20
146
0.0
 13
0.0
 23
0.0
 33
0.0
 16
1.0
 26
0.0
 36
0.0
 17
0.0
 27
1.0
 37
0.0
 76
1
330
1B
331
471
  0
MATERIAL
  5
1F
102
{ACAD_REACTORS
330
E
102
}
330
E
100
AcDbMaterial
  1
ByBlock
  2

 70
0
 40
1.0
 71
1
 41
1.0
 91
-1023410177
 42
1.0
 72
1
  3

 73
1
 74
1
 75
1
 44
0.5
 73
0
 45
1.0
 46
1.0
 77
1
  4

 78
1
 79
1
170
1
 48
1.0
171
1
  6

172
1
173
1
174
1
140
1.0
141
1.0
175
1
  7

176
1
177
1
178
1
143
1.0
179
1
  8

270
1
271
1
272
1
145
1.0
146
1.0
273
1
  9

274
1
275
1
276
1
 42
1.0
 72
1
  3

 73
1
 74
1
 75
1
 94
63
  0
MATERIAL
  5
20
102
{ACAD_REACTORS
330
E
102
}
330
E
100
AcDbMaterial
  1
ByLayer
  2

 70
0
 40
1.0
 71
1
 41
1.0
 91
-1023410177
 42
1.0
 72
1
  3

 73
1
 74
1
 75
1
 44
0.5
 73
0
 45
1.0
 46
1.0
 77
1
  4

 78
1
 79
1
170
1
 48
1.0
171
1
  6

172
1
173
1
174
1
140
1.0
141
1.0
175
1
  7

176
1
177
1
178
1
143
1.0
179
1
  8

270
1
271
1
272
1
145
1.0
146
1.0
273
1
  9

274
1
275
1
276
1
 42
1.0
 72
1
  3

 73
1
 74
1
 75
1
 94
63
  0
MATERIAL
  5
21
102
{ACAD_REACTORS
330
E
102
}
330
E
100
AcDbMaterial
  1
Global
  2

 70
0
 40
1.0
 71
1
 41
1.0
 91
-1023410177
 42
1.0
 72
1
  3

 73
1
 74
1
 75
1
 44
0.5
 73
0
 45
1.0
 46
1.0
 77
1
  4

 78
1
 79
1
170
1
 48
1.0
171
1
  6

172
1
173
1
174
1
140
1.0
141
1.0
175
1
  7

176
1
177
1
178
1
143
1.0
179
1
  8

270
1
271
1
272
1
145
1.0
146
1.0
273
1
  9

274
1
275
1
276
1
 42
1.0
 72
1
  3

 73
1
 74
1
 75
1
 94
63
  0
MLINESTYLE
  5
22
102
{ACAD_REACTORS
330
10
102
}
330
10
100
AcDbMlineStyle
  2
Standard
 70
0
  3

 62
256
 51
90.0
 52
90.0
 71
2
 49
0.5
 62
256
  6
BYLAYER
 49
-0.5
 62
256
  6
BYLAYER
  0
MLEADERSTYLE
  5
2C
102
{ACAD_REACTORS
330
F
102
}
330
F
100
AcDbMLeaderStyle
179
2
170
2
171
1
172
0
 90
2
 40
0.0
 41
0.0
173
1
 91
-1056964608
 92
-2
290
1
 42
2.0
291
1
 43
8.0
  3
Standard
 44
4.0
300

342
29
174
1
175
1
176
0
178
1
 93
-1056964608
 45
4.0
292
0
297
0
 46
4.0
 94
-1056964608
 47
1.0
 49
1.0
140
1.0
294
1
141
0.0
177
0
142
1.0
295
0
296
0
143
3.75
271
0
272
9
273
9
  0
DICTIONARY
  5
2D
330
A
100
AcDbDictionary
280
1
281
1
  3
CREATED_BY_EZDXF
350
2E
  3
WRITTEN_BY_EZDXF
350
475
  0
DICTIONARYVAR
  5
2E
330
2D
100
DictionaryVariables
280
0
  1
1.4.4 @ 2026-07-15T06:51:20.339552+00:00
  0
VISUALSTYLE
  5
5A
102
{ACAD_REACTORS
330
16
102
}
330
16
100
AcDbVisualStyle
  2
2dWireframe
 70
4
 90
0
 40
0.6
 62
7
290
0
291
0
  0
VISUALSTYLE
  5
5B
102
{ACAD_REACTORS
330
16
102
}
330
16
100
AcDbVisualStyle
  2
Basic
 70
7
 90
1
 40
0.6
 62
7
290
0
291
1
  0
VISUALSTYLE
  5
5C
102
{ACAD_REACTORS
330
16
102
}
330
16
100
AcDbVisualStyle
  2
Brighten
 70
12
 90
2
 40
0.6
 62
7
290
0
291
1
  0
VISUALSTYLE
  5
5D
102
{ACAD_REACTORS
330
16
102
}
330
16
100
AcDbVisualStyle
  2
ColorChange
 70
16
 90
2
 40
0.6
 62
8
290
0
291
1
  0
VISUALSTYLE
  5
5E
102
{ACAD_REACTORS
330
16
102
}
330
16
100
AcDbVisualStyle
  2
Conceptual
 70
9
 90
3
 40
0.6
 62
7
290
0
291
0
  0
VISUALSTYLE
  5
5F
102
{ACAD_REACTORS
330
16
102
}
330
16
100
AcDbVisualStyle
  2
Dim
 70
11
 90
2
 40
0.6
 62
7
290
0
291
1
  0
VISUALSTYLE
  5
60
102
{ACAD_REACTORS
330
16
102
}
330
16
100
AcDbVisualStyle
  2
EdgeColorOff
 70
22
 90
2
 40
0.6
 62
7
290
0
291
1
  0
VISUALSTYLE
  5
61
102
{ACAD_REACTORS
330
16
102
}
330
16
100
AcDbVisualStyle
  2
Facepattern
 70
15
 90
2
 40
0.6
 62
7
290
0
291
1
  0
VISUALSTYLE
  5
62
102
{ACAD_REACTORS
330
16
102
}
330
16
100
AcDbVisualStyle
  2
Flat
 70
0
 90
2
 40
0.6
 62
7
290
0
291
1
  0
VISUALSTYLE
  5
63
102
{ACAD_REACTORS
330
16
102
}
330
16
100
AcDbVisualStyle
  2
FlatWithEdges
 70
1
 90
2
 40
0.6
 62
7
290
0
291
1
  0
VISUALSTYLE
  5
64
102
{ACAD_REACTORS
330
16
102
}
330
16
100
AcDbVisualStyle
  2
Gouraud
 70
2
 90
2
 40
0.6
 62
7
290
0
291
1
  0
VISUALSTYLE
  5
65
102
{ACAD_REACTORS
330
16
102
}
330
16
100
AcDbVisualStyle
  2
GouraudWithEdges
 70
3
 90
2
 40
0.6
 62
7
290
0
291
1
  0
VISUALSTYLE
  5
66
102
{ACAD_REACTORS
330
16
102
}
330
16
100
AcDbVisualStyle
  2
Hidden
 70
6
 90
1
 40
0.6
 62
7
290
0
291
0
  0
VISUALSTYLE
  5
67
102
{ACAD_REACTORS
330
16
102
}
330
16
100
AcDbVisualStyle
  2
JitterOff
 70
20
 90
2
 40
0.6
 62
7
290
0
291
1
  0
VISUALSTYLE
  5
68
102
{ACAD_REACTORS
330
16
102
}
330
16
100
AcDbVisualStyle
  2
Linepattern
 70
14
 90
2
 40
0.6
 62
7
290
0
291
1
  0
VISUALSTYLE
  5
69
102
{ACAD_REACTORS
330
16
102
}
330
16
100
AcDbVisualStyle
  2
Modeling
 70
10
 90
2
 40
0.6
 62
7
290
0
291
0
  0
VISUALSTYLE
  5
6A
102
{ACAD_REACTORS
330
16
102
}
330
16
100
AcDbVisualStyle
  2
OverhangOff
 70
21
 90
2
 40
0.6
 62
7
290
0
291
1
  0
VISUALSTYLE
  5
6B
102
{ACAD_REACTORS
330
16
102
}
330
16
100
AcDbVisualStyle
  2
Realistic
 70
8
 90
2
 40
0.6
 62
7
290
0
291
0
  0
VISUALSTYLE
  5
6C
102
{ACAD_REACTORS
330
16
102
}
330
16
100
AcDbVisualStyle
  2
Shaded
 70
27
 90
2
 40
0.6
 62
7
290
0
291
0
  0
VISUALSTYLE
  5
6D
102
{ACAD_REACTORS
330
16
102
}
330
16
100
AcDbVisualStyle
  2
Shaded with edges
 70
26
 90
2
 40
0.6
 62
7
290
0
291
0
  0
VISUALSTYLE
  5
6E
102
{ACAD_REACTORS
330
16
102
}
330
16
100
AcDbVisualStyle
  2
Shades of Gray
 70
23
 90
2
 40
0.6
 62
7
290
0
291
0
  0
VISUALSTYLE
  5
6F
102
{ACAD_REACTORS
330
16
102
}
330
16
100
AcDbVisualStyle
  2
Sketchy
 70
24
 90
1
 40
0.6
 62
7
290
0
291
0
  0
VISUALSTYLE
  5
70
102
{ACAD_REACTORS
330
16
102
}
330
16
100
AcDbVisualStyle
  2
Thicken
 70
13
 90
2
 40
0.6
 62
7
290
0
291
1
  0
VISUALSTYLE
  5
71
102
{ACAD_REACTORS
330
16
102
}
330
16
100
AcDbVisualStyle
  2
Wireframe
 70
5
 90
0
 40
0.6
 62
7
290
0
291
0
  0
VISUALSTYLE
  5
72
102
{ACAD_REACTORS
330
16
102
}
330
16
100
AcDbVisualStyle
  2
X-Ray
 70
25
 90
2
 40
0.5
 62
7
290
0
291
0
  0
DICTIONARYVAR
  5
475
330
2D
100
DictionaryVariables
280
0
  1
1.4.4 @ 2026-07-15T06:51:20.352028+00:00
  0
ENDSEC
  0
EOF
