0
SECTION
2
HEADER
9
$ACADVER
1
AC1009
9
$MEASUREMENT
70
1
0
ENDSEC
0
SECTION
2
TABLES
0
TABLE
2
LAYER
70
13
0
LAYER
2
0
70
0
62
7
6
CONTINUOUS
0
LAYER
2
BALLOON
70
0
62
7
6
CONTINUOUS
0
LAYER
2
BORDER
70
0
62
7
6
CONTINUOUS
0
LAYER
2
CONTINUATION
70
0
62
7
6
CONTINUOUS
0
LAYER
2
DIM
70
0
62
7
6
CONTINUOUS
0
LAYER
2
LABEL
70
0
62
7
6
CONTINUOUS
0
LAYER
2
NOTES
70
0
62
7
6
CONTINUOUS
0
LAYER
2
OBJECT
70
0
62
7
6
CONTINUOUS
0
LAYER
2
PIPE_20NB
70
0
62
7
6
CONTINUOUS
0
LAYER
2
PIPE_25NB
70
0
62
7
6
CONTINUOUS
0
LAYER
2
REVIEW
70
0
62
1
6
CONTINUOUS
0
LAYER
2
TABLE
70
0
62
7
6
CONTINUOUS
0
LAYER
2
TITLE
70
0
62
7
6
CONTINUOUS
0
ENDTAB
0
ENDSEC
0
SECTION
2
ENTITIES
0
LINE
8
BORDER
10
8.0000
20
8.0000
30
0
11
586.0000
21
8.0000
31
0
0
LINE
8
BORDER
10
586.0000
20
8.0000
30
0
11
586.0000
21
412.0000
31
0
0
LINE
8
BORDER
10
586.0000
20
412.0000
30
0
11
8.0000
21
412.0000
31
0
0
LINE
8
BORDER
10
8.0000
20
412.0000
30
0
11
8.0000
21
8.0000
31
0
0
LINE
8
BORDER
10
11.0000
20
11.0000
30
0
11
583.0000
21
11.0000
31
0
0
LINE
8
BORDER
10
583.0000
20
11.0000
30
0
11
583.0000
21
409.0000
31
0
0
LINE
8
BORDER
10
583.0000
20
409.0000
30
0
11
11.0000
21
409.0000
31
0
0
LINE
8
BORDER
10
11.0000
20
409.0000
30
0
11
11.0000
21
11.0000
31
0
0
TEXT
8
TITLE
10
18.0000
20
397.0000
30
0
40
3.2000
1
IF IN DOUBT, PLEASE ASK
50
0.0000
7
STANDARD
0
TEXT
8
TITLE
10
575.0000
20
397.0000
30
0
40
3.2000
1
DO NOT SCALE
50
0.0000
7
STANDARD
0
TEXT
8
REVIEW
10
297.0000
20
399.0000
30
0
40
5.0000
1
DRAFT FOR TECHNICAL REVIEW - NOT FOR FABRICATION
50
0.0000
7
STANDARD
0
LINE
8
PIPE_25NB
10
154.0000
20
314.0000
30
0
11
342.0000
21
143.0000
31
0
0
TEXT
8
LABEL
10
240.0000
20
234.0000
30
0
40
3.0000
1
1" NS
50
-42.2889
7
STANDARD
0
LINE
8
DIM
10
154.0000
20
314.0000
30
0
11
162.7473
21
323.6169
31
0
0
LINE
8
DIM
10
342.0000
20
143.0000
30
0
11
350.7473
21
152.6169
31
0
0
LINE
8
DIM
10
161.4016
20
322.1374
30
0
11
349.4016
21
151.1374
31
0
0
SOLID
8
DIM
10
161.4016
20
322.1374
30
0
11
160.4402
21
324.3501
31
0
12
159.1079
22
322.8853
32
0
13
159.1079
23
322.8853
33
0
0
SOLID
8
DIM
10
349.4016
20
151.1374
30
0
11
350.3629
21
148.9247
31
0
12
351.6952
22
150.3894
32
0
13
351.6952
23
150.3894
33
0
0
TEXT
8
DIM
10
256.4109
20
237.7470
30
0
40
2.8000
1
923 PIPE SPOOL
50
-42.2889
7
STANDARD
0
LINE
8
DIM
10
133.0000
20
333.0000
30
0
11
152.5029
21
354.4625
31
0
0
LINE
8
DIM
10
363.0000
20
124.0000
30
0
11
382.5029
21
145.4625
31
0
0
LINE
8
DIM
10
151.1578
20
352.9823
30
0
11
381.1578
21
143.9823
31
0
0
SOLID
8
DIM
10
151.1578
20
352.9823
30
0
11
150.1954
21
355.1945
31
0
12
148.8639
22
353.7292
32
0
13
148.8639
23
353.7292
33
0
0
SOLID
8
DIM
10
381.1578
20
143.9823
30
0
11
382.1202
21
141.7701
31
0
12
383.4518
22
143.2355
32
0
13
383.4518
23
143.2355
33
0
0
TEXT
8
DIM
10
267.1666
20
249.5924
30
0
40
2.8000
1
1190 OVERALL
50
-42.2613
7
STANDARD
0
LINE
8
PIPE_25NB
10
154.0000
20
314.0000
30
0
11
133.0000
21
333.0000
31
0
0
LINE
8
OBJECT
10
127.6405
20
331.8822
30
0
11
133.6963
21
338.5401
31
0
0
LINE
8
OBJECT
10
130.3037
20
329.4599
30
0
11
136.3595
21
336.1178
31
0
0
LINE
8
OBJECT
10
122.6405
20
335.8822
30
0
11
128.6963
21
342.5401
31
0
0
LINE
8
OBJECT
10
125.3037
20
333.4599
30
0
11
131.3595
21
340.1178
31
0
0
CIRCLE
8
BALLOON
10
119.0000
20
347.0000
30
0
40
3.1000
0
TEXT
8
BALLOON
10
119.0000
20
346.1000
30
0
40
2.4000
1
7
50
0.0000
7
STANDARD
0
LINE
8
BALLOON
10
122.1000
20
347.0000
30
0
11
130.0000
21
336.0000
31
0
0
CIRCLE
8
BALLOON
10
112.0000
20
354.0000
30
0
40
3.1000
0
TEXT
8
BALLOON
10
112.0000
20
353.1000
30
0
40
2.4000
1
8
50
0.0000
7
STANDARD
0
LINE
8
BALLOON
10
115.1000
20
354.0000
30
0
11
126.0000
21
340.0000
31
0
0
CIRCLE
8
BALLOON
10
144.0000
20
327.0000
30
0
40
3.1000
0
TEXT
8
BALLOON
10
144.0000
20
326.1000
30
0
40
2.4000
1
1
50
0.0000
7
STANDARD
0
LINE
8
BALLOON
10
147.1000
20
327.0000
30
0
11
153.0000
21
314.0000
31
0
0
TEXT
8
LABEL
10
143.0000
20
337.0000
30
0
40
2.7000
1
1" NS
50
-42.2889
7
STANDARD
0
LINE
8
PIPE_20NB
10
154.0000
20
314.0000
30
0
11
154.0000
21
290.0000
31
0
0
LINE
8
PIPE_20NB
10
154.0000
20
290.0000
30
0
11
134.0000
21
272.0000
31
0
0
LINE
8
PIPE_20NB
10
134.0000
20
272.0000
30
0
11
91.0000
21
259.0000
31
0
0
LINE
8
OBJECT
10
114.2219
20
266.3810
30
0
11
109.1576
21
260.6712
31
0
0
LINE
8
OBJECT
10
109.1576
20
260.6712
30
0
11
101.7781
21
262.6190
31
0
0
LINE
8
OBJECT
10
101.7781
20
262.6190
30
0
11
106.8424
21
268.3288
31
0
0
LINE
8
OBJECT
10
106.8424
20
268.3288
30
0
11
114.2219
21
266.3810
31
0
0
LINE
8
OBJECT
10
88.4207
20
262.8284
30
0
11
91.0252
21
254.2134
31
0
0
LINE
8
OBJECT
10
84.9748
20
261.7866
30
0
11
87.5793
21
253.1716
31
0
0
CIRCLE
8
BALLOON
10
144.0000
20
286.0000
30
0
40
3.1000
0
TEXT
8
BALLOON
10
144.0000
20
285.1000
30
0
40
2.4000
1
2
50
0.0000
7
STANDARD
0
LINE
8
BALLOON
10
147.1000
20
286.0000
30
0
11
153.0000
21
292.0000
31
0
0
CIRCLE
8
BALLOON
10
127.0000
20
282.0000
30
0
40
3.1000
0
TEXT
8
BALLOON
10
127.0000
20
281.1000
30
0
40
2.4000
1
3
50
0.0000
7
STANDARD
0
LINE
8
BALLOON
10
130.1000
20
282.0000
30
0
11
136.0000
21
273.0000
31
0
0
CIRCLE
8
BALLOON
10
110.0000
20
278.0000
30
0
40
3.1000
0
TEXT
8
BALLOON
10
110.0000
20
277.1000
30
0
40
2.4000
1
4
50
0.0000
7
STANDARD
0
LINE
8
BALLOON
10
106.9000
20
278.0000
30
0
11
108.0000
21
265.0000
31
0
0
CIRCLE
8
BALLOON
10
79.0000
20
270.0000
30
0
40
3.1000
0
TEXT
8
BALLOON
10
79.0000
20
269.1000
30
0
40
2.4000
1
5
50
0.0000
7
STANDARD
0
LINE
8
BALLOON
10
82.1000
20
270.0000
30
0
11
89.0000
21
259.0000
31
0
0
TEXT
8
LABEL
10
112.0000
20
254.0000
30
0
40
2.7000
1
3/4" NS
50
16.8214
7
STANDARD
0
TEXT
8
DIM
10
97.0000
20
272.0000
30
0
40
2.4000
1
118
50
0.0000
7
STANDARD
0
TEXT
8
DIM
10
126.0000
20
278.0000
30
0
40
2.4000
1
72
50
0.0000
7
STANDARD
0
TEXT
8
DIM
10
149.0000
20
298.0000
30
0
40
2.4000
1
89
50
0.0000
7
STANDARD
0
LINE
8
CONTINUATION
10
342.0000
20
143.0000
30
0
11
367.0000
21
120.0000
31
0
0
TEXT
8
LABEL
10
350.0000
20
128.0000
30
0
40
2.6000
1
CONT. ON SHEET 2
50
0.0000
7
STANDARD
0
CIRCLE
8
BALLOON
10
350.0000
20
157.0000
30
0
40
3.1000
0
TEXT
8
BALLOON
10
350.0000
20
156.1000
30
0
40
2.4000
1
1
50
0.0000
7
STANDARD
0
LINE
8
BALLOON
10
346.9000
20
157.0000
30
0
11
343.0000
21
143.0000
31
0
0
LINE
8
PIPE_20NB
10
342.0000
20
143.0000
30
0
11
342.0000
21
119.0000
31
0
0
LINE
8
PIPE_20NB
10
342.0000
20
119.0000
30
0
11
322.0000
21
101.0000
31
0
0
LINE
8
PIPE_20NB
10
322.0000
20
101.0000
30
0
11
280.0000
21
88.0000
31
0
0
LINE
8
OBJECT
10
302.2094
20
95.4219
30
0
11
297.1827
21
89.6789
31
0
0
LINE
8
OBJECT
10
297.1827
20
89.6789
30
0
11
289.7906
21
91.5781
31
0
0
LINE
8
OBJECT
10
289.7906
20
91.5781
30
0
11
294.8173
21
97.3211
31
0
0
LINE
8
OBJECT
10
294.8173
20
97.3211
30
0
11
302.2094
21
95.4219
31
0
0
LINE
8
OBJECT
10
277.3889
20
91.8310
30
0
11
280.0501
21
83.2334
31
0
0
LINE
8
OBJECT
10
273.9499
20
90.7666
30
0
11
276.6111
21
82.1690
31
0
0
CIRCLE
8
BALLOON
10
332.0000
20
115.0000
30
0
40
3.1000
0
TEXT
8
BALLOON
10
332.0000
20
114.1000
30
0
40
2.4000
1
2
50
0.0000
7
STANDARD
0
LINE
8
BALLOON
10
335.1000
20
115.0000
30
0
11
341.0000
21
120.0000
31
0
0
CIRCLE
8
BALLOON
10
315.0000
20
111.0000
30
0
40
3.1000
0
TEXT
8
BALLOON
10
315.0000
20
110.1000
30
0
40
2.4000
1
3
50
0.0000
7
STANDARD
0
LINE
8
BALLOON
10
318.1000
20
111.0000
30
0
11
324.0000
21
102.0000
31
0
0
CIRCLE
8
BALLOON
10
298.0000
20
107.0000
30
0
40
3.1000
0
TEXT
8
BALLOON
10
298.0000
20
106.1000
30
0
40
2.4000
1
4
50
0.0000
7
STANDARD
0
LINE
8
BALLOON
10
294.9000
20
107.0000
30
0
11
296.0000
21
94.0000
31
0
0
CIRCLE
8
BALLOON
10
268.0000
20
99.0000
30
0
40
3.1000
0
TEXT
8
BALLOON
10
268.0000
20
98.1000
30
0
40
2.4000
1
5
50
0.0000
7
STANDARD
0
LINE
8
BALLOON
10
271.1000
20
99.0000
30
0
11
278.0000
21
88.0000
31
0
0
TEXT
8
LABEL
10
300.0000
20
83.0000
30
0
40
2.7000
1
3/4" NS
50
17.1985
7
STANDARD
0
TEXT
8
DIM
10
285.0000
20
102.0000
30
0
40
2.4000
1
118
50
0.0000
7
STANDARD
0
TEXT
8
DIM
10
314.0000
20
108.0000
30
0
40
2.4000
1
72
50
0.0000
7
STANDARD
0
TEXT
8
DIM
10
337.0000
20
127.0000
30
0
40
2.4000
1
89
50
0.0000
7
STANDARD
0
TEXT
8
TITLE
10
403.0000
20
337.0000
30
0
40
4.2000
1
GENERAL NOTES
50
0.0000
7
STANDARD
0
TEXT
8
NOTES
10
403.0000
20
327.0000
30
0
40
2.6500
1
1. ALL DIMENSIONS ARE IN mm.
50
0.0000
7
STANDARD
0
TEXT
8
NOTES
10
403.0000
20
320.0000
30
0
40
2.6500
1
2. FLANGE DRILLING: ASME B16.5, CLASS 150.
50
0.0000
7
STANDARD
0
TEXT
8
NOTES
10
403.0000
20
313.0000
30
0
40
2.6500
1
3. PTFE RESIN MATERIAL: ASTM D4895.
50
0.0000
7
STANDARD
0
TEXT
8
NOTES
10
403.0000
20
306.0000
30
0
40
2.6500
1
4. LINED PIPING REQUIREMENTS: ASTM F1545.
50
0.0000
7
STANDARD
0
TEXT
8
NOTES
10
403.0000
20
299.0000
30
0
40
2.6500
1
5. VERIFY LINER THICKNESS, FLANGE FACING AND TOLERANCES.
50
0.0000
7
STANDARD
0
TEXT
8
TITLE
10
403.0000
20
286.0000
30
0
40
4.0000
1
INSPECTION
50
0.0000
7
STANDARD
0
TEXT
8
NOTES
10
403.0000
20
277.0000
30
0
40
2.6500
1
HYDROSTATIC TEST: 29 kg/cm2 (CONFIRM PROCEDURE)
50
0.0000
7
STANDARD
0
TEXT
8
NOTES
10
403.0000
20
270.0000
30
0
40
2.6500
1
SPARK TEST: 15 kV (CONFIRM PROCEDURE)
50
0.0000
7
STANDARD
0
TEXT
8
NOTES
10
403.0000
20
261.0000
30
0
40
2.6500
1
PACKING: PROTECT ALL LINED FACES WITH WOOD/PLASTIC COVERS.
50
0.0000
7
STANDARD
0
LINE
8
REVIEW
10
400.0000
20
225.0000
30
0
11
583.0000
21
225.0000
31
0
0
LINE
8
REVIEW
10
583.0000
20
225.0000
30
0
11
583.0000
21
253.0000
31
0
0
LINE
8
REVIEW
10
583.0000
20
253.0000
30
0
11
400.0000
21
253.0000
31
0
0
LINE
8
REVIEW
10
400.0000
20
253.0000
30
0
11
400.0000
21
225.0000
31
0
0
TEXT
8
REVIEW
10
402.0000
20
245.0000
30
0
40
3.4000
1
DIMENSIONAL HOLD POINT
50
0.0000
7
STANDARD
0
TEXT
8
REVIEW
10
402.0000
20
237.0000
30
0
40
2.7000
1
SAMPLE LISTS 923/72; SOURCE CUT-LENGTH TABLE LISTS 1114/80.
50
0.0000
7
STANDARD
0
TEXT
8
REVIEW
10
402.0000
20
230.0000
30
0
40
2.7000
1
OBTAIN APPROVED LINED-FITTING DATA BEFORE FABRICATION.
50
0.0000
7
STANDARD
0
LINE
8
TABLE
10
400.0000
20
97.0000
30
0
11
573.0000
21
97.0000
31
0
0
LINE
8
TABLE
10
573.0000
20
97.0000
30
0
11
573.0000
21
174.0000
31
0
0
LINE
8
TABLE
10
573.0000
20
174.0000
30
0
11
400.0000
21
174.0000
31
0
0
LINE
8
TABLE
10
400.0000
20
174.0000
30
0
11
400.0000
21
97.0000
31
0
0
LINE
8
TABLE
10
412.0000
20
97.0000
30
0
11
412.0000
21
174.0000
31
0
0
LINE
8
TABLE
10
504.0000
20
97.0000
30
0
11
504.0000
21
174.0000
31
0
0
LINE
8
TABLE
10
532.0000
20
97.0000
30
0
11
532.0000
21
174.0000
31
0
0
LINE
8
TABLE
10
557.0000
20
97.0000
30
0
11
557.0000
21
174.0000
31
0
0
LINE
8
TABLE
10
400.0000
20
167.0000
30
0
11
573.0000
21
167.0000
31
0
0
LINE
8
TABLE
10
400.0000
20
160.0000
30
0
11
573.0000
21
160.0000
31
0
0
LINE
8
TABLE
10
400.0000
20
153.0000
30
0
11
573.0000
21
153.0000
31
0
0
LINE
8
TABLE
10
400.0000
20
146.0000
30
0
11
573.0000
21
146.0000
31
0
0
LINE
8
TABLE
10
400.0000
20
139.0000
30
0
11
573.0000
21
139.0000
31
0
0
LINE
8
TABLE
10
400.0000
20
132.0000
30
0
11
573.0000
21
132.0000
31
0
0
LINE
8
TABLE
10
400.0000
20
125.0000
30
0
11
573.0000
21
125.0000
31
0
0
LINE
8
TABLE
10
400.0000
20
118.0000
30
0
11
573.0000
21
118.0000
31
0
0
LINE
8
TABLE
10
400.0000
20
111.0000
30
0
11
573.0000
21
111.0000
31
0
0
LINE
8
TABLE
10
400.0000
20
104.0000
30
0
11
573.0000
21
104.0000
31
0
0
TEXT
8
TABLE
10
406.0000
20
169.3250
30
0
40
2.3500
1
ITEM
50
0.0000
7
STANDARD
0
TEXT
8
TABLE
10
413.2000
20
169.3250
30
0
40
2.3500
1
DESCRIPTION
50
0.0000
7
STANDARD
0
TEXT
8
TABLE
10
505.2000
20
169.3250
30
0
40
2.3500
1
SIZE
50
0.0000
7
STANDARD
0
TEXT
8
TABLE
10
533.2000
20
169.3250
30
0
40
2.3500
1
LENGTH
50
0.0000
7
STANDARD
0
TEXT
8
TABLE
10
565.0000
20
169.3250
30
0
40
2.3500
1
QTY
50
0.0000
7
STANDARD
0
TEXT
8
TABLE
10
406.0000
20
162.3250
30
0
40
2.3500
1
*
50
0.0000
7
STANDARD
0
TEXT
8
TABLE
10
413.2000
20
162.3250
30
0
40
2.3500
1
GASKET, SPIRAL, CLASS 150
50
0.0000
7
STANDARD
0
TEXT
8
TABLE
10
505.2000
20
162.3250
30
0
40
2.3500
1
25NB
50
0.0000
7
STANDARD
0
TEXT
8
TABLE
10
533.2000
20
162.3250
30
0
40
2.3500
1
-
50
0.0000
7
STANDARD
0
TEXT
8
TABLE
10
565.0000
20
162.3250
30
0
40
2.3500
1
1
50
0.0000
7
STANDARD
0
TEXT
8
TABLE
10
406.0000
20
155.3250
30
0
40
2.3500
1
*
50
0.0000
7
STANDARD
0
TEXT
8
TABLE
10
413.2000
20
155.3250
30
0
40
2.3500
1
GASKET, SPIRAL, CLASS 150
50
0.0000
7
STANDARD
0
TEXT
8
TABLE
10
505.2000
20
155.3250
30
0
40
2.3500
1
20NB
50
0.0000
7
STANDARD
0
TEXT
8
TABLE
10
533.2000
20
155.3250
30
0
40
2.3500
1
-
50
0.0000
7
STANDARD
0
TEXT
8
TABLE
10
565.0000
20
155.3250
30
0
40
2.3500
1
4
50
0.0000
7
STANDARD
0
TEXT
8
TABLE
10
406.0000
20
148.3250
30
0
40
2.3500
1
8
50
0.0000
7
STANDARD
0
TEXT
8
TABLE
10
413.2000
20
148.3250
30
0
40
2.3500
1
BLIND FLANGE
50
0.0000
7
STANDARD
0
TEXT
8
TABLE
10
505.2000
20
148.3250
30
0
40
2.3500
1
25NB
50
0.0000
7
STANDARD
0
TEXT
8
TABLE
10
533.2000
20
148.3250
30
0
40
2.3500
1
17
50
0.0000
7
STANDARD
0
TEXT
8
TABLE
10
565.0000
20
148.3250
30
0
40
2.3500
1
1
50
0.0000
7
STANDARD
0
TEXT
8
TABLE
10
406.0000
20
141.3250
30
0
40
2.3500
1
7
50
0.0000
7
STANDARD
0
TEXT
8
TABLE
10
413.2000
20
141.3250
30
0
40
2.3500
1
PTFE SOLID SPACER
50
0.0000
7
STANDARD
0
TEXT
8
TABLE
10
505.2000
20
141.3250
30
0
40
2.3500
1
25NB
50
0.0000
7
STANDARD
0
TEXT
8
TABLE
10
533.2000
20
141.3250
30
0
40
2.3500
1
5
50
0.0000
7
STANDARD
0
TEXT
8
TABLE
10
565.0000
20
141.3250
30
0
40
2.3500
1
1
50
0.0000
7
STANDARD
0
TEXT
8
TABLE
10
406.0000
20
134.3250
30
0
40
2.3500
1
6
50
0.0000
7
STANDARD
0
TEXT
8
TABLE
10
413.2000
20
134.3250
30
0
40
2.3500
1
PIPE SPOOL - VERIFY LENGTH
50
0.0000
7
STANDARD
0
TEXT
8
TABLE
10
505.2000
20
134.3250
30
0
40
2.3500
1
25NB
50
0.0000
7
STANDARD
0
TEXT
8
TABLE
10
533.2000
20
134.3250
30
0
40
2.3500
1
923
50
0.0000
7
STANDARD
0
TEXT
8
TABLE
10
565.0000
20
134.3250
30
0
40
2.3500
1
1
50
0.0000
7
STANDARD
0
TEXT
8
TABLE
10
406.0000
20
127.3250
30
0
40
2.3500
1
5
50
0.0000
7
STANDARD
0
TEXT
8
TABLE
10
413.2000
20
127.3250
30
0
40
2.3500
1
BLIND FLANGE
50
0.0000
7
STANDARD
0
TEXT
8
TABLE
10
505.2000
20
127.3250
30
0
40
2.3500
1
20NB
50
0.0000
7
STANDARD
0
TEXT
8
TABLE
10
533.2000
20
127.3250
30
0
40
2.3500
1
17
50
0.0000
7
STANDARD
0
TEXT
8
TABLE
10
565.0000
20
127.3250
30
0
40
2.3500
1
2
50
0.0000
7
STANDARD
0
TEXT
8
TABLE
10
406.0000
20
120.3250
30
0
40
2.3500
1
4
50
0.0000
7
STANDARD
0
TEXT
8
TABLE
10
413.2000
20
120.3250
30
0
40
2.3500
1
BALL VALVE
50
0.0000
7
STANDARD
0
TEXT
8
TABLE
10
505.2000
20
120.3250
30
0
40
2.3500
1
20NB
50
0.0000
7
STANDARD
0
TEXT
8
TABLE
10
533.2000
20
120.3250
30
0
40
2.3500
1
118
50
0.0000
7
STANDARD
0
TEXT
8
TABLE
10
565.0000
20
120.3250
30
0
40
2.3500
1
2
50
0.0000
7
STANDARD
0
TEXT
8
TABLE
10
406.0000
20
113.3250
30
0
40
2.3500
1
3
50
0.0000
7
STANDARD
0
TEXT
8
TABLE
10
413.2000
20
113.3250
30
0
40
2.3500
1
PIPE SPOOL - VERIFY LENGTH
50
0.0000
7
STANDARD
0
TEXT
8
TABLE
10
505.2000
20
113.3250
30
0
40
2.3500
1
20NB
50
0.0000
7
STANDARD
0
TEXT
8
TABLE
10
533.2000
20
113.3250
30
0
40
2.3500
1
72
50
0.0000
7
STANDARD
0
TEXT
8
TABLE
10
565.0000
20
113.3250
30
0
40
2.3500
1
2
50
0.0000
7
STANDARD
0
TEXT
8
TABLE
10
406.0000
20
106.3250
30
0
40
2.3500
1
2
50
0.0000
7
STANDARD
0
TEXT
8
TABLE
10
413.2000
20
106.3250
30
0
40
2.3500
1
90 DEG ELBOW
50
0.0000
7
STANDARD
0
TEXT
8
TABLE
10
505.2000
20
106.3250
30
0
40
2.3500
1
20NB
50
0.0000
7
STANDARD
0
TEXT
8
TABLE
10
533.2000
20
106.3250
30
0
40
2.3500
1
89 C/H
50
0.0000
7
STANDARD
0
TEXT
8
TABLE
10
565.0000
20
106.3250
30
0
40
2.3500
1
2
50
0.0000
7
STANDARD
0
TEXT
8
TABLE
10
406.0000
20
99.3250
30
0
40
2.3500
1
1
50
0.0000
7
STANDARD
0
TEXT
8
TABLE
10
413.2000
20
99.3250
30
0
40
2.3500
1
REDUCING TEE
50
0.0000
7
STANDARD
0
TEXT
8
TABLE
10
505.2000
20
99.3250
30
0
40
2.3500
1
25x20NB
50
0.0000
7
STANDARD
0
TEXT
8
TABLE
10
533.2000
20
99.3250
30
0
40
2.3500
1
89 C/H
50
0.0000
7
STANDARD
0
TEXT
8
TABLE
10
565.0000
20
99.3250
30
0
40
2.3500
1
2
50
0.0000
7
STANDARD
0
LINE
8
BORDER
10
400.0000
20
12.0000
30
0
11
583.0000
21
12.0000
31
0
0
LINE
8
BORDER
10
583.0000
20
12.0000
30
0
11
583.0000
21
90.0000
31
0
0
LINE
8
BORDER
10
583.0000
20
90.0000
30
0
11
400.0000
21
90.0000
31
0
0
LINE
8
BORDER
10
400.0000
20
90.0000
30
0
11
400.0000
21
12.0000
31
0
0
LINE
8
BORDER
10
400.0000
20
79.0000
30
0
11
583.0000
21
79.0000
31
0
0
LINE
8
BORDER
10
400.0000
20
69.0000
30
0
11
583.0000
21
69.0000
31
0
0
LINE
8
BORDER
10
400.0000
20
59.0000
30
0
11
583.0000
21
59.0000
31
0
0
LINE
8
BORDER
10
400.0000
20
49.0000
30
0
11
583.0000
21
49.0000
31
0
0
LINE
8
BORDER
10
400.0000
20
30.0000
30
0
11
583.0000
21
30.0000
31
0
0
LINE
8
BORDER
10
455.0000
20
12.0000
30
0
11
455.0000
21
49.0000
31
0
0
LINE
8
BORDER
10
505.0000
20
12.0000
30
0
11
505.0000
21
49.0000
31
0
0
LINE
8
BORDER
10
545.0000
20
12.0000
30
0
11
545.0000
21
49.0000
31
0
0
TEXT
8
TITLE
10
491.5000
20
82.0000
30
0
40
4.1000
1
CORROSION RESISTANT EQUIPMENT PVT LTD
50
0.0000
7
STANDARD
0
TEXT
8
TITLE
10
402.0000
20
72.0000
30
0
40
2.7000
1
CUSTOMER: ENGINEERS INDIA LTD., NEW DELHI
50
0.0000
7
STANDARD
0
TEXT
8
TITLE
10
402.0000
20
62.0000
30
0
40
2.7000
1
PROJECT: MIL PROJECT, TNT PLANT, HEF KHADKI, PUNE
50
0.0000
7
STANDARD
0
TEXT
8
TITLE
10
402.0000
20
52.0000
30
0
40
2.8000
1
LINE NO.: 1"-SNA-418-1507-A82Y-G
50
0.0000
7
STANDARD
0
TEXT
8
TITLE
10
402.0000
20
41.0000
30
0
40
2.4500
1
DRAWN: PRACTICE SAMPLE
50
0.0000
7
STANDARD
0
TEXT
8
TITLE
10
457.0000
20
41.0000
30
0
40
2.4500
1
DATE: 13.07.2026
50
0.0000
7
STANDARD
0
TEXT
8
TITLE
10
507.0000
20
41.0000
30
0
40
2.4500
1
SCALE: NTS
50
0.0000
7
STANDARD
0
TEXT
8
TITLE
10
547.0000
20
41.0000
30
0
40
2.4500
1
REV: P0
50
0.0000
7
STANDARD
0
TEXT
8
TITLE
10
402.0000
20
34.0000
30
0
40
2.4500
1
CHECKED: -
50
0.0000
7
STANDARD
0
TEXT
8
TITLE
10
457.0000
20
34.0000
30
0
40
2.4500
1
APPROVED: -
50
0.0000
7
STANDARD
0
TEXT
8
TITLE
10
507.0000
20
34.0000
30
0
40
2.4500
1
SHEET: 1 OF 4
50
0.0000
7
STANDARD
0
TEXT
8
REVIEW
10
402.0000
20
21.0000
30
0
40
3.0000
1
STATUS: DRAFT FOR TECHNICAL REVIEW
50
0.0000
7
STANDARD
0
ENDSEC
0
EOF
